<svg width="2223" height="354" viewBox="0 0 2223 354" fill="none" xmlns="http://www.w3.org/2000/svg">
<g clip-path="url(#clip0_102_353)">
<path d="M354.574 353.772C275.573 353.772 205.813 302.574 182.585 227.534L112.183 0.179688H245.104L354.574 353.772Z" fill="white"/>
<path d="M67.7033 353.777C104.552 353.777 134.423 324.094 134.423 287.478C134.423 250.863 104.552 221.18 67.7033 221.18C30.8548 221.18 0.983154 250.863 0.983154 287.478C0.983154 324.094 30.8548 353.777 67.7033 353.777Z" fill="white"/>
<path d="M704.312 262.938L691.122 227.355H616.288L603.367 262.938H560.028L634.054 74.2383H672.548L748.728 262.938H704.312ZM653.705 124.109L628.94 191.771H678.47L653.705 124.109Z" fill="white"/>
<path d="M996.506 284.12H988.639C967.177 284.12 946.782 274.762 932.786 258.492C919.881 264.696 904.825 267.934 888.962 267.934C831.425 267.934 788.407 225.31 788.407 169.197C788.407 113.354 831.425 70.7305 888.962 70.7305C946.229 70.7305 988.978 113.085 988.978 169.197C988.978 198.063 977.686 223.152 959.135 240.957L996.506 284.12ZM888.962 229.356C894.877 229.356 900.523 228.547 905.631 226.928L868.259 183.495H874.782C897.091 183.495 918.283 193.253 932.786 210.203C942.196 199.681 947.574 185.384 947.574 169.197C947.574 134.936 922.569 109.308 888.962 109.308C855.354 109.308 829.812 135.206 829.812 169.197C829.812 203.188 855.354 229.356 888.962 229.356Z" fill="white"/>
<path d="M1128.02 266.465C1083.03 266.465 1049.41 235.591 1049.41 191.561V74.2383H1090.62V189.682C1090.62 213.039 1106.07 228.074 1128.02 228.074C1149.71 228.074 1165.16 213.039 1165.16 189.682V74.2383H1206.37V191.561C1206.37 235.591 1172.75 266.465 1128.02 266.465Z" fill="white"/>
<path d="M1394.53 262.938L1381.28 227.355H1306.1L1293.12 262.938H1249.57L1323.95 74.2383H1362.62L1439.16 262.938H1394.53ZM1343.69 124.109L1318.81 191.771H1368.57L1343.69 124.109Z" fill="white"/>
<path d="M1613.69 74.2383H1654.31V262.938H1619.69L1533.28 145.136V262.938H1492.94V74.2383H1530.01L1613.69 189.345V74.2383Z" fill="white"/>
<path d="M1814.18 266.485C1756.51 266.485 1713.39 224.174 1713.39 168.474C1713.39 113.041 1756.51 70.7305 1814.18 70.7305C1871.58 70.7305 1914.43 112.773 1914.43 168.474C1914.43 224.442 1871.58 266.485 1814.18 266.485ZM1814.18 228.191C1847.87 228.191 1872.93 202.483 1872.93 168.474C1872.93 134.464 1847.87 109.024 1814.18 109.024C1780.49 109.024 1754.89 134.732 1754.89 168.474C1754.89 202.215 1780.49 228.191 1814.18 228.191Z" fill="white"/>
<path d="M2179.58 74.2383H2222.17L2163.94 262.938H2127.55L2085.5 157.266L2044.52 262.938H2008.13L1948.82 74.2383H1991.95L2029.15 199.858L2078.76 76.3949H2092.51L2143.19 199.589L2179.58 74.2383Z" fill="white"/>
</g>
<defs>
<clipPath id="clip0_102_353">
<rect width="2222" height="354" fill="white" transform="translate(0.983154)"/>
</clipPath>
</defs>
</svg>
