<svg xmlns="http://www.w3.org/2000/svg" id="Laag_1" data-name="Laag 1" viewBox="-0.02 211.03 500.08 77.98">
  <defs>
    <style>.cls-1{fill:#1a3767;}</style>
  </defs>
  <title>Tekengebied 1</title>
  <path class="cls-1" d="M170.74,257.43a90.81,90.81,0,0,0,10.18-.3,23.12,23.12,0,0,0,19.62-25.2c-.94-11.42-11.12-20.77-22.91-20.77H113.81v77.69h14.68v-64.6c.56,0,1-.09,1.37-.09q24,0,48,0a9.35,9.35,0,0,1,3,.51c4.69,1.6,7.29,6.27,6.46,11.45a9.61,9.61,0,0,1-9.73,8.39q-19.78,0-39.57,0h-1.5a8.89,8.89,0,0,0,1.65,2q6,5.77,12,11.53,15.78,15.11,31.59,30.17a2.86,2.86,0,0,0,1.79.7c5.61.05,11.21,0,16.82,0h1.24l-32.9-31.5Z"/>
  <path class="cls-1" d="M306.86,243.15q-19.58,0-39.16,0a15.73,15.73,0,0,1-3.82-.37,9.42,9.42,0,0,1-7.07-10.54,9.54,9.54,0,0,1,9.54-8.07q24.48,0,48.95,0a2.22,2.22,0,0,0,2.19-1.21c2.19-3.56,4.45-7.07,6.69-10.61.2-.33.37-.68.66-1.2h-1.45q-28.75,0-57.5,0a21.84,21.84,0,0,0-3.7.33,22.43,22.43,0,0,0-7.85,41.09c4.56,2.85,9.56,3.5,14.79,3.48,12.55-.06,25.1,0,37.65,0,5.61,0,9.64,4.11,9.64,9.81s-4,9.92-9.69,9.92H269c-4.69,0-9.38,0-14.07,0a1.84,1.84,0,0,0-1.37.57c-2.65,4.07-5.24,8.18-8,12.5.49,0,.71.05.93.05q30.41,0,60.81,0a20.87,20.87,0,0,0,5-.68c10.36-2.6,17-11.49,17-22.56A22.32,22.32,0,0,0,306.86,243.15Z"/>
  <path class="cls-1" d="M60.77,213.46a4.66,4.66,0,0,0-4.27-2.31,30.46,30.46,0,0,1-3.31,0c-2.75-.26-4.52.93-6,3.25q-22,34.83-44.1,69.6c-1,1.57-2,3.16-3.11,4.94H1.56c4.41,0,8.82,0,13.23,0a2.11,2.11,0,0,0,2.08-1.14c4.24-6.78,8.56-13.5,12.8-20.27a2.25,2.25,0,0,1,2.18-1.23c9.1.05,18.21,0,27.31.05a2.12,2.12,0,0,0,2.08-1.16c2.11-3.45,4.31-6.84,6.47-10.26.21-.34.39-.69.77-1.35H38.54c5.3-8.37,10.47-16.51,15.76-24.85.49.76.84,1.29,1.17,1.82q18,28.45,36.06,56.92A2.74,2.74,0,0,0,94.26,289c4.27-.09,8.55,0,12.82,0h1.47a8.71,8.71,0,0,0-.41-.77Z"/>
  <path class="cls-1" d="M499,287.3q-13.06-20.58-26.12-41.18Q462.63,230,452.38,213.77a5.05,5.05,0,0,0-4.79-2.63q-1.86.09-3.72,0a5.13,5.13,0,0,0-4.89,2.71q-23.3,36.78-46.62,73.54c-.29.45-.53.92-.89,1.54,5.06,0,9.92,0,14.78,0a2,2,0,0,0,2-1.06c4.25-6.77,8.57-13.49,12.8-20.27a2.45,2.45,0,0,1,2.42-1.3c9.06.05,18.11,0,27.17.05a2,2,0,0,0,2-1.08c1.33-2.21,2.74-4.35,4.12-6.53,1-1.61,2-3.23,3.23-5.14h-30l15.75-24.83c.36.52.58.81.78,1.12l10.92,17.22q12.94,20.42,25.91,40.82a2.05,2.05,0,0,0,1.3.94c5.05.07,10.1,0,15.41,0C499.57,288.23,499.3,287.76,499,287.3Z"/>
  <path class="cls-1" d="M408.94,224.15h1.67V211.1c-.47,0-.83-.07-1.19-.07q-34.59.06-69.2.11a1.81,1.81,0,0,0-1.75,1c-2.28,3.66-4.61,7.29-6.92,10.94-.18.29-.3.61-.53,1.07h34.92v64.69h14.71V287q0-30.33,0-60.66c0-2.43-.3-2.16,2.09-2.16Q395.85,224.14,408.94,224.15Z"/>
  <path class="cls-1" d="M215.53,288.86H230V211.29H215.53Z"/>
</svg>