<svg xmlns="http://www.w3.org/2000/svg" viewBox="0 0 1706.09 160.48"><defs><style>.cls-1{fill:#fff;}</style></defs><g id="Layer_2" data-name="Layer 2"><g id="Layer_1-2" data-name="Layer 1"><path class="cls-1" d="M1121.58,25.67c-8,2.14-15.21,4.36-21.59,6.7l-.85,124.89h-6.55l.84-122.32a99,99,0,0,0-20.1,10.84c-.11,1.42-.56,6.71-1.21,14.26-19.24-7.33-13.06-19.94,6.86-30.43C1110.68,14,1180.48,0,1180.48,0s-33.18-.6-94,16.23c-66,18.29-42.71,49.61-14.84,48.93-2.77,32.13-8,92.13-8,92.13h68.52l-6.55,0Z"/><path class="cls-1" d="M1128.08,24l4.17,133.28h31.15s-9.69-112.21-12.92-138.2C1142.4,20.68,1135,22.32,1128.08,24Z"/><path class="cls-1" d="M95.31,57.54C87.85,47.43,76,42.28,63.89,42.28,35.85,42.28,16,67,16,94.46c0,29.11,19.7,52.18,47.92,52.18,15.27,0,27.51-6.21,36.39-17.57l11.18,9.4c-11.18,15.09-27.51,22-47.57,22-36,0-63.89-27.86-63.89-66,0-36.92,26.62-66,63.89-66,17,0,33.72,5.85,44.37,19.7Z"/><path class="cls-1" d="M164,31.63h79V45.47H178.88v39.4h59.81V98.72H178.88v44.72h67.27v13.85H164Z"/><path class="cls-1" d="M302.93,31.63h18.81L394.51,136h.35V31.63h14.91V157.29H391L318.19,52.93h-.36V157.29h-14.9Z"/><path class="cls-1" d="M557.06,45.47H515.53V157.29H500.62V45.47H459.09V31.63h98Z"/><path class="cls-1" d="M606.56,31.63h32.13c24.31,0,50,3.55,50,34.61,0,18.28-11.89,30.17-31.41,33.19L693,157.29H674.71l-34.07-56.44H621.47v56.44H606.56ZM621.47,87h13.31c16.51,0,38,0,38-20.76,0-18.1-15.79-20.77-30.35-20.77H621.47Z"/><path class="cls-1" d="M789.53,31.63h14L857,157.29H839.58L826.8,126.4H764l-13,30.89H734.15Zm6.74,19.17h-.35l-26.09,61.76h51.29Z"/><path class="cls-1" d="M907.36,31.63h14.9V143.44h57.51v13.85H907.36Z"/><path class="cls-1" d="M1328.63,54.35c-7.46-10.12-19.35-15.26-31.42-15.26-28,0-47.92,24.67-47.92,52.17,0,29.11,19.7,52.19,47.92,52.19,15.27,0,27.51-6.22,36.39-17.57l11.18,9.4c-11.18,15.08-27.51,22-47.57,22-36,0-63.89-27.87-63.89-66,0-36.91,26.63-66,63.89-66,17,0,33.73,5.86,44.37,19.7Z"/><path class="cls-1" d="M1399.25,28.44h14.91V154.09h-14.91Z"/><path class="cls-1" d="M1563.41,42.28h-41.53V154.09H1507V42.28h-41.53V28.44h98Z"/><path class="cls-1" d="M1644.32,100l-46.85-71.52h19l35.32,56.79,36.38-56.79h17.93L1659.23,100v54.13h-14.91Z"/></g></g></svg>