<svg xmlns="http://www.w3.org/2000/svg" id="verticals" viewBox="0 0 640 804"><defs><style>.cls-1{fill:#008ecf}.cls-2{fill:#09263c}</style></defs><path d="M309.66 2C139.44 2 1.45 140 1.45 310.21c0 131.75 82.7 244.14 199 288.23l26.05-72.55c-86.56-33.4-148-117.34-148-215.68C78.5 182.54 182 79.05 309.66 79.05s231.15 103.49 231.15 231.16c0 98.34-61.43 182.28-148 215.68l26 72.55c116.3-44.09 199-156.48 199-288.23C617.87 140 479.88 2 309.66 2z" class="cls-1"/><path d="m252.54 453.33 26.08-72.63a77.05 77.05 0 1 1 62.08 0l26.07 72.63a154.11 154.11 0 1 0-114.23 0z" class="cls-2"/><g><path d="M307.05 694.65c1.13 0 2.44.07 3.91.21s2.91.33 4.33.57 2.73.47 3.91.71a24.21 24.21 0 0 1 2.63.64l-2.27 11.52a44.16 44.16 0 0 0-5.19-1.35 45.51 45.51 0 0 0-9.31-.79 34.78 34.78 0 0 0-7.33.79c-2.41.52-4 .87-4.76 1.06v62.13h-13.22v-70.8a90.09 90.09 0 0 1 11.66-3.2 75.18 75.18 0 0 1 15.64-1.49zM353.4 694.36a38.2 38.2 0 0 1 13.44 2.07 21.76 21.76 0 0 1 8.82 5.82 22.25 22.25 0 0 1 4.76 9 43.62 43.62 0 0 1 1.42 11.45v46.2l-4.76.79c-2 .33-4.34.63-6.9.92s-5.33.54-8.32.78-5.95.36-8.88.36a48.91 48.91 0 0 1-11.52-1.28 26 26 0 0 1-9.1-4 18.52 18.52 0 0 1-6-7.33 25.63 25.63 0 0 1-2.13-10.94 21 21 0 0 1 2.49-10.52 19.75 19.75 0 0 1 6.75-7.11 31.19 31.19 0 0 1 9.95-4 53.82 53.82 0 0 1 11.94-1.28c1.33 0 2.71.07 4.13.21s2.77.33 4.05.57l3.34.64c.95.19 1.61.33 2 .42v-3.69a30 30 0 0 0-.71-6.47 14.81 14.81 0 0 0-2.56-5.69 12.93 12.93 0 0 0-5.05-4 19.68 19.68 0 0 0-8.31-1.49 63.1 63.1 0 0 0-11.45.92 40.56 40.56 0 0 0-7.32 1.92l-1.56-11a41.17 41.17 0 0 1 8.53-2.2 73.69 73.69 0 0 1 12.95-1.07zm1.14 66.26q4.69 0 8.32-.22a35.91 35.91 0 0 0 6-.78v-22a16.7 16.7 0 0 0-4.62-1.21 50.32 50.32 0 0 0-7.75-.5 48.88 48.88 0 0 0-6.32.43 19.42 19.42 0 0 0-6.12 1.77 13 13 0 0 0-4.62 3.7 9.7 9.7 0 0 0-1.85 6.18q0 7.11 4.55 9.88t12.41 2.75zM444 658.35h13.22v111.79c-3 .86-21.85 1.71-28 1.71a41.44 41.44 0 0 1-15.35-2.7 32.84 32.84 0 0 1-11.66-7.68 33.91 33.91 0 0 1-7.46-12.16 46.45 46.45 0 0 1-2.63-16.13 52.6 52.6 0 0 1 2.2-15.64 35 35 0 0 1 6.47-12.23 29.47 29.47 0 0 1 10.45-8 33.45 33.45 0 0 1 14.15-2.84 34.29 34.29 0 0 1 11.3 1.7 35.92 35.92 0 0 1 7.32 3.27zm0 53.5a27.55 27.55 0 0 0-7-3.84 26.22 26.22 0 0 0-9.95-1.85 21.19 21.19 0 0 0-9.74 2.07 17.92 17.92 0 0 0-6.61 5.68 24.06 24.06 0 0 0-3.7 8.6 47.77 47.77 0 0 0-1.13 10.67q0 12.93 6.4 20c4.26 4.69 10.05 6.33 17.16 6.33 3.6 0 13.21-.47 14.54-.85zM588.58 760.62q8.1 0 12-2.14a7.2 7.2 0 0 0 3.91-6.82 9.07 9.07 0 0 0-3.84-7.68q-3.84-2.84-12.65-6.39-4.26-1.71-8.18-3.49a28.75 28.75 0 0 1-6.75-4.19 18.32 18.32 0 0 1-4.55-5.83 18.61 18.61 0 0 1-1.7-8.39q0-9.81 7.25-15.57t19.76-5.76a54.57 54.57 0 0 1 6.25.36q3.13.36 5.83.85c1.8.33 3.39.69 4.77 1.07s2.44.71 3.2 1L611.47 709a33.5 33.5 0 0 0-6.68-2.35 43.46 43.46 0 0 0-10.95-1.21 20.21 20.21 0 0 0-9.67 2.21 7.29 7.29 0 0 0-4.12 6.89 9.35 9.35 0 0 0 .92 4.27 10 10 0 0 0 2.85 3.34 23.08 23.08 0 0 0 4.76 2.77c1.89.85 4.17 1.76 6.82 2.7q5.26 2 9.39 3.91a29.33 29.33 0 0 1 7 4.48 17.09 17.09 0 0 1 4.48 6.19 22.44 22.44 0 0 1 1.57 8.88q0 10.24-7.61 15.5t-21.68 5.26q-9.81 0-15.36-1.64c-3.69-1.08-6.21-1.92-7.53-2.48l2.41-11.38q2.28.85 7.26 2.56a41.69 41.69 0 0 0 13.25 1.72zM555 770.14l-29.43 1.57a32.59 32.59 0 0 1-14.65-2.49 22.9 22.9 0 0 1-9.31-7 26.81 26.81 0 0 1-4.9-10.73 62.14 62.14 0 0 1-1.43-13.79v-41.49h13.23v38.67a63.69 63.69 0 0 0 .92 11.66 19.81 19.81 0 0 0 3.06 7.82 12.12 12.12 0 0 0 5.68 4.34c2.37.9 6.32.66 9.82.41 8.19-.59 10.08-.83 13.79-1.1v-61.8H555zM469.64 696.21h13.22v73.93h-13.22z" class="cls-2"/><circle cx="476.25" cy="666.88" r="8.53" class="cls-2"/><g><path d="M169.53 696.21c-3.12-.76-21.56-1.56-27.72-1.56a39 39 0 0 0-15.07 2.77 32.26 32.26 0 0 0-11.3 7.68 32.85 32.85 0 0 0-7 11.66 43.81 43.81 0 0 0-2.44 14.85c0 6.17 1 16.6 2.67 21a32 32 0 0 0 7 11.16 27.17 27.17 0 0 0 10.3 6.61 36.82 36.82 0 0 0 12.59 2.13 33.65 33.65 0 0 0 11.44-1.72 35.21 35.21 0 0 0 6.61-2.92V771q0 10.23-5.19 14.93t-17 4.69c-1.8 0-14.29 0-18.26-.09V802h18q17.91 0 26.73-7.67t8.81-24.74zm-20.07 63.49a30.17 30.17 0 0 1-9.67 1.49 20.27 20.27 0 0 1-7.47-1.42 17.37 17.37 0 0 1-6.4-4.41 21.81 21.81 0 0 1-4.4-7.53c-1.09-3-1.75-11.81-1.75-16.07q0-11.52 5.76-18.49t16.42-7a64.85 64.85 0 0 1 9 .49 44.91 44.91 0 0 1 5.33 1.07l.11 48.34a23.84 23.84 0 0 1-6.93 3.53zM97.19 733.18a46.64 46.64 0 0 1-2.56 15.92 36.31 36.31 0 0 1-7.18 12.23 31.59 31.59 0 0 1-11 7.89A34.61 34.61 0 0 1 62.5 772a34.61 34.61 0 0 1-13.93-2.77 31.59 31.59 0 0 1-11-7.89 36.31 36.31 0 0 1-7.18-12.23 50.59 50.59 0 0 1 0-31.78A36.2 36.2 0 0 1 37.55 705a31.34 31.34 0 0 1 11-7.89 34.62 34.62 0 0 1 13.93-2.78 34.62 34.62 0 0 1 13.93 2.78 31.34 31.34 0 0 1 11 7.89 36.2 36.2 0 0 1 7.18 12.29 46.9 46.9 0 0 1 2.6 15.89zm-13.79 0q0-12.51-5.62-19.84A18.23 18.23 0 0 0 62.5 706q-9.68 0-15.28 7.32t-5.62 19.86q0 12.51 5.62 19.83t15.28 7.32A18.23 18.23 0 0 0 77.78 753q5.63-7.31 5.62-19.82zM207.64 696.21l29.43-1.56a32.57 32.57 0 0 1 14.64 2.49 22.82 22.82 0 0 1 9.31 7 27.07 27.07 0 0 1 4.91 10.74 62.76 62.76 0 0 1 1.42 13.79v41.51h-13.22v-38.71a62.8 62.8 0 0 0-.93-11.66 19.66 19.66 0 0 0-3-7.82 12.13 12.13 0 0 0-5.69-4.33c-2.37-.9-5.48-.65-9-.48l-14.62.75v62.21h-13.25zM17.74 771.56c-.67-.39-16.29-9.88-16.29-23.4v-89.81h13.22v89.81c0 8 11 14.7 11 14.78zM182.01 696.21h13.22v73.93h-13.22z" class="cls-1"/><circle cx="188.62" cy="666.88" r="8.53" class="cls-1"/></g><g><path d="M630 754.21a7.48 7.48 0 1 1-7.48 7.48 7.48 7.48 0 0 1 7.48-7.48m0-1.05a8.53 8.53 0 1 0 8.53 8.53 8.53 8.53 0 0 0-8.53-8.53z" class="cls-2"/><path d="m631.41 762.18.51.66q.3.4.63.9c.22.33.44.68.65 1s.4.71.55 1h-1.34c-.16-.32-.35-.64-.54-1s-.4-.64-.6-.94-.4-.58-.6-.84-.37-.48-.53-.68h-1.77v3.4h-1.22v-8.58a6.21 6.21 0 0 1 1.15-.17c.42 0 .81-.05 1.16-.05a4.78 4.78 0 0 1 2.8.69 2.67 2.67 0 0 1 .5 3.55 2.74 2.74 0 0 1-1.35 1.06zm-1.85-4.09h-1.19v3.28h.86a9.82 9.82 0 0 0 1.14-.06 2.45 2.45 0 0 0 .84-.24 1.3 1.3 0 0 0 .54-.5 1.7 1.7 0 0 0 .19-.85 1.67 1.67 0 0 0-.19-.81 1.49 1.49 0 0 0-.51-.52 2.37 2.37 0 0 0-.75-.26 5.46 5.46 0 0 0-.93-.04z" class="cls-2"/></g></g></svg>