<svg xmlns="http://www.w3.org/2000/svg" xmlns:xlink="http://www.w3.org/1999/xlink" viewBox="0 0 321.23 118.05"><defs><style>.cls-1{fill:none;}.cls-2{clip-path:url(#clip-path);}.cls-3{fill:#095157;}.cls-4{fill:#6fbf4a;}.cls-5{clip-path:url(#clip-path-2);}.cls-6{fill:#359044;}.cls-7{fill:#c1d42f;}</style><clipPath id="clip-path" transform="translate(0 -27.39)"><rect class="cls-1" width="321.23" height="172.84"/></clipPath><clipPath id="clip-path-2" transform="translate(0 -27.39)"><rect class="cls-1" y="27.39" width="321.23" height="118.05"/></clipPath></defs><g id="Layer_2" data-name="Layer 2"><g id="Layer_1-2" data-name="Layer 1"><g class="cls-2"><path class="cls-3" d="M11.89,91.3c.22,14.36,13.68,18.06,25.8,18.06,12.67,0,21.64-4.82,21.64-13.57,0-7.29-5.72-10.32-14.91-11.89l-18.17-3c-9.54-1.57-23.78-5.38-23.78-21C2.47,45.31,14,35.56,34.55,35.56c16,0,33,5.83,34.09,25.12H56.75c-1-6.28-4.6-14.8-23.77-14.8-8.75,0-18.62,3.7-18.62,13.12,0,4.93,3.25,8.86,13.12,10.54l19.63,3.37C53.39,74,71.22,77.06,71.22,93.43c0,20.42-18.28,26.25-34.43,26.25C18.73,119.68,0,113.4,0,91.3Z" transform="translate(0 -27.39)"/><path class="cls-3" d="M85,37.58h44.53c17,0,24.67,7.51,24.67,20.07,0,9.76-5.16,14.58-11.66,16.94v.22c9.19,2.13,15.14,8.19,15.14,19.74s-8,23.11-25.35,23.11H85Zm44.3,33.08c8.75,0,13-4.82,13-11.21,0-7.29-3.92-11.56-13.68-11.56H96.91V70.66Zm-.22,36.68c13.23,0,16.71-6.73,16.71-13.57,0-6.28-3.59-12.79-15.7-12.79H96.91v26.36Z" transform="translate(0 -27.39)"/><polygon class="cls-3" points="279.06 20.5 248.78 20.5 248.78 10.18 321.23 10.18 321.23 20.5 290.95 20.5 290.95 90.27 279.06 90.27 279.06 20.5"/><path class="cls-3" d="M2.51,139.7A4.5,4.5,0,0,0,3.15,142a4.11,4.11,0,0,0,3.73,1.62,6.27,6.27,0,0,0,2.18-.36A2.5,2.5,0,0,0,11,140.76a2.14,2.14,0,0,0-.81-1.9,7.86,7.86,0,0,0-2.56-1l-2.14-.5a9.64,9.64,0,0,1-3-1.08A3.43,3.43,0,0,1,1,133.26a4.79,4.79,0,0,1,1.48-3.62,5.86,5.86,0,0,1,4.2-1.41,7.18,7.18,0,0,1,4.24,1.24,4.52,4.52,0,0,1,1.75,4H10.57a4.24,4.24,0,0,0-.68-2,3.89,3.89,0,0,0-3.29-1.28,3.71,3.71,0,0,0-2.7.83,2.59,2.59,0,0,0-.82,1.91,1.86,1.86,0,0,0,1,1.75,13.27,13.27,0,0,0,2.87.89l2.22.52a6.77,6.77,0,0,1,2.48,1,3.93,3.93,0,0,1,1.51,3.32,4.19,4.19,0,0,1-1.93,3.88,8.42,8.42,0,0,1-4.47,1.17,6.57,6.57,0,0,1-4.65-1.56A5.29,5.29,0,0,1,.44,139.7Z" transform="translate(0 -27.39)"/><path class="cls-3" d="M19.55,128.64v10.09a5.89,5.89,0,0,0,.67,3,3.52,3.52,0,0,0,3.36,1.78c1.89,0,3.17-.64,3.85-1.92a6.07,6.07,0,0,0,.55-2.82V128.64h2.24v9.17a10.65,10.65,0,0,1-.82,4.64q-1.5,3-5.64,3c-2.77,0-4.64-1-5.63-3a10.65,10.65,0,0,1-.82-4.64v-9.17Z" transform="translate(0 -27.39)"/><path class="cls-3" d="M34.77,128.64h7.42a7.31,7.31,0,0,1,3,.55A3.86,3.86,0,0,1,47.47,133a4.36,4.36,0,0,1-.6,2.4,4.29,4.29,0,0,1-1.7,1.5,3.27,3.27,0,0,1,1.44,1,3.71,3.71,0,0,1,.54,2.05l.08,2.19a6.76,6.76,0,0,0,.15,1.39,1.38,1.38,0,0,0,.71,1V145H45.38a2.36,2.36,0,0,1-.18-.55,11.53,11.53,0,0,1-.11-1.29L45,140.41a2.3,2.3,0,0,0-1.16-2.14,4.64,4.64,0,0,0-1.93-.3H37v7H34.77ZM42,136.12a4.14,4.14,0,0,0,2.4-.62,2.57,2.57,0,0,0,.88-2.24A2.41,2.41,0,0,0,44,130.88a3.93,3.93,0,0,0-1.76-.34H37v5.58Z" transform="translate(0 -27.39)"/><path class="cls-3" d="M52.12,128.64h7.41a7.36,7.36,0,0,1,3,.55A3.87,3.87,0,0,1,64.82,133a4.36,4.36,0,0,1-.61,2.4,4.26,4.26,0,0,1-1.69,1.5A3.29,3.29,0,0,1,64,138a3.55,3.55,0,0,1,.54,2.05l.08,2.19a6.61,6.61,0,0,0,.16,1.39,1.36,1.36,0,0,0,.71,1V145H62.73a1.69,1.69,0,0,1-.18-.55,11.53,11.53,0,0,1-.11-1.29l-.13-2.72a2.32,2.32,0,0,0-1.16-2.14,4.64,4.64,0,0,0-1.93-.3H54.33v7H52.12Zm7.18,7.48a4.11,4.11,0,0,0,2.39-.62,2.55,2.55,0,0,0,.88-2.24,2.42,2.42,0,0,0-1.23-2.38,4,4,0,0,0-1.76-.34H54.33v5.58Z" transform="translate(0 -27.39)"/><polygon class="cls-3" points="69.41 101.25 81.25 101.25 81.25 103.25 71.56 103.25 71.56 108.21 80.52 108.21 80.52 110.1 71.56 110.1 71.56 115.63 81.42 115.63 81.42 117.58 69.41 117.58 69.41 101.25"/><polygon class="cls-3" points="84.02 101.25 86.6 101.25 91.3 109.1 95.99 101.25 98.59 101.25 92.41 111 92.41 117.58 90.19 117.58 90.19 111 84.02 101.25"/><path class="cls-3" d="M108.15,128.64h7.06a4.67,4.67,0,0,1,4.1,1.72,3.9,3.9,0,0,1,.72,2.33,3.64,3.64,0,0,1-.88,2.53,4.24,4.24,0,0,1-1.31,1,5.61,5.61,0,0,1,1.88,1.08,3.91,3.91,0,0,1,1.1,2.94,4.53,4.53,0,0,1-1,2.86,5.63,5.63,0,0,1-4.73,1.91h-6.94Zm6.23,6.9a5.21,5.21,0,0,0,2.2-.38,2.24,2.24,0,0,0,1.24-2.2,2.12,2.12,0,0,0-1.32-2.16,5.87,5.87,0,0,0-2.2-.31h-4v5Zm.75,7.54a3.41,3.41,0,0,0,2.93-1.18,3,3,0,0,0,.55-1.8,2.39,2.39,0,0,0-1.61-2.42,6.1,6.1,0,0,0-2.25-.35h-4.43v5.75Z" transform="translate(0 -27.39)"/><path class="cls-3" d="M137.74,131a9,9,0,0,1,1.62,5.54,9.73,9.73,0,0,1-1.85,6.08,8.25,8.25,0,0,1-12.14.36,9.42,9.42,0,0,1-1.92-6.07,9.63,9.63,0,0,1,1.65-5.67,7.11,7.11,0,0,1,6.24-3c2.88,0,5,.92,6.4,2.78m-2,10.4a8.93,8.93,0,0,0,1.31-4.82,6.92,6.92,0,0,0-1.51-4.64,5.13,5.13,0,0,0-4.12-1.75,5.36,5.36,0,0,0-4.13,1.74,7.32,7.32,0,0,0-1.6,5.13,7.56,7.56,0,0,0,1.37,4.58,5.17,5.17,0,0,0,4.45,1.86,4.6,4.6,0,0,0,4.23-2.1" transform="translate(0 -27.39)"/><path class="cls-3" d="M147.67,128.64h2.5L156.09,145h-2.42L152,140.08h-6.4L143.79,145h-2.27Zm3.67,9.64-2.52-7.21-2.61,7.21Z" transform="translate(0 -27.39)"/><path class="cls-3" d="M159.26,128.64h7.42a7.31,7.31,0,0,1,3,.55A3.86,3.86,0,0,1,172,133a4.36,4.36,0,0,1-.6,2.4,4.29,4.29,0,0,1-1.7,1.5,3.27,3.27,0,0,1,1.44,1,3.63,3.63,0,0,1,.54,2.05l.08,2.19a6.76,6.76,0,0,0,.15,1.39,1.38,1.38,0,0,0,.71,1V145h-2.71a2,2,0,0,1-.17-.55,8,8,0,0,1-.11-1.29l-.14-2.72a2.29,2.29,0,0,0-1.15-2.14,4.69,4.69,0,0,0-1.94-.3h-4.89v7h-2.21Zm7.18,7.48a4.14,4.14,0,0,0,2.4-.62,2.57,2.57,0,0,0,.88-2.24,2.42,2.42,0,0,0-1.23-2.38,4,4,0,0,0-1.77-.34h-5.25v5.58Z" transform="translate(0 -27.39)"/><path class="cls-3" d="M176.44,128.64H183a6.13,6.13,0,0,1,5.16,2.39,8.9,8.9,0,0,1,1.63,5.53,11.19,11.19,0,0,1-1,4.7,6,6,0,0,1-5.85,3.71h-6.5Zm6.09,14.44a6.13,6.13,0,0,0,1.81-.23,4,4,0,0,0,2.06-1.67,6.71,6.71,0,0,0,.92-2.54,9.7,9.7,0,0,0,.17-1.71,8.15,8.15,0,0,0-1.18-4.71,4.32,4.32,0,0,0-3.8-1.68h-3.84v12.54Z" transform="translate(0 -27.39)"/><path class="cls-3" d="M214.37,131a9,9,0,0,1,1.62,5.54,9.68,9.68,0,0,1-1.86,6.08A8.23,8.23,0,0,1,202,143a9.42,9.42,0,0,1-1.92-6.07,9.62,9.62,0,0,1,1.64-5.67,7.14,7.14,0,0,1,6.24-3c2.88,0,5,.92,6.41,2.78m-2,10.4a8.93,8.93,0,0,0,1.31-4.82,6.87,6.87,0,0,0-1.51-4.64,5.12,5.12,0,0,0-4.11-1.75,5.38,5.38,0,0,0-4.14,1.74,7.37,7.37,0,0,0-1.6,5.13,7.56,7.56,0,0,0,1.37,4.58,5.18,5.18,0,0,0,4.46,1.86,4.59,4.59,0,0,0,4.22-2.1" transform="translate(0 -27.39)"/><polygon class="cls-3" points="219.74 101.25 231.07 101.25 231.07 103.25 221.95 103.25 221.95 108.21 229.97 108.21 229.97 110.15 221.95 110.15 221.95 117.58 219.74 117.58 219.74 101.25"/><polygon class="cls-3" points="253.04 101.25 253.04 103.2 247.54 103.2 247.54 117.58 245.31 117.58 245.31 103.2 239.81 103.2 239.81 101.25 253.04 101.25"/><path class="cls-3" d="M256.25,128.64h7.42a7.39,7.39,0,0,1,3,.55A3.86,3.86,0,0,1,269,133a4.36,4.36,0,0,1-.6,2.4,4.29,4.29,0,0,1-1.7,1.5,3.27,3.27,0,0,1,1.44,1,3.55,3.55,0,0,1,.54,2.05l.08,2.19a6,6,0,0,0,.16,1.39,1.33,1.33,0,0,0,.71,1V145h-2.72a2,2,0,0,1-.17-.55,9.47,9.47,0,0,1-.11-1.29l-.14-2.72a2.29,2.29,0,0,0-1.15-2.14,4.69,4.69,0,0,0-1.94-.3h-4.89v7h-2.21Zm7.18,7.48a4.14,4.14,0,0,0,2.4-.62,2.55,2.55,0,0,0,.88-2.24,2.42,2.42,0,0,0-1.23-2.38,4,4,0,0,0-1.76-.34h-5.26v5.58Z" transform="translate(0 -27.39)"/><path class="cls-3" d="M278.1,128.64h2.49L286.52,145h-2.43l-1.7-4.89H276L274.21,145H272Zm3.66,9.64-2.51-7.21-2.61,7.21Z" transform="translate(0 -27.39)"/><path class="cls-3" d="M289.52,128.64h6.53A6.12,6.12,0,0,1,301.2,131a8.9,8.9,0,0,1,1.63,5.53,11.19,11.19,0,0,1-1,4.7A6,6,0,0,1,296,145h-6.5Zm6.09,14.44a6,6,0,0,0,1.8-.23,4,4,0,0,0,2.07-1.67,6.71,6.71,0,0,0,.92-2.54,9.7,9.7,0,0,0,.17-1.71,8.15,8.15,0,0,0-1.18-4.71,4.32,4.32,0,0,0-3.8-1.68h-3.84v12.54Z" transform="translate(0 -27.39)"/><polygon class="cls-3" points="306.98 101.25 318.82 101.25 318.82 103.25 309.13 103.25 309.13 108.21 318.09 108.21 318.09 110.1 309.13 110.1 309.13 115.63 318.99 115.63 318.99 117.58 306.98 117.58 306.98 101.25"/><path class="cls-4" d="M246.78,98.77s12-18.68,3-35.19c-10.21-18.63-44.7-4-52.57.34-13.46,7.44-28.79,24.08-30.49,37.14a46.74,46.74,0,0,0,12.62,12.71s3.63-22.94,26.9-36.26c20.18-11.54,42.41-12.46,44.39,1,1.5,10.21-3.84,20.22-3.84,20.22" transform="translate(0 -27.39)"/></g><g class="cls-5"><path class="cls-6" d="M162.59,93.35S158.67,84.29,159.4,80c.91-5.24,10-26.76,36.51-36.67,22.23-8.31,38.71-5,42.7-2.32,6.25,4.16,10.84,15,10.84,15S235.86,37.63,200.19,52c-28.58,11.47-36.82,33.83-37.6,41.4" transform="translate(0 -27.39)"/><path class="cls-3" d="M159.27,67.69s7.87-20.3,29.68-30,40.72-4,40.72-4a47.49,47.49,0,0,0-43.51-1.95c-24.44,11.16-26.89,35.92-26.89,35.92" transform="translate(0 -27.39)"/></g><g class="cls-2"><path class="cls-7" d="M191.7,119.84s-.21-15.38,22.32-29.07c24-14.57,40-3.62,26.26,13.81,0,0,3.78-6.81.31-10.48s-15.88,1.76-20.66,5.17c-5.29,3.79-15.49,11.45-13.75,22.77a48,48,0,0,1-14.48-2.2" transform="translate(0 -27.39)"/></g></g></g></svg>