<svg width="1578" height="624" viewBox="0 0 1578 624" fill="none" xmlns="http://www.w3.org/2000/svg">
<path fill-rule="evenodd" clip-rule="evenodd" d="M589.305 483.083C548.675 483.083 520.913 515.439 520.913 553.311C520.913 591.143 548.675 623.562 589.305 623.562C604.748 623.562 622.21 615.51 630.501 602.046V620.1H661.677V419.418H630.501V504.568C622.21 491.09 604.748 483.083 589.305 483.083ZM591.016 510.869C615.067 510.869 630.501 530.376 630.501 553.304C630.501 576.232 615.067 595.738 591.016 595.738C567.558 595.738 552.097 576.232 552.097 553.304C552.097 530.376 567.558 510.869 591.016 510.869Z" fill="white"/>
<path fill-rule="evenodd" clip-rule="evenodd" d="M1048.78 620.1H1080V551.025C1080 528.084 1090.27 510.587 1112.05 510.587C1134.37 510.587 1140.92 528.084 1140.92 551.025V620.1H1172.13V540.693C1172.13 522.327 1170.11 511.148 1163.54 501.137C1156.1 489.962 1142.64 483.083 1123.48 483.083C1103.73 483.083 1088.3 490.813 1080 505.178V419.418H1048.78V620.1Z" fill="white"/>
<path fill-rule="evenodd" clip-rule="evenodd" d="M73.4133 620.09H52.5137L0.735107 486.504H34.2064L63.105 571.07L93.1522 486.504H123.76L153.812 571.07L182.701 486.504H216.173L164.388 620.09H143.503L108.6 520.344L73.4133 620.09Z" fill="white"/>
<path fill-rule="evenodd" clip-rule="evenodd" d="M286.702 483.054C244.373 483.054 216.604 515.411 216.604 553.283C216.604 591.119 244.373 623.533 286.702 623.533C329.624 623.533 357.388 591.119 357.388 553.283C357.388 515.411 329.624 483.054 286.702 483.054ZM247.794 553.283C247.794 530.355 263.241 510.849 286.701 510.849C310.752 510.849 326.198 530.355 326.198 553.283C326.198 576.211 310.752 595.718 286.701 595.718C263.241 595.718 247.794 576.211 247.794 553.283Z" fill="white"/>
<path fill-rule="evenodd" clip-rule="evenodd" d="M376.445 620.1H407.616V551.026C407.616 528.084 417.931 510.587 439.66 510.587C461.987 510.587 468.581 528.084 468.581 551.026V620.1H499.752V540.693C499.752 522.328 497.747 511.149 491.175 501.137C483.735 489.963 470.306 483.083 451.102 483.083C431.378 483.083 415.926 490.814 407.616 505.178V486.514H376.445V620.1Z" fill="white"/>
<path fill-rule="evenodd" clip-rule="evenodd" d="M681.303 553.311C681.303 589.722 703.042 623.562 747.971 623.562C782.011 623.562 803.474 602.884 807.769 579.978H776.291C772.298 589.423 765.709 597.435 747.971 597.435C722.793 597.435 713.338 581.969 713.058 562.766H807.488C808.91 554.189 808.91 547.88 808.91 543.282C808.91 509.157 781.744 483.083 747.12 483.083C705.064 483.083 681.303 513.176 681.303 553.311ZM713.341 539.574C713.341 519.765 727.938 509.161 746.268 509.161C765.137 509.161 778.601 520.905 778.601 539.574H713.341Z" fill="white"/>
<path fill-rule="evenodd" clip-rule="evenodd" d="M827.967 620.095H859.134V562.489C859.134 529.22 873.743 514.026 900.365 514.026C905.204 514.026 907.788 514.307 912.649 515.434V486.781C909.205 485.355 905.204 484.789 900.365 484.789C882.601 484.789 865.149 495.661 859.134 508.011V486.509H827.967V620.095Z" fill="white"/>
<path fill-rule="evenodd" clip-rule="evenodd" d="M996.498 528.396H1026.82C1026.82 502.287 1004.21 483.083 975.9 483.083C948.712 483.083 925.82 496.535 925.82 521.78C925.82 544.997 938.99 551.895 957.596 559.037C985.622 569.935 999.082 570.817 999.082 583.413C999.082 594.864 989.623 598.9 977.321 598.9C962.444 598.9 951.573 592.591 951.573 575.094H921.235C921.235 606.626 946.997 623.562 975.61 623.562C1004.79 623.562 1028.82 610.65 1028.82 582.825C1028.82 558.484 1011.1 551.895 992.492 544.721C968.178 535.266 955.872 533.814 955.872 522.328C955.872 512.873 964.462 507.731 975.022 507.731C990.198 507.731 996.498 515.76 996.498 528.396Z" fill="white"/>
<path fill-rule="evenodd" clip-rule="evenodd" d="M1260 483.083C1219.38 483.083 1191.61 515.439 1191.61 553.311C1191.61 591.143 1219.38 623.562 1260 623.562C1275.46 623.562 1292.9 615.511 1301.21 602.046V620.1H1332.41V486.514H1301.21V504.568C1292.9 491.09 1275.46 483.083 1260 483.083ZM1261.74 510.871C1285.77 510.871 1301.21 530.377 1301.21 553.306C1301.21 576.234 1285.77 595.74 1261.74 595.74C1238.28 595.74 1222.83 576.234 1222.83 553.306C1222.83 530.377 1238.28 510.871 1261.74 510.871Z" fill="white"/>
<path fill-rule="evenodd" clip-rule="evenodd" d="M1360.55 620.095H1391.76V562.489C1391.76 529.22 1406.33 514.026 1432.94 514.026C1437.81 514.026 1440.37 514.307 1445.24 515.434V486.781C1441.81 485.355 1437.81 484.789 1432.94 484.789C1415.2 484.789 1397.75 495.661 1391.76 508.011V486.509H1360.55V620.095Z" fill="white"/>
<path fill-rule="evenodd" clip-rule="evenodd" d="M1515.31 509.16C1534.17 509.16 1547.64 520.905 1547.64 539.574H1482.4C1482.4 519.765 1496.98 509.16 1515.31 509.16ZM1576.52 562.766C1577.95 554.189 1577.95 547.88 1577.95 543.282C1577.95 509.157 1550.78 483.083 1516.15 483.083C1474.08 483.083 1450.35 513.176 1450.35 553.311C1450.35 589.722 1472.08 623.562 1517.01 623.562C1551.09 623.562 1572.51 602.884 1576.82 579.978H1545.34C1541.34 589.423 1534.76 597.435 1517.01 597.435C1491.84 597.435 1482.4 581.969 1482.11 562.766H1576.52Z" fill="white"/>
<path d="M965.26 211.792C974.897 202.074 974.781 186.504 965.135 176.834L789.382 0.693848L715.567 74.6544C707.338 82.8993 694.742 84.097 685.243 78.2469L684.753 78.7401L891.383 285.83L965.26 211.792Z" fill="white"/>
<path d="M761.185 211.865L687.366 285.85L494.107 92.1685L585.361 0.712891L761.185 176.928C770.813 186.575 770.813 202.217 761.185 211.865Z" fill="white"/>
<path d="M1084.62 92.168L993.406 183.586L888.741 78.7605L889.231 78.2672C898.73 84.1173 911.326 82.9197 919.555 74.6734L993.37 0.712891L1084.62 92.168Z" fill="white"/>
</svg>
