<svg width="92" height="103" viewBox="0 0 92 103" fill="none" xmlns="http://www.w3.org/2000/svg">
<path fill-rule="evenodd" clip-rule="evenodd" d="M45.75 0C57.8837 0 69.5203 4.82008 78.1001 13.3999C86.6799 21.9797 91.5 33.6163 91.5 45.75C91.5 61.3762 82.9803 74.1658 74.0032 83.3413C69.518 87.8759 64.624 91.9871 59.3835 95.6226L57.218 97.0968L56.2013 97.7728L54.2849 98.9928L52.5769 100.035L50.4623 101.265C49.0269 102.084 47.4027 102.515 45.75 102.515C44.0973 102.515 42.4731 102.084 41.0378 101.265L38.9231 100.035L36.2798 98.4082L35.3037 97.7728L33.2196 96.3851C27.5661 92.56 22.3001 88.1913 17.4968 83.3413C8.51967 74.1608 0 61.3762 0 45.75C0 33.6163 4.82008 21.9797 13.3999 13.3999C21.9797 4.82008 33.6163 0 45.75 0ZM45.75 10.1667C36.3127 10.1667 27.262 13.9156 20.5888 20.5888C13.9156 27.262 10.1667 36.3127 10.1667 45.75C10.1667 57.5535 16.6327 67.9133 24.7609 76.2297C28.2559 79.7676 32.0334 83.0148 36.0561 85.9388L38.3843 87.596C39.1366 88.1213 39.8601 88.6093 40.5548 89.06L42.5373 90.3308L44.2809 91.3932L45.75 92.2523L48.0629 90.8849L49.9285 89.7158C50.9214 89.0854 51.9839 88.3788 53.1158 87.596L55.4439 85.9388C59.4666 83.0148 63.2441 79.7676 66.7391 76.2297C74.8673 67.9184 81.3333 57.5535 81.3333 45.75C81.3333 36.3127 77.5844 27.262 70.9112 20.5888C64.238 13.9156 55.1873 10.1667 45.75 10.1667ZM45.75 25.4167C51.1427 25.4167 56.3146 27.5589 60.1278 31.3722C63.9411 35.1854 66.0833 40.3573 66.0833 45.75C66.0833 51.1427 63.9411 56.3146 60.1278 60.1278C56.3146 63.9411 51.1427 66.0833 45.75 66.0833C40.3573 66.0833 35.1854 63.9411 31.3722 60.1278C27.5589 56.3146 25.4167 51.1427 25.4167 45.75C25.4167 40.3573 27.5589 35.1854 31.3722 31.3722C35.1854 27.5589 40.3573 25.4167 45.75 25.4167ZM45.75 35.5833C43.0536 35.5833 40.4677 36.6545 38.5611 38.5611C36.6545 40.4677 35.5833 43.0536 35.5833 45.75C35.5833 48.4464 36.6545 51.0323 38.5611 52.9389C40.4677 54.8455 43.0536 55.9167 45.75 55.9167C48.4464 55.9167 51.0323 54.8455 52.9389 52.9389C54.8455 51.0323 55.9167 48.4464 55.9167 45.75C55.9167 43.0536 54.8455 40.4677 52.9389 38.5611C51.0323 36.6545 48.4464 35.5833 45.75 35.5833Z" fill="#B98529"/>
</svg>
