<svg width="675" height="1335" viewBox="0 0 675 1335" fill="none" xmlns="http://www.w3.org/2000/svg">
<mask id="path-1-outside-1_871_28016" maskUnits="userSpaceOnUse" x="47.6311" y="10.4028" width="581" height="1288" fill="black">
<rect fill="white" x="47.6311" y="10.4028" width="581" height="1288"/>
<path d="M60.6331 99.1626C280.567 0.984944 400.482 -2.04958 607.877 91.6831C603.581 381.302 601.604 523.697 423.385 621.476C400.19 634.202 383.035 645.249 370.376 654.621C380.826 664.053 395.548 674.867 416.089 686.976C579.39 783.243 612.983 840.984 615.54 1209.29C395.606 1307.47 275.691 1310.5 68.2952 1216.77C50.0416 938.232 48.3506 797.64 252.788 686.976C276.018 674.402 293.966 663.438 307.777 654.03C296.575 644.766 281.179 633.912 260.084 621.476C96.7833 525.209 63.1899 467.468 60.6331 99.1626Z"/>
</mask>
<path d="M60.6331 99.1626C280.567 0.984944 400.482 -2.04958 607.877 91.6831C603.581 381.302 601.604 523.697 423.385 621.476C400.19 634.202 383.035 645.249 370.376 654.621C380.826 664.053 395.548 674.867 416.089 686.976C579.39 783.243 612.983 840.984 615.54 1209.29C395.606 1307.47 275.691 1310.5 68.2952 1216.77C50.0416 938.232 48.3506 797.64 252.788 686.976C276.018 674.402 293.966 663.438 307.777 654.03C296.575 644.766 281.179 633.912 260.084 621.476C96.7833 525.209 63.1899 467.468 60.6331 99.1626Z" fill="#FFF9F0"/>
<path d="M60.6331 99.1626L55.5517 87.7795L48.1111 91.101L48.1676 99.2491L60.6331 99.1626ZM607.877 91.6831L620.342 91.868L620.463 83.6915L613.011 80.3237L607.877 91.6831ZM423.385 621.476L429.381 632.405L429.381 632.405L423.385 621.476ZM370.376 654.621L362.959 644.602L350.715 653.667L362.024 663.874L370.376 654.621ZM416.089 686.976L409.759 697.715L409.759 697.715L416.089 686.976ZM615.54 1209.29L620.622 1220.67L628.062 1217.35L628.006 1209.2L615.54 1209.29ZM68.2952 1216.77L55.8561 1217.58L56.3453 1225.05L63.1612 1228.13L68.2952 1216.77ZM252.788 686.976L258.723 697.939L252.788 686.976ZM307.777 654.03L314.795 664.332L328.503 654.994L315.721 644.423L307.777 654.03ZM260.084 621.476L266.415 610.737L260.084 621.476ZM60.6331 99.1626L65.7144 110.546C175.077 61.7265 258.231 37.1959 339.154 35.9206C419.966 34.6471 499.872 56.5495 602.743 103.043L607.877 91.6831L613.011 80.3237C508.488 33.084 424.738 9.63736 338.761 10.9923C252.894 12.3455 166.123 38.4211 55.5517 87.7795L60.6331 99.1626ZM607.877 91.6831L595.413 91.4982C593.255 236.96 591.62 343.069 568.84 425.188C546.455 505.881 503.634 563.229 417.389 610.547L423.385 621.476L429.381 632.405C521.355 581.944 568.632 519.206 592.864 431.852C616.701 345.923 618.203 236.026 620.342 91.868L607.877 91.6831ZM423.385 621.476L417.389 610.547C393.816 623.48 376.165 634.825 362.959 644.602L370.376 654.621L377.794 664.639C389.905 655.673 406.565 644.923 429.381 632.405L423.385 621.476ZM370.376 654.621L362.024 663.874C373.249 674.006 388.698 685.299 409.759 697.715L416.089 686.976L422.42 676.237C402.399 664.435 388.403 654.1 378.729 645.367L370.376 654.621ZM416.089 686.976L409.759 697.715C490.845 745.516 536.996 782.242 564.527 850.766C592.637 920.733 601.794 1024.86 603.075 1209.38L615.54 1209.29L628.006 1209.2C626.73 1025.41 617.812 916.518 587.661 841.471C556.93 764.981 504.634 724.703 422.42 676.237L416.089 686.976ZM615.54 1209.29L610.459 1197.91C501.096 1246.73 417.942 1271.26 337.019 1272.53C256.206 1273.81 176.301 1251.9 73.4291 1205.41L68.2952 1216.77L63.1612 1228.13C167.685 1275.37 251.435 1298.81 337.412 1297.46C423.279 1296.11 510.05 1270.03 620.622 1220.67L615.54 1209.29ZM68.2952 1216.77L80.7342 1215.95C71.5692 1076.1 66.8669 973.585 89.0591 892.2C110.845 812.307 158.883 751.983 258.723 697.939L252.788 686.976L246.854 676.013C142.256 732.634 88.921 797.938 65.0059 885.641C41.4976 971.852 46.7676 1078.9 55.8561 1217.58L68.2952 1216.77ZM252.788 686.976L258.723 697.939C282.245 685.206 300.567 674.025 314.795 664.332L307.777 654.03L300.758 643.727C287.365 652.851 269.791 663.598 246.854 676.013L252.788 686.976ZM307.777 654.03L315.721 644.423C303.901 634.649 287.938 623.425 266.415 610.737L260.084 621.476L253.754 632.215C274.421 644.398 289.249 654.884 299.832 663.636L307.777 654.03ZM260.084 621.476L266.415 610.737C185.328 562.937 139.177 526.211 111.647 457.687C83.5365 387.72 74.3794 283.587 73.0985 99.0761L60.6331 99.1626L48.1676 99.2491C49.4436 283.043 58.3616 391.934 88.5125 466.981C119.243 543.471 171.539 583.749 253.754 632.215L260.084 621.476Z" fill="#6C665D" mask="url(#path-1-outside-1_871_28016)"/>
<g filter="url(#filter0_g_871_28016)">
<path d="M135.819 978.348C143.107 975.554 169.667 967.971 189.192 968.317C234.121 969.117 265.524 994.185 293.042 1022.58C306.092 1035.63 320.315 1049.92 335.649 1063.73C378.462 1102.29 430.08 1137.07 490.166 1130.51C532.344 1125.63 569.931 1106.98 594.698 1076.94C599.641 1070.98 604.024 1063.69 607.641 1055.67C654.293 1150.1 627.567 1206.9 619.1 1216.37C606.287 1224.69 506.788 1297.4 335.649 1297.4C164.487 1297.4 88.722 1247.29 75.9171 1238.98C65.1965 1226.99 12.7277 1103.08 135.819 978.348Z" fill="#C3B499"/>
</g>
<g filter="url(#filter1_g_871_28016)">
<path d="M493.121 1121.06C436.652 1127.61 388.141 1092.93 347.909 1054.48C389.398 1038.38 429.824 1019.68 475.708 1014.1C530.564 1007.45 594.954 1032.3 603.515 1046.44C600.123 1054.43 596.003 1061.71 591.362 1067.65C568.096 1097.59 532.765 1116.2 493.121 1121.06Z" fill="#AF966A"/>
</g>
<g filter="url(#filter2_g_871_28016)">
<path d="M359.817 654.17L314.932 656.422C323.56 700.177 329.531 870.25 327.739 919.571C326.664 949.268 321.484 980.9 316.318 1006.04C328.043 996.155 346.158 980.339 360.013 965.686C356.084 949.87 352.616 929.22 351.148 902.957C340.945 719.502 356.504 672.008 359.817 654.17Z" fill="#968361"/>
<path d="M361.042 654.397C359.374 663.381 354.678 679.607 351.657 716.559C348.634 753.521 347.293 811.199 352.393 902.888C353.856 929.077 357.314 949.65 361.223 965.386L361.387 966.047L360.918 966.543C347.013 981.249 328.854 997.102 317.122 1006.99L314.374 1009.31L315.097 1005.79C320.257 980.68 325.422 949.124 326.494 919.525L326.572 917.131C327.321 891.494 326.271 838.421 323.998 785.963C321.649 731.782 318.001 678.429 313.709 656.663L313.43 655.249L314.87 655.177L359.754 652.925L361.331 652.846L361.042 654.397Z" stroke="#AE8C82" stroke-width="2.49314"/>
</g>
<g filter="url(#filter3_g_871_28016)">
<path d="M293.741 652.923C141.095 537.479 62.8695 526.482 63.1251 278.952C63.3807 31.4208 193.254 385.211 346.323 278.179C499.392 171.148 611.617 266.487 611.617 266.487C614.733 485.194 534.81 568.692 383.494 652.923C232.178 737.154 345.193 681.725 337.965 692.814H338.565C329.396 682.169 446.387 768.366 293.741 652.923Z" fill="#C3B499"/>
<path d="M293.741 652.923C141.095 537.479 62.8695 526.482 63.1251 278.952C63.3807 31.4208 193.254 385.211 346.323 278.179C499.392 171.148 611.617 266.487 611.617 266.487C614.733 485.194 534.81 568.692 383.494 652.923C232.178 737.154 345.193 681.725 337.965 692.814H338.565C329.396 682.169 446.387 768.366 293.741 652.923Z" stroke="#AE8C82" stroke-width="1.24657"/>
</g>
<g filter="url(#filter4_g_871_28016)">
<path d="M70.6016 219.574C149.776 156.717 251.97 197.635 479.477 254.951C351.344 345.493 196.087 360.819 70.6016 264.224V219.574Z" fill="#AF976A"/>
<path d="M69.8262 218.597C109.802 186.86 155.559 181.404 219.599 190.964C283.563 200.513 366.117 225.107 479.781 253.743L482.41 254.405L480.196 255.969C351.729 346.747 195.86 362.218 69.8408 265.212L69.3555 264.837V218.971L69.8262 218.597Z" stroke="#AE8C82" stroke-width="2.49314"/>
</g>
<g filter="url(#filter5_g_871_28016)">
<path d="M372.334 924.706C378.9 924.706 384.388 930.206 384.388 936.767C384.388 943.335 378.9 948.827 372.334 948.828C365.767 948.828 360.273 943.334 360.273 936.767C360.273 930.206 365.768 924.706 372.334 924.706Z" fill="#968361" stroke="#AE8C82" stroke-width="2.49314"/>
<path d="M408.891 926.11C410.382 924.7 412.662 924.703 414.142 926.113C414.261 926.232 414.251 926.216 414.294 926.264L414.323 926.295L414.353 926.324C415.582 927.505 415.76 929.167 415.15 930.607C414.535 932.057 413.187 933.121 411.513 933.118H411.511C409.84 933.118 408.492 932.055 407.878 930.605C407.269 929.166 407.448 927.506 408.676 926.324L408.675 926.323C408.752 926.253 408.821 926.185 408.891 926.11Z" fill="#968361" stroke="#AE8C82" stroke-width="2.49314"/>
<path d="M391.92 954.935C393.453 954.827 394.605 955.755 395.134 957.138C395.674 958.553 395.452 960.181 394.429 961.206C393.399 962.23 391.768 962.455 390.353 961.916C388.977 961.391 388.049 960.248 388.146 958.72C388.156 958.594 388.165 958.471 388.173 958.359C388.181 958.244 388.19 958.139 388.199 958.034L388.2 958.023V958.012C388.266 957.082 388.606 956.37 389.097 955.878C389.588 955.387 390.3 955.048 391.23 954.982H391.24L391.249 954.981C391.499 954.96 391.682 954.943 391.869 954.937L391.92 954.935Z" fill="#968361" stroke="#AE8C82" stroke-width="2.49314"/>
<path d="M371.549 979.549C372.705 979.549 373.488 979.982 373.998 980.574C374.53 981.192 374.826 982.057 374.826 982.969C374.826 983.88 374.53 984.746 373.997 985.365C373.486 985.958 372.704 986.392 371.548 986.394C370.391 986.393 369.607 985.96 369.097 985.367C368.564 984.749 368.267 983.883 368.267 982.972C368.267 982.06 368.564 981.195 369.097 980.576C369.608 979.984 370.391 979.549 371.549 979.549Z" fill="#968361" stroke="#AE8C82" stroke-width="2.49314"/>
<path d="M285.348 944.155C290.286 944.155 294.42 948.291 294.42 953.213C294.42 958.151 290.285 962.286 285.348 962.286C280.424 962.286 276.283 958.151 276.283 953.213C276.283 948.285 280.423 944.155 285.348 944.155Z" fill="#968361" stroke="#AE8C82" stroke-width="2.49314"/>
<path d="M297.889 896.91C299.409 896.91 300.464 897.486 301.157 898.292C301.873 899.125 302.261 900.277 302.261 901.475C302.261 902.674 301.873 903.826 301.157 904.659C300.464 905.465 299.408 906.041 297.889 906.041C296.369 906.041 295.314 905.465 294.62 904.659C293.905 903.826 293.516 902.674 293.516 901.475C293.516 900.277 293.905 899.125 294.62 898.292C295.314 897.486 296.369 896.91 297.889 896.91Z" fill="#968361" stroke="#AE8C82" stroke-width="2.49314"/>
<path d="M309.648 933.794C310.404 933.795 310.887 934.074 311.198 934.436C311.531 934.824 311.728 935.382 311.728 935.987C311.728 936.592 311.531 937.15 311.198 937.538C310.887 937.899 310.404 938.178 309.648 938.178C308.892 938.178 308.408 937.899 308.097 937.538C307.764 937.15 307.567 936.591 307.567 935.987C307.567 935.382 307.764 934.824 308.097 934.436C308.408 934.074 308.892 933.794 309.648 933.794Z" fill="#968361" stroke="#AE8C82" stroke-width="2.49314"/>
<path d="M355.873 812.799C357.74 812.799 359.055 813.509 359.922 814.517C360.811 815.55 361.285 816.97 361.285 818.436C361.285 819.901 360.81 821.32 359.922 822.353C359.056 823.359 357.741 824.068 355.874 824.066H355.873C354.01 824.066 352.697 823.357 351.832 822.351C350.945 821.318 350.471 819.898 350.471 818.433C350.471 816.967 350.945 815.547 351.832 814.515C352.697 813.508 354.01 812.799 355.873 812.799Z" fill="#968361" stroke="#AE8C82" stroke-width="2.49314"/>
<path d="M360.674 773.418C361.682 773.092 362.481 773.28 363.1 773.711C363.756 774.168 364.28 774.953 364.531 775.884C364.783 776.814 364.733 777.78 364.381 778.554C364.046 779.293 363.405 779.933 362.285 780.24L362.283 780.241C360.116 780.84 357.87 779.138 357.864 776.885C357.864 775.246 358.973 773.965 360.67 773.419L360.674 773.418Z" fill="#968361" stroke="#AE8C82" stroke-width="2.49314"/>
</g>
<mask id="path-19-outside-2_871_28016" maskUnits="userSpaceOnUse" x="36.6289" y="-0.592773" width="603" height="1310" fill="black">
<rect fill="white" x="36.6289" y="-0.592773" width="603" height="1310"/>
<path d="M60.6328 99.167C280.567 0.989205 400.483 -2.04441 607.878 91.6885C603.581 381.307 601.604 523.703 423.385 621.481C400.189 634.208 383.033 645.254 370.374 654.626C380.824 664.058 395.546 674.872 416.087 686.981C579.388 783.248 612.981 840.99 615.538 1209.29C395.604 1307.47 275.688 1310.51 68.293 1216.77C50.0394 938.238 48.3484 797.646 252.786 686.981C276.017 674.407 293.965 663.443 307.776 654.034C296.575 644.771 281.179 633.917 260.084 621.481C96.7831 525.215 63.1897 467.472 60.6328 99.167Z"/>
</mask>
<path d="M60.6328 99.167L51.0914 77.7926L37.1198 84.0294L37.226 99.3295L60.6328 99.167ZM607.878 91.6885L631.283 92.0357L631.51 76.6823L617.518 70.3584L607.878 91.6885ZM423.385 621.481L412.126 600.96L412.126 600.96L423.385 621.481ZM370.374 654.626L356.446 635.814L333.456 652.835L354.69 672.002L370.374 654.626ZM416.087 686.981L427.974 666.817L427.974 666.817L416.087 686.981ZM615.538 1209.29L625.08 1230.67L639.051 1224.43L638.945 1209.13L615.538 1209.29ZM68.293 1216.77L44.9357 1218.31L45.8542 1232.32L58.6528 1238.1L68.293 1216.77ZM252.786 686.981L263.929 707.566L263.929 707.566L252.786 686.981ZM307.776 654.034L320.955 673.379L346.695 655.844L322.694 635.996L307.776 654.034ZM260.084 621.481L271.971 601.317L271.971 601.317L260.084 621.481ZM60.6328 99.167L70.1743 120.541C179.007 71.9589 260.573 48.1066 339.326 46.8657C417.873 45.6281 496.091 66.8531 598.238 113.019L607.878 91.6885L617.518 70.3584C512.269 22.791 426.833 -1.33365 338.589 0.0567623C250.552 1.44391 162.193 28.1973 51.0914 77.7926L60.6328 99.167ZM607.878 91.6885L584.473 91.3413C582.307 237.375 580.613 341.822 558.297 422.268C536.723 500.038 495.856 555.022 412.126 600.96L423.385 621.481L434.644 642.003C529.133 590.163 578.365 525.059 603.408 434.782C627.709 347.181 629.153 235.621 631.283 92.0357L607.878 91.6885ZM423.385 621.481L412.126 600.96C388.22 614.075 370.133 625.68 356.446 635.814L370.374 654.626L384.302 673.438C395.932 664.828 412.158 654.34 434.644 642.003L423.385 621.481ZM370.374 654.626L354.69 672.002C366.596 682.748 382.683 694.461 404.2 707.146L416.087 686.981L427.974 666.817C408.409 655.284 395.052 645.368 386.058 637.25L370.374 654.626ZM416.087 686.981L404.2 707.146C484.792 754.655 528.246 789.822 554.371 854.85C581.586 922.588 590.848 1024.63 592.131 1209.46L615.538 1209.29L638.945 1209.13C637.671 1025.65 628.858 914.673 597.811 837.397C565.676 757.412 510.683 715.574 427.974 666.817L416.087 686.981ZM615.538 1209.29L605.997 1187.92C497.164 1236.5 415.598 1260.36 336.845 1261.6C258.298 1262.83 180.08 1241.61 77.9332 1195.44L68.293 1216.77L58.6528 1238.1C163.901 1285.67 249.338 1309.8 337.582 1308.41C425.619 1307.02 513.978 1280.26 625.08 1230.67L615.538 1209.29ZM68.293 1216.77L91.6502 1215.24C82.4516 1074.88 77.9986 974.35 99.6132 895.084C120.464 818.618 166.178 760.48 263.929 707.566L252.786 686.981L241.643 666.396C134.956 724.147 79.2972 791.637 54.4475 882.768C30.3615 971.098 35.8808 1080.13 44.9357 1218.31L68.293 1216.77ZM252.786 686.981L263.929 707.566C287.709 694.694 306.36 683.322 320.955 673.379L307.776 654.034L294.598 634.689C281.571 643.564 264.324 654.119 241.643 666.396L252.786 686.981ZM307.776 654.034L322.694 635.996C310.331 625.772 293.869 614.226 271.971 601.317L260.084 621.481L248.197 641.646C268.489 653.608 282.819 663.769 292.859 672.072L307.776 654.034ZM260.084 621.481L271.971 601.317C191.379 553.808 147.925 518.641 121.799 453.612C94.5848 385.874 85.3227 283.83 84.0396 99.0045L60.6328 99.167L37.226 99.3295C38.4998 282.809 47.3128 393.789 78.3594 471.065C110.495 551.051 165.488 592.888 248.197 641.646L260.084 621.481Z" fill="#6C665D" mask="url(#path-19-outside-2_871_28016)"/>
<defs>
<filter id="filter0_g_871_28016" x="18.252" y="930.908" width="653.556" height="403.89" filterUnits="userSpaceOnUse" color-interpolation-filters="sRGB">
<feFlood flood-opacity="0" result="BackgroundImageFix"/>
<feBlend mode="normal" in="SourceGraphic" in2="BackgroundImageFix" result="shape"/>
<feTurbulence type="fractalNoise" baseFrequency="0.4011000394821167 0.4011000394821167" numOctaves="3" seed="8330" />
<feDisplacementMap in="shape" scale="74.794303894042969" xChannelSelector="R" yChannelSelector="G" result="displacedImage" width="100%" height="100%" />
<feMerge result="effect1_texture_871_28016">
<feMergeNode in="displacedImage"/>
</feMerge>
</filter>
<filter id="filter1_g_871_28016" x="298.046" y="963.127" width="355.332" height="208.6" filterUnits="userSpaceOnUse" color-interpolation-filters="sRGB">
<feFlood flood-opacity="0" result="BackgroundImageFix"/>
<feBlend mode="normal" in="SourceGraphic" in2="BackgroundImageFix" result="shape"/>
<feTurbulence type="fractalNoise" baseFrequency="0.4011000394821167 0.4011000394821167" numOctaves="3" seed="2092" />
<feDisplacementMap in="shape" scale="99.725738525390625" xChannelSelector="R" yChannelSelector="G" result="displacedImage" width="100%" height="100%" />
<feMerge result="effect1_texture_871_28016">
<feMergeNode in="displacedImage"/>
</feMerge>
</filter>
<filter id="filter2_g_871_28016" x="249.427" y="589.021" width="175.919" height="486.061" filterUnits="userSpaceOnUse" color-interpolation-filters="sRGB">
<feFlood flood-opacity="0" result="BackgroundImageFix"/>
<feBlend mode="normal" in="SourceGraphic" in2="BackgroundImageFix" result="shape"/>
<feTurbulence type="fractalNoise" baseFrequency="0.4011000394821167 0.4011000394821167" numOctaves="3" seed="2219" />
<feDisplacementMap in="shape" scale="125.00245666503906" xChannelSelector="R" yChannelSelector="G" result="displacedImage" width="100%" height="100%" />
<feMerge result="effect1_texture_871_28016">
<feMergeNode in="displacedImage"/>
</feMerge>
</filter>
<filter id="filter3_g_871_28016" x="-7.62939e-06" y="125.929" width="674.829" height="650.999" filterUnits="userSpaceOnUse" color-interpolation-filters="sRGB">
<feFlood flood-opacity="0" result="BackgroundImageFix"/>
<feBlend mode="normal" in="SourceGraphic" in2="BackgroundImageFix" result="shape"/>
<feTurbulence type="fractalNoise" baseFrequency="0.4011000394821167 0.4011000394821167" numOctaves="3" seed="2219" />
<feDisplacementMap in="shape" scale="125.00245666503906" xChannelSelector="R" yChannelSelector="G" result="displacedImage" width="100%" height="100%" />
<feMerge result="effect1_texture_871_28016">
<feMergeNode in="displacedImage"/>
</feMerge>
</filter>
<filter id="filter4_g_871_28016" x="18.2455" y="135.601" width="516.962" height="246.821" filterUnits="userSpaceOnUse" color-interpolation-filters="sRGB">
<feFlood flood-opacity="0" result="BackgroundImageFix"/>
<feBlend mode="normal" in="SourceGraphic" in2="BackgroundImageFix" result="shape"/>
<feTurbulence type="fractalNoise" baseFrequency="0.4011000394821167 0.4011000394821167" numOctaves="3" seed="9257" />
<feDisplacementMap in="shape" scale="99.725738525390625" xChannelSelector="R" yChannelSelector="G" result="displacedImage" width="100%" height="100%" />
<feMerge result="effect1_texture_871_28016">
<feMergeNode in="displacedImage"/>
</feMerge>
</filter>
<filter id="filter5_g_871_28016" x="240.133" y="737.102" width="211.508" height="285.442" filterUnits="userSpaceOnUse" color-interpolation-filters="sRGB">
<feFlood flood-opacity="0" result="BackgroundImageFix"/>
<feBlend mode="normal" in="SourceGraphic" in2="BackgroundImageFix" result="shape"/>
<feTurbulence type="fractalNoise" baseFrequency="0.16044002771377563 0.16044002771377563" numOctaves="3" seed="3631" />
<feDisplacementMap in="shape" scale="69.808021545410156" xChannelSelector="R" yChannelSelector="G" result="displacedImage" width="100%" height="100%" />
<feMerge result="effect1_texture_871_28016">
<feMergeNode in="displacedImage"/>
</feMerge>
</filter>
</defs>
</svg>
