<svg width="2109" height="1406" viewBox="0 0 2109 1406" fill="none" xmlns="http://www.w3.org/2000/svg">
<path d="M1600.84 198.73C1566.95 158.35 1460.12 165.277 1303.85 217.986C1147.57 270.696 954.656 364.87 767.536 479.793C580.417 594.715 414.421 720.972 306.068 830.787C197.714 940.602 155.879 1024.98 189.764 1065.36" stroke="#6C665D" stroke-width="15"/>
<path d="M1550.31 1013.58C1581.24 964.427 1541.58 873.66 1440.05 761.243C1338.52 648.825 1183.44 523.965 1008.92 414.131C834.4 304.297 654.742 218.485 509.467 175.573C364.192 132.662 265.2 136.165 234.269 185.313" stroke="#6C665D" stroke-width="15" stroke-dasharray="41.06 41.06"/>
<path d="M1821.25 1176.09L1647.52 1193.13C1644.15 1193.46 1641.1 1192.59 1638.35 1190.52C1635.79 1188.23 1634.34 1185.4 1634.01 1182.04C1633.62 1178.04 1634.07 1173.97 1635.36 1169.81C1636.65 1165.65 1638.33 1161.13 1640.4 1156.26C1643.52 1149.17 1646.32 1140.93 1648.8 1131.56C1651.28 1122.2 1651.88 1111 1650.6 1097.96L1619.62 782.034C1595.81 792.433 1572.43 803.958 1549.47 816.607C1525.72 829.76 1501.32 841.702 1476.27 852.435L1501.78 1112.56C1503.06 1125.59 1505.82 1136.46 1510.07 1145.17C1514.53 1153.86 1518.98 1161.38 1523.42 1167.73C1526.4 1172.11 1528.92 1176.21 1531 1180.04C1533.07 1183.87 1534.3 1187.78 1534.69 1191.78C1535.02 1195.14 1534.05 1198.21 1531.78 1200.98C1529.69 1203.51 1526.97 1204.95 1523.6 1205.28L1349.87 1222.31C1346.51 1222.64 1343.45 1221.78 1340.71 1219.71C1337.94 1217.44 1336.39 1214.62 1336.06 1211.25C1335.66 1207.26 1336.11 1203.18 1337.4 1199.03C1338.69 1194.87 1340.37 1190.35 1342.44 1185.48C1345.57 1178.38 1348.37 1170.15 1350.84 1160.78C1353.53 1151.39 1354.24 1140.18 1352.96 1127.15L1327.63 868.921C1317.17 866.127 1306.53 862.502 1295.69 858.047C1290.99 855.537 1288.45 852.39 1288.08 848.607C1287.75 845.243 1288.61 842.082 1290.65 839.123C1292.91 836.143 1295.71 834.488 1299.08 834.158C1300.97 833.973 1303.02 834.302 1305.22 835.147C1311.88 838.102 1318.48 840.532 1325.04 842.436L1313.01 719.785C1311.71 706.542 1308.83 695.577 1304.37 686.889C1300.12 678.18 1295.78 670.648 1291.33 664.293C1288.36 659.916 1285.84 655.918 1283.79 652.299C1281.72 648.47 1280.49 644.559 1280.09 640.565C1279.74 636.992 1280.72 633.925 1283.01 631.366C1285.31 628.806 1288.14 627.362 1291.5 627.032C1308.74 625.342 1324.97 620.991 1340.2 613.98C1355.43 606.969 1370.16 599.263 1384.41 590.863C1397.26 583.448 1409.87 576.8 1422.24 570.918C1434.82 565.016 1447.52 561.436 1460.34 560.178C1463.71 559.849 1466.67 560.832 1469.23 563.127C1471.98 565.192 1473.53 568.011 1473.88 571.585C1474.27 575.578 1473.82 579.655 1472.53 583.813C1471.22 587.762 1469.53 592.172 1467.46 597.044C1464.34 604.141 1461.43 612.384 1458.74 621.773C1456.27 631.141 1455.68 642.447 1456.98 655.689L1473.7 826.266C1496.27 816.2 1518.54 805.21 1540.5 793.294C1565.48 779.597 1591 767.226 1617.08 756.18L1610.65 690.598C1609.35 677.355 1606.47 666.39 1602.01 657.702C1597.76 648.993 1593.52 641.45 1589.29 635.074C1586.31 630.697 1583.8 626.7 1581.75 623.081C1579.67 619.252 1578.44 615.341 1578.05 611.347C1577.7 607.774 1578.57 604.717 1580.65 602.178C1582.95 599.619 1585.78 598.174 1589.14 597.844C1606.38 596.154 1622.61 591.804 1637.84 584.792C1653.07 577.781 1667.8 570.076 1682.05 561.676C1694.9 554.261 1707.52 547.612 1719.88 541.731C1732.46 535.828 1745.16 532.249 1757.99 530.991C1761.35 530.661 1764.31 531.644 1766.87 533.94C1769.62 536.005 1771.17 538.824 1771.52 542.397C1771.91 546.391 1771.46 550.467 1770.17 554.626C1768.86 558.574 1767.17 562.985 1765.1 567.856C1761.98 574.954 1759.07 583.197 1756.39 592.586C1753.91 601.954 1753.32 613.26 1754.62 626.502L1766.03 742.847C1776.72 745.831 1787.62 749.855 1798.73 754.92C1803.01 757.472 1805.33 760.639 1805.71 764.423C1806.04 767.786 1805.18 770.947 1803.13 773.906C1801.09 776.866 1798.28 778.52 1794.71 778.871C1792.82 779.056 1790.65 778.632 1788.22 777.597C1781.77 774.622 1775.26 772.077 1768.69 769.963L1799.42 1083.37C1800.7 1096.4 1803.46 1107.27 1807.71 1115.98C1812.17 1124.67 1816.62 1132.19 1821.07 1138.55C1824.04 1142.92 1826.57 1147.03 1828.64 1150.85C1830.71 1154.68 1831.94 1158.6 1832.34 1162.59C1832.67 1165.95 1831.69 1169.02 1829.42 1171.79C1827.33 1174.33 1824.61 1175.76 1821.25 1176.09Z" fill="#949F65"/>
<path d="M1456.97 655.688C1455.68 642.446 1456.27 631.14 1458.74 621.772C1461.09 613.556 1463.61 606.219 1466.3 599.758L1467.46 597.042C1469.27 592.779 1470.79 588.87 1472.02 585.314L1472.53 583.812C1473.74 579.914 1474.21 576.087 1473.94 572.333L1473.87 571.582C1473.52 568.009 1471.97 565.191 1469.22 563.126C1466.67 560.83 1463.7 559.847 1460.34 560.177C1447.52 561.434 1434.82 565.014 1422.24 570.916C1409.87 576.798 1397.26 583.447 1384.4 590.862C1370.16 599.262 1355.42 606.967 1340.2 613.978L1337.33 615.262C1322.93 621.523 1307.66 625.446 1291.5 627.03C1288.13 627.36 1285.3 628.804 1283.01 631.363C1280.71 633.923 1279.74 636.991 1280.09 640.564L1280.17 641.311C1280.64 645.045 1281.84 648.707 1283.79 652.297C1285.84 655.915 1288.35 659.913 1291.33 664.29C1295.77 670.645 1300.12 678.178 1304.37 686.886C1308.83 695.574 1311.71 706.54 1313.01 719.782L1325.03 842.435C1318.48 840.531 1311.88 838.1 1305.22 835.145C1303.01 834.301 1300.97 833.971 1299.07 834.157C1295.71 834.487 1292.9 836.142 1290.65 839.121C1288.61 842.08 1287.75 845.241 1288.08 848.604C1288.45 852.387 1290.98 855.536 1295.69 858.046C1306.52 862.501 1317.17 866.126 1327.63 868.92L1352.95 1127.15C1354.23 1140.18 1353.53 1151.39 1350.84 1160.78C1348.36 1170.15 1345.56 1178.38 1342.44 1185.48C1340.37 1190.35 1338.69 1194.87 1337.4 1199.03L1336.96 1200.58C1336.01 1204.2 1335.71 1207.76 1336.05 1211.25C1336.38 1214.62 1337.93 1217.44 1340.7 1219.71C1343.45 1221.78 1346.51 1222.64 1349.87 1222.31L1523.6 1205.28C1526.75 1204.97 1529.34 1203.69 1531.37 1201.44L1531.77 1200.98C1533.91 1198.38 1534.89 1195.52 1534.74 1192.4L1534.69 1191.77C1534.35 1188.28 1533.36 1184.85 1531.73 1181.48L1530.99 1180.04C1529.18 1176.69 1527.02 1173.13 1524.51 1169.36L1523.42 1167.73C1518.98 1161.38 1514.53 1153.85 1510.07 1145.17C1505.82 1136.46 1503.05 1125.59 1501.77 1112.55L1476.27 852.433C1501.32 841.7 1525.72 829.758 1549.47 816.606C1572.42 803.956 1595.81 792.431 1619.62 782.032L1650.6 1097.96C1651.87 1110.99 1651.27 1122.19 1648.8 1131.56C1646.32 1140.93 1643.52 1149.16 1640.4 1156.26L1639.64 1158.07C1637.91 1162.25 1636.49 1166.17 1635.36 1169.81L1634.91 1171.36C1633.97 1174.98 1633.67 1178.54 1634.01 1182.03C1634.34 1185.4 1635.79 1188.23 1638.34 1190.52C1641.09 1192.59 1644.15 1193.46 1647.51 1193.13L1821.24 1176.09C1824.4 1175.78 1826.99 1174.5 1829.02 1172.25L1829.41 1171.79C1831.69 1169.02 1832.66 1165.95 1832.33 1162.59C1831.99 1159.09 1831 1155.66 1829.37 1152.29L1828.64 1150.85C1826.82 1147.5 1824.66 1143.94 1822.16 1140.17L1821.06 1138.54C1816.62 1132.19 1812.17 1124.67 1807.71 1115.98C1803.46 1107.27 1800.69 1096.4 1799.42 1083.37L1768.68 769.961C1775.26 772.075 1781.77 774.62 1788.21 777.596C1790.65 778.63 1792.81 779.054 1794.7 778.869C1798.28 778.518 1801.09 776.863 1803.13 773.904C1805.05 771.13 1805.92 768.179 1805.75 765.05L1805.7 764.422C1805.36 760.875 1803.29 757.868 1799.5 755.405L1798.72 754.918C1787.62 749.853 1776.72 745.83 1766.02 742.847L1754.62 626.501C1753.32 613.258 1753.91 601.953 1756.38 592.584C1758.73 584.369 1761.25 577.031 1763.94 570.57L1765.1 567.855C1766.91 563.592 1768.43 559.683 1769.66 556.127L1770.17 554.625C1771.46 550.466 1771.91 546.389 1771.52 542.395C1771.17 538.822 1769.62 536.004 1766.87 533.939C1764.31 531.643 1761.35 530.66 1757.98 530.989C1745.16 532.247 1732.46 535.827 1719.88 541.729C1707.51 547.611 1694.9 554.26 1682.05 561.675C1667.8 570.075 1653.07 577.78 1637.84 584.791L1634.97 586.075C1620.57 592.336 1605.3 596.259 1589.14 597.843C1585.78 598.173 1582.95 599.617 1580.65 602.176L1580.27 602.66C1578.46 605.1 1577.72 607.996 1578.05 611.346L1578.13 612.093C1578.6 615.827 1579.8 619.489 1581.74 623.078C1583.8 626.697 1586.31 630.695 1589.29 635.072C1593.52 641.447 1597.76 648.991 1602.01 657.699C1606.47 666.387 1609.35 677.353 1610.65 690.595L1617.08 756.179C1591 767.225 1565.47 779.596 1540.5 793.293C1518.54 805.209 1496.27 816.2 1473.7 826.265L1456.97 655.688ZM1796.7 539.926C1797.44 547.552 1796.54 555.016 1794.33 562.118L1794.26 562.357L1794.18 562.595C1792.61 567.339 1790.65 572.402 1788.39 577.743L1788.32 577.896L1788.26 578.047C1785.72 583.803 1783.21 590.835 1780.79 599.265C1779.35 604.849 1778.7 612.889 1779.79 624.032L1789.58 723.858C1796.11 726.225 1802.66 728.906 1809.22 731.898L1810.48 732.474L1811.67 733.184C1820.51 738.448 1829.49 747.787 1830.88 761.952C1831.84 771.673 1829.16 780.745 1823.95 788.285C1817.73 797.28 1808.32 802.873 1797.44 804.017L1824.6 1080.9C1825.66 1091.78 1827.84 1099.45 1830.35 1104.68C1833.86 1111.5 1837.22 1117.25 1840.42 1122.03L1841.8 1124.05L1841.89 1124.18L1841.98 1124.32C1845.34 1129.26 1848.33 1134.09 1850.88 1138.81C1854.43 1145.35 1856.76 1152.49 1857.51 1160.12C1858.54 1170.6 1855.21 1180.24 1848.97 1187.84C1842.49 1195.73 1833.54 1200.31 1823.71 1201.27L1649.98 1218.31C1640.2 1219.26 1630.86 1216.55 1623.15 1210.75L1622.27 1210.09L1621.45 1209.36C1614.27 1202.92 1609.79 1194.29 1608.83 1184.5C1608.08 1176.88 1608.99 1169.41 1611.19 1162.31C1612.78 1157.19 1614.78 1151.87 1617.11 1146.37L1617.17 1146.22L1617.24 1146.07C1619.72 1140.43 1622.12 1133.49 1624.34 1125.09C1625.83 1119.46 1626.5 1111.45 1625.42 1100.43L1597.91 819.941C1585.73 825.893 1573.67 832.156 1561.72 838.738L1561.73 838.74C1542.63 849.312 1523.13 859.12 1503.23 868.174L1526.95 1110.08C1528.02 1120.99 1530.21 1128.68 1532.73 1133.91C1536.23 1140.71 1539.59 1146.45 1542.78 1151.22L1544.16 1153.24L1544.25 1153.37L1544.34 1153.51C1547.7 1158.44 1550.69 1163.28 1553.24 1167.99C1556.78 1174.53 1559.12 1181.68 1559.87 1189.3C1560.9 1199.78 1557.57 1209.43 1551.32 1217.03C1544.85 1224.92 1535.9 1229.49 1526.07 1230.46L1352.34 1247.49C1342.56 1248.45 1333.22 1245.73 1325.51 1239.94L1325.07 1239.61L1324.64 1239.26C1317.04 1233.01 1311.9 1224.2 1310.87 1213.72C1310.13 1206.1 1311.03 1198.63 1313.24 1191.53C1314.82 1186.41 1316.82 1181.08 1319.15 1175.59L1319.22 1175.44L1319.28 1175.29C1321.77 1169.65 1324.16 1162.71 1326.38 1154.31L1326.45 1154.07L1326.52 1153.82C1328.08 1148.34 1328.84 1140.5 1327.77 1129.62L1304.1 888.205C1298.11 886.178 1292.1 883.924 1286.07 881.444L1284.89 880.963L1283.78 880.365C1274.87 875.614 1264.4 866.389 1262.9 851.073C1261.94 841.353 1264.62 832.28 1269.83 824.74L1270.14 824.293L1270.47 823.856C1276.44 815.971 1285.29 810.169 1296.34 809.006L1287.83 722.251C1286.73 711.103 1284.44 703.471 1281.86 698.44L1281.74 698.213L1281.63 697.981C1277.83 690.179 1274.13 683.836 1270.6 678.788L1270.5 678.651L1270.41 678.516C1267.15 673.717 1264.25 669.127 1261.78 664.779L1261.66 664.563L1261.54 664.344C1258 657.804 1255.66 650.659 1254.91 643.033C1253.9 632.756 1256.91 622.569 1264.17 614.472L1264.78 613.806C1271.15 607.014 1279.55 602.781 1289.03 601.851L1291.74 601.558C1305.23 599.964 1317.82 596.427 1329.62 590.997C1344.08 584.338 1358.06 577.029 1371.55 569.07L1371.76 568.945C1385.15 561.223 1398.35 554.259 1411.37 548.067L1411.43 548.039L1411.49 548.013C1426.48 540.983 1441.96 536.557 1457.87 534.997C1468.03 534.001 1477.62 537.103 1485.22 543.512C1493.42 550.013 1498.08 559.154 1499.05 569.113C1499.8 576.739 1498.89 584.203 1496.69 591.306L1496.62 591.544L1496.54 591.782C1494.97 596.526 1493.01 601.59 1490.74 606.931L1490.68 607.084L1490.62 607.234C1488.09 612.982 1485.58 620 1483.16 628.414C1481.71 634 1481.06 642.051 1482.15 653.219L1495.38 788.149C1505.12 783.354 1514.8 778.379 1524.42 773.219L1528.44 771.053C1548.64 759.978 1569.19 749.744 1590.11 740.349L1585.47 693.064C1584.38 681.916 1582.08 674.284 1579.5 669.253L1579.39 669.026L1579.27 668.794C1575.39 660.838 1571.69 654.308 1568.21 649.067L1568.21 649.065C1565.01 644.35 1562.17 639.839 1559.74 635.561L1559.62 635.345L1559.5 635.126C1555.96 628.586 1553.62 621.441 1552.87 613.815C1551.93 604.246 1554.34 594.35 1561.1 586.119L1561.45 585.693L1561.81 585.285C1568.26 578.104 1576.89 573.623 1586.67 572.664L1589.38 572.371C1602.87 570.776 1615.46 567.24 1627.26 561.81C1641.72 555.151 1655.7 547.842 1669.19 539.882L1669.41 539.757C1682.79 532.036 1696 525.071 1709.02 518.88L1709.07 518.852L1709.13 518.826C1724.12 511.796 1739.61 507.37 1755.51 505.81C1765.67 504.814 1775.26 507.916 1782.86 514.325C1791.06 520.826 1795.72 529.967 1796.7 539.926Z" fill="#6C665D"/>
<g filter="url(#filter0_d_853_14097)">
<path d="M573.715 138.647C553.046 486.856 589.765 551.604 750.407 663.813C772.285 679.095 788.102 692.181 799.494 703.185C783.701 712.247 763.282 722.65 736.99 734.362C507.592 836.555 495.862 987.706 492.236 1286.69L490.024 1287.12L494.638 1311.21C491.645 1309.6 488.636 1307.96 485.613 1306.3L478.468 1302.39L478.562 1294.24C480.321 1142.82 483.575 1026.1 516.342 934.419C549.677 841.155 613.091 774.688 731.463 721.955C748.937 714.171 763.707 707.004 776.167 700.472C767.158 692.874 756.123 684.373 742.629 674.948C657.386 615.405 603.955 567.264 576.988 481.597C551.432 400.411 550.045 286.587 562.622 98.9049L573.715 138.647ZM1128.74 79.182C1145.1 87.2927 1161.88 96.0857 1179.18 105.567L1186.99 109.85L1186.17 118.722C1171.76 275.139 1160.91 394.394 1127.81 485.738C1094.16 578.597 1037.54 642.784 933.395 689.885C915.872 697.81 901.494 705.087 889.716 711.672C898.227 719.229 908.879 727.647 922.159 736.924C1007.4 796.467 1060.83 844.607 1087.8 930.274C1106.01 988.137 1111.95 1062.58 1109.31 1168.53L1095.64 1171.14C1102.51 910.674 1057.9 848.308 914.381 748.058C893.078 733.178 877.991 720.192 867.43 709.068C881.967 699.948 901.532 689.389 927.798 677.51C1123.29 589.094 1142.62 441.321 1169.97 146.472L1172.65 117.476C1150.62 105.397 1129.48 94.4728 1109.02 84.6846L1128.74 79.182Z" fill="#6C665D"/>
<path d="M582.259 1021.69C579.449 1036.6 575.938 1051.17 572.169 1069.74C572.168 1069.75 572.166 1069.76 572.165 1069.77C571.625 1072.46 571.071 1075.3 570.533 1078.11C566.161 1101.34 561.463 1132.02 558.491 1180.41C555.851 1223.99 551.861 1260.79 547.563 1287.37L549.187 1329.66L502.646 1341.04C501.879 1341.07 501.12 1341.1 500.37 1341.13L544.034 1276.78C544.228 1281.91 544.335 1286.65 544.366 1290.96C544.387 1293.93 544.561 1296.94 545.109 1301.55L569.01 1405.04L470.224 1356.43C467.838 1354.92 464.916 1353.15 461.16 1350.9C460.561 1350.54 459.936 1350.17 459.289 1349.79C457.705 1348.84 455.998 1347.84 454.149 1346.75L429.16 1334.65L427.881 1301.8C427.984 1299.31 428.089 1296.61 428.201 1293.65C428.436 1287.35 428.697 1280.05 429.023 1271.2C429.349 1262.4 429.737 1252.05 430.248 1240C432.003 1199.98 432.894 1137 438.262 1077.35C441.452 1041.19 446.666 1006.31 452.756 979.708C457.441 959.004 463.372 938.629 471.093 918.247C477.893 900.322 486.07 882.418 496.182 864.504C515.912 829.471 543.481 794.402 581.094 762.67C609.987 738.27 642.492 721.909 675.412 709.12C679.592 707.5 683.885 705.884 688.08 704.375C698.334 700.661 708.501 697.298 718.997 693.971C734.01 689.363 749.17 684.165 764.27 677.779L759.649 720.058C757.283 717.69 754.816 715.33 752.27 712.994C744.784 706.129 737.081 699.828 729.345 693.966C694.035 667.149 661.669 645.052 629.602 614.66C614.283 599.99 599.159 583.149 585.628 562.594C573.216 543.894 560.506 518.386 551.557 489.602C544.934 468.595 540.142 446.098 536.829 423.669C536.156 419.131 535.542 414.637 534.978 410.108C534.976 410.085 534.973 410.062 534.97 410.039C528.997 361.498 528.682 314.593 528.409 280.337C528.296 226.038 528.183 205.709 527.61 188.695C527.441 182.271 527.292 176.4 527.318 169.343C527.378 150.514 528.775 124.644 530.746 96.7687L593.394 90.3161C595.943 99.5741 598.534 109.073 601.135 118.604C601.174 118.746 601.213 118.887 601.253 119.028C602.931 125.18 600.351 131.244 595.492 132.569C590.632 133.893 585.328 129.98 583.65 123.827C580.999 114.112 578.38 104.512 575.822 95.2207L548.949 97.9886C548.247 107.949 547.634 117.348 547.118 126.388C551.38 127.591 554.36 132.483 553.982 138.295C553.18 152.616 553.244 196.954 557.415 265.798C558.267 261.146 559.107 257.157 559.906 253.715C560.842 249.724 561.652 246.632 562.349 243.961C563.805 238.359 564.77 234.835 565.616 228.208C566.809 213.091 567.923 189.112 569.416 164.047C569.789 157.757 574.184 152.799 579.208 153.114C584.235 153.427 587.989 158.869 587.621 165.123C587.615 165.246 587.608 165.368 587.602 165.491C586.129 190.219 584.992 214.785 583.746 230.474C583.424 234.504 583.096 237.927 582.816 240.482C582.592 242.531 582.297 245.163 581.968 246.588C581.924 246.778 581.836 247.141 581.705 247.572C581.702 247.579 581.699 247.587 581.695 247.594C581.623 247.835 581.254 249.066 580.485 250.366C580.33 250.628 579.983 251.198 579.43 251.856C579.384 252.028 579.339 252.199 579.294 252.371C578.668 254.736 578.033 257.254 577.416 259.926C575.071 270.258 571.764 286.913 569.528 321.414C568.047 352.936 567.005 407.745 584.603 471.264C583.741 466.933 582.93 462.504 582.201 458.125C580.352 447.06 578.914 435.879 577.823 424.644C577.395 420.277 577.051 416.126 576.716 411.721C576.202 404.788 575.797 397.728 575.5 390.697C575.302 385.963 575.144 381.176 575.038 376.416C575.037 376.405 575.036 376.395 575.035 376.384C574.886 369.751 574.825 363.087 574.852 356.428C574.87 354.082 574.89 351.712 574.921 349.452C575.036 340.283 575.261 331.242 576.109 320.884C576.261 319.617 576.465 318.198 576.64 317.198C576.824 316.108 577.014 315.055 577.21 314.056C577.382 313.175 577.56 312.333 577.726 311.523C577.748 311.415 577.77 311.306 577.792 311.197C577.977 310.291 578.149 309.422 578.313 308.584C578.476 307.748 578.633 306.941 578.77 306.144C578.77 306.136 578.769 306.129 578.769 306.122C578.909 305.303 579.015 304.692 579.135 303.827C579.285 302.744 579.4 301.809 579.514 300.674C579.625 299.576 579.724 298.426 579.81 297.261C579.897 296.096 579.973 294.903 580.043 293.692C580.114 292.51 580.18 291.303 580.24 290.082C580.301 288.861 580.355 287.62 580.411 286.366C580.467 285.112 580.524 283.839 580.581 282.555C580.713 279.6 581.744 276.865 583.477 274.81C585.211 272.766 587.494 271.636 589.842 271.675C592.191 271.714 594.435 272.918 596.108 274.995C597.781 277.086 598.743 279.808 598.817 282.736C598.837 283.532 598.86 284.33 598.881 285.128C598.893 285.603 598.901 286.081 598.913 286.556C598.946 287.833 598.983 289.118 599.011 290.405C599.038 291.696 599.058 292.964 599.074 294.297C599.089 295.636 599.1 296.986 599.095 298.348C599.09 299.707 599.071 301.089 599.031 302.486C598.993 303.859 598.922 305.366 598.831 306.801C598.766 307.835 598.652 309.104 598.549 310.158C598.442 311.258 598.321 312.337 598.195 313.373C598.068 314.412 597.933 315.412 597.808 316.365C597.795 316.467 597.782 316.568 597.77 316.67C597.659 317.502 597.552 318.347 597.459 319.128C597.355 320.004 597.269 320.83 597.198 321.613C597.119 322.475 597.092 322.996 597.064 323.635C596.993 332.018 597.45 342.501 598.056 352.274C598.133 353.52 598.21 354.753 598.289 355.965C598.717 362.347 599.231 368.768 599.83 375.156C600.261 379.744 600.746 384.4 601.265 388.941C602.037 395.709 602.906 402.422 603.881 409.028C604.494 413.192 605.122 417.155 605.819 421.243C607.628 431.837 609.754 442.267 612.238 452.453C613.601 458.049 615.097 463.649 616.689 469.099C618 473.583 619.377 477.977 620.832 482.316C624.073 491.998 627.865 501.801 631.905 511.086C634.858 517.922 637.902 524.967 640.98 531.471C642.63 534.968 644.325 538.374 646.08 541.717C646.086 541.729 646.091 541.741 646.096 541.754C647.637 544.688 649.226 547.568 650.887 550.4C654.446 556.478 658.301 562.308 662.521 567.977C666.742 573.646 671.263 579.085 676.153 584.402C681.014 589.686 686.209 594.829 691.641 599.786C697.087 604.756 702.643 609.452 708.698 614.265C716.642 620.565 724.83 626.576 733.405 632.638C741.92 638.651 750.686 644.589 759.583 650.5C759.611 650.518 759.639 650.537 759.667 650.556C762.942 652.738 766.209 654.964 769.474 657.231C769.486 657.24 769.499 657.249 769.511 657.258C775.605 661.49 781.677 665.878 787.705 670.492C790.468 672.607 793.223 674.771 795.967 676.994L830.49 709.052L790.428 727.673C783.357 731.566 776.243 735.293 769.08 738.889C760.894 742.998 752.63 746.946 744.287 750.742C742.38 751.611 740.486 752.481 738.605 753.352C729.018 757.784 719.262 762.485 709.539 767.236C700.906 771.46 692.226 775.909 683.984 780.448C681.79 781.656 679.624 782.872 677.484 784.096C667.237 789.968 657.638 796.088 648.652 802.717C639.67 809.335 631.206 816.522 623.28 824.295C615.377 832.044 607.98 840.398 601.198 849.243C594.386 858.128 588.322 867.313 582.803 877.019C577.331 886.654 572.49 896.665 568.233 907.079C565.861 912.867 563.471 919.066 561.339 925.003C559.191 930.977 557.178 937 555.332 942.988C554.835 944.599 554.347 946.214 553.87 947.832C553.63 948.648 553.393 949.465 553.159 950.282C552.146 953.819 551.19 957.353 550.308 960.852C548.816 966.77 547.529 972.601 546.459 978.336C545.389 984.069 544.543 989.705 543.946 995.193C543.33 1000.89 543.018 1005.65 542.887 1011.34C542.102 1025.16 541.348 1033.75 540.592 1043.29C540.444 1045.2 540.311 1047.1 540.178 1049.11C539.329 1060.61 538.543 1072.22 537.835 1083.68C537.115 1095.28 536.463 1106.78 535.823 1118.51C535.193 1130.1 534.575 1141.83 533.957 1153.61C533.342 1165.35 532.724 1177.09 532.065 1188.98C531.409 1200.78 530.7 1212.95 529.965 1224.62C529.541 1231.34 529.03 1238.6 528.532 1245.22C528.173 1250.04 527.807 1254.82 527.451 1259.46C527.306 1261.37 527.162 1263.27 527.022 1265.16C526.538 1271.61 526.092 1277.95 525.741 1284.02C525.53 1287.65 525.351 1291.23 525.212 1294.78C525.119 1297.15 525.043 1299.5 524.988 1301.83C524.979 1302.2 524.971 1302.56 524.963 1302.93L500.82 1261.61C503.208 1262.95 505.587 1264.26 507.967 1265.53C510.23 1266.73 512.503 1267.91 514.799 1269.06C515.495 1269.41 516.177 1269.74 516.849 1270.07L448.72 1320.01C447.619 1315.23 446.552 1310.97 445.138 1305.74C444.265 1302.52 443.4 1299.36 442.538 1296.21L435.526 1245.97L480.928 1239.63C481.638 1239.44 482.347 1239.24 483.056 1239.05C483.073 1239.05 483.09 1239.04 483.106 1239.04L443.715 1286.11C443.321 1280.05 442.922 1274.09 442.509 1268.13C442.096 1262.19 441.676 1256.32 441.245 1250.28C441.106 1248.35 440.96 1246.32 440.817 1244.4C440.377 1238.41 439.923 1232.78 439.456 1226.73C438.988 1220.79 438.502 1214.96 437.989 1209.2C437.471 1203.51 436.948 1197.5 436.38 1191.66C435.409 1181.74 435.163 1172.02 435.107 1163.62C435.055 1155.22 435.213 1147.05 435.408 1139.29C435.444 1137.83 435.483 1136.38 435.522 1134.92C435.692 1128.79 435.923 1122.31 436.135 1116.23C436.397 1108.73 436.673 1101.19 436.962 1093.65C437.245 1086.25 437.553 1078.64 437.868 1071.11C438.179 1063.59 438.501 1056.28 438.883 1048.34C439.256 1040.59 439.584 1032.5 440.098 1023.66C440.582 1015.06 441.343 1005.49 442.379 996.184C443.454 986.64 444.828 977.124 446.648 967.389C448.454 957.702 450.649 948.004 453.249 938.389C455.821 928.85 458.895 919.084 462.316 909.645C465.774 900.089 469.76 890.417 473.981 881.36C480.763 866.787 488.567 852.452 497.357 838.651C506.094 824.925 515.845 811.688 526.377 799.262C536.872 786.868 548.244 775.169 559.966 764.508C571.859 753.68 584.138 743.848 596.625 734.849C599.399 732.848 602.278 730.821 605.051 728.918C614.769 722.242 624.954 715.809 634.911 709.971C634.981 709.931 635.051 709.892 635.121 709.853C648.124 702.224 661.091 695.352 673.828 689.075C678.556 686.741 683.289 684.472 687.913 682.305C692.488 680.162 697.036 678.078 701.684 675.989C704.264 674.829 706.855 673.676 709.446 672.533C711.194 671.764 712.912 670.997 714.618 670.225C718.486 668.473 722.213 666.732 725.928 664.919C729.326 663.264 732.671 661.56 736.261 659.695C736.591 659.523 736.921 659.352 737.248 659.181C741.175 657.132 745.6 654.826 749.681 652.752C755.243 649.936 760.572 647.099 765.656 644.22L752.261 752.081C748.921 748.809 745.15 745.415 741.087 741.995C732.703 734.937 723.274 727.906 713.285 721.002C712.655 720.566 712.021 720.13 711.377 719.689C707.474 717.009 703.606 714.338 699.789 711.671C692.707 706.724 685.411 701.532 678.181 696.216C666.244 687.438 654.311 678.216 642.298 668.022C630.334 657.86 618.538 646.927 607.088 634.754C595.713 622.665 584.723 609.311 574.922 595.028C564.007 579.15 554.491 562.133 546.688 544.52C538.913 526.993 532.915 509.124 528.34 491.407C523.744 473.594 520.637 456.384 518.345 439.015C516.141 422.131 514.752 404.894 514.012 388.537C513.54 378.429 513.316 368.891 513.216 358.937C512.477 353.563 511.834 349.02 511.23 344.25C506.888 309.452 504.855 284.557 503.993 251.851C503.835 248.789 503.576 246.277 503.271 243.198C503.213 242.61 503.156 241.986 503.094 241.348C502.707 237.328 502.323 232.567 502.204 226.093C501.955 213.565 502.818 193.961 508.366 168.84C509.764 162.561 514.826 158.95 519.667 160.532C523.062 161.676 525.45 165.034 526.093 169.162C527.059 161.738 528.07 154.402 529.107 146.865C529.522 143.864 530.818 141.076 532.735 139.148C534.651 137.22 537.023 136.311 539.353 136.627C541.684 136.942 543.797 138.461 545.263 140.834C546.726 143.206 547.42 146.228 547.212 149.235C546.653 157.276 546.142 164.807 545.661 172.873C545.178 180.953 544.764 188.839 544.406 196.598C544.045 204.433 543.725 212.676 543.476 220.491C543.231 228.15 543.015 236.47 542.875 244.377C542.733 252.3 542.654 260.202 542.629 268.311C542.615 273.135 542.62 277.916 542.654 282.606C542.665 284.437 542.686 286.213 542.704 287.981C542.72 289.426 542.734 290.872 542.753 292.353C542.966 307.695 543.435 323.428 544.272 339.129C545.106 354.698 546.278 370.23 548.026 386.249C549.734 401.826 552.036 417.915 555.054 433.484C558.132 449.389 561.961 465.033 566.974 480.656C571.989 496.276 578.156 511.631 585.702 526.376C591.567 537.845 598.142 548.717 605.481 559.128C608.666 563.018 611.885 566.765 615.143 570.387C624.608 580.914 635.088 590.377 645.688 598.88C628.284 582.229 615.146 567.354 603.928 552.052C602.421 549.99 600.965 547.942 599.534 545.863C585.034 524.621 573.414 501.818 565.01 469.834C544.113 378.568 549.559 326.397 549.349 294.082C550.491 261.703 552.746 248.053 556.522 235.152C561.862 217.167 566.147 182.384 567.228 164.731C567.597 158.464 571.998 153.525 577.024 153.839C582.051 154.151 585.809 159.571 585.442 165.803C584.302 184.454 579.871 221.532 573.581 243.087C570.804 252.472 568.681 263.543 567.571 295.033C567.74 326.277 562.653 378.032 582.685 465.301C590.412 494.619 600.762 515.07 614.085 534.773C615.401 536.701 616.755 538.614 618.141 540.525C618.149 540.538 618.157 540.55 618.165 540.562C631.016 558.188 646.941 575.819 670.428 596.895C694.658 618.692 725.445 640.155 753.958 658.729C774.268 671.949 792.275 685.375 805.388 697.082L813.559 704.229L803.716 710.543C792.569 717.56 783.792 722.596 778.888 725.572C774.874 727.998 770.997 730.354 766.877 732.803C760.019 736.877 752.47 741.246 742.414 746.537C729.513 753.402 713.243 761.824 690.161 775.858C681.301 781.288 671.12 787.717 660.227 795.339C645.317 808.613 632.35 822.286 621.6 834.553C612.366 845.08 605.454 856.063 599.842 867.025C598.214 870.198 596.675 873.42 595.215 876.645C591.679 884.442 588.574 892.337 585.623 899.949C583.261 906.03 581.178 912.507 579.235 919.46C572.183 944.856 567.325 975.222 559.357 1016.43C551.054 1060.13 547.033 1099.96 543.911 1134.69C546.568 1109.25 549.712 1089.87 552.694 1074.2C553.256 1071.25 553.825 1068.33 554.375 1065.6C558.269 1046.49 561.636 1032.69 564.33 1018.35C578.313 949.634 589.637 929.434 599.313 903.133C602.07 896.363 605.215 888.81 609.089 880.85C616.809 864.925 627.827 847.079 643.704 830.72C658.412 815.49 676.563 799.08 697.917 783.288C697.926 783.283 697.935 783.278 697.944 783.273C702.05 780.219 706.563 777.029 710.826 774.063C721.6 766.612 732.92 759.399 745.022 752.393C763.414 741.81 781.853 730.796 799.706 719.28C801.668 718.014 803.852 716.564 806.237 714.936L821.954 704.853L808.907 693.44C807.462 692.243 805.923 690.999 804.294 689.713C792.503 680.381 775.905 669.014 755.73 656.193C734.869 642.879 710.691 626.215 687.559 604.462C677.732 595.164 668.209 584.606 658.621 572.068C655.68 568.219 652.792 564.233 649.834 559.945C637.244 541.525 623.783 518.393 612.725 484.887C603.507 457.356 596.7 421.518 593.663 383.435C592.092 364.412 591.33 345.497 591.101 326.125C590.568 268.219 594.404 214.452 598.808 161.413C598.809 161.403 598.809 161.392 598.81 161.381C599.34 155.123 603.863 150.347 608.875 150.862C613.885 151.376 617.501 156.943 616.977 163.154C612.59 215.957 608.81 269.287 609.341 326.013C609.566 344.794 610.303 363.164 611.816 381.6C614.761 418.866 621.409 453.463 630.107 479.336C640.613 511.055 653.165 532.504 665.178 550.02C668.102 554.239 670.924 558.097 673.787 561.811C682.797 573.484 691.3 582.895 700.334 591.433C722.366 612.132 745.86 628.304 766.191 641.217C785.719 653.627 802.138 664.795 814.431 674.415C817.02 676.436 819.44 678.396 821.646 680.251L852.353 707.11L815.364 730.84C813.626 732.013 811.995 733.093 810.467 734.083C791.416 746.417 771.96 758.032 752.513 769.207C741.722 775.508 731.746 781.891 721.983 788.595C717.87 791.44 713.662 794.416 709.637 797.381C709.63 797.389 709.623 797.396 709.615 797.404C688.974 812.587 671.291 828.491 657.135 843.108C642.714 857.967 633.4 873.029 626.303 887.313C622.477 895.014 619.296 902.496 616.282 909.865C606.69 935.855 595.808 955.182 582.259 1021.69ZM524.627 180.965C521.608 196.24 520.62 209.153 520.445 218.552C521.239 210.671 522.118 202.247 523.022 194.469C523.537 190.011 524.072 185.511 524.627 180.965ZM648.317 781.419C650.179 779.757 652.085 778.088 654.029 776.418C648.265 780.464 642.792 784.501 637.201 788.859C630.484 794.101 623.871 799.617 617.55 805.304C627.848 796.446 638.354 788.446 648.317 781.419ZM541.429 1013.04C549.237 972.862 553.801 943.304 561.001 916.523C563.088 908.845 565.42 901.45 568.171 894.282C569.312 891.309 570.458 888.33 571.644 885.325C561.672 900.983 554.082 916.345 548.518 929.321C532.308 968.237 526.522 992.159 520.921 1013.01C519.397 1018.99 517.982 1024.99 516.693 1030.95C516.511 1036.01 516.341 1041.31 516.137 1046.73C515.877 1054.18 515.617 1062.26 515.387 1070.03C515.177 1077.61 514.953 1085.64 514.756 1093.29C514.563 1100.94 514.345 1108.9 514.168 1116.44C514.001 1123.56 513.821 1130.97 513.708 1137.85C513.701 1138.25 513.694 1138.64 513.688 1139.04C513.573 1146.32 513.493 1153.65 513.58 1160.22C513.675 1166.86 513.91 1172.48 514.408 1177.5C515.023 1183.88 515.637 1190 516.205 1196.36C516.774 1202.7 517.311 1209.06 517.822 1215.23C518.332 1221.47 518.813 1227.77 519.273 1234.04C519.423 1236.03 519.577 1238.11 519.721 1240.1C519.787 1241.02 519.856 1241.93 519.921 1242.85C520.193 1230.9 520.558 1217.91 521.046 1205.07C521.768 1186.08 523.012 1166.33 524.799 1144.22C527.988 1106.96 531.906 1063.64 541.429 1013.04ZM451.386 1205.47C451.296 1210.86 451.25 1218.69 451.233 1228.81C451.229 1231.2 451.232 1233.72 451.231 1236.37C451.236 1236.31 451.237 1236.25 451.243 1236.18C451.829 1229.62 452.356 1223.62 452.878 1217.08C453.807 1205.46 454.681 1194.13 455.545 1182.71C456.411 1171.28 457.263 1159.74 458.127 1148.3C458.996 1136.77 459.876 1125.22 460.794 1113.76C461.722 1102.15 462.688 1090.73 463.726 1079.16C464.059 1075.46 464.4 1071.75 464.745 1068.07C463.416 1076.24 462.227 1084.82 461.082 1093.82C460.164 1101.04 459.272 1108.54 458.351 1116.42C458 1119.42 457.529 1123.14 457.007 1127.35C454.916 1144.21 451.953 1170.73 451.386 1205.47ZM475.115 974.398C475.64 971.685 476.21 968.927 476.8 966.256C478.485 958.631 480.417 951.194 482.509 943.977C483.989 938.873 485.548 933.897 487.188 928.958C487.681 927.475 488.179 925.998 488.682 924.533C488.885 923.941 489.089 923.352 489.294 922.765C490.497 919.317 491.708 915.955 492.98 912.568C491.33 916.517 489.776 920.414 488.267 924.385C480.898 943.781 475.145 963.393 470.538 983.751C470.466 984.072 470.398 984.397 470.325 984.722C471.915 981.219 473.527 977.72 475.115 974.398ZM1127.82 839.682C1138.01 857.827 1145.02 876.136 1151.31 899.019C1151.32 899.031 1151.32 899.043 1151.32 899.055C1152.21 902.309 1153.07 905.654 1153.93 909.154C1153.95 909.248 1153.97 909.342 1154 909.436C1160.76 937.276 1166.65 973.022 1169.94 1023.27C1173.37 1078.97 1167.48 1121.03 1162.39 1146.59C1161.41 1151.38 1160.85 1156.29 1160.1 1168.68C1160.08 1169.04 1160.06 1169.41 1160.03 1169.79L1161.13 1207.88L1118.85 1218.36C1114.98 1218.96 1110.47 1219.68 1105.11 1220.56L1047.11 1234.91L1045.35 1169.82C1045.64 1164.37 1045.94 1158.14 1046.25 1151.02C1046.59 1143.17 1046.95 1133.52 1047.24 1122.86C1048.22 1086.78 1046.68 1030.5 1037.12 983.714C1031.49 955.259 1022.67 931.026 1014.14 914.077C1001.82 889.233 985.811 867.613 962.964 845.083C943.377 825.775 918.988 806.144 888.949 784.468C886.798 782.921 884.639 781.346 882.468 779.738C866.499 767.847 851.564 754.287 837.811 737.185L803.205 704.429L845.727 674.472C858.991 667.794 872.183 662.527 885.419 657.796C889.4 656.376 893.402 655 897.392 653.676C903.096 651.779 908.792 649.974 914.543 648.202C934.642 642.276 954.776 634.859 974.491 624.04C1018.71 599.549 1045.64 567.96 1066.21 529.244C1074.26 513.995 1081.34 497.413 1087.98 478.824C1098.67 449.645 1110.42 405.317 1118.36 359.089C1119.05 355.149 1119.7 351.298 1120.36 347.345C1120.36 347.325 1120.37 347.305 1120.37 347.285C1127.41 304.701 1132.22 262.548 1135.12 231.227C1139.61 181.336 1139.71 162.702 1140 146.753C1140.01 145.725 1140.03 144.709 1140.05 143.697L1140.05 143.709C1140.12 138.877 1140.21 134.173 1140.43 128.755C1140.61 124.406 1140.87 119.655 1141.21 114.573L1157.47 145.16C1139.93 136.144 1118.07 124.495 1095.27 113.42L1018.59 79.6007L1100.46 54.0013C1103.43 53.1894 1106.42 52.3754 1109.42 51.5604C1109.55 51.5234 1109.68 51.4865 1109.81 51.4496C1115.58 49.879 1121.33 52.5461 1122.66 57.405C1123.98 62.2645 1120.38 67.4802 1114.62 69.0508C1111.52 69.8953 1108.43 70.7365 1105.36 71.5731L1070.38 82.5122L1103.14 96.9638C1117.08 103.734 1130.46 110.599 1142.64 116.916C1145.4 113.481 1150.88 112.658 1155.6 115.217C1158.66 116.884 1163.49 119.244 1169.98 122.335L1167.13 116.966C1166.86 124.656 1166.63 134.415 1166.42 146.145C1166.04 165.897 1165.81 190.385 1165.24 220.467C1166.47 216.186 1167.6 212.575 1168.65 209.399C1169.88 205.676 1170.9 202.784 1171.78 200.332C1173.59 195.325 1174.78 191.971 1176.01 185.868C1177.45 175.988 1178.92 162.819 1180.49 147.447C1181.2 140.444 1181.92 133.104 1182.66 125.647C1182.93 122.882 1184.06 120.446 1185.69 118.68L1186.84 110.887L1178.94 105.989C1177.81 103.449 1177.75 100.654 1179.05 98.2957C1180.34 95.9651 1182.71 94.5314 1185.44 94.1424L1201.47 104.091L1199.14 119.923C1200.43 121.984 1201.08 124.625 1200.81 127.426C1200.8 127.542 1200.79 127.659 1200.78 127.775C1200.06 134.992 1199.35 142.186 1198.65 149.12L1198.65 149.132C1197.05 164.882 1195.5 178.777 1193.96 189.189C1193.4 192.969 1192.86 196.193 1192.41 198.603C1192.05 200.535 1191.59 202.901 1191.16 204.282C1191.1 204.462 1190.99 204.804 1190.83 205.209C1190.82 205.215 1190.82 205.222 1190.82 205.229C1190.73 205.455 1190.27 206.611 1189.41 207.803C1189.24 208.044 1188.85 208.566 1188.25 209.157C1188.19 209.319 1188.13 209.48 1188.08 209.642C1187.27 211.899 1186.46 214.191 1185.63 216.667C1182.41 226.235 1178.13 241.657 1171.42 274.006C1165.01 303.629 1158.46 354.506 1144.28 417.163C1145.62 413.038 1146.93 408.847 1148.19 404.603C1151.31 394.245 1154.23 383.419 1156.9 372.817C1157.93 368.721 1158.94 364.558 1159.9 360.527C1161.45 353.984 1163 347.117 1164.44 340.523C1165.41 336.06 1166.37 331.539 1167.31 326.976C1167.31 326.965 1167.32 326.955 1167.32 326.945C1168.64 320.49 1169.88 314.471 1171.14 308.045C1171.59 305.815 1172.03 303.6 1172.46 301.389C1174.15 292.781 1175.76 284.243 1178.01 274.421C1178.33 273.254 1178.71 271.986 1179.02 271.041C1179.34 270.024 1179.67 269.045 1179.99 268.119C1180.27 267.302 1180.55 266.522 1180.82 265.774C1180.85 265.673 1180.89 265.573 1180.92 265.472C1181.22 264.634 1181.5 263.83 1181.76 263.056C1182.02 262.283 1182.27 261.537 1182.5 260.799C1182.5 260.792 1182.5 260.785 1182.5 260.778C1182.74 260.007 1182.92 259.42 1183.14 258.597C1183.42 257.563 1183.64 256.671 1183.88 255.585C1184.12 254.542 1184.35 253.411 1184.56 252.342C1184.77 251.263 1184.97 250.16 1185.17 249.038C1185.36 247.914 1185.55 246.769 1185.74 245.612C1185.92 244.455 1186.1 243.279 1186.28 242.095C1186.46 240.909 1186.64 239.708 1186.82 238.499C1187.24 235.714 1188.52 233.12 1190.43 231.308C1192.34 229.497 1194.71 228.61 1197.05 228.874C1199.39 229.114 1201.51 230.491 1202.99 232.676C1204.46 234.863 1205.16 237.684 1204.95 240.504C1204.89 241.271 1204.84 242.042 1204.78 242.815C1204.74 243.273 1204.7 243.735 1204.67 244.195C1204.57 245.433 1204.48 246.681 1204.37 247.932C1204.26 249.183 1204.14 250.441 1204.02 251.71C1203.89 252.987 1203.76 254.251 1203.6 255.582C1203.44 256.92 1203.26 258.283 1203.05 259.662C1202.85 261.007 1202.59 262.534 1202.33 263.892C1202.14 264.885 1201.87 266.103 1201.64 267.114C1201.4 268.171 1201.14 269.206 1200.88 270.201C1200.62 271.198 1200.36 272.158 1200.1 273.074C1200.08 273.172 1200.05 273.27 1200.03 273.368C1199.8 274.178 1199.59 274.957 1199.39 275.694C1199.17 276.518 1198.97 277.297 1198.8 278.038C1198.6 278.851 1198.5 279.356 1198.38 279.989C1197.1 288.419 1195.95 298.389 1194.71 308.326C1194.56 309.567 1194.4 310.798 1194.25 312.013C1193.44 318.504 1192.64 324.707 1191.76 331.301C1191.12 336.016 1190.48 340.695 1189.81 345.336C1188.82 352.222 1187.73 359.312 1186.61 366.156C1185.92 370.345 1185.17 374.778 1184.4 379.061C1182.42 390.2 1180.15 401.693 1177.61 412.918C1175.04 424.322 1172.14 435.691 1168.8 446.997C1165.45 458.371 1161.52 470.029 1157.04 481.205C1153.78 489.328 1149.76 497.665 1145.78 505.104C1143.62 509.161 1141.44 513.066 1139.24 516.853C1139.23 516.865 1139.22 516.878 1139.22 516.89C1137.3 520.188 1135.29 523.557 1133.32 526.786C1129.09 533.695 1124.75 540.507 1120.37 547.146C1115.97 553.806 1111.48 560.372 1106.85 566.897C1102.24 573.39 1097.46 579.868 1092.56 586.202C1087.63 592.564 1082.68 598.686 1077.28 605.005C1070.2 613.275 1062.86 621.248 1054.93 629.052C1047.11 636.766 1038.82 644.218 1030.27 651.21C1027.25 653.676 1024.19 656.092 1021.15 658.421C1021.14 658.43 1021.13 658.438 1021.12 658.447C1015.48 662.778 1009.55 667.049 1003.73 671.02C994.52 677.288 985.305 683.02 975.649 688.513C966.201 693.891 956.341 699.008 946.4 703.695C944.56 704.561 942.696 705.423 940.81 706.279C933.314 709.683 925.757 713.174 918.225 716.658C910.006 720.468 901.842 724.4 894.138 728.435C892.103 729.5 890.088 730.58 888.096 731.674C886.472 732.567 884.875 733.467 883.305 734.374L889.096 688.5C894.406 694.548 900.493 700.368 906.995 705.817C914.55 712.152 922.754 718.072 931.413 723.676C931.789 723.921 932.166 724.166 932.542 724.411C942.316 730.768 952.157 737.064 962.203 743.615C972.27 750.182 982.205 756.76 992.45 763.935C1002.53 770.985 1012.67 778.446 1022.75 786.541C1028.36 791.052 1034.23 796.129 1039.6 801.148C1045.06 806.254 1050.3 811.519 1055.38 817.032C1057.43 819.259 1059.42 821.493 1061.4 823.769C1064.28 827.09 1067.07 830.446 1069.77 833.808C1074.32 839.497 1078.61 845.22 1082.65 850.895C1086.71 856.595 1090.49 862.166 1094.14 867.698C1097.87 873.331 1100.98 878.156 1104.59 883.794C1112.98 898.001 1116.81 907.268 1120.87 917.593C1121.66 919.643 1122.47 921.772 1123.26 923.893C1127.76 936.276 1131.43 949.05 1134.31 961.2C1137.28 973.767 1139.52 985.909 1141.31 998.231C1143.07 1010.42 1144.35 1022.64 1145.23 1034.68C1146.12 1046.73 1146.63 1058.83 1146.82 1070.53C1147.03 1082.67 1146.9 1094.41 1146.55 1106.02C1146.34 1112.53 1146 1119.73 1145.6 1126.26C1145.31 1130.87 1144.99 1135.47 1144.66 1140.03C1144.53 1141.89 1144.39 1143.75 1144.25 1145.61C1143.77 1151.93 1143.3 1157.78 1142.89 1163.72C1142.69 1166.63 1142.5 1169.51 1142.34 1172.37L1086.86 1125.27C1089.65 1124.83 1092.41 1124.37 1095.12 1123.89C1096.95 1123.56 1098.76 1123.22 1100.56 1122.87L1062.84 1167.37C1062.92 1163.87 1062.93 1160.46 1062.88 1157.04C1062.8 1151.61 1062.61 1147.16 1062.21 1141.45C1061.94 1137.77 1061.66 1134.06 1061.37 1130.49C1060.92 1125.03 1060.44 1119.69 1059.92 1114.31C1059.39 1108.92 1058.82 1103.64 1058.19 1098.33C1057.99 1096.64 1057.77 1094.85 1057.56 1093.13C1056.9 1087.88 1056.18 1082.7 1055.4 1077.55C1054.62 1072.42 1053.78 1067.36 1052.85 1062.36C1051.92 1057.34 1050.93 1052.45 1049.83 1047.48C1047.96 1039.06 1046.65 1031.11 1045.5 1024.19C1044.36 1017.18 1043.33 1010.72 1042.22 1004.52C1042.01 1003.35 1041.8 1002.19 1041.59 1001.04C1040.66 996.065 1039.69 991.229 1038.63 986.547C1037.32 980.786 1035.87 975.213 1034.25 969.776C1032.64 964.383 1030.86 959.088 1028.91 954.025C1028.3 952.447 1027.68 950.903 1027.05 949.396C1025.63 945.954 1024.15 942.672 1022.48 939.266C1020.1 934.415 1017.4 929.699 1014.29 924.766C1011.22 919.889 1007.83 914.956 1004.32 910.146C1000.81 905.339 997.143 900.601 993.391 895.97C989.632 891.331 985.729 886.742 981.719 882.231C977.689 877.696 973.508 873.191 969.152 868.693C964.816 864.212 960.119 859.56 955.535 855.166C948.129 848.063 940.205 841.012 931.812 833.962C923.467 826.95 914.656 819.933 905.56 812.937C897.786 806.958 889.778 800.974 881.61 794.975C879.981 793.788 878.352 792.588 876.724 791.373C865.654 783.101 854.572 774.229 843.344 763.895L770.873 692.475L855.636 650.711C855.962 650.538 856.289 650.364 856.617 650.19C859.414 648.71 862.195 647.273 864.97 645.869C874.734 640.933 884.371 636.424 893.919 632.178C893.986 632.15 894.052 632.122 894.118 632.094C897.802 630.457 901.453 628.869 905.096 627.313C912.01 624.398 918.643 621.418 925.239 618.224C928.672 616.559 931.957 614.907 935.221 613.193C938.466 611.489 941.683 609.725 944.794 607.943C947.975 606.12 950.991 604.309 953.991 602.419C956.987 600.529 959.855 598.63 962.672 596.652C965.229 594.858 967.779 592.964 970.436 590.919C970.679 590.732 970.927 590.54 971.172 590.35C974.113 588.074 977.384 585.501 980.434 583.13C988.514 576.871 995.878 570.366 1002.84 563.318C1009.81 556.26 1016.22 548.796 1022.19 540.843C1024.52 537.737 1026.78 534.548 1028.97 531.297C1032.39 526.236 1035.64 521.011 1038.77 515.602C1043.9 506.713 1048.65 497.396 1053.13 487.623C1056.83 479.536 1060.35 471.136 1063.7 462.506C1064.37 460.76 1065.04 458.997 1065.71 457.218C1069.64 446.744 1073.37 435.822 1076.88 424.765C1080.78 412.434 1084.37 399.839 1087.73 386.909C1091.08 374.002 1094.19 360.82 1097.1 347.509C1100.02 334.15 1102.75 320.636 1105.34 306.984C1107.94 293.342 1110.41 279.581 1112.79 265.713C1114.22 257.384 1115.62 249.061 1117 240.72C1117.05 236.187 1117.08 231.922 1117.11 227.752C1117.33 197.035 1117.3 174.687 1118.57 145.221C1118.62 142.37 1118.51 140.064 1118.39 137.257C1118.37 136.72 1118.35 136.151 1118.33 135.57C1118.17 131.899 1118.05 127.612 1118.26 121.805C1118.36 119.058 1118.54 115.96 1118.84 112.517C1119.07 109.772 1119.38 106.817 1119.79 103.661L1154.55 169.017C1152.13 167.575 1149.61 166.001 1146.98 164.283C1140.86 160.25 1134.17 155.437 1127.02 149.713C1122.59 146.166 1121.67 140.229 1125.01 136.414C1127.35 133.742 1131.19 132.845 1134.82 133.796C1129.11 130.129 1123.41 126.494 1117.69 122.923C1115.41 121.497 1113.68 119.36 1112.88 116.951C1112.08 114.543 1112.29 112.064 1113.47 110.031C1114.65 107.999 1116.72 106.571 1119.26 106.047C1121.79 105.524 1124.57 105.952 1126.99 107.221C1133.41 110.592 1139.78 114.013 1146.15 117.461C1152.52 120.912 1158.86 124.373 1165.21 127.872C1165.65 128.117 1166.1 128.362 1166.54 128.608C1169.14 130.043 1171.74 131.473 1174.35 132.902L1160.81 107.439C1160.54 110.394 1160.27 113.351 1160 116.311C1159.92 117.231 1159.84 118.15 1159.75 119.069C1159.1 126.421 1158.46 133.746 1157.83 141.101C1157.2 148.477 1156.59 155.744 1155.97 163.133C1155.6 167.582 1155.24 171.964 1154.87 176.403C1154.73 178.045 1154.6 179.642 1154.47 181.236C1154.36 182.538 1154.25 183.844 1154.14 185.186C1152.95 199.399 1151.75 213.703 1150.51 227.841C1149.26 242.052 1147.95 256.27 1146.55 270.41C1145.15 284.565 1143.67 298.664 1142.02 312.717C1140.37 326.759 1138.57 340.776 1136.55 354.722C1134.53 368.621 1132.28 382.498 1129.73 396.232C1127.76 406.873 1125.63 417.343 1123.28 427.736C1122.69 431.943 1122.07 436.034 1121.39 440.12C1119.43 451.946 1117.49 463.826 1115.14 475.468C1121.25 455.415 1124.47 438.719 1127.16 422.82C1127.52 420.691 1127.87 418.54 1128.2 416.429C1131.6 394.794 1134.33 373.79 1139.13 345.527C1152.16 264.968 1156.26 216.93 1160.55 187.401C1164.55 157.833 1167.44 145.148 1171.98 133.509C1173.67 129.195 1175.3 123.837 1176.83 117.861C1177.56 115.041 1178.27 112.103 1178.94 109.109L1183.1 116.937C1180.71 115.189 1178.25 113.447 1175.79 111.739C1165.79 104.79 1155.51 98.5457 1148.37 94.7816C1143.11 92.0031 1140.7 86.159 1143.01 81.6816C1145.31 77.2042 1151.54 75.8212 1156.88 78.6438C1164.02 82.4105 1174.27 88.5505 1184.62 95.6293C1187.07 97.304 1189.53 99.0244 1191.97 100.77L1197.58 103.464L1197.3 110.8C1196.66 113.75 1195.99 116.685 1195.29 119.562C1193.26 127.958 1190.98 135.733 1188.54 142.021C1185.13 150.685 1182.54 160.91 1178.59 190.091C1174.35 219.25 1170.33 266.836 1157.12 348.576C1152.43 376.219 1149.76 396.781 1146.32 418.755C1145.98 420.891 1145.64 423.071 1145.27 425.261C1145.27 425.274 1145.26 425.288 1145.26 425.301C1142.23 443.22 1138.54 462.616 1130.7 486.786C1129.73 489.755 1128.7 492.768 1127.59 495.846C1107.75 563.645 1041.91 635.855 1023.31 648.757C1020.01 651.718 1016.75 654.61 1013.3 657.557C999.874 668.67 983.491 682.866 941.01 703.931C940.668 704.098 940.323 704.265 939.975 704.433C931.318 708.638 921.31 713.518 910.676 719.091C906.565 721.949 902.553 724.824 898.674 727.695L901.905 697.945C912.647 705.204 923.607 711.584 933.494 717.345C934.054 717.671 934.604 717.986 935.165 718.304C946.887 725.031 958.288 730.664 969.509 736.206C972.938 737.909 976.32 739.565 979.768 741.305C987.998 745.435 996.314 749.817 1004.12 754.539C1010.35 758.307 1016.98 762.291 1023.96 766.735C1048.92 782.866 1081.23 805.754 1106.85 850.323C1119.55 872.668 1128.25 894.896 1134.4 915.604C1141.14 938.369 1144.95 959.334 1147.55 978.377C1144.5 952.828 1140.7 932.259 1136.53 914.935C1136.32 914.084 1136.12 913.244 1135.91 912.413C1135.07 909.023 1134.24 905.855 1133.37 902.706C1127.24 880.776 1120.93 864.708 1112 848.754C1065.92 773.652 1035.84 759.602 1008.7 741.008C1001.17 736.418 992.769 731.855 983.69 727.136C971.197 720.645 957.516 713.948 943.344 706.594C937.516 703.667 931.702 700.47 926.05 696.944C921.16 693.893 916.193 690.698 911.313 687.351L905.588 740.062C917.151 731.674 930.281 722.949 944.416 714.253C945.663 713.504 946.907 712.751 948.146 711.993C948.156 711.989 948.165 711.984 948.175 711.98C952.738 709.184 957.371 706.266 961.933 703.286C989.958 685.059 1017.7 663.157 1041.7 639.208C1044.28 636.637 1047.27 633.519 1050.63 629.82C1070.17 608.658 1100.45 568.425 1126.48 513.933C1130.28 506.15 1134.18 498.173 1138.19 489.502C1140.32 484.928 1142.49 480.11 1144.66 475.079C1146.58 470.636 1148.5 466.044 1150.42 461.191C1158.71 440.237 1167.36 414.199 1175.04 378.929C1181.4 349.823 1186.97 314.079 1191.78 277.117C1194.16 258.897 1196.4 240.352 1198.58 222.101C1202.79 186.833 1206.71 153.563 1210.7 120.982C1211.06 118.027 1211.43 115.078 1211.79 112.135L1212.46 94.4924L1198.96 88.0119C1196.4 86.5027 1193.84 84.9953 1191.28 83.4894C1180.42 77.0973 1169.53 70.8425 1158.53 64.7297C1158.52 64.7249 1158.51 64.72 1158.5 64.7152C1153.18 61.7569 1150.82 55.8207 1153.28 51.4214C1155.74 47.0272 1162.15 45.8602 1167.55 48.8639C1178.49 54.9457 1189.3 61.1519 1200.06 67.4805C1202.61 68.9867 1205.17 70.4944 1207.74 72.0036L1231.13 83.2346L1229.97 113.809C1229.6 116.753 1229.24 119.702 1228.88 122.656C1224.87 155.401 1220.92 188.823 1216.69 224.348C1214.53 242.385 1212.3 260.873 1209.91 279.145C1205.05 316.53 1199.36 353.186 1192.81 383.058C1184.87 419.503 1175.81 446.783 1167.12 468.637C1165.02 473.945 1162.96 478.842 1160.93 483.518C1159.08 487.771 1157.22 491.895 1155.44 495.752C1151.01 505.339 1146.81 513.887 1142.72 522.269C1116.29 577.383 1085.54 618.796 1064.96 641.241C1061.34 645.246 1058.06 648.687 1055.2 651.545C1030.45 676.359 1002 698.975 973.048 717.903C968.373 720.971 963.616 723.978 958.953 726.853C958.944 726.861 958.935 726.868 958.926 726.876C956.639 728.285 954.335 729.679 952.017 731.059C938.34 739.528 925.593 748.052 914.566 756.12L923.528 673.594C927.454 676.236 931.5 678.828 935.54 681.349C941.573 685.113 947.762 688.448 953.924 691.448C966.109 697.709 977.767 703.394 989.021 709.167C998.57 714.07 1007.81 719.03 1016.8 724.455C1046.33 744.511 1078.89 759.939 1127.82 839.682ZM1143.66 139.48C1147.94 142.764 1151.99 145.662 1155.79 148.215C1158.43 149.975 1160.94 151.567 1163.32 153.008L1137.98 105.335C1137.54 108.536 1137.23 111.493 1137 114.192C1136.95 114.769 1136.91 115.335 1136.86 115.888C1136.96 115.327 1137.05 114.765 1137.14 114.204C1137.62 111.265 1138.11 108.328 1138.6 105.392L1163.62 152.462C1161.12 150.843 1158.63 149.222 1156.13 147.597C1155.4 147.12 1154.67 146.644 1153.94 146.168C1150.51 143.929 1147.09 141.7 1143.66 139.48ZM900.739 703.712C902.672 702.37 904.633 701.029 906.61 699.693C900.842 702.763 895.121 705.924 889.483 709.211C889.195 709.379 888.908 709.547 888.622 709.714L885.9 711.055L888.227 713.349C894.094 718.347 900.16 723.074 906.345 727.612C900.12 722.814 894.149 717.926 888.563 712.971L886.76 711.194L888.869 710.155C892.89 707.905 896.858 705.761 900.739 703.712ZM1091.03 859.409C1068.32 819.92 1040.32 799.458 1016.38 783.758C1009.37 779.215 1002.55 775.069 995.844 770.982C993.078 769.3 990.232 767.652 987.392 766.082C1001.81 778.077 1014.59 789.946 1024.56 800.231C1054.28 831.11 1066.17 853.512 1075.39 872.732C1078.01 878.352 1080.35 883.826 1082.6 889.458C1085.27 893.726 1087.9 898.248 1090.37 902.961C1093.83 909.486 1097.25 916.816 1100.15 923.836C1100.46 924.585 1100.77 925.338 1101.07 926.096C1103.64 932.464 1105.99 938.999 1108.08 945.497C1110.42 952.819 1112.46 960.151 1114.26 967.492C1115.95 974.38 1117.42 981.283 1118.73 987.995C1118.8 988.376 1118.88 988.758 1118.95 989.14C1120.32 996.245 1121.49 1003.1 1122.61 1009.45C1123.74 1015.9 1124.73 1021.28 1125.85 1025.97C1127.24 1031.9 1128.54 1037.94 1129.71 1043.99C1130.89 1050 1131.94 1056.03 1132.9 1062.04C1133.85 1068.05 1134.71 1074.04 1135.48 1080C1135.73 1081.93 1135.99 1083.97 1136.22 1085.9C1136.33 1086.77 1136.43 1087.65 1136.54 1088.53C1136.3 1076.79 1135.93 1064.59 1135.32 1051.91C1134.42 1033.58 1133.35 1013.9 1130.87 991.999C1128.39 970.641 1124.67 947.118 1117 921.08C1111.21 901.542 1103.07 880.627 1091.03 859.409ZM1067.27 1091C1067.43 1095.8 1067.72 1103.17 1067.97 1112.21C1068.03 1114.39 1068.1 1116.7 1068.15 1119.15C1068.16 1119.09 1068.16 1119.03 1068.16 1118.97C1068.61 1112.89 1068.97 1107.53 1069.25 1101.55C1069.74 1090.73 1070.03 1080.63 1070.06 1070.18C1070.09 1059.88 1069.88 1049.53 1069.35 1039.09C1068.83 1028.84 1068 1018.45 1066.81 1008.37C1065.61 998.141 1064.08 988.188 1062.06 978.291C1061.42 975.109 1060.73 971.98 1060 968.913C1061.08 975.873 1062.16 983.422 1063.05 991.235C1063.81 997.711 1064.39 1004 1064.9 1011.17C1065.08 1013.89 1065.22 1017 1065.37 1020.82C1065.94 1035.88 1066.21 1059.56 1067.27 1091ZM1028.85 897.792C1027.68 895.919 1026.51 894.079 1025.34 892.272C1022 887.09 1018.65 882.164 1015.18 877.407C1012.74 874.064 1010.28 870.825 1007.74 867.664C1006.66 866.328 1005.58 865.014 1004.49 863.721C1002.67 861.553 1000.81 859.418 998.918 857.321C1011.45 872.598 1021.75 888.374 1030.46 905.943C1030.58 906.174 1030.7 906.405 1030.81 906.639C1030.21 903.628 1029.55 900.683 1028.85 897.792Z" fill="#6C665D"/>
</g>
<g filter="url(#filter1_d_853_14097)">
<path d="M636.552 129.812C615.883 478.024 652.601 542.77 813.244 654.98C835.122 670.262 850.939 683.348 862.33 694.352C846.538 703.415 826.118 713.817 799.827 725.529C570.429 827.722 558.699 978.873 555.073 1277.86L552.861 1278.29L557.475 1302.38C554.482 1300.76 551.473 1299.13 548.45 1297.47L541.305 1293.55L541.399 1285.4C543.158 1133.99 546.412 1017.26 579.179 925.586C612.513 832.321 675.927 765.855 794.3 713.122C811.774 705.338 826.544 698.172 839.004 691.64C829.995 684.041 818.96 675.54 805.466 666.115C720.223 606.572 666.793 558.432 639.826 472.765C614.27 391.579 612.882 277.755 625.459 90.0708L636.552 129.812ZM1191.57 70.3489C1207.94 78.4597 1224.72 87.2533 1242.01 96.7349L1249.82 101.018L1249.01 109.89C1234.59 266.307 1223.74 385.562 1190.64 476.906C1156.99 569.764 1100.37 633.95 996.232 681.051C978.71 688.976 964.332 696.255 952.554 702.84C961.065 710.397 971.716 718.815 984.996 728.091C1070.24 787.634 1123.67 835.775 1150.64 921.442C1168.85 979.305 1174.79 1053.75 1172.14 1159.69L1158.48 1162.31C1165.28 904.242 1121.56 840.642 981.162 741.988L977.218 739.225C955.915 724.345 940.828 711.36 930.268 700.235C944.805 691.116 964.369 680.556 990.635 668.677C1186.13 580.261 1205.46 432.488 1232.8 137.64L1235.48 108.644C1213.45 96.5646 1192.31 85.6398 1171.86 75.8515L1191.57 70.3489Z" fill="#DFCEAE"/>
<path d="M645.097 1012.85C642.286 1027.76 638.775 1042.33 635.006 1060.9C635.005 1060.91 635.004 1060.92 635.002 1060.93C634.462 1063.63 633.908 1066.46 633.37 1069.27C628.998 1092.5 624.3 1123.19 621.328 1171.57C618.688 1215.16 614.698 1251.96 610.399 1278.53L612.023 1320.83L565.483 1332.2C564.716 1332.24 563.957 1332.27 563.207 1332.29L606.871 1267.94C607.065 1273.08 607.172 1277.81 607.202 1282.12C607.224 1285.1 607.397 1288.11 607.946 1292.71L631.848 1396.21L533.061 1347.6C530.682 1346.09 527.762 1344.32 523.997 1342.07C523.398 1341.71 522.774 1341.34 522.126 1340.95C520.543 1340.01 518.835 1339 516.986 1337.92L491.997 1325.82L490.718 1292.97C490.821 1290.48 490.926 1287.78 491.037 1284.82C491.273 1278.52 491.533 1271.22 491.86 1262.36C492.186 1253.57 492.574 1243.22 493.085 1231.16C494.84 1191.15 495.731 1128.16 501.098 1068.52C504.289 1032.35 509.503 997.475 515.592 970.875C520.278 950.171 526.209 929.796 533.93 909.413C540.73 891.489 548.907 873.585 559.018 855.672C578.749 820.638 606.317 785.569 643.931 753.837C672.824 729.437 705.328 713.076 738.248 700.287C742.428 698.667 746.722 697.052 750.917 695.542C761.171 691.829 771.338 688.465 781.834 685.138C796.847 680.53 812.007 675.332 827.108 668.947L822.486 711.226C820.12 708.857 817.652 706.498 815.106 704.161C807.62 697.296 799.918 690.995 792.182 685.133C756.872 658.316 724.506 636.219 692.439 605.827C677.12 591.158 661.997 574.316 648.465 553.761C636.053 535.061 623.344 509.554 614.395 480.77C607.772 459.763 602.98 437.265 599.666 414.836C598.994 410.298 598.38 405.804 597.816 401.275C597.813 401.252 597.81 401.229 597.807 401.206C591.834 352.665 591.52 305.76 591.246 271.504C591.133 217.205 591.02 196.876 590.447 179.862C590.278 173.437 590.129 167.566 590.154 160.51C590.215 141.681 591.612 115.81 593.583 87.9347L656.231 81.4818C658.78 90.7395 661.371 100.238 663.971 109.769C664.011 109.91 664.05 110.052 664.09 110.193C665.768 116.345 663.188 122.408 658.329 123.734C653.469 125.058 648.165 121.145 646.487 114.992C643.836 105.277 641.217 95.6778 638.659 86.3865L611.786 89.1545C611.084 99.1157 610.471 108.514 609.955 117.555C614.217 118.758 617.197 123.65 616.819 129.462C616.017 143.783 616.081 188.12 620.252 256.965C621.105 252.313 621.944 248.324 622.743 244.882C623.679 240.891 624.489 237.799 625.186 235.128C626.642 229.526 627.607 226.002 628.453 219.375C629.646 204.257 630.76 180.279 632.253 155.214C632.626 148.924 637.02 143.966 642.045 144.281C647.072 144.594 650.826 150.036 650.458 156.29C650.452 156.413 650.445 156.535 650.439 156.657C648.966 181.386 647.829 205.951 646.583 221.641C646.261 225.671 645.933 229.094 645.653 231.649C645.429 233.698 645.134 236.33 644.805 237.755C644.761 237.945 644.673 238.308 644.542 238.739C644.539 238.746 644.536 238.754 644.532 238.761C644.46 239.002 644.091 240.233 643.322 241.532C643.167 241.795 642.82 242.365 642.267 243.023C642.222 243.194 642.176 243.366 642.131 243.538C641.505 245.903 640.87 248.421 640.253 251.093C637.908 261.425 634.601 278.08 632.365 312.581C630.885 344.103 629.843 398.912 647.441 462.431C646.578 458.1 645.768 453.671 645.038 449.292C643.189 438.227 641.751 427.045 640.66 415.811C640.232 411.444 639.888 407.293 639.553 402.888C639.039 395.955 638.634 388.894 638.337 381.863C638.139 377.13 637.982 372.343 637.875 367.583C637.875 367.572 637.874 367.562 637.873 367.551C637.723 360.918 637.662 354.254 637.689 347.595C637.707 345.249 637.727 342.879 637.758 340.618C637.873 331.45 638.098 322.409 638.946 312.05C639.098 310.784 639.302 309.365 639.477 308.365C639.661 307.275 639.851 306.222 640.047 305.223C640.22 304.342 640.397 303.5 640.563 302.69C640.585 302.582 640.607 302.473 640.629 302.364C640.815 301.458 640.987 300.588 641.15 299.751C641.313 298.915 641.471 298.108 641.607 297.311C641.607 297.303 641.607 297.296 641.607 297.289C641.746 296.47 641.852 295.859 641.972 294.994C642.122 293.91 642.237 292.976 642.351 291.841C642.462 290.742 642.561 289.593 642.648 288.428C642.734 287.263 642.81 286.07 642.88 284.859C642.951 283.677 643.017 282.47 643.077 281.248C643.138 280.028 643.192 278.786 643.248 277.533C643.304 276.279 643.362 275.006 643.418 273.722C643.55 270.766 644.581 268.032 646.315 265.976C648.048 263.933 650.331 262.803 652.679 262.842C655.028 262.881 657.272 264.085 658.945 266.162C660.618 268.253 661.58 270.975 661.654 273.902C661.674 274.699 661.697 275.497 661.718 276.295C661.73 276.769 661.739 277.247 661.751 277.722C661.783 279 661.82 280.285 661.848 281.572C661.875 282.862 661.895 284.131 661.911 285.464C661.926 286.803 661.937 288.153 661.932 289.515C661.927 290.874 661.908 292.256 661.868 293.653C661.831 295.026 661.759 296.533 661.668 297.968C661.604 299.002 661.489 300.271 661.387 301.325C661.279 302.425 661.158 303.503 661.032 304.54C660.905 305.578 660.771 306.579 660.645 307.532C660.632 307.634 660.62 307.735 660.607 307.837C660.496 308.668 660.389 309.514 660.296 310.295C660.192 311.171 660.106 311.997 660.036 312.78C659.956 313.642 659.929 314.163 659.901 314.802C659.83 323.185 660.287 333.668 660.894 343.441C660.97 344.687 661.047 345.92 661.126 347.132C661.554 353.514 662.068 359.935 662.668 366.323C663.099 370.911 663.583 375.567 664.102 380.107C664.875 386.876 665.743 393.589 666.718 400.195C667.332 404.359 667.959 408.322 668.656 412.41C670.466 423.004 672.591 433.434 675.075 443.62C676.439 449.216 677.934 454.816 679.527 460.267C680.837 464.751 682.214 469.144 683.669 473.483C686.91 483.165 690.703 492.968 694.742 502.253C697.696 509.089 700.739 516.134 703.817 522.638C705.468 526.135 707.163 529.541 708.918 532.884C708.923 532.897 708.928 532.909 708.933 532.921C710.474 535.855 712.063 538.735 713.724 541.567C717.283 547.645 721.139 553.475 725.359 559.144C729.58 564.813 734.1 570.252 738.99 575.569C743.851 580.853 749.047 585.996 754.478 590.953C759.924 595.923 765.481 600.619 771.535 605.433C779.479 611.732 787.668 617.743 796.242 623.805C804.757 629.818 813.524 635.757 822.42 641.667C822.448 641.685 822.476 641.704 822.504 641.723C825.78 643.905 829.047 646.132 832.311 648.398C832.324 648.407 832.336 648.416 832.349 648.426C838.443 652.657 844.515 657.046 850.543 661.66C853.306 663.775 856.061 665.939 858.805 668.162L893.327 700.221L853.264 718.841C846.193 722.734 839.079 726.461 831.916 730.057C823.73 734.166 815.467 738.113 807.124 741.909C805.216 742.778 803.322 743.648 801.442 744.519C791.854 748.951 782.099 753.652 772.376 758.403C763.743 762.627 755.063 767.076 746.821 771.615C744.627 772.823 742.46 774.04 740.321 775.263C730.073 781.136 720.474 787.255 711.489 793.884C702.507 800.502 694.043 807.689 686.117 815.462C678.214 823.211 670.817 831.565 664.035 840.41C657.223 849.295 651.159 858.48 645.64 868.186C640.167 877.821 635.327 887.833 631.07 898.246C628.698 904.034 626.308 910.233 624.175 916.17C622.028 922.144 620.015 928.168 618.169 934.155C617.672 935.766 617.184 937.381 616.707 938.999C616.467 939.815 616.23 940.632 615.996 941.449C614.983 944.986 614.026 948.52 613.145 952.02C611.653 957.937 610.366 963.769 609.296 969.503C608.226 975.236 607.38 980.873 606.783 986.361C606.167 992.057 605.855 996.819 605.723 1002.51C604.939 1016.33 604.185 1024.92 603.429 1034.46C603.28 1036.36 603.148 1038.27 603.015 1040.28C602.166 1051.77 601.38 1063.38 600.671 1074.85C599.951 1086.45 599.3 1097.95 598.659 1109.68C598.029 1121.27 597.412 1133 596.794 1144.78C596.179 1156.52 595.561 1168.26 594.901 1180.15C594.246 1191.95 593.537 1204.12 592.802 1215.78C592.378 1222.51 591.867 1229.76 591.369 1236.39C591.01 1241.2 590.643 1245.99 590.288 1250.63C590.143 1252.54 589.999 1254.44 589.858 1256.32C589.375 1262.78 588.929 1269.12 588.578 1275.18C588.367 1278.82 588.188 1282.4 588.049 1285.95C587.956 1288.32 587.88 1290.67 587.825 1293C587.816 1293.36 587.808 1293.73 587.8 1294.09L563.657 1252.78C566.045 1254.12 568.424 1255.42 570.804 1256.69C573.062 1257.9 575.333 1259.07 577.633 1260.22C578.33 1260.57 579.013 1260.91 579.686 1261.24L511.557 1311.17C510.456 1306.4 509.389 1302.14 507.974 1296.9C507.102 1293.69 506.237 1290.52 505.376 1287.38L498.362 1237.14L543.765 1230.8C544.475 1230.61 545.185 1230.41 545.895 1230.22C545.911 1230.21 545.927 1230.21 545.943 1230.2L506.552 1277.27C506.159 1271.21 505.759 1265.25 505.346 1259.3C504.933 1253.35 504.513 1247.49 504.082 1241.44C503.943 1239.51 503.797 1237.48 503.654 1235.56C503.214 1229.58 502.76 1223.95 502.293 1217.89C501.824 1211.95 501.339 1206.12 500.826 1200.36C500.308 1194.68 499.785 1188.66 499.217 1182.82C498.246 1172.91 498 1163.19 497.944 1154.78C497.892 1146.38 498.05 1138.22 498.245 1130.45C498.281 1128.99 498.32 1127.54 498.359 1126.09C498.529 1119.95 498.76 1113.48 498.972 1107.39C499.235 1099.9 499.51 1092.36 499.799 1084.82C500.082 1077.41 500.39 1069.81 500.705 1062.28C501.016 1054.75 501.338 1047.44 501.72 1039.51C502.093 1031.76 502.421 1023.66 502.935 1014.83C503.419 1006.22 504.181 996.659 505.216 987.349C506.292 977.805 507.665 968.289 509.485 958.554C511.292 948.867 513.487 939.169 516.086 929.554C518.659 920.015 521.733 910.249 525.154 900.81C528.612 891.254 532.598 881.582 536.819 872.524C543.601 857.952 551.405 843.617 560.195 829.816C568.932 816.09 578.683 802.853 589.216 790.427C599.711 778.033 611.083 766.334 622.805 755.674C634.698 744.846 646.977 735.014 659.463 726.014C662.238 724.014 665.117 721.987 667.889 720.083C677.608 713.407 687.792 706.975 697.75 701.137C697.82 701.097 697.89 701.058 697.96 701.018C710.962 693.39 723.93 686.518 736.666 680.241C741.394 677.907 746.128 675.638 750.752 673.471C755.327 671.328 759.875 669.244 764.523 667.155C767.103 665.995 769.692 664.843 772.283 663.7C774.032 662.93 775.75 662.164 777.456 661.391C781.325 659.639 785.052 657.898 788.768 656.085C792.166 654.43 795.511 652.726 799.101 650.861C799.431 650.689 799.76 650.518 800.088 650.347C804.015 648.298 808.439 645.992 812.52 643.918C818.082 641.103 823.41 638.266 828.493 635.388L815.098 743.249C811.756 739.976 807.985 736.581 803.921 733.16C795.537 726.102 786.109 719.072 776.121 712.168C775.491 711.732 774.857 711.296 774.214 710.856C770.31 708.176 766.442 705.504 762.624 702.837C755.542 697.89 748.246 692.698 741.016 687.382C729.08 678.604 717.146 669.382 705.133 659.187C693.169 649.026 681.373 638.092 669.923 625.919C658.548 613.83 647.558 600.476 637.757 586.193C626.843 570.315 617.326 553.298 609.524 535.685C601.749 518.158 595.751 500.288 591.176 482.572C586.58 464.759 583.473 447.549 581.181 430.18C578.978 413.296 577.588 396.059 576.849 379.702C576.377 369.594 576.153 360.056 576.052 350.102C575.314 344.728 574.671 340.185 574.066 335.415C569.725 300.617 567.692 275.722 566.83 243.015C566.672 239.954 566.413 237.442 566.108 234.363C566.05 233.775 565.993 233.151 565.931 232.513C565.544 228.493 565.16 223.732 565.041 217.258C564.792 204.73 565.655 185.126 571.203 160.005C572.601 153.726 577.663 150.115 582.504 151.697C585.899 152.841 588.287 156.199 588.93 160.327C589.896 152.903 590.907 145.567 591.944 138.03C592.359 135.029 593.655 132.241 595.572 130.313C597.489 128.385 599.86 127.476 602.19 127.792C604.521 128.107 606.634 129.626 608.1 131.999C609.563 134.371 610.257 137.393 610.049 140.4C609.49 148.441 608.979 155.972 608.498 164.038C608.015 172.118 607.601 180.004 607.243 187.763C606.882 195.598 606.562 203.841 606.313 211.656C606.068 219.315 605.852 227.634 605.712 235.542C605.57 243.465 605.491 251.367 605.466 259.476C605.452 264.3 605.457 269.081 605.491 273.771C605.502 275.602 605.523 277.378 605.541 279.146C605.557 280.591 605.571 282.037 605.589 283.518C605.803 298.859 606.272 314.593 607.109 330.294C607.943 345.863 609.115 361.395 610.863 377.414C612.57 392.991 614.873 409.079 617.891 424.648C620.969 440.554 624.798 456.198 629.81 471.821C634.825 487.442 640.992 502.796 648.538 517.541C654.403 529.011 660.978 539.882 668.316 550.293C671.501 554.183 674.721 557.93 677.979 561.552C687.444 572.079 697.923 581.543 708.524 590.046C691.119 573.395 677.981 558.519 666.763 543.217C665.257 541.156 663.801 539.108 662.37 537.028C647.87 515.786 636.25 492.983 627.847 460.999C606.95 369.733 612.395 317.562 612.186 285.247C613.328 252.868 615.583 239.218 619.359 226.317C624.699 208.332 628.984 173.549 630.065 155.896C630.434 149.629 634.835 144.69 639.861 145.004C644.889 145.316 648.646 150.736 648.279 156.968C647.139 175.619 642.708 212.697 636.418 234.252C633.641 243.637 631.518 254.708 630.408 286.198C630.577 317.442 625.489 369.197 645.522 456.466C653.248 485.784 663.598 506.235 676.921 525.938C678.237 527.867 679.59 529.78 680.977 531.69C680.985 531.703 680.993 531.715 681 531.728C693.851 549.353 709.777 566.984 733.264 588.06C757.494 609.858 788.282 631.322 816.795 649.896C837.106 663.116 855.112 676.543 868.225 688.25L876.396 695.397L866.553 701.711C855.407 708.728 846.63 713.763 841.726 716.739C837.712 719.165 833.835 721.52 829.715 723.969C822.857 728.044 815.308 732.413 805.251 737.704C792.351 744.569 776.081 752.99 752.999 767.024C744.14 772.454 733.959 778.883 723.066 786.505C708.155 799.779 695.188 813.452 684.438 825.719C675.204 836.245 668.292 847.229 662.68 858.19C661.052 861.364 659.513 864.585 658.053 867.811C654.517 875.608 651.412 883.503 648.461 891.114C646.099 897.196 644.016 903.673 642.072 910.625C635.021 936.022 630.162 966.387 622.195 1007.59C613.891 1051.29 609.87 1091.13 606.748 1125.86C609.405 1100.41 612.549 1081.04 615.531 1065.37C616.093 1062.42 616.662 1059.49 617.212 1056.77C621.106 1037.66 624.473 1023.86 627.167 1009.52C641.151 940.799 652.475 920.599 662.151 894.299C664.908 887.528 668.053 879.976 671.927 872.015C679.647 856.091 690.665 838.244 706.542 821.886C721.25 806.655 739.401 790.246 760.755 774.454C760.764 774.449 760.773 774.444 760.782 774.439C764.889 771.385 769.401 768.195 773.665 765.23C784.438 757.779 795.758 750.566 807.859 743.56C826.252 732.976 844.691 721.963 862.545 710.447C864.506 709.181 866.69 707.731 869.074 706.104L884.791 696.021L871.744 684.608C870.299 683.41 868.759 682.165 867.129 680.879C855.339 671.548 838.741 660.18 818.567 647.36C797.705 634.046 773.527 617.381 750.394 595.627C740.567 586.33 731.044 575.772 721.457 563.234C718.516 559.384 715.628 555.399 712.67 551.11C700.08 532.69 686.619 509.559 675.561 476.052C666.343 448.522 659.536 412.683 656.499 374.6C654.929 355.577 654.167 336.662 653.937 317.29C653.405 259.384 657.241 205.617 661.645 152.578C661.646 152.568 661.647 152.557 661.647 152.546C662.177 146.288 666.7 141.512 671.712 142.027C676.722 142.541 680.338 148.108 679.814 154.319C675.427 207.122 671.647 260.452 672.178 317.178C672.402 335.959 673.14 354.33 674.652 372.765C677.597 410.031 684.246 444.628 692.943 470.501C703.449 502.22 716.001 523.67 728.014 541.185C730.938 545.405 733.759 549.262 736.623 552.977C745.633 564.65 754.136 574.061 763.169 582.598C785.202 603.298 808.697 619.471 829.028 632.384C848.555 644.794 864.974 655.962 877.266 665.581C879.856 667.603 882.276 669.564 884.483 671.419L915.19 698.278L878.201 722.008C876.464 723.181 874.833 724.26 873.305 725.25C854.253 737.585 834.797 749.199 815.35 760.374C804.559 766.674 794.584 773.058 784.822 779.761C780.708 782.607 776.501 785.582 772.476 788.547C772.469 788.555 772.461 788.562 772.454 788.57C751.812 803.753 734.129 819.657 719.973 834.274C705.552 849.133 696.238 864.195 689.141 878.479C685.315 886.18 682.134 893.662 679.12 901.031C669.528 927.021 658.646 946.348 645.097 1012.85ZM587.464 172.129C584.445 187.405 583.457 200.318 583.282 209.717C584.076 201.836 584.955 193.412 585.859 185.634C586.374 181.176 586.909 176.676 587.464 172.129ZM711.155 772.585C713.017 770.923 714.923 769.253 716.867 767.584C711.103 771.63 705.63 775.667 700.04 780.025C693.323 785.266 686.709 790.782 680.389 796.469C690.686 787.611 701.193 779.612 711.155 772.585ZM604.266 1004.21C612.074 964.027 616.638 934.47 623.838 907.689C625.925 900.011 628.258 892.615 631.009 885.447C632.15 882.475 633.296 879.495 634.482 876.49C624.51 892.148 616.92 907.511 611.355 920.487C595.146 959.402 589.36 983.324 583.759 1004.17C582.234 1010.15 580.819 1016.15 579.531 1022.11C579.348 1027.17 579.178 1032.48 578.974 1037.9C578.715 1045.35 578.454 1053.42 578.224 1061.19C578.015 1068.78 577.79 1076.81 577.593 1084.46C577.4 1092.1 577.182 1100.07 577.005 1107.61C576.838 1114.72 576.659 1122.13 576.545 1129.02C576.538 1129.41 576.531 1129.81 576.525 1130.21C576.41 1137.48 576.33 1144.82 576.417 1151.39C576.512 1158.03 576.747 1163.64 577.245 1168.67C577.86 1175.05 578.474 1181.16 579.042 1187.53C579.611 1193.87 580.148 1200.22 580.659 1206.4C581.169 1212.63 581.65 1218.94 582.11 1225.2C582.26 1227.19 582.414 1229.28 582.558 1231.27C582.624 1232.18 582.693 1233.1 582.758 1234.01C583.03 1222.07 583.395 1209.08 583.883 1196.24C584.605 1177.24 585.849 1157.5 587.636 1135.38C590.825 1098.13 594.743 1054.81 604.266 1004.21ZM514.223 1196.64C514.133 1202.03 514.087 1209.86 514.07 1219.98C514.066 1222.36 514.069 1224.89 514.067 1227.54C514.073 1227.48 514.074 1227.41 514.08 1227.35C514.666 1220.79 515.193 1214.78 515.715 1208.24C516.644 1196.63 517.518 1185.3 518.382 1173.88C519.248 1162.45 520.1 1150.91 520.964 1139.47C521.833 1127.94 522.713 1116.39 523.631 1104.93C524.559 1093.32 525.525 1081.9 526.563 1070.33C526.896 1066.63 527.236 1062.91 527.582 1059.24C526.253 1067.41 525.064 1075.99 523.918 1084.99C523.001 1092.2 522.108 1099.71 521.188 1107.59C520.837 1110.59 520.366 1114.3 519.844 1118.52C517.753 1135.38 514.79 1161.9 514.223 1196.64ZM537.952 965.566C538.477 962.853 539.047 960.094 539.637 957.423C541.322 949.798 543.254 942.361 545.345 935.144C546.826 930.041 548.385 925.064 550.025 920.125C550.517 918.643 551.016 917.165 551.519 915.7C551.722 915.108 551.926 914.519 552.131 913.932C553.333 910.484 554.545 907.123 555.816 903.735C554.167 907.684 552.613 911.581 551.104 915.552C543.735 934.948 537.982 954.56 533.375 974.918C533.303 975.24 533.235 975.564 533.162 975.889C534.752 972.386 536.363 968.887 537.952 965.566ZM1190.65 830.847C1200.84 848.993 1207.86 867.302 1214.15 890.185C1214.15 890.197 1214.16 890.209 1214.16 890.221C1215.05 893.475 1215.91 896.82 1216.76 900.32C1216.79 900.414 1216.81 900.509 1216.83 900.604C1223.59 928.444 1229.48 964.189 1232.78 1014.44C1236.21 1070.14 1230.31 1112.2 1225.23 1137.76C1224.25 1142.55 1223.69 1147.45 1222.94 1159.84C1222.92 1160.21 1222.89 1160.58 1222.87 1160.96L1223.97 1199.04L1181.69 1209.53C1177.82 1210.13 1173.31 1210.85 1167.95 1211.73L1109.94 1226.08L1108.18 1160.98C1108.47 1155.54 1108.78 1149.31 1109.09 1142.2C1109.43 1134.31 1109.78 1124.72 1110.08 1114.02C1111.06 1077.95 1109.52 1021.71 1099.95 974.871C1094.35 946.505 1085.49 922.144 1076.98 905.251C1064.66 880.401 1048.64 858.777 1025.82 836.268C1006.98 817.706 983.93 799.01 955.584 778.388L955.634 778.423C954.342 777.486 953.042 776.544 951.734 775.598L951.786 775.634C949.636 774.088 947.477 772.514 945.307 770.906C929.338 759.015 914.402 745.455 900.649 728.353L866.043 695.597L908.565 665.64C921.827 658.963 935.019 653.695 948.255 648.963C952.236 647.543 956.238 646.168 960.228 644.843C965.933 642.946 971.628 641.141 977.38 639.369C997.479 633.443 1017.61 626.026 1037.33 615.207C1081.54 590.716 1108.48 559.127 1129.05 520.412C1137.09 505.163 1144.17 488.58 1150.82 469.992C1161.51 440.812 1173.26 396.485 1181.19 350.257C1181.89 346.317 1182.54 342.466 1183.2 338.513C1183.2 338.493 1183.2 338.473 1183.21 338.453C1190.25 295.869 1195.05 253.716 1197.95 222.396C1202.45 172.504 1202.55 153.871 1202.84 137.921C1202.85 136.893 1202.87 135.877 1202.88 134.865L1202.88 134.877C1202.95 130.045 1203.04 125.341 1203.27 119.923C1203.44 115.575 1203.71 110.823 1204.04 105.74L1220.3 136.328C1202.76 127.312 1180.91 115.662 1158.11 104.587L1081.43 70.7686L1163.29 45.1684C1166.27 44.3565 1169.26 43.5425 1172.25 42.7275C1172.38 42.6906 1172.52 42.6536 1172.65 42.6167C1178.41 41.0461 1184.17 43.7131 1185.49 48.5719C1186.82 53.4314 1183.22 58.6471 1177.45 60.2179C1174.35 61.0624 1171.27 61.9035 1168.2 62.7401L1133.22 73.6795L1165.98 88.1307C1179.92 94.901 1193.29 101.766 1205.47 108.084C1208.24 104.649 1213.72 103.826 1218.43 106.385C1221.5 108.051 1226.33 110.412 1232.82 113.502L1229.96 108.134C1229.69 115.824 1229.46 125.583 1229.26 137.312C1228.88 157.065 1228.65 181.553 1228.08 211.635C1229.3 207.354 1230.44 203.743 1231.48 200.567C1232.71 196.844 1233.74 193.953 1234.61 191.5C1236.42 186.493 1237.62 183.139 1238.84 177.036C1240.29 167.156 1241.76 153.987 1243.32 138.615C1244.04 131.612 1244.76 124.272 1245.5 116.815C1245.77 114.05 1246.9 111.614 1248.53 109.848L1249.67 102.054L1241.78 97.1565C1240.65 94.6172 1240.59 91.822 1241.89 89.4639C1243.18 87.1334 1245.54 85.6997 1248.28 85.3105L1264.31 95.2594L1261.98 111.09C1263.27 113.152 1263.92 115.793 1263.65 118.594C1263.63 118.711 1263.62 118.827 1263.61 118.943C1262.9 126.16 1262.19 133.354 1261.49 140.288L1261.49 140.3C1259.88 156.049 1258.34 169.945 1256.8 180.358C1256.24 184.137 1255.69 187.362 1255.25 189.771C1254.89 191.703 1254.43 194.069 1254 195.451C1253.94 195.63 1253.83 195.972 1253.66 196.377C1253.66 196.384 1253.66 196.39 1253.65 196.397C1253.56 196.623 1253.11 197.779 1252.25 198.971C1252.07 199.212 1251.69 199.734 1251.09 200.325C1251.03 200.487 1250.97 200.649 1250.91 200.81C1250.11 203.067 1249.29 205.36 1248.47 207.835C1245.25 217.403 1240.97 232.825 1234.26 265.175C1227.84 294.797 1221.29 345.674 1207.11 408.331C1208.46 404.206 1209.76 400.015 1211.03 395.77C1214.15 385.413 1217.07 374.586 1219.74 363.984C1220.77 359.889 1221.77 355.726 1222.73 351.695C1224.29 345.152 1225.83 338.285 1227.27 331.691C1228.25 327.228 1229.21 322.707 1230.15 318.144C1230.15 318.133 1230.15 318.123 1230.15 318.113C1231.48 311.658 1232.71 305.639 1233.98 299.213C1234.43 296.983 1234.87 294.768 1235.3 292.557C1236.99 283.949 1238.6 275.411 1240.85 265.589C1241.17 264.422 1241.55 263.155 1241.85 262.209C1242.18 261.192 1242.5 260.213 1242.82 259.287C1243.11 258.47 1243.39 257.691 1243.65 256.942C1243.69 256.841 1243.72 256.741 1243.76 256.64C1244.06 255.802 1244.33 254.998 1244.59 254.224C1244.86 253.451 1245.11 252.705 1245.34 251.967C1245.34 251.96 1245.34 251.953 1245.34 251.946C1245.58 251.175 1245.76 250.588 1245.98 249.765C1246.25 248.731 1246.48 247.839 1246.72 246.753C1246.95 245.71 1247.19 244.579 1247.4 243.51C1247.61 242.431 1247.81 241.329 1248 240.206C1248.2 239.083 1248.39 237.937 1248.58 236.78C1248.76 235.623 1248.94 234.447 1249.12 233.263C1249.3 232.077 1249.48 230.876 1249.66 229.667C1250.07 226.882 1251.36 224.289 1253.27 222.476C1255.18 220.665 1257.55 219.779 1259.89 220.043C1262.22 220.282 1264.35 221.659 1265.83 223.845C1267.3 226.031 1267.99 228.853 1267.79 231.672C1267.73 232.44 1267.67 233.211 1267.61 233.983C1267.58 234.441 1267.54 234.904 1267.5 235.364C1267.41 236.601 1267.31 237.849 1267.2 239.1C1267.1 240.351 1266.98 241.609 1266.85 242.878C1266.73 244.155 1266.59 245.419 1266.43 246.75C1266.27 248.089 1266.09 249.451 1265.89 250.83C1265.69 252.175 1265.43 253.702 1265.17 255.06C1264.98 256.053 1264.71 257.271 1264.48 258.283C1264.23 259.339 1263.98 260.374 1263.72 261.369C1263.46 262.366 1263.19 263.327 1262.94 264.242C1262.91 264.34 1262.89 264.438 1262.86 264.536C1262.64 265.346 1262.42 266.125 1262.23 266.862C1262.01 267.686 1261.81 268.465 1261.63 269.206C1261.44 270.019 1261.34 270.524 1261.22 271.157C1259.93 279.587 1258.78 289.556 1257.55 299.494C1257.39 300.735 1257.24 301.966 1257.08 303.181C1256.27 309.672 1255.48 315.875 1254.59 322.468C1253.96 327.184 1253.31 331.863 1252.65 336.504C1251.65 343.39 1250.56 350.48 1249.45 357.324C1248.76 361.513 1248 365.946 1247.24 370.229C1245.26 381.368 1242.99 392.861 1240.45 404.086C1237.87 415.49 1234.98 426.858 1231.64 438.165C1228.29 449.539 1224.36 461.197 1219.88 472.373C1216.61 480.496 1212.59 488.833 1208.62 496.271C1206.46 500.328 1204.28 504.233 1202.08 508.02C1202.07 508.033 1202.06 508.046 1202.05 508.058C1200.13 511.355 1198.13 514.725 1196.15 517.954C1191.92 524.863 1187.59 531.674 1183.2 538.313C1178.8 544.974 1174.32 551.54 1169.68 558.065C1165.08 564.558 1160.29 571.036 1155.39 577.37C1150.47 583.732 1145.52 589.854 1140.11 596.173C1133.04 604.442 1125.7 612.415 1117.77 620.219C1109.94 627.934 1101.65 635.386 1093.1 642.377C1090.09 644.843 1087.03 647.259 1083.99 649.588C1083.98 649.597 1083.97 649.606 1083.96 649.615C1078.31 653.945 1072.39 658.217 1066.56 662.187C1057.36 668.455 1048.14 674.187 1038.49 679.68C1029.04 685.058 1019.18 690.175 1009.24 694.862C1007.4 695.728 1005.53 696.59 1003.65 697.446C996.151 700.85 988.595 704.341 981.063 707.825C972.843 711.635 964.68 715.568 956.976 719.602C954.941 720.668 952.925 721.748 950.934 722.842C949.31 723.735 947.713 724.635 946.143 725.542L951.933 679.668C957.244 685.716 963.331 691.536 969.833 696.985C977.388 703.319 985.591 709.239 994.25 714.843L994.284 714.867C994.649 715.104 995.013 715.342 995.378 715.579C996.359 716.216 997.342 716.853 998.327 717.488L998.361 717.512C1007.2 723.247 1016.09 728.949 1025 734.753C1035.19 741.414 1045.07 747.95 1055.29 755.105C1065.29 762.087 1075.55 769.65 1085.57 777.691C1091.24 782.253 1097.03 787.26 1102.45 792.326C1107.85 797.372 1113.17 802.724 1118.21 808.196C1120.27 810.425 1122.27 812.676 1124.24 814.939C1127.11 818.246 1129.91 821.618 1132.61 824.979C1137.15 830.656 1141.45 836.4 1145.49 842.062C1149.54 847.749 1153.34 853.345 1156.98 858.857C1160.73 864.549 1163.79 869.265 1167.44 874.975C1175.79 889.1 1179.67 898.517 1183.7 908.751C1184.49 910.787 1185.3 912.926 1186.1 915.085C1190.58 927.404 1194.26 940.164 1197.15 952.367C1200.13 964.985 1202.36 977.122 1204.14 989.387C1205.91 1001.63 1207.19 1013.84 1208.07 1025.84C1208.96 1037.94 1209.47 1050.03 1209.66 1061.7C1209.87 1073.8 1209.74 1085.57 1209.39 1097.19C1209.18 1103.71 1208.84 1110.87 1208.44 1117.44C1208.15 1122.04 1207.83 1126.64 1207.5 1131.2C1207.36 1133.06 1207.22 1134.92 1207.09 1136.77C1206.61 1143.11 1206.14 1148.95 1205.73 1154.89C1205.53 1157.79 1205.34 1160.67 1205.17 1163.54L1149.7 1116.43C1152.49 1115.99 1155.24 1115.54 1157.96 1115.05C1159.79 1114.73 1161.6 1114.39 1163.4 1114.04L1125.68 1158.53C1125.76 1155.03 1125.77 1151.62 1125.72 1148.21C1125.63 1142.78 1125.45 1138.33 1125.05 1132.62C1124.78 1128.94 1124.5 1125.23 1124.2 1121.65C1123.76 1116.2 1123.28 1110.86 1122.75 1105.47C1122.22 1100.09 1121.66 1094.81 1121.03 1089.5C1120.83 1087.81 1120.61 1086.01 1120.4 1084.3C1119.73 1079.05 1119.02 1073.86 1118.24 1068.71C1117.46 1063.58 1116.61 1058.53 1115.69 1053.52C1114.76 1048.51 1113.77 1043.61 1112.67 1038.65C1110.8 1030.23 1109.48 1022.27 1108.34 1015.35C1107.2 1008.34 1106.16 1001.88 1105.06 995.689C1104.85 994.519 1104.64 993.358 1104.42 992.207C1103.5 987.231 1102.53 982.395 1101.46 977.713C1100.15 971.952 1098.7 966.379 1097.08 960.942C1095.48 955.549 1093.69 950.254 1091.74 945.191C1091.14 943.614 1090.52 942.071 1089.89 940.564C1088.46 937.122 1086.98 933.839 1085.31 930.432C1082.93 925.581 1080.24 920.865 1077.13 915.932C1074.05 911.055 1070.67 906.122 1067.16 901.313C1063.65 896.506 1059.98 891.767 1056.23 887.137C1052.47 882.498 1048.57 877.908 1044.56 873.397C1040.53 868.863 1036.34 864.358 1031.99 859.86C1027.65 855.379 1022.96 850.726 1018.37 846.333C1010.97 839.23 1003.04 832.179 994.649 825.129C986.304 818.117 977.493 811.1 968.397 804.104C960.623 798.124 952.615 792.141 944.447 786.142C942.817 784.955 941.189 783.755 939.561 782.54C928.492 774.269 917.41 765.398 906.182 755.063L833.712 683.645L918.472 641.88C918.798 641.707 919.126 641.533 919.455 641.358C922.251 639.878 925.032 638.441 927.807 637.037C937.57 632.101 947.208 627.591 956.757 623.345C956.823 623.317 956.89 623.289 956.956 623.261C960.639 621.624 964.29 620.035 967.933 618.48C974.847 615.565 981.481 612.585 988.078 609.39C991.51 607.725 994.796 606.073 998.059 604.359C1001.3 602.655 1004.52 600.891 1007.63 599.109C1010.81 597.286 1013.83 595.476 1016.83 593.585C1019.82 591.696 1022.69 589.797 1025.51 587.819C1028.07 586.025 1030.62 584.131 1033.27 582.085C1033.52 581.898 1033.77 581.706 1034.01 581.516C1036.95 579.24 1040.22 576.667 1043.27 574.296C1051.35 568.037 1058.72 561.532 1065.68 554.484C1072.65 547.426 1079.06 539.962 1085.02 532.009C1087.35 528.903 1089.62 525.714 1091.81 522.464C1095.23 517.402 1098.48 512.177 1101.61 506.768C1106.74 497.879 1111.49 488.563 1115.97 478.79C1119.67 470.703 1123.19 462.303 1126.53 453.673C1127.21 451.927 1127.88 450.164 1128.55 448.384C1132.48 437.91 1136.21 426.988 1139.71 415.931C1143.62 403.6 1147.21 391.005 1150.57 378.076C1153.92 365.168 1157.03 351.986 1159.94 338.676C1162.86 325.316 1165.58 311.802 1168.18 298.15C1170.78 284.508 1173.24 270.747 1175.63 256.879C1177.06 248.55 1178.46 240.227 1179.83 231.886C1179.89 227.353 1179.92 223.088 1179.95 218.918C1180.17 188.201 1180.13 165.854 1181.41 136.387C1181.45 133.536 1181.35 131.231 1181.23 128.423C1181.21 127.887 1181.19 127.318 1181.16 126.737C1181.01 123.066 1180.89 118.779 1181.1 112.971C1181.2 110.225 1181.38 107.128 1181.67 103.685C1181.91 100.94 1182.22 97.9845 1182.63 94.8286L1217.38 160.185C1214.97 158.743 1212.45 157.169 1209.82 155.451C1203.7 151.418 1197 146.604 1189.85 140.879C1185.43 137.333 1184.51 131.396 1187.84 127.581C1190.18 124.908 1194.02 124.012 1197.66 124.962C1191.95 121.296 1186.24 117.661 1180.53 114.09C1178.25 112.663 1176.51 110.527 1175.72 108.118C1174.92 105.71 1175.12 103.231 1176.3 101.198C1177.48 99.1654 1179.56 97.7376 1182.09 97.214C1184.63 96.6912 1187.41 97.1185 1189.83 98.3879C1196.25 101.758 1202.62 105.18 1208.98 108.628C1215.36 112.079 1221.69 115.54 1228.04 119.039C1228.49 119.284 1228.93 119.53 1229.38 119.776C1231.98 121.21 1234.58 122.641 1237.18 124.069L1223.65 98.6066C1223.37 101.562 1223.1 104.519 1222.84 107.479C1222.76 108.398 1222.67 109.317 1222.59 110.236C1221.93 117.588 1221.29 124.912 1220.66 132.267C1220.03 139.644 1219.43 146.911 1218.81 154.299C1218.44 158.748 1218.07 163.131 1217.7 167.57C1217.57 169.211 1217.44 170.809 1217.31 172.402C1217.2 173.705 1217.09 175.011 1216.97 176.352C1215.79 190.565 1214.58 204.869 1213.34 219.007C1212.09 233.219 1210.79 247.436 1209.39 261.577C1207.99 275.731 1206.5 289.83 1204.86 303.884C1203.21 317.925 1201.41 331.942 1199.38 345.888C1197.37 359.787 1195.11 373.665 1192.57 387.399C1190.59 398.039 1188.47 408.509 1186.11 418.902C1185.53 423.11 1184.91 427.2 1184.23 431.286C1182.27 443.112 1180.33 454.992 1177.98 466.634C1184.09 446.581 1187.31 429.885 1190 413.987C1190.35 411.857 1190.7 409.706 1191.04 407.595C1194.44 385.96 1197.17 364.956 1201.97 336.693C1215 256.134 1219.1 208.097 1223.38 178.567C1227.39 149 1230.27 136.315 1234.82 124.675C1236.5 120.361 1238.14 115.005 1239.67 109.029C1240.4 106.209 1241.1 103.271 1241.78 100.277L1245.94 108.105C1243.54 106.357 1241.09 104.615 1238.63 102.907C1228.62 95.9577 1218.34 89.7129 1211.21 85.9486C1205.95 83.17 1203.54 77.3259 1205.84 72.8486C1208.15 68.3711 1214.38 66.9883 1219.72 69.8109C1226.86 73.5778 1237.11 79.7182 1247.46 86.7973C1249.91 88.472 1252.37 90.1924 1254.8 91.9377L1260.41 94.6323L1260.14 101.968C1259.5 104.918 1258.83 107.853 1258.13 110.73C1256.09 119.126 1253.82 126.899 1251.37 133.187C1247.97 141.851 1245.38 152.077 1241.43 181.258C1237.18 210.416 1233.17 258.002 1219.96 339.742C1215.26 367.386 1212.6 387.947 1209.16 409.922C1208.82 412.057 1208.47 414.237 1208.11 416.427C1208.1 416.44 1208.1 416.454 1208.1 416.467C1205.07 434.386 1201.38 453.783 1193.54 477.954C1192.56 480.922 1191.53 483.935 1190.43 487.012C1170.59 554.811 1104.75 627.021 1086.15 639.923C1082.85 642.884 1079.58 645.776 1076.14 648.723C1062.71 659.836 1046.33 674.032 1003.85 695.097C1003.51 695.264 1003.16 695.432 1002.81 695.6C994.156 699.804 984.148 704.685 973.515 710.258C969.404 713.116 965.391 715.992 961.513 718.862L964.743 689.113C975.485 696.371 986.444 702.751 996.331 708.511C996.891 708.838 997.441 709.153 998.002 709.471C1009.72 716.197 1021.12 721.83 1032.35 727.373C1035.77 729.076 1039.16 730.732 1042.6 732.471C1050.83 736.602 1059.15 740.984 1066.96 745.706C1073.19 749.473 1079.82 753.457 1086.79 757.902C1111.76 774.033 1144.07 796.92 1169.69 841.489C1182.39 863.835 1191.09 886.064 1197.24 906.772C1203.98 929.536 1207.79 950.501 1210.39 969.543C1207.34 943.995 1203.53 923.427 1199.37 906.103C1199.16 905.252 1198.95 904.41 1198.75 903.579C1197.9 900.189 1197.08 897.02 1196.21 893.871C1190.08 871.942 1183.76 855.874 1174.83 839.92C1128.75 764.818 1098.68 750.769 1071.54 732.175C1064 727.585 1055.61 723.021 1046.53 718.303C1034.03 711.812 1020.35 705.115 1006.18 697.761C1000.35 694.834 994.539 691.636 988.887 688.111C983.997 685.06 979.031 681.866 974.15 678.518L968.427 731.23C979.99 722.841 993.119 714.115 1007.25 705.42C1008.5 704.671 1009.74 703.918 1010.98 703.159C1010.99 703.155 1011 703.15 1011.01 703.146C1015.58 700.35 1020.21 697.432 1024.77 694.452C1052.8 676.225 1080.54 654.323 1104.53 630.374C1107.12 627.803 1110.11 624.685 1113.47 620.986C1133.01 599.824 1163.29 559.591 1189.32 505.099C1193.11 497.317 1197.01 489.34 1201.03 480.67C1203.15 476.095 1205.33 471.277 1207.5 466.245C1209.42 461.802 1211.34 457.21 1213.26 452.357C1221.55 431.403 1230.2 405.365 1237.88 370.095C1244.24 340.989 1249.81 305.245 1254.62 268.284C1257 250.063 1259.24 231.519 1261.42 213.268C1265.62 178 1269.55 144.73 1273.54 112.15C1273.9 109.195 1274.26 106.246 1274.62 103.302L1275.29 85.6603L1261.8 79.1799C1259.23 77.6706 1256.67 76.1632 1254.12 74.6573C1243.26 68.2651 1232.37 62.01 1221.37 55.8968C1221.36 55.892 1221.35 55.8871 1221.34 55.8823C1216.02 52.9239 1213.66 46.9877 1216.12 42.5884C1218.57 38.1942 1224.99 37.0273 1230.39 40.0312C1241.33 46.1133 1252.14 52.3198 1262.89 58.6484C1265.45 60.1546 1268.01 61.6623 1270.57 63.1715L1293.96 74.4025L1292.8 104.977C1292.44 107.921 1292.08 110.87 1291.72 113.824C1287.7 146.569 1283.76 179.99 1279.52 215.514C1277.37 233.551 1275.14 252.04 1272.75 270.312C1267.89 307.697 1262.19 344.352 1255.65 374.224C1247.71 410.669 1238.65 437.949 1229.96 459.803C1227.85 465.111 1225.8 470.008 1223.77 474.684C1221.92 478.938 1220.06 483.062 1218.28 486.92C1213.85 496.506 1209.65 505.053 1205.55 513.435C1179.13 568.549 1148.38 609.962 1127.8 632.407C1124.18 636.412 1120.9 639.853 1118.04 642.711C1093.29 667.525 1064.83 690.141 1035.89 709.069C1031.21 712.137 1026.45 715.144 1021.79 718.02C1021.78 718.027 1021.77 718.034 1021.76 718.042C1019.48 719.451 1017.17 720.846 1014.85 722.226C1001.18 730.694 988.433 739.219 977.405 747.287L986.365 664.762C990.292 667.403 994.337 669.995 998.376 672.516C1004.41 676.279 1010.6 679.615 1016.76 682.615C1028.95 688.876 1040.6 694.56 1051.86 700.333C1061.41 705.236 1070.65 710.196 1079.63 715.622C1109.17 735.678 1141.73 751.105 1190.65 830.847ZM1206.49 130.647C1210.77 133.931 1214.83 136.83 1218.63 139.383C1221.26 141.143 1223.78 142.735 1226.16 144.176L1200.81 96.5032C1200.38 99.7044 1200.06 102.661 1199.84 105.36C1199.79 105.936 1199.74 106.501 1199.7 107.055C1199.79 106.494 1199.88 105.933 1199.98 105.371C1200.46 102.433 1200.94 99.496 1201.43 96.5604L1226.46 143.63C1223.96 142.011 1221.46 140.39 1218.97 138.765C1218.24 138.287 1217.51 137.812 1216.78 137.335C1213.35 135.097 1209.92 132.867 1206.49 130.647ZM963.578 694.879C965.511 693.537 967.471 692.195 969.448 690.86C963.681 693.93 957.96 697.091 952.322 700.378C952.033 700.546 951.746 700.714 951.46 700.882L948.738 702.223L951.065 704.517C956.931 709.515 962.997 714.241 969.182 718.779C962.957 713.981 956.986 709.094 951.401 704.139L949.598 702.362L951.706 701.323C955.728 699.072 959.697 696.928 963.578 694.879ZM1153.87 850.575C1131.15 811.086 1103.16 790.625 1079.22 774.924C1072.21 770.381 1065.39 766.236 1058.68 762.148C1055.91 760.466 1053.07 758.818 1050.23 757.249C1064.65 769.244 1077.42 781.112 1087.39 791.397C1117.12 822.276 1129 844.678 1138.22 863.899C1140.85 869.518 1143.19 874.992 1145.44 880.624C1148.1 884.892 1150.73 889.414 1153.21 894.127C1156.66 900.652 1160.08 907.982 1162.99 915.002C1163.3 915.751 1163.61 916.505 1163.91 917.264C1166.48 923.631 1168.83 930.165 1170.91 936.663C1173.26 943.984 1175.3 951.317 1177.1 958.657C1178.79 965.546 1180.26 972.449 1181.57 979.161C1181.64 979.542 1181.71 979.924 1181.79 980.306C1183.15 987.411 1184.33 994.269 1185.44 1000.62C1186.58 1007.06 1187.57 1012.44 1188.68 1017.14C1190.08 1023.07 1191.38 1029.11 1192.55 1035.16C1193.72 1041.17 1194.78 1047.19 1195.73 1053.21C1196.69 1059.22 1197.54 1065.2 1198.32 1071.17C1198.57 1073.1 1198.82 1075.14 1199.06 1077.06C1199.16 1077.94 1199.27 1078.82 1199.37 1079.7C1199.14 1067.96 1198.76 1055.75 1198.15 1043.08C1197.26 1024.75 1196.19 1005.07 1193.71 983.164C1191.23 961.808 1187.51 938.285 1179.84 912.248C1174.05 892.709 1165.91 871.793 1153.87 850.575ZM1130.11 1082.17C1130.27 1086.95 1130.56 1094.37 1130.81 1103.39C1130.87 1105.56 1130.94 1107.87 1130.99 1110.31C1130.99 1110.25 1130.99 1110.19 1131 1110.14C1131.45 1104.05 1131.8 1098.73 1132.09 1092.71C1132.58 1081.92 1132.86 1071.77 1132.9 1061.35C1132.93 1050.97 1132.72 1040.77 1132.18 1030.25C1131.67 1020.05 1130.84 1009.66 1129.65 999.524C1128.45 989.345 1126.92 979.393 1124.9 969.45C1124.25 966.271 1123.57 963.194 1122.84 960.081C1123.92 967.042 1125.01 974.636 1125.89 982.4C1126.63 988.819 1127.23 995.208 1127.73 1002.32C1127.93 1005.11 1128.06 1008.18 1128.21 1011.99C1128.78 1027.07 1129.05 1050.74 1130.11 1082.17ZM1091.68 888.959C1090.52 887.086 1089.36 885.266 1088.18 883.437C1084.84 878.261 1081.48 873.33 1078.02 868.574C1075.59 865.237 1073.11 861.992 1070.57 858.828C1069.5 857.501 1068.42 856.188 1067.33 854.89C1065.51 852.722 1063.63 850.566 1061.76 848.498C1074.27 863.754 1084.58 879.531 1093.3 897.116C1093.42 897.347 1093.54 897.577 1093.65 897.811C1093.06 894.818 1092.38 891.834 1091.68 888.959Z" fill="#DFCEAE"/>
</g>
<path d="M1917.69 163.379C1921.99 157.941 1930.72 161.576 1929.88 168.455L1916.2 281.147C1915.91 283.521 1916.88 285.873 1918.75 287.355L2007.86 357.695C2013.29 361.988 2009.66 370.718 2002.78 369.883L1890.09 356.196C1887.71 355.907 1885.36 356.877 1883.88 358.754L1813.54 447.856C1809.25 453.294 1800.52 449.659 1801.35 442.781L1815.04 330.089C1815.33 327.715 1814.36 325.362 1812.48 323.88L1723.38 253.541C1717.94 249.247 1721.58 240.517 1728.45 241.352L1841.15 255.04C1843.52 255.328 1845.87 254.359 1847.36 252.482L1917.69 163.379Z" fill="#EDD3A8" stroke="#6C665D" stroke-width="20.3768"/>
<path d="M2026.5 493.173C2029.55 491.096 2033.4 494.331 2031.88 497.69L2006.99 552.718C2006.47 553.877 2006.59 555.226 2007.3 556.277L2041.34 606.168C2043.41 609.213 2040.18 613.066 2036.82 611.547L1981.79 586.66C1980.63 586.136 1979.28 586.253 1978.23 586.97L1928.34 621.005C1925.3 623.083 1921.44 619.848 1922.96 616.489L1947.85 561.461C1948.38 560.301 1948.26 558.953 1947.54 557.902L1913.51 508.011C1911.43 504.966 1914.66 501.113 1918.02 502.632L1973.05 527.519C1974.21 528.043 1975.56 527.925 1976.61 527.208L2026.5 493.173Z" fill="#EDD3A8" stroke="#6C665D" stroke-width="20.3768"/>
<path d="M1552.11 1012.12C1521.18 1061.27 1422.19 1064.78 1276.92 1021.87C1131.64 978.964 951.979 893.158 777.457 783.331C602.936 673.503 447.849 548.649 346.314 436.235C244.779 323.821 205.114 233.056 236.044 183.906" stroke="#6C665D" stroke-width="15" stroke-dasharray="41.06 41.06"/>
<path d="M1597.44 194.205C1631.33 234.587 1589.48 318.964 1481.13 428.776C1372.77 538.587 1206.76 664.838 1019.64 779.753C832.512 894.668 639.591 988.836 483.314 1041.54C327.037 1094.24 220.207 1101.16 186.325 1060.78" stroke="#6C665D" stroke-width="15"/>
<defs>
<filter id="filter0_d_853_14097" x="427.881" y="33.9449" width="825.329" height="1371.1" filterUnits="userSpaceOnUse" color-interpolation-filters="sRGB">
<feFlood flood-opacity="0" result="BackgroundImageFix"/>
<feColorMatrix in="SourceAlpha" type="matrix" values="0 0 0 0 0 0 0 0 0 0 0 0 0 0 0 0 0 0 127 0" result="hardAlpha"/>
<feOffset dx="22.0824" dy="-13.2494"/>
<feComposite in2="hardAlpha" operator="out"/>
<feColorMatrix type="matrix" values="0 0 0 0 0.364706 0 0 0 0 0.356863 0 0 0 0 0.333333 0 0 0 1 0"/>
<feBlend mode="normal" in2="BackgroundImageFix" result="effect1_dropShadow_853_14097"/>
<feBlend mode="normal" in="SourceGraphic" in2="effect1_dropShadow_853_14097" result="shape"/>
</filter>
<filter id="filter1_d_853_14097" x="490.718" y="25.1119" width="825.329" height="1371.1" filterUnits="userSpaceOnUse" color-interpolation-filters="sRGB">
<feFlood flood-opacity="0" result="BackgroundImageFix"/>
<feColorMatrix in="SourceAlpha" type="matrix" values="0 0 0 0 0 0 0 0 0 0 0 0 0 0 0 0 0 0 127 0" result="hardAlpha"/>
<feOffset dx="22.0824" dy="-13.2494"/>
<feComposite in2="hardAlpha" operator="out"/>
<feColorMatrix type="matrix" values="0 0 0 0 0.364706 0 0 0 0 0.356863 0 0 0 0 0.333333 0 0 0 1 0"/>
<feBlend mode="normal" in2="BackgroundImageFix" result="effect1_dropShadow_853_14097"/>
<feBlend mode="normal" in="SourceGraphic" in2="effect1_dropShadow_853_14097" result="shape"/>
</filter>
</defs>
</svg>
