<svg width="45" height="45" viewBox="0 0 45 45" fill="none" xmlns="http://www.w3.org/2000/svg">
<path d="M41.3653 0H3.35394C1.49064 0 0 1.49064 0 3.16761V41.3653C0 43.0422 1.49064 44.5329 3.35394 44.5329H41.3653C43.2286 44.5329 44.7192 43.0422 44.7192 41.3653V3.16761C44.7192 1.49064 43.2286 0 41.3653 0ZM13.2294 38.0113H6.70788V16.7697H13.2294V38.0113ZM10.0618 13.7884C8.01219 13.7884 6.14889 12.1115 6.14889 9.87549C6.14889 7.63953 7.82586 5.96256 10.0618 5.96256C12.1114 5.96256 13.9747 7.63953 13.9747 9.87549C13.9747 12.1115 12.1114 13.7884 10.0618 13.7884ZM38.1976 37.825H31.6761V27.3905C31.6761 24.9682 31.6761 21.6143 28.1358 21.6143C24.5956 21.6143 24.2229 24.4092 24.2229 27.0178V37.6387H17.7013V16.7697H23.8502V19.5646H24.0366C24.9682 17.8877 27.2042 16.0244 30.3718 16.0244C37.0797 16.0244 38.384 20.4963 38.384 26.2725V37.825H38.1976Z" fill="#5E5C56"/>
</svg>
