<svg width="60" height="60" viewBox="0 0 60 60" fill="none" xmlns="http://www.w3.org/2000/svg">
<path d="M47.8747 13.2419C44.5704 11.7015 40.9929 10.5836 37.2663 9.93761C37.2336 9.93657 37.2011 9.9427 37.1711 9.95558C37.141 9.96846 37.1142 9.98777 37.0924 10.0121C36.6452 10.832 36.1235 11.9003 35.7756 12.7201C31.823 12.1239 27.8032 12.1239 23.8505 12.7201C23.5027 11.8754 22.981 10.832 22.5089 10.0121C22.4841 9.96246 22.4096 9.93761 22.335 9.93761C18.6084 10.5836 15.0557 11.7015 11.7267 13.2419C11.7018 13.2419 11.677 13.2667 11.6521 13.2916C4.89455 23.4031 3.03125 33.2413 3.95048 42.9801C3.95048 43.0298 3.97532 43.0795 4.02501 43.1044C8.49693 46.3838 12.7949 48.3713 17.0433 49.688C17.1178 49.7129 17.1923 49.688 17.2172 49.6383C18.2109 48.2719 19.1053 46.831 19.8755 45.3155C19.9252 45.2161 19.8755 45.1167 19.7761 45.0919C18.36 44.5453 17.0184 43.8994 15.7017 43.154C15.6023 43.1044 15.6023 42.9553 15.6768 42.8808C15.9501 42.682 16.2234 42.4584 16.4967 42.2597C16.5464 42.21 16.6209 42.21 16.6706 42.2348C25.2169 46.1353 34.4341 46.1353 42.881 42.2348C42.9307 42.21 43.0052 42.21 43.0549 42.2597C43.3282 42.4833 43.6015 42.682 43.8748 42.9056C43.9742 42.9801 43.9742 43.1292 43.8499 43.1789C42.558 43.949 41.1916 44.5701 39.7755 45.1167C39.6762 45.1416 39.6513 45.2658 39.6762 45.3403C40.4712 46.8558 41.3655 48.2967 42.3345 49.6632C42.409 49.688 42.4835 49.7129 42.5581 49.688C46.8312 48.3713 51.1292 46.3838 55.6011 43.1044C55.6508 43.0795 55.6757 43.0298 55.6757 42.9801C56.7688 31.7258 53.8621 21.9621 47.974 13.2916C47.9492 13.2667 47.9244 13.2419 47.8747 13.2419ZM21.1674 37.0424C18.6084 37.0424 16.4719 34.6822 16.4719 31.7755C16.4719 28.8687 18.5588 26.5086 21.1674 26.5086C23.8008 26.5086 25.8877 28.8936 25.8629 31.7755C25.8629 34.6822 23.776 37.0424 21.1674 37.0424ZM38.4836 37.0424C35.9247 37.0424 33.7881 34.6822 33.7881 31.7755C33.7881 28.8687 35.875 26.5086 38.4836 26.5086C41.1171 26.5086 43.204 28.8936 43.1791 31.7755C43.1791 34.6822 41.1171 37.0424 38.4836 37.0424Z" fill="#5E5C56"/>
</svg>
