<svg width="60" height="60" viewBox="0 0 60 60" fill="none" xmlns="http://www.w3.org/2000/svg">
<path d="M29.8101 18.3262C26.7634 18.3262 23.8414 19.5365 21.687 21.6909C19.5326 23.8453 18.3223 26.7673 18.3223 29.814C18.3223 32.8608 19.5326 35.7828 21.687 37.9372C23.8414 40.0916 26.7634 41.3019 29.8101 41.3019C32.8569 41.3019 35.7789 40.0916 37.9333 37.9372C40.0877 35.7828 41.298 32.8608 41.298 29.814C41.298 26.7673 40.0877 23.8453 37.9333 21.6909C35.7789 19.5365 32.8569 18.3262 29.8101 18.3262ZM29.8101 37.2747C27.8308 37.2747 25.9325 36.4884 24.5329 35.0888C23.1333 33.6892 22.347 31.7909 22.347 29.8116C22.347 27.8322 23.1333 25.9339 24.5329 24.5343C25.9325 23.1347 27.8308 22.3484 29.8101 22.3484C31.7895 22.3484 33.6878 23.1347 35.0874 24.5343C36.487 25.9339 37.2733 27.8322 37.2733 29.8116C37.2733 31.7909 36.487 33.6892 35.0874 35.0888C33.6878 36.4884 31.7895 37.2747 29.8101 37.2747Z" fill="#5E5C56"/>
<path d="M41.7514 20.5829C43.2305 20.5829 44.4296 19.3839 44.4296 17.9047C44.4296 16.4256 43.2305 15.2266 41.7514 15.2266C40.2723 15.2266 39.0732 16.4256 39.0732 17.9047C39.0732 19.3839 40.2723 20.5829 41.7514 20.5829Z" fill="#5E5C56"/>
<path d="M51.012 15.1814C50.4369 13.6962 49.558 12.3474 48.4316 11.2214C47.3051 10.0954 45.956 9.21702 44.4706 8.64245C42.7324 7.98994 40.896 7.63711 39.0397 7.599C36.6472 7.49466 35.8895 7.46484 29.8226 7.46484C23.7557 7.46484 22.9781 7.46484 20.6055 7.599C18.7506 7.63517 16.9155 7.98806 15.1795 8.64245C13.6937 9.21635 12.3442 10.0945 11.2177 11.2206C10.0912 12.3467 9.21256 13.6958 8.6381 15.1814C7.98546 16.9195 7.63344 18.756 7.59713 20.6123C7.4903 23.0023 7.45801 23.76 7.45801 29.8294C7.45801 35.8963 7.45801 36.669 7.59713 39.0465C7.6344 40.9049 7.9847 42.7384 8.6381 44.4799C9.21417 45.965 10.0937 47.3136 11.2205 48.4395C12.3472 49.5654 13.6965 50.4439 15.182 51.0189C16.9147 51.6976 18.7505 52.0757 20.6104 52.1368C23.0029 52.2412 23.7606 52.2735 29.8275 52.2735C35.8944 52.2735 36.6721 52.2735 39.0447 52.1368C40.9008 52.0991 42.7371 51.7471 44.4756 51.0959C45.9606 50.52 47.3093 49.6408 48.4356 48.5145C49.5619 47.3882 50.4411 46.0395 51.017 44.5545C51.6704 42.8154 52.0207 40.9819 52.058 39.1236C52.1648 36.7336 52.1971 35.9758 52.1971 29.9064C52.1971 23.837 52.1971 23.0669 52.058 20.6893C52.029 18.8068 51.6752 16.9434 51.012 15.1814ZM47.986 38.8627C47.97 40.2945 47.7087 41.7129 47.2134 43.0564C46.8403 44.0225 46.2691 44.8998 45.5366 45.6319C44.8041 46.364 43.9264 46.9346 42.9601 47.3072C41.6315 47.8002 40.2281 48.0615 38.8111 48.0798C36.451 48.1891 35.7851 48.2165 29.7331 48.2165C23.6762 48.2165 23.0576 48.2165 20.6527 48.0798C19.2364 48.0625 17.8337 47.8011 16.5062 47.3072C15.5365 46.9369 14.6553 46.3673 13.9197 45.6351C13.184 44.9028 12.6102 44.0243 12.2355 43.0564C11.7472 41.7273 11.486 40.3256 11.4629 38.9099C11.356 36.5497 11.3312 35.8839 11.3312 29.8319C11.3312 23.7774 11.3312 23.1588 11.4629 20.7514C11.4789 19.3205 11.7403 17.9029 12.2355 16.5602C12.9933 14.6 14.546 13.0572 16.5062 12.3069C17.8343 11.8154 19.2366 11.5541 20.6527 11.5343C23.0153 11.4275 23.6787 11.3976 29.7331 11.3976C35.7876 11.3976 36.4087 11.3976 38.8111 11.5343C40.2283 11.5513 41.6318 11.8127 42.9601 12.3069C43.9263 12.6803 44.8039 13.2515 45.5363 13.984C46.2688 14.7165 46.84 15.594 47.2134 16.5602C47.7017 17.8893 47.9629 19.291 47.986 20.7067C48.0929 23.0694 48.1202 23.7327 48.1202 29.7872C48.1202 35.8392 48.1202 36.4901 48.0134 38.8652H47.986V38.8627Z" fill="#5E5C56"/>
</svg>
