<svg width="103" height="103" viewBox="0 0 103 103" fill="none" xmlns="http://www.w3.org/2000/svg">
<path d="M51.5 0C79.9435 0 103 23.0566 103 51.5C103 79.9435 79.9435 103 51.5 103C23.0566 103 0 79.9435 0 51.5C0 23.0566 23.0566 0 51.5 0ZM51.5 10.3C40.5731 10.3 30.0937 14.6407 22.3672 22.3672C14.6407 30.0937 10.3 40.5731 10.3 51.5C10.3 62.4269 14.6407 72.9063 22.3672 80.6328C30.0937 88.3593 40.5731 92.7 51.5 92.7C62.4269 92.7 72.9063 88.3593 80.6328 80.6328C88.3593 72.9063 92.7 62.4269 92.7 51.5C92.7 40.5731 88.3593 30.0937 80.6328 22.3672C72.9063 14.6407 62.4269 10.3 51.5 10.3ZM51.5 20.6C52.7614 20.6002 53.9789 21.0633 54.9215 21.9015C55.8641 22.7397 56.4664 23.8947 56.614 25.1474L56.65 25.75V49.3679L70.591 63.309C71.5147 64.2357 72.0509 65.4793 72.0909 66.7872C72.1308 68.095 71.6714 69.369 70.8061 70.3504C69.9407 71.3318 68.7342 71.9471 67.4317 72.0712C66.1291 72.1952 64.8282 71.8189 63.7931 71.0185L63.309 70.591L47.859 55.141C47.0585 54.34 46.5445 53.2974 46.3964 52.1746L46.35 51.5V25.75C46.35 24.3841 46.8926 23.0742 47.8584 22.1084C48.8242 21.1426 50.1341 20.6 51.5 20.6Z" fill="#B98529"/>
</svg>
