<svg width="597" height="1011" viewBox="0 0 597 1011" fill="none" xmlns="http://www.w3.org/2000/svg">
<path fill-rule="evenodd" clip-rule="evenodd" d="M101.973 963.902C102.217 854.692 102.461 745.482 102.697 636.28C102.575 694.261 33.1754 687.561 49.1133 635.327C55.6379 613.939 78.1766 564.022 68.5117 521.338C52.9092 452.365 82.2315 397.684 78.8092 383.659C73.0164 359.932 62.9856 163.341 133.231 189.935C165.709 198.479 176.357 243.808 209.369 220.081C271.87 183.022 280.849 276.347 304.752 288.695C362.84 320.03 400.357 274.465 448.871 307.697C476.387 337.134 529.254 262.117 539.384 322.896C539.933 342.599 508.21 400.062 548.5 486.253C602.145 600.966 575.01 749.103 556.168 767.457C537.334 785.498 513.324 750.231 513.324 750.231C520.321 899.952 518.637 808.883 525.634 958.604C381.522 965.579 246.085 956.935 101.973 963.902Z" fill="#F0C3B6"/>
<path fill-rule="evenodd" clip-rule="evenodd" d="M94.8345 963.558L95.4671 674.641C92.9061 677.042 90.124 678.978 87.2047 680.487C80.8783 683.757 73.9803 684.939 67.4634 684.131C60.8093 683.3 54.5286 680.426 49.5666 675.609C40.7707 667.08 36.3651 652.636 42.2722 633.261C43.4537 629.381 45.0009 624.99 46.7616 619.998C55.2679 595.805 69.125 556.437 61.5334 522.922C50.466 473.988 61.137 432.402 67.8064 406.395C70.5351 395.77 72.5168 388.064 71.8537 385.358C68.8963 373.277 64.8413 318.055 70.1768 268.93C72.5702 246.978 76.8386 226.025 83.9196 210.217C91.7475 192.724 103.074 181.192 119.103 180.376C124.187 180.117 129.622 180.986 135.422 183.128C149.63 186.992 159.577 196.459 168.777 205.209C180.035 215.941 189.852 225.301 205.172 214.279L205.714 213.929C244.358 191.017 265.143 210.887 280.319 236.49C283.97 242.656 287.385 249.44 290.64 255.934C296.874 268.343 302.469 279.494 308.018 282.36L308.132 282.414C335 296.903 357.638 293.595 379.148 290.44C403.34 286.911 426.253 283.549 452.907 301.797C453.387 302.117 453.807 302.498 454.18 302.902C462.93 312.163 477.694 305.722 491.651 299.64C499.456 296.232 507.078 292.917 514.357 291.712C529.792 289.129 541.941 294.624 546.461 321.736C546.553 322.224 546.576 322.719 546.553 323.2C546.599 328.527 544.99 335.227 542.947 343.741C536.415 371.006 524.921 418.903 554.99 483.242C576.996 530.293 585.685 582.741 586.973 629.853C588.894 700.77 573.39 760.695 561.157 772.601L560.89 772.86C546.995 785.924 531.979 778.66 521.407 769.674C524.205 827.48 525.401 840.644 526.606 853.792C527.947 868.579 529.289 883.373 532.78 958.322C532.955 962.27 529.906 965.593 525.973 965.776C453.883 969.26 383.835 968.84 313.788 968.436C244.061 968.002 174.333 967.598 102.319 971.073C98.3711 971.256 95.025 968.215 94.8421 964.267L94.8345 963.558ZM95.5586 636.279H109.858L109.156 956.409C178.602 953.306 246.225 953.703 313.841 954.107C381.259 954.518 448.662 954.899 518.153 951.789C514.913 883.175 513.633 869.112 512.345 855.065C511.011 840.293 509.677 825.506 506.178 750.885C505.965 748.393 507.062 745.832 509.281 744.323C512.55 742.089 517.002 742.935 519.227 746.198C519.288 746.274 538.488 774.445 551.187 762.296C561.523 752.189 574.495 697.187 572.658 630.174C571.431 584.769 563.1 534.325 542.033 489.278C509.837 420.435 522.07 369.436 529.029 340.426C530.798 333.025 532.193 327.209 532.238 323.611C529.54 308.024 523.808 304.64 516.704 305.821C511.125 306.743 504.334 309.709 497.367 312.735C479.112 320.692 459.805 329.114 444.241 313.222C422.449 298.588 402.388 301.522 381.213 304.617C357.432 308.1 332.386 311.766 301.356 295.021C291.752 289.982 285.174 276.888 277.865 262.306C274.831 256.277 271.653 249.966 267.987 243.769C256.622 224.577 241.179 209.592 213.1 226.193C188.396 243.678 174.646 230.583 158.898 215.567C150.91 207.953 142.259 199.721 131.413 196.855L130.719 196.642C126.687 195.125 123.074 194.492 119.85 194.652C110.102 195.148 102.647 203.425 96.9992 216.032C90.6042 230.324 86.6788 249.806 84.4379 270.424C79.2701 317.986 83.0049 370.632 85.7794 381.982C87.2581 388.11 84.9181 397.272 81.671 409.909C75.337 434.612 65.192 474.148 75.5124 519.767C83.9958 557.291 69.3156 599.037 60.2833 624.686C58.5226 629.724 56.9677 634.122 55.9692 637.392C51.8761 650.83 54.2999 660.212 59.5668 665.35C62.1889 667.88 65.5807 669.42 69.2165 669.877C72.9742 670.342 76.991 669.656 80.6573 667.751C88.8206 663.528 95.5205 653.314 95.5586 636.279Z" fill="#5E5C56"/>
<path fill-rule="evenodd" clip-rule="evenodd" d="M498.893 910.396C498.893 910.396 547.827 892.142 576.929 934.01C606.022 975.886 578.987 1010.12 552.332 999.964C525.647 989.811 428.625 997.03 395.888 992.517C263.041 974.278 185.822 976.9 95.3926 1000.3C60.3918 1009.36 2.71515 1002.44 7.43325 961.983C12.1361 921.525 73.601 927.866 80.0188 918.377C86.4443 908.834 115.439 881.455 136.888 890.647C158.329 899.832 180.067 870.053 240.236 897.53C300.405 925 285.069 858.452 333.92 848.07C382.785 837.704 372.594 870.449 389.348 865.891C406.094 861.318 425.393 860.083 435.942 877.85C446.491 895.602 511.089 852.941 498.893 910.396Z" fill="#F8E6A6"/>
<path fill-rule="evenodd" clip-rule="evenodd" d="M507.516 900.787C525.063 897.532 559.56 896.442 582.8 929.896C593.357 945.079 597.214 959.591 596.573 971.855C596.131 980.461 593.487 988.007 589.363 993.99C585.095 1000.19 579.248 1004.71 572.617 1007.05C565.536 1009.57 557.609 1009.63 549.766 1006.64C534.994 1001.03 494.559 1001.16 457.721 1001.3C432.278 1001.38 408.513 1001.47 394.938 999.6C328.877 990.53 276.711 986.635 229.934 987.931C183.317 989.203 141.898 995.652 97.1942 1007.21C83.8021 1010.68 67.3382 1011.96 52.0178 1010.18C40.516 1008.84 29.5096 1005.77 20.645 1000.61C11.0945 995.057 3.99829 987.146 1.23146 976.436C0.0347844 971.787 -0.331099 966.688 0.316782 961.154C4.15834 928.165 37.1546 921.854 59.8228 917.517C67.5898 916.039 73.7408 914.842 74.0914 914.339C78.4056 907.929 91.8815 894.262 106.95 886.922C117.522 881.762 129.085 879.498 139.71 884.041C145.473 886.503 152.394 884.841 161.022 882.76C178.98 878.439 203.012 872.638 243.227 891.008C272.114 904.194 280.209 891.358 289.645 876.381C298.716 861.99 308.731 846.067 332.451 841.044C367.635 833.575 376.667 846.22 383.215 855.405C384.792 857.623 386.027 859.337 387.483 858.934L388.093 858.804C397.148 856.388 406.935 854.917 416.142 856.411C426.364 858.072 435.609 863.202 442.134 874.17C443.567 876.594 452.629 875.222 462.279 873.736C471.464 872.326 481.045 870.885 489.292 872.623C500.908 875.115 508.766 882.516 507.516 900.787ZM571.024 938.089C545.101 900.794 501.472 917.06 501.35 917.113C500.123 917.563 498.751 917.685 497.379 917.388C493.507 916.572 491.037 912.769 491.853 908.889C495.176 893.279 491.96 887.882 486.289 886.671C480.626 885.474 472.333 886.739 464.391 887.943C449.825 890.169 436.166 892.25 429.763 881.48C425.754 874.719 420.068 871.571 413.81 870.557C406.935 869.437 399.145 870.657 391.782 872.623L391.21 872.791C380.151 875.817 376.37 870.512 371.522 863.705C367.262 857.752 361.415 849.551 335.393 855.069C317.581 858.857 309.257 872.059 301.734 884.026C288.716 904.697 277.541 922.426 237.251 904.034C201.518 887.707 180.222 892.844 164.299 896.663C153.11 899.361 144.131 901.534 134.07 897.22C127.927 894.59 120.419 896.313 113.208 899.819C100.578 905.985 89.4729 917.167 85.9591 922.365C82.2776 927.815 73.5427 929.484 62.4906 931.603C44.0526 935.132 17.1617 940.277 14.5397 962.785C14.0976 966.566 14.3187 969.92 15.0657 972.854C16.7883 979.462 21.4377 984.516 27.8098 988.228C34.8679 992.321 43.9459 994.806 53.626 995.934C67.2773 997.512 81.8279 996.414 93.5812 993.373C139.314 981.536 181.724 974.935 229.522 973.631C277.176 972.305 330.043 976.246 396.828 985.408C409.557 987.168 432.82 987.092 457.706 986.993C495.847 986.863 537.715 986.719 554.857 993.228C559.385 994.958 563.867 994.951 567.83 993.54C571.634 992.184 575.033 989.531 577.564 985.85C580.247 981.97 581.962 976.97 582.274 971.116C582.762 961.787 579.599 950.43 571.024 938.089Z" fill="#5E5C56"/>
<path fill-rule="evenodd" clip-rule="evenodd" d="M329.279 219.78C329.279 219.78 395.604 198.488 395.604 152.521C395.604 106.539 341.507 95.8931 351.167 54.2741C360.832 12.6503 329.915 1.52455 325.413 0.0750828C320.907 -1.37933 340.221 18.463 328.633 45.0827C317.728 70.1193 272.588 92.544 287.147 133.856C291.132 145.185 276.516 130.829 268.903 112.109C234.777 164.735 254.628 186.324 329.279 219.78Z" fill="#FFC39F"/>
<path fill-rule="evenodd" clip-rule="evenodd" d="M326.921 197.802C326.921 197.802 362.637 186.091 362.637 160.809C362.637 135.523 333.51 129.667 338.712 106.788C343.91 83.8854 327.269 77.7666 324.839 76.9644C322.419 76.1667 332.819 87.0852 326.574 101.72C320.704 115.499 296.398 127.827 304.239 150.543C306.39 156.771 298.513 148.88 294.419 138.578C276.034 167.521 286.726 179.396 326.921 197.802Z" fill="#E48666"/>
<path fill-rule="evenodd" clip-rule="evenodd" d="M329.963 210.511C341.053 206.982 396.084 187.619 396.084 150.838C396.084 131.143 383.057 118.393 370.762 106.34C356.072 91.9529 342.286 78.453 348.253 55.6702C353.019 37.3937 347.962 26.0046 341.165 19.046C339.122 16.9589 336.934 15.256 334.808 13.8898C338.313 22.3522 341.036 34.9035 333.864 49.5228C329.745 57.9234 321.82 65.6837 313.431 73.8899C297.385 89.5954 279.503 107.103 289.187 131.518C290.236 134.174 290.392 136.209 289.851 137.661H289.873C288.472 141.427 285.458 142.3 281.256 140.673C279.944 140.161 278.437 139.193 276.874 137.855C273.291 134.791 268.268 128.895 263.915 121.742C251.045 141.536 248.929 155.956 257.586 168.327C267.598 182.657 291.748 195.208 329.963 210.511ZM406.593 150.838C406.593 198.14 331.626 219.495 331.414 219.556L331.409 219.538C330.164 219.903 328.763 219.865 327.491 219.362C286.24 202.945 260.019 189.279 248.544 172.867C236.567 155.733 240.468 136.546 260.058 109.727C260.639 108.939 261.521 108.285 262.62 107.919C265.316 107.037 268.352 108.176 269.396 110.471C271.332 114.693 273.682 118.644 276.071 122.045C273.47 99.4095 290.23 82.9973 305.501 68.0459C313.298 60.409 320.681 53.1941 324.159 46.0979C332.257 29.6049 324.722 15.8632 321.468 9.9291C320.101 7.43404 319.18 5.75011 319.666 3.87645C319.71 3.68197 319.766 3.50166 319.828 3.31667C321.039 0.318807 323.372 -0.663062 327.195 0.437419C329.918 1.21535 340.64 4.59753 349.196 13.3539C357.696 22.0582 364.109 35.9564 358.455 57.5913C353.65 75.9959 365.767 87.8688 378.67 100.51C392.249 113.797 406.593 127.851 406.593 150.838Z" fill="#5E5C56"/>
<path fill-rule="evenodd" clip-rule="evenodd" d="M98.0174 419.795C92.4914 460.657 95.525 503.912 95.5022 545.141C95.4793 587.154 93.1317 629.8 98.894 671.5C99.3056 674.382 104.298 674.382 104.702 671.5C110.457 629.8 108.117 587.154 108.086 545.141C108.071 503.912 111.105 460.657 105.579 419.795C105.068 416.029 98.5357 416.029 98.0174 419.795Z" fill="#5E5C56"/>
<path fill-rule="evenodd" clip-rule="evenodd" d="M106.361 343.174C104.044 314.438 99.585 284.163 102.039 255.39C102.055 255.13 101.628 255.07 101.567 255.329C94.1657 285.375 95.5986 313.768 104.021 343.486C104.387 344.752 106.468 344.553 106.361 343.174Z" fill="#5E5C56"/>
<path fill-rule="evenodd" clip-rule="evenodd" d="M105.486 243.651C109.685 233.049 114.327 223.46 121.629 214.626C132.315 201.691 144.389 212.255 153.307 220.099C164.054 229.535 178.399 239.916 192.896 232.82C195.579 231.517 194.535 227.805 192.126 226.974C178.567 222.256 169.374 220.129 158.086 210.518C151.295 204.725 144.679 200.754 135.562 201.188C114.221 202.217 110.12 227.698 104.876 243.483C104.746 243.88 105.341 244.024 105.486 243.651Z" fill="#5E5C56"/>
<path fill-rule="evenodd" clip-rule="evenodd" d="M495.754 476.853C501.547 516.541 504.36 554.042 498.826 593.944C495.899 615.019 493.391 636.239 491.242 657.406C488.269 686.538 482.446 754.001 522.782 762.462C526.609 763.27 529.97 758.567 526.769 755.587C493.262 724.122 499.794 676.987 503.849 634.821C505.953 613.045 506.501 591.505 506.883 569.599C507.416 537.914 510.29 506.061 497.965 476.243C497.401 474.886 495.533 475.397 495.754 476.853Z" fill="#5E5C56"/>
<path fill-rule="evenodd" clip-rule="evenodd" d="M470.081 440.952C462.055 425.22 456.255 425.982 440.538 423.687C433.335 422.636 424.333 425.052 418.403 420.082C408.273 411.553 403.22 398.008 394.492 388.138C393.921 387.475 392.777 388.168 393.044 388.976C397.595 403.435 404.05 428.268 421.962 431.569C428.357 432.742 435.972 431.668 442.428 431.569C445.256 431.553 448.106 430.745 450.782 429.953C461.155 426.866 464.692 433.657 469.616 441.226C469.799 441.531 470.256 441.264 470.081 440.952Z" fill="#5E5C56"/>
<path fill-rule="evenodd" clip-rule="evenodd" d="M385.729 383.187C371.331 372.989 349.448 373.484 339.089 390.748C329.013 407.547 348.472 431.938 325.697 438.211C312.13 441.946 308.098 468.09 304.043 478.89C284.843 529.913 239.811 468.501 240.368 437.723C240.375 436.938 239.811 436.161 239.026 435.985C214.513 430.002 217.036 407.052 198.827 395.382C193.095 391.701 188.064 388.294 180.945 390.268C157.538 396.701 148.711 380.344 149.611 358.385C149.794 353.697 143.391 353.423 141.912 357.333C136.341 372.264 141.928 395.146 157.827 402.54C162.942 404.925 168.636 407.898 174.314 404.376C193.53 392.425 201.86 409.285 208.842 422.982C214.734 434.545 236.983 439.636 237.822 448.112C239.765 467.998 245.139 485.377 258.668 500.545C284.949 530.065 309.264 496.559 316.055 472.587C318.555 463.745 320.301 446.771 332.245 446.214C336.696 446.001 342.74 446.443 345.5 441.725C350.248 433.623 346.193 426.061 346.231 417.456C346.262 412.616 345.446 407.814 344.867 403.012C342.557 384.346 380.013 382.143 385.264 384.269C385.935 384.536 386.248 383.538 385.729 383.187Z" fill="#5E5C56"/>
<path fill-rule="evenodd" clip-rule="evenodd" d="M404.011 322.372C374.719 322.136 346.654 329.194 323.186 307.067C309.016 293.698 303.307 272.501 287.24 261.403C285.113 259.939 282.575 262.356 283.116 264.597C287.827 283.858 305.015 307.471 320.792 319.59C329.001 325.894 339.253 332.357 349.977 333.028C369.338 334.27 385.07 323.295 404.003 323.478C404.727 323.485 404.727 322.38 404.011 322.372Z" fill="#5E5C56"/>
<path fill-rule="evenodd" clip-rule="evenodd" d="M213.885 250.272C205.485 255.371 196.636 257.848 186.887 258.565C178.213 259.213 170.873 255.082 162.573 254.617C160.827 254.517 159.356 256.819 160.454 258.313C173.236 275.707 203.183 264.091 216.339 253.435C218.146 251.979 215.806 249.106 213.885 250.272Z" fill="#F7F0EA"/>
<path fill-rule="evenodd" clip-rule="evenodd" d="M185.226 280.461C181.628 281.947 178.343 282.633 174.471 281.833C171.018 281.101 167.962 280.263 164.654 281.833C163.594 282.336 163.183 283.715 163.465 284.79C166.163 295.179 181.689 290.659 188.13 287.336C191.872 285.415 189.19 278.83 185.226 280.461Z" fill="#F7F0EA"/>
<path fill-rule="evenodd" clip-rule="evenodd" d="M176.083 304.684C174.803 304.684 173.637 304.63 172.448 305.118C171.548 305.492 171.548 306.582 172.448 306.963C173.629 307.443 174.803 307.39 176.083 307.39C177.814 307.39 177.814 304.684 176.083 304.684Z" fill="#5E5C56"/>
<path fill-rule="evenodd" clip-rule="evenodd" d="M438.021 459.437C445.643 466.953 453.433 473.988 459.424 482.982C465.225 491.717 465.819 502.907 471.726 511.207C472.527 512.312 474.592 512.396 474.905 510.78C477.016 500.338 470.37 488.386 464.828 479.827C458.662 470.33 449.744 462.593 440.506 456.206C438.555 454.849 436.382 457.829 438.021 459.437Z" fill="#5E5C56"/>
<path fill-rule="evenodd" clip-rule="evenodd" d="M457.277 513.429C459.663 517.164 461.965 520.921 463.962 524.908C465.738 528.421 467.056 532.751 470.037 535.434C471.302 536.57 472.948 535.983 473.543 534.512C477.087 525.838 466.805 515.868 461.69 510.022C459.587 507.598 455.578 510.746 457.277 513.429Z" fill="#5E5C56"/>
<path fill-rule="evenodd" clip-rule="evenodd" d="M465.756 545.775C465.817 546.339 465.886 546.911 465.939 547.475C466.023 548.123 466.892 548.123 466.984 547.475C467.045 546.911 467.113 546.346 467.174 545.775C467.281 544.852 465.642 544.852 465.756 545.775Z" fill="#5E5C56"/>
<path fill-rule="evenodd" clip-rule="evenodd" d="M332.63 122.018C319.589 160.266 322.645 207.63 327.371 247.112C332.272 288.119 338.766 342.968 302.904 373.03C297.324 377.71 312.027 400.211 317.454 395.18C343.278 371.224 346.159 317.152 345.001 283.516C344.063 256 335.008 229.017 333.644 201.486C332.318 174.664 331.571 148.924 333.56 122.132C333.613 121.576 332.805 121.538 332.63 122.018Z" fill="#5E5C56"/>
<path fill-rule="evenodd" clip-rule="evenodd" d="M406.93 342.203C417.685 323.887 442.137 338.88 458.227 335.694C464.523 334.451 470.148 329.588 475.034 325.754C483.662 318.963 492.74 313.757 501.605 307.553C503.716 306.066 503.114 302.408 500.225 302.461C477.816 302.774 468.746 331.501 445.422 331.646C429.766 331.753 413.623 323.864 404.453 340.762C403.592 342.378 405.993 343.788 406.93 342.203Z" fill="#5E5C56"/>
<path fill-rule="evenodd" clip-rule="evenodd" d="M231.434 281.163C239.574 284.304 246.945 288.298 254.308 293C254.773 293.298 255.382 292.711 255.062 292.246C250.184 285.119 240.931 277.764 231.8 278.518C230.237 278.648 230.008 280.615 231.434 281.163Z" fill="#F7F0EA"/>
<path fill-rule="evenodd" clip-rule="evenodd" d="M262.628 302.054C267.986 313.777 273.886 325.286 281.279 335.881C286.348 343.145 296.127 355.5 306.089 354.646C307.972 354.471 308.955 352.398 307.621 350.934C304.626 347.649 300.327 346.018 296.661 343.549C291.577 340.142 287.285 335.332 283.246 330.781C275.425 321.978 269.457 311.642 263.443 301.573C263.123 301.04 262.369 301.513 262.628 302.054Z" fill="#F7F0EA"/>
<path fill-rule="evenodd" clip-rule="evenodd" d="M262.612 352.354C266.37 359.885 275.059 369.786 284.137 370.03C286.287 370.099 287.171 367.446 285.822 365.975C283.268 363.231 279.495 361.798 276.202 360.114C271.865 357.896 267.917 354.923 265.143 350.883C264.076 349.328 261.774 350.662 262.612 352.354Z" fill="#F7F0EA"/>
<path fill-rule="evenodd" clip-rule="evenodd" d="M146.53 925.009C179.268 926.343 205.335 941.984 235.161 921.305C252.897 908.995 282.372 916.839 289.667 892.082C290.978 887.615 284.743 885.26 282.365 889.002C271.732 905.718 244.65 912.12 226.624 918.828C200.198 928.653 173.848 921.602 146.53 924.537C146.233 924.575 146.218 925.002 146.53 925.009Z" fill="#5E5C56"/>
<path fill-rule="evenodd" clip-rule="evenodd" d="M112.776 935.014C102.982 935.89 94.2391 939.305 84.9172 942.27C74.4292 945.624 62.7597 945.921 52.8204 950.289C51.357 950.929 51.9287 953.071 53.232 953.475C62.8054 956.371 73.5527 952.514 82.8364 949.74C93.4312 946.561 103.866 942.377 113.165 936.409C113.752 936.035 113.569 934.945 112.776 935.014Z" fill="#5E5C56"/>
<path fill-rule="evenodd" clip-rule="evenodd" d="M373.255 923.546C389.878 925.94 409.025 930.368 425.344 924.781C426.282 924.446 426.091 923.142 425.116 923.066C408.057 921.801 390.755 921.953 373.605 920.901C372.111 920.802 371.745 923.333 373.255 923.546Z" fill="#5E5C56"/>
<path fill-rule="evenodd" clip-rule="evenodd" d="M435.233 923.693C449.616 922.924 463.244 919.524 477.734 919.981C487.963 920.309 497.727 920.21 505.867 913.564C507.948 911.871 506.332 907.748 503.603 908.083C480.02 911.018 457.886 915.736 435.073 922.527C434.455 922.718 434.547 923.739 435.233 923.693Z" fill="#5E5C56"/>
<path fill-rule="evenodd" clip-rule="evenodd" d="M508.667 934.788C521.327 936.381 537.38 938.515 547.441 947.006C553.356 951.976 553.897 961.404 561.45 964.232C562.617 964.667 563.508 963.401 563.295 962.388C561.992 955.787 553.836 945.901 547.99 942.273C536.175 934.971 522.143 934.148 508.667 933.37C507.73 933.317 507.79 934.681 508.667 934.788Z" fill="#5E5C56"/>
<path fill-rule="evenodd" clip-rule="evenodd" d="M433.549 900.874C420.309 901.103 403.99 886.499 395.293 877.756C387.938 870.355 383.799 859.593 373.616 855.858C370.704 854.798 368.921 858.282 369.996 860.553C374.965 871.201 386.383 882.246 396.071 888.816C408.068 896.949 418.983 902.681 433.541 901.431C433.9 901.4 433.907 900.866 433.549 900.874Z" fill="#5E5C56"/>
<path fill-rule="evenodd" clip-rule="evenodd" d="M348.836 867.899C355.681 871.527 360.696 876.893 365.033 883.25C367.648 887.061 371.817 893.967 376.985 893.563C377.915 893.487 378.669 892.831 378.692 891.855C378.776 886.253 370.666 881.146 366.68 877.953C361.192 873.585 355.856 869.797 349.431 866.87C348.753 866.55 348.15 867.525 348.836 867.899Z" fill="#5E5C56"/>
<path fill-rule="evenodd" clip-rule="evenodd" d="M561.65 611.614C561.925 626.089 562.908 640.51 563.464 654.977C564.021 669.566 556.909 683.263 556.62 697.714C556.574 699.635 559.112 700.161 560.08 698.652C567.252 687.378 566.871 674.184 566.612 661.158C566.284 644.252 565.56 628.139 562.031 611.553C562.001 611.355 561.643 611.378 561.65 611.614Z" fill="#5E5C56"/>
<path fill-rule="evenodd" clip-rule="evenodd" d="M548.942 714.68C548.073 717.653 546.953 722.828 549.559 725.222C550.329 725.938 551.45 725.938 552.242 725.222C554.529 723.11 553.698 719.017 554.521 716.22C555.589 712.638 550.009 711.113 548.942 714.68Z" fill="#5E5C56"/>
<path fill-rule="evenodd" clip-rule="evenodd" d="M123.758 430.111C132.34 438.488 144.216 437.39 155.222 440.241C171.861 444.532 176.099 461.926 189.514 469.663C191.244 470.646 192.685 468.763 192.014 467.178C187.418 456.499 176.594 447.528 167.257 440.965C154.574 432.04 137.874 436.613 125.191 428.251C124.055 427.482 122.805 429.174 123.758 430.111Z" fill="#5E5C56"/>
<path fill-rule="evenodd" clip-rule="evenodd" d="M128.351 452.01C134.563 455.875 140.973 459.205 146.598 463.946C152.391 468.824 155.234 475.959 160.867 480.791C161.591 481.416 163.077 481.089 162.963 479.922C161.454 464.259 140.843 457.224 129.281 450.448C128.252 449.853 127.352 451.393 128.351 452.01Z" fill="#5E5C56"/>
<path fill-rule="evenodd" clip-rule="evenodd" d="M129.384 479.399C131.61 482.448 135.741 488.957 140.17 488.05C140.756 487.936 141.267 487.265 141.229 486.678C141.077 484.49 139.377 483.225 137.83 481.861C136.054 480.275 134.468 478.484 132.982 476.617C131.358 474.582 127.829 477.295 129.384 479.399Z" fill="#5E5C56"/>
<path fill-rule="evenodd" clip-rule="evenodd" d="M127.682 528.883C126.219 563.312 125.586 597.421 127.561 631.866C127.721 634.564 131.6 634.564 131.76 631.866C133.75 597.421 133.109 563.312 131.631 528.883C131.532 526.337 127.789 526.337 127.682 528.883Z" fill="#5E5C56"/>
<path fill-rule="evenodd" clip-rule="evenodd" d="M237.71 863.367C204.058 858.969 166.634 842.018 132.426 850.829C130.208 851.393 130.261 854.648 132.426 855.25C147.51 859.412 163.913 857.849 179.469 857.59C198.99 857.27 218.373 865.639 237.718 868.04C240.698 868.39 240.637 863.748 237.71 863.367Z" fill="#5E5C56"/>
<path fill-rule="evenodd" clip-rule="evenodd" d="M198.451 829.538C183.116 822.388 164.083 810.574 147.116 819.888C145.516 820.772 145.729 823.577 147.642 823.943C154.685 825.246 161.682 824.568 168.794 825.163C178.36 825.94 188.771 827.769 197.811 831.054C198.695 831.374 199.305 829.919 198.451 829.538Z" fill="#5E5C56"/>
<path fill-rule="evenodd" clip-rule="evenodd" d="M177.769 794.81C172.731 794.147 167.335 792.379 162.312 791.304C157.799 790.343 153.104 787.805 148.584 789.657C147.494 790.1 146.877 791.197 147.494 792.333C150.048 796.921 155.596 797.463 160.368 798.339C162.754 798.774 165.162 799.056 167.563 799.322C171.207 799.726 174.225 798.522 177.762 798.133C179.934 797.905 179.881 795.084 177.769 794.81Z" fill="#5E5C56"/>
<path fill-rule="evenodd" clip-rule="evenodd" d="M151.158 760.414C148.582 759.736 145.998 758.882 143.559 757.792C142.858 757.487 142.072 758.143 142.476 758.882C144.069 761.825 147.317 762.556 150.358 763.318C152.24 763.791 153.033 760.925 151.158 760.414Z" fill="#5E5C56"/>
<path fill-rule="evenodd" clip-rule="evenodd" d="M172.756 398.043C176.879 437.541 173.96 478.212 173.709 517.924C173.419 561.164 173.167 604.374 172.916 647.607C172.687 687.387 172.718 727.167 172.718 766.939C172.718 804.143 168.152 845.02 175.111 881.629C175.607 884.289 179.951 884.289 180.454 881.629C186.842 847.978 182.84 810.637 182.84 776.421C182.84 733.493 182.878 690.542 182.642 647.607C182.413 607.705 182.177 567.803 181.918 527.916C181.636 484.935 178.328 440.773 182.802 398.043C183.488 391.572 172.077 391.572 172.756 398.043Z" fill="#5E5C56"/>
<path fill-rule="evenodd" clip-rule="evenodd" d="M243.993 473.172C240.403 509.271 242.804 546.589 242.72 582.878C242.644 619.38 242.294 655.875 242.255 692.377C242.217 728.918 242.179 765.458 242.134 801.991C242.103 831.809 237.469 866.032 244.443 895.118C245.045 897.649 248.948 897.649 249.557 895.118C256.539 866.032 251.897 831.809 251.867 801.991C251.821 765.458 251.783 728.918 251.745 692.377C251.707 655.875 251.349 619.38 251.265 582.878C251.189 546.589 253.597 509.278 250 473.172C249.634 469.3 244.374 469.3 243.993 473.172Z" fill="#5E5C56"/>
<path fill-rule="evenodd" clip-rule="evenodd" d="M315.833 464.73C310.155 530.723 313.364 598.278 312.983 664.514C312.815 697.792 312.815 731.109 312.762 764.402C312.731 793.031 309.118 823.992 315.147 852.095C315.742 854.823 320.064 854.823 320.643 852.095C326.672 824 323.067 793.031 323.044 764.402C322.991 731.109 322.991 697.792 322.808 664.514C322.442 598.285 325.651 530.723 319.957 464.73C319.736 462.078 316.077 462.078 315.833 464.73Z" fill="#5E5C56"/>
<path fill-rule="evenodd" clip-rule="evenodd" d="M385.453 425.901C377.854 501.879 382.046 580.021 381.787 656.311C381.535 725.223 376.992 796.352 384.348 864.616C384.729 868.137 390.285 868.183 389.904 864.616C389.813 863.846 389.737 863.084 389.66 862.314C389.294 859.06 384.935 859.06 384.592 862.314C384.508 863.084 384.432 863.846 384.348 864.616C383.967 868.183 389.523 868.137 389.904 864.616C397.26 796.352 392.702 725.223 392.465 656.311C392.199 580.013 396.398 501.871 388.791 425.901C388.563 423.759 385.682 423.759 385.453 425.901Z" fill="#5E5C56"/>
<path fill-rule="evenodd" clip-rule="evenodd" d="M448.87 516.227C441.392 575.017 446.705 637.991 446.446 697.276C446.179 757.475 440.34 821.067 447.185 880.908C447.902 887.128 457.117 885.146 455.234 879.803C454.868 878.79 454.51 877.745 454.144 876.724C453.153 873.919 449.426 873.919 448.42 876.724C448.069 877.753 447.696 878.797 447.33 879.803C445.455 885.139 454.662 887.128 455.379 880.908C461.85 824.322 456.416 764.267 456.164 707.322C456.034 677.161 455.973 646.985 455.653 616.817C455.303 583.676 457.879 549.102 453.702 516.235C453.306 513.14 449.258 513.14 448.87 516.227Z" fill="#5E5C56"/>
<path fill-rule="evenodd" clip-rule="evenodd" d="M506.885 569.595C506.496 591.501 505.955 613.034 503.851 634.818C500.269 672.014 494.751 713.067 516.512 743.822C517.571 744.356 518.509 745.148 519.218 746.2C519.279 746.276 538.479 774.448 551.177 762.298C561.513 752.191 574.486 697.19 572.649 630.176C571.422 584.771 563.091 534.328 542.023 489.281C509.827 420.438 522.061 369.438 529.02 340.428C530.788 333.027 532.183 327.211 532.229 323.614C529.53 308.026 523.799 304.642 516.695 305.824C511.115 306.746 504.324 309.711 497.357 312.737C494.118 314.162 490.833 315.595 487.548 316.899C483.317 319.681 479.125 322.531 475.032 325.763C470.146 329.597 464.521 334.46 458.225 335.702C442.135 338.888 417.683 323.896 406.928 342.212C405.991 343.797 403.597 342.387 404.466 340.779C413.636 323.881 429.78 331.762 445.435 331.663C454.353 331.602 461.183 327.372 467.471 322.15C459.254 322.684 451.35 320.489 444.239 313.225C422.447 298.59 402.386 301.525 381.211 304.619C362.125 307.417 342.209 310.328 319.053 302.706C320.356 304.231 321.728 305.687 323.184 307.066C346.645 329.186 374.717 322.135 404.009 322.371C404.726 322.379 404.726 323.492 404.009 323.477C385.083 323.294 369.344 334.27 349.983 333.027C339.259 332.356 329.007 325.893 320.798 319.589C311.492 312.447 301.697 301.311 294.281 289.429C288.206 282.919 283.236 273.01 277.87 262.309C274.837 256.28 271.658 249.969 267.992 243.772C256.627 224.58 241.185 209.594 213.105 226.195C203.585 232.933 195.681 235.136 188.676 234.427C175.65 237.895 163.02 228.634 153.317 220.105C144.399 212.27 132.326 201.698 121.639 214.632C114.337 223.459 109.696 233.055 105.496 243.658C105.359 244.031 104.756 243.879 104.894 243.49C110.138 227.704 114.246 202.224 135.58 201.195C137.966 201.08 140.176 201.263 142.257 201.698C138.873 199.594 135.291 197.887 131.411 196.858L130.717 196.644C126.685 195.127 123.072 194.495 119.848 194.655C110.1 195.15 102.645 203.428 96.9971 216.035C90.6021 230.327 86.6767 249.809 84.4358 270.426C79.268 317.989 83.0028 370.635 85.7773 381.984C87.256 388.112 84.916 397.274 81.6689 409.912C75.3349 434.615 65.1899 474.151 75.5103 519.77C83.9937 557.293 69.3134 599.04 60.2812 624.688C58.5205 629.726 56.9656 634.124 55.9671 637.394C51.874 650.832 54.2978 660.215 59.5647 665.352C62.1867 667.883 65.5786 669.423 69.2143 669.88C72.9721 670.345 76.9889 669.659 80.6552 667.753C88.8337 663.538 95.5336 653.324 95.5717 636.289H95.747C94.2912 605.968 95.5107 575.388 95.526 545.159C95.5488 503.931 92.5153 460.675 98.0413 419.813C98.552 416.047 105.092 416.047 105.602 419.813C105.679 420.384 105.755 420.956 105.823 421.543C112.34 393.974 109.444 391.207 127.265 388.47C134.658 387.342 139.079 384.919 141.708 382.335C139.155 373.943 139.186 364.682 141.93 357.342C143.401 353.424 149.811 353.698 149.628 358.394C148.728 380.353 157.555 396.702 180.962 390.277C188.082 388.303 193.112 391.702 198.844 395.392C217.061 407.061 214.538 430.011 239.043 435.995C239.828 436.17 240.392 436.947 240.385 437.732C239.828 468.511 284.86 529.93 304.06 478.9C308.115 468.084 312.147 441.955 325.714 438.22C348.489 431.955 329.03 407.564 339.107 390.757C344 382.624 351.424 378.211 359.427 376.885C360.189 376.107 361.165 375.658 362.415 375.559C379.359 374.293 391.623 378.745 399.672 394.881C405.617 403.578 410.457 413.395 418.422 420.11C424.353 425.072 433.354 422.663 440.557 423.715C454.269 425.712 460.428 425.392 467.097 435.705C477.578 440.469 483.79 450.972 492.334 475.089C494.453 481.095 496.237 486.369 497.723 491.019C497.121 486.331 496.473 481.605 495.78 476.865C495.559 475.409 497.426 474.89 497.998 476.262C510.292 506.057 507.419 537.91 506.885 569.595ZM549.546 725.216C546.939 722.831 548.06 717.648 548.929 714.675C549.996 711.108 555.568 712.625 554.508 716.215C553.685 719.004 554.516 723.097 552.229 725.216C551.436 725.933 550.316 725.933 549.546 725.216ZM306.087 354.644C296.125 355.497 286.346 343.142 281.277 335.878C273.876 325.283 267.984 313.781 262.626 302.051C262.367 301.51 263.121 301.029 263.442 301.571C269.455 311.639 275.416 321.975 283.244 330.779C287.276 335.329 291.575 340.139 296.659 343.546C300.325 346.008 304.632 347.646 307.619 350.932C308.953 352.395 307.97 354.468 306.087 354.644ZM102.043 255.38C99.5962 284.146 104.055 314.421 106.365 343.165C106.471 344.544 104.391 344.742 104.025 343.485C95.6022 313.766 94.1692 285.358 101.57 255.327C101.631 255.06 102.058 255.121 102.043 255.38ZM254.31 292.996C246.947 288.293 239.577 284.299 231.436 281.159C230.003 280.61 230.24 278.643 231.802 278.514C240.926 277.751 250.187 285.114 255.065 292.241C255.385 292.706 254.775 293.293 254.31 292.996ZM216.344 253.444C203.189 264.093 173.241 275.716 160.459 258.323C159.361 256.829 160.84 254.527 162.578 254.626C170.886 255.091 178.226 259.207 186.893 258.574C196.641 257.858 205.491 255.38 213.89 250.281C215.811 249.1 218.151 251.973 216.344 253.444ZM563.472 654.971C562.915 640.504 561.932 626.083 561.658 611.608C561.65 611.38 562.008 611.349 562.046 611.555C565.575 628.141 566.3 644.254 566.627 661.16C566.879 674.186 567.268 687.38 560.095 698.653C559.127 700.163 556.589 699.637 556.635 697.716C556.909 683.257 564.028 669.56 563.472 654.971ZM285.813 365.97C287.169 367.441 286.285 370.094 284.128 370.025C275.05 369.781 266.361 359.88 262.603 352.349C261.765 350.657 264.067 349.323 265.134 350.863C267.908 354.91 271.856 357.898 276.193 360.116C279.486 361.793 283.259 363.226 285.813 365.97ZM188.112 287.333C181.664 290.656 166.145 295.176 163.447 284.787C163.165 283.712 163.584 282.34 164.636 281.829C167.952 280.259 171 281.097 174.453 281.829C178.325 282.63 181.61 281.951 185.208 280.457C189.172 278.826 191.854 285.412 188.112 287.333Z" fill="#F7F0EA"/>
<path fill-rule="evenodd" clip-rule="evenodd" d="M365.029 883.246C360.692 876.889 355.676 871.524 348.832 867.895C348.138 867.522 348.74 866.546 349.426 866.866C355.851 869.793 361.187 873.582 366.675 877.949C370.661 881.143 378.771 886.25 378.687 891.852C378.665 892.828 377.91 893.483 376.98 893.559C371.812 893.971 367.643 887.057 365.029 883.246ZM371.53 863.719C367.269 857.766 361.423 849.564 335.401 855.083C317.588 858.871 309.265 872.072 301.742 884.039C292.359 898.925 283.921 912.317 264.858 911.723C254.736 914.139 243.623 915.435 235.163 921.304C205.337 941.983 179.269 926.342 146.532 925.008C146.22 925 146.235 924.574 146.532 924.528C173.85 921.593 200.2 928.644 226.626 918.819C234.24 915.984 243.463 913.201 252.381 909.688C247.838 908.43 242.83 906.585 237.259 904.047C201.526 887.721 180.23 892.858 164.307 896.677C153.118 899.375 144.139 901.547 134.078 897.233C127.934 894.603 120.427 896.326 113.216 899.832C111.882 900.488 110.564 901.197 109.26 901.936C106.768 903.384 104.367 904.985 102.103 906.669C99.4962 908.582 97.0952 910.602 94.9533 912.553C90.7535 916.38 87.5675 920 85.9668 922.371C82.2853 927.821 73.5504 929.49 62.4983 931.609C44.0604 935.138 17.1695 940.283 14.5475 962.791C14.1054 966.571 14.3264 969.925 15.0734 972.86C16.796 979.468 21.4455 984.522 27.8176 988.234C34.8757 992.327 43.9536 994.811 53.6338 995.94C67.285 997.517 81.8356 996.42 93.589 993.379C139.322 981.541 181.731 974.941 229.53 973.637C277.183 972.311 330.051 976.252 396.836 985.414C409.565 987.174 432.827 987.098 457.714 986.999C495.855 986.869 537.723 986.725 554.865 993.234C559.393 994.964 563.875 994.956 567.838 993.546C571.642 992.19 575.041 989.537 577.572 985.855C580.255 981.976 581.97 976.976 582.282 971.122C582.762 961.777 579.592 950.42 571.017 938.08C559.286 921.182 543.905 915.29 530.589 913.887C528.112 913.621 525.696 913.522 523.409 913.522C520.878 913.537 518.485 913.689 516.259 913.918C507.387 914.84 501.381 917.073 501.343 917.104C500.634 917.355 499.887 917.508 499.125 917.546C492.554 920.214 485.26 920.214 477.722 919.955C463.232 919.497 449.604 922.904 435.221 923.667C434.527 923.712 434.436 922.691 435.061 922.508C454.002 916.868 472.493 912.66 491.731 909.71C491.762 909.436 491.808 909.154 491.853 908.88C495.177 893.269 491.96 887.873 486.289 886.661C480.626 885.464 472.333 886.73 464.391 887.934C449.825 890.16 436.166 892.24 429.763 881.47C425.754 874.709 420.068 871.562 413.81 870.548C406.935 869.427 399.145 870.647 391.782 872.613L391.211 872.781C391.165 872.796 391.111 872.804 391.081 872.819C392.407 874.55 393.779 876.204 395.288 877.72C403.985 886.463 420.297 901.075 433.544 900.838C433.902 900.831 433.894 901.364 433.544 901.395C418.986 902.645 408.071 896.913 396.073 888.78C387.689 883.094 378.017 874.039 372.331 864.831C372.071 864.496 371.797 864.107 371.53 863.719ZM425.342 924.787C409.023 930.366 389.877 925.938 373.253 923.552C371.751 923.339 372.117 920.808 373.603 920.907C390.753 921.967 408.055 921.807 425.114 923.072C426.082 923.148 426.28 924.452 425.342 924.787ZM561.451 964.216C553.897 961.389 553.356 951.967 547.441 946.983C543.104 943.332 537.678 940.855 531.854 939.086C529.491 938.377 527.052 937.767 524.606 937.264C522.197 936.754 519.765 936.327 517.38 935.961C514.384 935.504 511.442 935.13 508.668 934.78C507.791 934.665 507.73 933.309 508.668 933.354C511.526 933.514 514.399 933.682 517.288 933.918C519.682 934.101 522.105 934.345 524.484 934.65C526.907 934.978 529.331 935.382 531.702 935.915C537.403 937.165 542.906 939.109 547.99 942.257C553.836 945.885 561.992 955.763 563.296 962.372C563.509 963.378 562.617 964.651 561.451 964.216ZM113.147 936.403C111.852 937.241 110.525 938.05 109.184 938.812C106.852 940.146 104.458 941.373 102.027 942.524C99.6714 943.614 97.2858 944.643 94.8772 945.596C90.9213 947.158 86.8815 948.522 82.8266 949.734C73.5428 952.509 62.7956 956.366 53.2221 953.469C51.9188 953.065 51.3471 950.923 52.8105 950.283C62.7498 945.923 74.4193 945.626 84.9074 942.265C88.284 941.175 91.5844 940.046 94.8848 939.002C97.2629 938.232 99.641 937.524 102.034 936.922C104.39 936.327 106.76 935.801 109.184 935.45C110.365 935.267 111.57 935.123 112.766 935.008C113.559 934.94 113.742 936.03 113.147 936.403Z" fill="#F0C3B6"/>
<path fill-rule="evenodd" clip-rule="evenodd" d="M527.186 535.137C522.17 518.483 517.414 503.346 513.626 486.234C500.851 432.894 491.445 445.082 492.436 378.617C493.122 372.961 504.373 332.008 510.013 329.241C513.275 331.939 503.107 368.518 502.901 378.617C505.409 443.71 516.141 430.173 530.265 482.392C534.389 498.841 539.564 513.887 544.434 529.985C546.34 537.043 562.651 596.198 545.707 592.197C534.251 594.986 532.696 554.742 527.186 535.137Z" fill="white"/>
<path fill-rule="evenodd" clip-rule="evenodd" d="M162.38 231.416C166.732 233.223 170.421 233.802 175.124 234.046C190.231 234.58 204.667 230.555 218.921 225.944C222.953 224.655 226.108 224.534 230.224 225.463C233.967 226.447 236.589 227.849 239.714 230.082C245.834 234.823 249.92 240.014 254.31 246.31C259.188 253.68 270.827 272.911 273.564 281.463C273.655 281.623 273.762 281.867 273.769 282.043C273.792 282.477 273.861 283.605 273.373 283.819C272.916 284.024 272.016 283.254 271.78 282.95C271.757 282.934 271.704 283.102 271.704 283.102C265.027 279.588 250.766 259.893 245.217 253.399C241.253 248.947 237.191 244.663 232.053 241.546C230.476 240.639 229.05 239.961 227.229 239.679C226.367 239.381 224.988 239.854 224.187 240.151C207.884 246.493 192.266 251.699 174.628 251.821C167.448 251.592 161.937 250.708 155.276 247.956C151.983 246.516 149.445 245.052 146.556 242.926C141.541 239.046 138.987 235.837 134.688 231.759C134.147 231.302 133.576 230.852 133.042 230.395C126.731 227.049 129.391 232.613 126.792 224.488C124.116 219.8 120.664 216.698 134.399 214.892C138.4 215.014 141.221 216.096 144.582 218.215C145.977 218.619 154.834 226.896 157.082 228.482C158.736 229.625 160.543 230.631 162.38 231.416Z" fill="white"/>
<path fill-rule="evenodd" clip-rule="evenodd" d="M211.515 753.033C210.493 720.083 209.251 463.903 220.181 449.954C226.683 458.346 228.314 719.823 229.503 752.286C230.341 769.916 238.718 802.165 226.119 804.924C208.268 811.822 211.926 760.564 211.515 753.033Z" fill="#E3B594"/>
<path fill-rule="evenodd" clip-rule="evenodd" d="M353.532 731.622C350.605 663.663 351.787 503.75 367.679 439.557C367.694 439.381 367.877 438.947 368.014 438.787C368.266 438.467 370.004 436.294 370.522 436.569C371.025 436.843 370.156 439.519 370.011 439.877C369.989 439.93 370.149 439.778 370.149 439.778C376.429 524.971 366.963 636.055 371.513 730.631C372.489 746.096 383.053 798.041 370.4 798.384C353.121 804.962 354.058 739.137 353.532 731.622Z" fill="#E3B594"/>
<path fill-rule="evenodd" clip-rule="evenodd" d="M464.52 773.217C464.627 753.445 469.04 521.366 475.442 521.366C482.318 521.366 482.615 753.536 482.523 773.316C482.455 781.586 488.126 848.493 473.926 845.238C458.14 848.821 464.52 781.807 464.52 773.217Z" fill="#E3B594"/>
</svg>
