<svg width="673" height="1063" viewBox="0 0 673 1063" fill="none" xmlns="http://www.w3.org/2000/svg">
<path fill-rule="evenodd" clip-rule="evenodd" d="M138.722 985.127C138.971 873.396 139.221 761.665 139.463 649.942C139.338 709.262 68.3363 702.407 84.6421 648.967C91.3172 627.086 114.376 576.016 104.488 532.347C88.5256 461.782 118.525 405.838 115.023 391.49C109.097 367.214 98.8346 166.086 170.702 193.294C203.929 202.035 214.823 248.411 248.597 224.135C312.541 186.221 321.727 281.701 346.182 294.334C405.611 326.391 443.993 279.775 493.628 313.774C521.779 343.89 575.867 267.142 586.23 329.323C586.792 349.482 554.336 408.271 595.557 496.452C650.44 613.813 622.679 765.369 603.402 784.147C584.133 802.605 559.569 766.523 559.569 766.523C566.727 919.701 565.004 826.529 572.163 979.707C424.724 986.842 286.16 977.999 138.722 985.127Z" fill="#AE8C82"/>
<path fill-rule="evenodd" clip-rule="evenodd" d="M131.402 984.772L132.049 689.186C129.429 691.643 126.583 693.623 123.596 695.167C117.124 698.513 110.067 699.721 103.399 698.895C96.5914 698.045 90.1658 695.105 85.0893 690.177C76.0903 681.451 71.583 666.673 77.6265 646.851C78.8352 642.881 80.4182 638.389 82.2195 633.282C90.9222 608.531 105.099 568.254 97.3322 533.965C86.0094 483.902 96.9267 441.355 103.75 414.748C106.542 403.878 108.569 395.994 107.891 393.226C104.865 380.866 100.717 324.369 106.175 274.11C108.624 251.651 112.991 230.215 120.235 214.041C128.244 196.145 139.832 184.346 156.231 183.512C161.432 183.247 166.993 184.136 172.927 186.327C187.462 190.281 197.639 199.966 207.051 208.918C218.569 219.898 228.613 229.474 244.287 218.198L244.841 217.839C284.377 194.398 305.642 214.727 321.168 240.921C324.904 247.23 328.397 254.17 331.727 260.814C338.106 273.509 343.83 284.918 349.507 287.85L349.624 287.905C377.112 302.729 400.272 299.344 422.278 296.116C447.029 292.506 470.47 289.067 497.74 307.735C498.232 308.063 498.66 308.453 499.043 308.866C507.995 318.341 523.1 311.751 537.378 305.528C545.363 302.043 553.161 298.65 560.608 297.418C576.4 294.775 588.83 300.397 593.454 328.135C593.547 328.634 593.571 329.141 593.548 329.632C593.594 335.083 591.949 341.938 589.859 350.648C583.176 378.542 571.417 427.545 602.18 493.369C624.693 541.506 633.583 595.165 634.901 643.365C636.866 715.918 621.005 777.226 608.489 789.407L608.216 789.672C594 803.038 578.638 795.607 567.822 786.413C570.683 845.553 571.908 859.021 573.14 872.472C574.512 887.601 575.885 902.737 579.456 979.415C579.636 983.455 576.516 986.855 572.493 987.042C498.738 990.606 427.074 990.177 355.41 989.763C284.073 989.319 212.736 988.905 139.06 992.461C135.02 992.648 131.597 989.537 131.41 985.498L131.402 984.772ZM132.143 649.939H146.772L146.055 977.458C217.103 974.284 286.288 974.69 355.464 975.103C424.438 975.524 493.397 975.914 564.492 972.732C561.178 902.534 559.868 888.146 558.55 873.775C557.185 858.662 555.82 843.534 552.241 767.19C552.023 764.64 553.146 762.02 555.415 760.476C558.76 758.191 563.314 759.057 565.591 762.395C565.654 762.473 585.297 791.294 598.289 778.864C608.863 768.524 622.135 712.253 620.256 643.692C619 597.239 610.477 545.631 588.923 499.545C555.984 429.112 568.5 376.936 575.62 347.256C577.429 339.684 578.856 333.734 578.903 330.053C576.142 314.106 570.278 310.644 563.01 311.853C557.302 312.796 550.354 315.83 543.227 318.926C524.55 327.067 504.798 335.684 488.874 319.425C466.579 304.452 446.055 307.455 424.391 310.621C400.061 314.184 374.437 317.935 342.691 300.803C332.865 295.648 326.136 282.251 318.657 267.334C315.554 261.165 312.302 254.708 308.551 248.369C296.924 228.733 281.125 213.402 252.397 230.386C227.123 248.275 213.056 234.878 196.945 219.516C188.772 211.725 179.922 203.303 168.825 200.371L168.115 200.153C163.99 198.601 160.294 197.954 156.995 198.118C147.022 198.625 139.395 207.093 133.617 219.991C127.074 234.613 123.058 254.544 120.765 275.638C115.478 324.298 119.299 378.16 122.138 389.771C123.651 396.041 121.257 405.414 117.935 418.343C111.455 443.617 101.075 484.065 111.634 530.737C120.313 569.127 105.294 611.837 96.0533 638.078C94.252 643.232 92.6612 647.732 91.6396 651.077C87.452 664.825 89.9318 674.424 95.3203 679.68C98.0029 682.269 101.473 683.845 105.193 684.312C109.037 684.788 113.147 684.086 116.898 682.137C125.249 677.817 132.104 667.367 132.143 649.939Z" fill="#5E5C56"/>
<path fill-rule="evenodd" clip-rule="evenodd" d="M544.785 930.39C544.785 930.39 594.848 911.714 624.621 954.549C654.387 997.391 626.727 1032.42 599.457 1022.03C572.156 1011.64 472.894 1019.02 439.401 1014.41C303.488 995.746 224.486 998.428 131.97 1022.37C96.1608 1031.64 37.1528 1024.56 41.9798 983.167C46.7912 941.775 109.675 948.263 116.241 938.555C122.815 928.791 152.479 900.781 174.422 910.185C196.358 919.582 218.599 889.115 280.157 917.227C341.715 945.331 326.025 877.246 376.003 866.625C425.996 856.02 415.57 889.52 432.71 884.857C449.843 880.178 469.588 878.915 480.38 897.092C491.173 915.254 557.261 871.608 544.785 930.39Z" fill="#F8E6A6"/>
<path fill-rule="evenodd" clip-rule="evenodd" d="M553.619 920.57C571.57 917.241 606.864 916.126 630.641 950.351C641.441 965.885 645.387 980.733 644.732 993.28C644.28 1002.08 641.574 1009.8 637.355 1015.93C632.988 1022.27 627.007 1026.89 620.223 1029.29C612.978 1031.86 604.868 1031.93 596.844 1028.87C581.731 1023.12 540.362 1023.26 502.674 1023.4C476.644 1023.49 452.33 1023.58 438.442 1021.66C370.856 1012.39 317.485 1008.4 269.629 1009.73C221.936 1011.03 179.561 1017.63 133.825 1029.46C120.124 1033 103.28 1034.31 87.6058 1032.49C75.8385 1031.12 64.5781 1027.97 55.5089 1022.7C45.7379 1017.02 38.4779 1008.92 35.6472 997.967C34.4229 993.21 34.0486 987.993 34.7114 982.331C38.6417 948.581 72.3996 942.124 95.5911 937.687C103.537 936.175 109.83 934.95 110.189 934.436C114.603 927.877 128.39 913.895 143.807 906.386C154.623 901.106 166.452 898.791 177.323 903.438C183.218 905.957 190.299 904.257 199.126 902.128C217.498 897.707 242.086 891.772 283.229 910.566C312.783 924.056 321.065 910.924 330.719 895.601C339.999 880.878 350.245 864.588 374.513 859.449C410.509 851.807 419.749 864.744 426.448 874.141C428.062 876.41 429.326 878.165 430.815 877.751L431.439 877.619C440.703 875.147 450.716 873.642 460.136 875.17C470.593 876.87 480.052 882.118 486.727 893.34C488.193 895.82 497.465 894.416 507.338 892.895C516.734 891.453 526.536 889.979 534.974 891.757C546.858 894.307 554.898 901.878 553.619 920.57ZM618.593 958.734C592.071 920.578 547.435 937.219 547.311 937.274C546.055 937.734 544.651 937.859 543.248 937.555C539.286 936.72 536.76 932.829 537.594 928.86C540.994 912.89 537.703 907.368 531.902 906.129C526.108 904.904 517.623 906.199 509.498 907.431C494.596 909.708 480.621 911.837 474.071 900.818C469.969 893.901 464.152 890.68 457.75 889.643C450.716 888.497 442.746 889.745 435.213 891.757L434.628 891.928C423.313 895.024 419.445 889.597 414.486 882.633C410.127 876.543 404.146 868.152 377.523 873.798C359.299 877.673 350.783 891.18 343.087 903.423C329.767 924.571 318.335 942.709 277.115 923.893C240.557 907.189 218.77 912.445 202.479 916.352C191.032 919.112 181.846 921.335 171.552 916.921C165.267 914.231 157.586 915.993 150.209 919.58C137.287 925.889 125.926 937.329 122.331 942.647C118.564 948.223 109.628 949.93 98.3204 952.098C79.4569 955.709 51.9452 960.972 49.2627 984C48.8104 987.868 49.0365 991.299 49.8008 994.301C51.5631 1001.06 56.3199 1006.23 62.8391 1010.03C70.0601 1014.22 79.3477 1016.76 89.2512 1017.91C103.218 1019.53 118.104 1018.41 130.129 1015.29C176.917 1003.18 220.306 996.43 269.208 995.097C317.961 993.74 372.049 997.772 440.375 1007.14C453.398 1008.95 477.198 1008.87 502.659 1008.77C541.68 1008.63 584.515 1008.49 602.053 1015.15C606.685 1016.92 611.27 1016.91 615.325 1015.47C619.217 1014.08 622.695 1011.36 625.284 1007.6C628.028 1003.63 629.783 998.512 630.103 992.524C630.602 982.979 627.366 971.359 618.593 958.734Z" fill="#5E5C56"/>
<path fill-rule="evenodd" clip-rule="evenodd" d="M134.668 428.463C129.015 470.268 132.118 514.522 132.095 556.702C132.072 599.685 129.67 643.316 135.565 685.979C135.986 688.926 141.094 688.926 141.507 685.979C147.395 643.316 145.001 599.685 144.97 556.702C144.954 514.522 148.058 470.268 142.404 428.463C141.882 424.611 135.199 424.611 134.668 428.463Z" fill="#5E5C56"/>
<path fill-rule="evenodd" clip-rule="evenodd" d="M143.213 350.073C140.842 320.674 136.28 289.7 138.791 260.263C138.807 259.997 138.37 259.935 138.308 260.2C130.736 290.94 132.202 319.988 140.819 350.393C141.193 351.687 143.322 351.484 143.213 350.073Z" fill="#5E5C56"/>
<path fill-rule="evenodd" clip-rule="evenodd" d="M142.304 248.261C146.601 237.414 151.35 227.604 158.821 218.566C169.754 205.333 182.106 216.141 191.23 224.165C202.225 233.819 216.901 244.44 231.733 237.18C234.478 235.846 233.409 232.049 230.945 231.199C217.072 226.372 207.668 224.196 196.119 214.363C189.171 208.436 182.402 204.373 173.076 204.818C151.241 205.871 147.046 231.939 141.681 248.089C141.548 248.495 142.156 248.643 142.304 248.261Z" fill="#5E5C56"/>
<path fill-rule="evenodd" clip-rule="evenodd" d="M541.579 486.834C547.506 527.439 550.383 565.805 544.722 606.628C541.728 628.19 539.162 649.9 536.963 671.555C533.922 701.36 527.964 770.38 569.231 779.036C573.146 779.863 576.585 775.051 573.31 772.002C539.029 739.812 545.712 691.588 549.861 648.449C552.013 626.17 552.575 604.133 552.965 581.721C553.51 549.305 556.45 516.717 543.841 486.21C543.264 484.822 541.353 485.345 541.579 486.834Z" fill="#5E5C56"/>
<path fill-rule="evenodd" clip-rule="evenodd" d="M515.319 450.114C507.107 434.019 501.173 434.799 485.093 432.452C477.724 431.375 468.515 433.848 462.448 428.763C452.084 420.037 446.914 406.18 437.985 396.081C437.4 395.403 436.231 396.113 436.504 396.939C441.159 411.732 447.764 437.138 466.089 440.515C472.632 441.716 480.422 440.616 487.027 440.515C489.92 440.499 492.837 439.673 495.574 438.862C506.187 435.703 509.806 442.651 514.843 450.395C515.03 450.707 515.498 450.434 515.319 450.114Z" fill="#5E5C56"/>
<path fill-rule="evenodd" clip-rule="evenodd" d="M429.015 391.012C414.284 380.578 391.896 381.085 381.299 398.747C370.989 415.934 390.898 440.888 367.597 447.306C353.717 451.127 349.592 477.874 345.443 488.924C325.8 541.125 279.729 478.295 280.298 446.807C280.306 446.004 279.729 445.208 278.925 445.029C253.847 438.907 256.428 415.427 237.798 403.488C231.934 399.722 226.787 396.236 219.504 398.256C195.556 404.838 186.526 388.103 187.446 365.637C187.633 360.841 181.083 360.56 179.57 364.56C173.87 379.837 179.586 403.247 195.852 410.811C201.085 413.252 206.91 416.293 212.72 412.69C232.379 400.463 240.902 417.712 248.045 431.725C254.073 443.555 276.835 448.764 277.693 457.436C279.682 477.781 285.179 495.56 299.021 511.079C325.909 541.281 350.785 507 357.733 482.475C360.291 473.429 362.076 456.063 374.296 455.494C378.85 455.276 385.034 455.728 387.857 450.901C392.715 442.611 388.566 434.876 388.605 426.072C388.637 421.12 387.802 416.207 387.21 411.294C384.847 392.197 423.167 389.943 428.539 392.119C429.226 392.392 429.545 391.37 429.015 391.012Z" fill="#5E5C56"/>
<path fill-rule="evenodd" clip-rule="evenodd" d="M447.713 328.792C417.745 328.551 389.032 335.772 365.022 313.134C350.525 299.456 344.684 277.77 328.246 266.416C326.07 264.918 323.474 267.39 324.027 269.683C328.846 289.389 346.431 313.547 362.573 325.946C370.972 332.395 381.46 339.008 392.432 339.694C412.239 340.965 428.334 329.736 447.705 329.923C448.446 329.931 448.446 328.8 447.713 328.792Z" fill="#5E5C56"/>
<path fill-rule="evenodd" clip-rule="evenodd" d="M253.214 255.034C244.621 260.25 235.567 262.785 225.593 263.518C216.719 264.181 209.21 259.954 200.718 259.479C198.932 259.377 197.427 261.732 198.55 263.26C211.627 281.056 242.266 269.172 255.725 258.27C257.573 256.78 255.179 253.84 253.214 255.034Z" fill="#F7F0EA"/>
<path fill-rule="evenodd" clip-rule="evenodd" d="M223.866 285.92C220.185 287.441 216.824 288.142 212.863 287.323C209.33 286.575 206.203 285.717 202.819 287.323C201.735 287.838 201.314 289.25 201.602 290.349C204.363 300.978 220.248 296.354 226.837 292.954C230.666 290.989 227.921 284.251 223.866 285.92Z" fill="#F7F0EA"/>
<path fill-rule="evenodd" clip-rule="evenodd" d="M214.544 310.695C213.234 310.695 212.04 310.64 210.824 311.139C209.904 311.522 209.904 312.637 210.824 313.027C212.033 313.518 213.234 313.463 214.544 313.463C216.314 313.463 216.314 310.695 214.544 310.695Z" fill="#5E5C56"/>
<path fill-rule="evenodd" clip-rule="evenodd" d="M482.518 469.019C490.316 476.708 498.286 483.906 504.415 493.107C510.349 502.044 510.958 513.492 517.001 521.984C517.82 523.114 519.933 523.2 520.253 521.547C522.413 510.864 515.613 498.636 509.944 489.879C503.635 480.163 494.511 472.248 485.06 465.713C483.064 464.325 480.841 467.374 482.518 469.019Z" fill="#5E5C56"/>
<path fill-rule="evenodd" clip-rule="evenodd" d="M502.231 524.265C504.672 528.086 507.027 531.931 509.07 536.009C510.887 539.604 512.236 544.033 515.285 546.778C516.58 547.94 518.264 547.34 518.872 545.835C522.498 536.961 511.979 526.761 506.746 520.78C504.594 518.3 500.492 521.52 502.231 524.265Z" fill="#5E5C56"/>
<path fill-rule="evenodd" clip-rule="evenodd" d="M510.897 557.355C510.959 557.932 511.029 558.517 511.084 559.094C511.17 559.757 512.059 559.757 512.152 559.094C512.215 558.517 512.285 557.94 512.347 557.355C512.456 556.412 510.78 556.412 510.897 557.355Z" fill="#5E5C56"/>
<path fill-rule="evenodd" clip-rule="evenodd" d="M374.692 33.8731C361.35 73.0038 364.477 121.461 369.311 161.855C374.326 203.809 380.97 259.924 344.28 290.68C338.571 295.468 353.614 318.488 359.166 313.341C385.586 288.831 388.534 233.512 387.348 199.099C386.389 170.948 377.125 143.343 375.729 115.176C374.372 87.7346 373.608 61.4004 375.643 33.9901C375.698 33.4209 374.871 33.3818 374.692 33.8731Z" fill="#5E5C56"/>
<path fill-rule="evenodd" clip-rule="evenodd" d="M450.713 349.083C461.717 330.344 486.733 345.683 503.195 342.424C509.636 341.153 515.391 336.177 520.389 332.255C529.217 325.307 538.504 319.981 547.573 313.633C549.733 312.112 549.117 308.369 546.162 308.424C523.236 308.744 513.956 338.135 490.094 338.283C474.076 338.392 457.56 330.321 448.179 347.609C447.298 349.262 449.754 350.705 450.713 349.083Z" fill="#5E5C56"/>
<path fill-rule="evenodd" clip-rule="evenodd" d="M271.171 286.63C279.499 289.843 287.04 293.929 294.573 298.741C295.049 299.045 295.672 298.444 295.345 297.969C290.354 290.677 280.887 283.152 271.545 283.924C269.947 284.057 269.713 286.069 271.171 286.63Z" fill="#F7F0EA"/>
<path fill-rule="evenodd" clip-rule="evenodd" d="M303.082 308.006C308.564 319.999 314.6 331.774 322.164 342.614C327.35 350.045 337.355 362.686 347.547 361.812C349.473 361.633 350.479 359.512 349.114 358.015C346.05 354.654 341.652 352.985 337.901 350.459C332.699 346.973 328.309 342.052 324.176 337.397C316.175 328.39 310.069 317.816 303.917 307.514C303.589 306.968 302.817 307.452 303.082 308.006Z" fill="#F7F0EA"/>
<path fill-rule="evenodd" clip-rule="evenodd" d="M303.049 359.461C306.893 367.166 315.783 377.295 325.07 377.545C327.269 377.615 328.174 374.901 326.794 373.396C324.181 370.589 320.321 369.123 316.952 367.4C312.515 365.13 308.476 362.089 305.637 357.956C304.546 356.365 302.191 357.73 303.049 359.461Z" fill="#F7F0EA"/>
<path fill-rule="evenodd" clip-rule="evenodd" d="M184.301 945.336C217.794 946.7 244.464 962.702 274.977 941.546C293.124 928.952 323.279 936.976 330.742 911.648C332.083 907.078 325.704 904.669 323.271 908.497C312.393 925.599 284.686 932.149 266.244 939.011C239.208 949.063 212.25 941.85 184.301 944.852C183.997 944.891 183.982 945.328 184.301 945.336Z" fill="#5E5C56"/>
<path fill-rule="evenodd" clip-rule="evenodd" d="M149.761 955.576C139.74 956.473 130.796 959.967 121.259 963C110.529 966.431 98.5899 966.735 88.4212 971.204C86.924 971.859 87.5088 974.05 88.8423 974.463C98.6367 977.427 109.632 973.481 119.13 970.642C129.969 967.391 140.645 963.109 150.159 957.003C150.759 956.621 150.572 955.506 149.761 955.576Z" fill="#5E5C56"/>
<path fill-rule="evenodd" clip-rule="evenodd" d="M416.263 943.849C433.271 946.297 452.859 950.828 469.555 945.112C470.514 944.769 470.319 943.435 469.321 943.357C451.869 942.063 434.167 942.219 416.622 941.143C415.093 941.041 414.719 943.63 416.263 943.849Z" fill="#5E5C56"/>
<path fill-rule="evenodd" clip-rule="evenodd" d="M479.67 943.983C494.385 943.196 508.328 939.718 523.152 940.186C533.617 940.521 543.606 940.42 551.935 933.62C554.063 931.889 552.41 927.67 549.619 928.013C525.491 931.015 502.846 935.842 479.506 942.79C478.874 942.985 478.968 944.03 479.67 943.983Z" fill="#5E5C56"/>
<path fill-rule="evenodd" clip-rule="evenodd" d="M554.803 955.335C567.755 956.965 584.178 959.148 594.472 967.835C600.523 972.92 601.077 982.566 608.805 985.459C609.998 985.903 610.91 984.609 610.692 983.572C609.358 976.819 601.014 966.704 595.033 962.993C582.946 955.522 568.59 954.68 554.803 953.884C553.844 953.83 553.906 955.226 554.803 955.335Z" fill="#5E5C56"/>
<path fill-rule="evenodd" clip-rule="evenodd" d="M477.95 920.645C464.405 920.879 447.709 905.938 438.812 896.994C431.287 889.422 427.052 878.411 416.634 874.59C413.655 873.506 411.83 877.07 412.93 879.393C418.014 890.287 429.696 901.587 439.607 908.309C451.881 916.629 463.048 922.493 477.942 921.215C478.309 921.183 478.317 920.638 477.95 920.645Z" fill="#5E5C56"/>
<path fill-rule="evenodd" clip-rule="evenodd" d="M391.266 886.915C398.268 890.627 403.4 896.117 407.837 902.62C410.511 906.519 414.777 913.584 420.064 913.171C421.015 913.093 421.787 912.422 421.811 911.424C421.897 905.693 413.599 900.468 409.521 897.201C403.906 892.732 398.448 888.857 391.874 885.862C391.18 885.535 390.564 886.533 391.266 886.915Z" fill="#5E5C56"/>
<path fill-rule="evenodd" clip-rule="evenodd" d="M609.008 624.707C609.288 639.515 610.294 654.269 610.864 669.07C611.433 683.996 604.157 698.009 603.861 712.794C603.814 714.759 606.411 715.297 607.401 713.753C614.739 702.22 614.349 688.721 614.084 675.394C613.749 658.098 613.008 641.613 609.398 624.644C609.366 624.442 609 624.465 609.008 624.707Z" fill="#5E5C56"/>
<path fill-rule="evenodd" clip-rule="evenodd" d="M595.989 730.155C595.1 733.196 593.953 738.491 596.62 740.94C597.408 741.673 598.554 741.673 599.365 740.94C601.705 738.78 600.855 734.592 601.697 731.73C602.789 728.065 597.08 726.505 595.989 730.155Z" fill="#5E5C56"/>
<path fill-rule="evenodd" clip-rule="evenodd" d="M160.994 439.03C169.775 447.6 181.924 446.477 193.185 449.393C210.208 453.784 214.543 471.579 228.268 479.494C230.038 480.5 231.512 478.574 230.826 476.952C226.124 466.027 215.05 456.848 205.498 450.134C192.522 441.003 175.436 445.681 162.46 437.127C161.298 436.339 160.019 438.071 160.994 439.03Z" fill="#5E5C56"/>
<path fill-rule="evenodd" clip-rule="evenodd" d="M165.699 461.419C172.054 465.373 178.613 468.781 184.368 473.631C190.294 478.622 193.203 485.921 198.966 490.865C199.706 491.504 201.227 491.169 201.11 489.976C199.566 473.951 178.48 466.753 166.65 459.821C165.598 459.212 164.678 460.788 165.699 461.419Z" fill="#5E5C56"/>
<path fill-rule="evenodd" clip-rule="evenodd" d="M166.745 489.451C169.022 492.57 173.249 499.23 177.779 498.302C178.38 498.185 178.902 497.498 178.863 496.898C178.707 494.66 176.968 493.366 175.385 491.97C173.568 490.348 171.946 488.515 170.426 486.604C168.765 484.522 165.154 487.299 166.745 489.451Z" fill="#5E5C56"/>
<path fill-rule="evenodd" clip-rule="evenodd" d="M165.01 540.073C163.513 575.297 162.866 610.194 164.885 645.433C165.049 648.194 169.018 648.194 169.182 645.433C171.217 610.194 170.562 575.297 169.05 540.073C168.948 537.468 165.119 537.468 165.01 540.073Z" fill="#5E5C56"/>
<path fill-rule="evenodd" clip-rule="evenodd" d="M277.576 882.276C243.147 877.776 204.859 860.434 169.861 869.448C167.591 870.025 167.646 873.355 169.861 873.971C185.293 878.229 202.075 876.63 217.991 876.365C237.961 876.038 257.792 884.6 277.583 887.056C280.633 887.415 280.57 882.666 277.576 882.276Z" fill="#5E5C56"/>
<path fill-rule="evenodd" clip-rule="evenodd" d="M237.418 847.661C221.729 840.347 202.257 828.26 184.898 837.789C183.261 838.694 183.479 841.563 185.436 841.938C192.642 843.271 199.8 842.577 207.076 843.185C216.863 843.981 227.515 845.852 236.763 849.213C237.668 849.541 238.292 848.051 237.418 847.661Z" fill="#5E5C56"/>
<path fill-rule="evenodd" clip-rule="evenodd" d="M216.263 812.143C211.109 811.464 205.587 809.655 200.449 808.556C195.832 807.573 191.028 804.976 186.404 806.871C185.289 807.324 184.657 808.447 185.289 809.608C187.901 814.303 193.578 814.857 198.46 815.753C200.901 816.198 203.365 816.487 205.821 816.759C209.549 817.173 212.637 815.941 216.255 815.543C218.478 815.309 218.423 812.424 216.263 812.143Z" fill="#5E5C56"/>
<path fill-rule="evenodd" clip-rule="evenodd" d="M189.043 776.94C186.407 776.246 183.764 775.373 181.268 774.258C180.551 773.946 179.748 774.616 180.161 775.373C181.791 778.383 185.113 779.131 188.224 779.911C190.15 780.395 190.961 777.462 189.043 776.94Z" fill="#5E5C56"/>
<path fill-rule="evenodd" clip-rule="evenodd" d="M211.117 406.211C215.335 446.62 212.349 488.231 212.091 528.859C211.795 573.097 211.538 617.305 211.28 661.535C211.046 702.234 211.078 742.932 211.078 783.622C211.078 821.685 206.407 863.506 213.526 900.96C214.033 903.681 218.478 903.681 218.993 900.96C225.527 866.531 221.433 828.329 221.433 793.323C221.433 749.404 221.472 705.462 221.231 661.535C220.997 620.712 220.755 579.889 220.49 539.082C220.201 495.109 216.817 449.927 221.394 406.211C222.096 399.59 210.423 399.59 211.117 406.211Z" fill="#5E5C56"/>
<path fill-rule="evenodd" clip-rule="evenodd" d="M283.997 483.066C280.324 519.998 282.78 558.177 282.694 595.304C282.616 632.649 282.258 669.986 282.219 707.331C282.18 744.715 282.141 782.099 282.094 819.475C282.063 849.981 277.322 884.994 284.457 914.752C285.073 917.341 289.066 917.341 289.689 914.752C296.832 884.994 292.083 849.981 292.052 819.475C292.005 782.099 291.966 744.715 291.927 707.331C291.888 669.986 291.522 632.649 291.436 595.304C291.358 558.177 293.822 520.005 290.142 483.066C289.767 479.104 284.387 479.104 283.997 483.066Z" fill="#5E5C56"/>
<path fill-rule="evenodd" clip-rule="evenodd" d="M357.502 474.441C351.692 541.956 354.975 611.071 354.585 678.836C354.414 712.882 354.414 746.968 354.359 781.03C354.328 810.32 350.632 841.995 356.8 870.747C357.408 873.539 361.83 873.539 362.422 870.747C368.591 842.003 364.902 810.32 364.879 781.03C364.824 746.968 364.824 712.882 364.637 678.836C364.263 611.079 367.546 541.956 361.721 474.441C361.494 471.727 357.751 471.727 357.502 474.441Z" fill="#5E5C56"/>
<path fill-rule="evenodd" clip-rule="evenodd" d="M428.738 434.718C420.963 512.449 425.252 592.395 424.987 670.446C424.73 740.949 420.082 813.72 427.607 883.56C427.997 887.163 433.682 887.209 433.292 883.56C433.199 882.772 433.121 881.993 433.043 881.205C432.668 877.875 428.208 877.875 427.857 881.205C427.771 881.993 427.693 882.772 427.607 883.56C427.218 887.209 432.902 887.163 433.292 883.56C440.817 813.72 436.154 740.949 435.912 670.446C435.639 592.388 439.936 512.442 432.154 434.718C431.92 432.527 428.972 432.527 428.738 434.718Z" fill="#5E5C56"/>
<path fill-rule="evenodd" clip-rule="evenodd" d="M493.619 527.121C485.969 587.268 491.404 651.695 491.139 712.349C490.866 773.938 484.892 838.998 491.895 900.22C492.628 906.584 502.056 904.556 500.13 899.09C499.756 898.053 499.389 896.984 499.015 895.939C498.001 893.069 494.188 893.069 493.158 895.939C492.8 896.992 492.418 898.06 492.043 899.09C490.125 904.548 499.545 906.584 500.278 900.22C506.899 842.327 501.339 780.886 501.081 722.627C500.949 691.77 500.886 660.897 500.559 630.032C500.2 596.126 502.836 560.754 498.563 527.129C498.157 523.963 494.016 523.963 493.619 527.121Z" fill="#5E5C56"/>
<path fill-rule="evenodd" clip-rule="evenodd" d="M552.971 581.729C552.573 604.141 552.02 626.171 549.867 648.458C546.202 686.512 540.556 728.513 562.82 759.978C563.904 760.524 564.863 761.335 565.588 762.411C565.651 762.489 585.294 791.311 598.286 778.881C608.86 768.54 622.132 712.269 620.253 643.709C618.997 597.255 610.474 545.648 588.92 499.561C555.981 429.129 568.497 376.952 575.617 347.272C577.426 339.7 578.853 333.75 578.9 330.07C576.139 314.123 570.275 310.66 563.007 311.869C557.299 312.813 550.351 315.846 543.223 318.942C539.909 320.4 536.548 321.866 533.187 323.2C528.859 326.046 524.57 328.962 520.383 332.269C515.384 336.191 509.629 341.166 503.188 342.437C486.726 345.697 461.71 330.358 450.707 349.097C449.748 350.719 447.299 349.276 448.188 347.631C457.569 330.343 474.086 338.406 490.103 338.304C499.227 338.242 506.214 333.914 512.647 328.573C504.241 329.118 496.154 326.873 488.878 319.441C466.584 304.469 446.059 307.471 424.396 310.637C404.87 313.499 384.493 316.478 360.803 308.68C362.136 310.239 363.54 311.729 365.029 313.14C389.032 335.77 417.752 328.557 447.72 328.799C448.453 328.806 448.453 329.945 447.72 329.929C428.358 329.742 412.255 340.971 392.447 339.7C381.476 339.014 370.987 332.401 362.589 325.952C353.067 318.646 343.047 307.253 335.459 295.095C329.244 288.436 324.16 278.298 318.67 267.35C315.566 261.181 312.314 254.725 308.563 248.385C296.937 228.749 281.138 213.418 252.41 230.403C242.67 237.296 234.583 239.55 227.417 238.824C214.09 242.373 201.168 232.898 191.241 224.172C182.118 216.155 169.765 205.339 158.833 218.573C151.362 227.603 146.613 237.421 142.316 248.268C142.176 248.65 141.56 248.494 141.7 248.096C147.065 231.946 151.268 205.877 173.095 204.825C175.536 204.708 177.797 204.895 179.926 205.339C176.464 203.187 172.799 201.44 168.83 200.388L168.12 200.169C163.995 198.617 160.299 197.97 157 198.134C147.026 198.641 139.4 207.11 133.621 220.008C127.079 234.629 123.063 254.561 120.77 275.655C115.483 324.315 119.304 378.176 122.143 389.788C123.655 396.057 121.261 405.43 117.939 418.36C111.459 443.633 101.08 484.082 111.639 530.753C120.318 569.143 105.299 611.853 96.058 638.094C94.2566 643.248 92.6658 647.748 91.6443 651.093C87.4567 664.842 89.9365 674.441 95.325 679.697C98.0075 682.286 101.478 683.861 105.197 684.329C109.042 684.805 113.151 684.103 116.902 682.153C125.27 677.841 132.124 667.391 132.163 649.963H132.342C130.853 618.942 132.101 587.656 132.116 556.729C132.14 514.549 129.036 470.295 134.69 428.489C135.212 424.637 141.903 424.637 142.425 428.489C142.503 429.074 142.581 429.659 142.652 430.26C149.319 402.054 146.356 399.223 164.588 396.424C172.152 395.269 176.675 392.79 179.365 390.146C176.753 381.56 176.784 372.086 179.591 364.576C181.096 360.568 187.654 360.849 187.467 365.652C186.547 388.119 195.577 404.845 219.525 398.272C226.808 396.252 231.955 399.73 237.819 403.504C256.457 415.443 253.876 438.923 278.946 445.045C279.75 445.224 280.327 446.019 280.319 446.823C279.75 478.311 325.821 541.148 345.464 488.94C349.613 477.875 353.738 451.143 367.618 447.322C390.919 440.912 371.011 415.958 381.32 398.763C386.326 390.443 393.921 385.927 402.109 384.571C402.889 383.775 403.887 383.315 405.166 383.214C422.501 381.919 435.048 386.473 443.283 402.982C449.366 411.879 454.317 421.923 462.466 428.793C468.533 433.87 477.743 431.406 485.112 432.482C499.141 434.525 505.442 434.198 512.265 444.748C522.987 449.622 529.343 460.368 538.084 485.041C540.252 491.186 542.077 496.582 543.598 501.339C542.982 496.543 542.319 491.708 541.609 486.858C541.383 485.369 543.294 484.838 543.878 486.242C556.457 516.725 553.517 549.313 552.971 581.729ZM596.617 740.943C593.95 738.502 595.096 733.199 595.985 730.158C597.077 726.509 602.777 728.06 601.693 731.733C600.851 734.587 601.701 738.775 599.362 740.943C598.551 741.676 597.404 741.676 596.617 740.943ZM347.538 361.816C337.346 362.689 327.341 350.048 322.156 342.617C314.584 331.777 308.556 320.01 303.074 308.009C302.809 307.455 303.581 306.964 303.908 307.518C310.061 317.819 316.159 328.393 324.167 337.4C328.293 342.055 332.691 346.976 337.892 350.462C341.643 352.981 346.049 354.657 349.106 358.018C350.47 359.515 349.464 361.636 347.538 361.816ZM138.784 260.261C136.28 289.691 140.842 320.665 143.205 350.072C143.314 351.483 141.185 351.686 140.811 350.399C132.194 319.995 130.728 290.931 138.3 260.207C138.363 259.934 138.799 259.996 138.784 260.261ZM294.566 298.745C287.033 293.933 279.492 289.847 271.164 286.635C269.698 286.073 269.94 284.061 271.538 283.928C280.873 283.149 290.347 290.682 295.338 297.973C295.665 298.448 295.042 299.049 294.566 298.745ZM255.724 258.281C242.264 269.174 211.626 281.067 198.548 263.271C197.425 261.743 198.938 259.388 200.716 259.489C209.216 259.965 216.726 264.176 225.592 263.529C235.566 262.796 244.619 260.261 253.213 255.044C255.178 253.836 257.572 256.776 255.724 258.281ZM610.864 669.076C610.295 654.275 609.289 639.521 609.008 624.712C609 624.478 609.367 624.447 609.406 624.658C613.016 641.627 613.757 658.112 614.092 675.408C614.35 688.735 614.747 702.233 607.409 713.767C606.419 715.311 603.822 714.773 603.869 712.807C604.15 698.015 611.433 684.001 610.864 669.076ZM326.795 373.404C328.183 374.909 327.279 377.623 325.072 377.552C315.785 377.303 306.895 367.173 303.05 359.469C302.192 357.737 304.547 356.373 305.639 357.948C308.478 362.089 312.517 365.145 316.954 367.415C320.323 369.13 324.183 370.596 326.795 373.404ZM226.84 292.951C220.242 296.351 204.366 300.975 201.605 290.346C201.316 289.247 201.745 287.843 202.822 287.321C206.214 285.714 209.333 286.572 212.865 287.321C216.827 288.139 220.188 287.445 223.869 285.917C227.924 284.248 230.668 290.986 226.84 292.951Z" fill="#F7F0EA"/>
<path fill-rule="evenodd" clip-rule="evenodd" d="M407.847 902.613C403.41 896.109 398.279 890.62 391.276 886.908C390.566 886.526 391.182 885.527 391.884 885.855C398.458 888.849 403.917 892.725 409.531 897.193C413.61 900.461 421.907 905.686 421.821 911.417C421.798 912.415 421.026 913.086 420.074 913.164C414.787 913.585 410.522 906.512 407.847 902.613ZM414.499 882.634C410.14 876.544 404.159 868.153 377.536 873.799C359.312 877.675 350.796 891.181 343.1 903.424C333.5 918.654 324.868 932.355 305.365 931.747C295.009 934.219 283.639 935.544 274.983 941.549C244.469 962.705 217.8 946.703 184.307 945.339C183.987 945.331 184.003 944.894 184.307 944.847C212.255 941.845 239.213 949.058 266.249 939.007C274.04 936.106 283.475 933.26 292.599 929.665C287.951 928.378 282.828 926.491 277.128 923.894C240.57 907.19 218.782 912.446 202.492 916.353C191.045 919.114 181.859 921.336 171.565 916.923C165.28 914.232 157.599 915.995 150.222 919.582C148.857 920.252 147.508 920.978 146.175 921.734C143.625 923.216 141.168 924.853 138.852 926.576C136.185 928.534 133.729 930.6 131.538 932.596C127.241 936.511 123.981 940.215 122.344 942.641C118.577 948.216 109.641 949.924 98.3333 952.092C79.4698 955.702 51.9581 960.966 49.2756 983.994C48.8233 987.862 49.0494 991.293 49.8136 994.295C51.576 1001.06 56.3328 1006.23 62.852 1010.02C70.073 1014.21 79.3606 1016.75 89.2641 1017.91C103.23 1019.52 118.117 1018.4 130.142 1015.29C176.93 1003.18 220.319 996.424 269.22 995.09C317.974 993.734 372.062 997.765 440.388 1007.14C453.411 1008.94 477.211 1008.86 502.672 1008.76C541.693 1008.63 584.528 1008.48 602.066 1015.14C606.698 1016.91 611.283 1016.9 615.338 1015.46C619.23 1014.07 622.708 1011.36 625.297 1007.59C628.041 1003.62 629.796 998.506 630.116 992.517C630.607 982.957 627.363 971.337 618.59 958.712C606.589 941.424 590.852 935.396 577.229 933.961C574.695 933.688 572.223 933.587 569.883 933.587C567.294 933.603 564.846 933.759 562.569 933.992C553.492 934.936 547.347 937.221 547.308 937.252C546.583 937.509 545.818 937.665 545.039 937.704C538.317 940.434 530.854 940.434 523.142 940.168C508.317 939.701 494.374 943.186 479.659 943.966C478.95 944.013 478.856 942.968 479.496 942.781C498.874 937.01 517.792 932.706 537.474 929.688C537.506 929.407 537.553 929.119 537.599 928.838C540.999 912.867 537.708 907.346 531.907 906.106C526.113 904.882 517.628 906.177 509.503 907.409C494.601 909.686 480.627 911.815 474.076 900.796C469.974 893.879 464.157 890.659 457.755 889.621C450.721 888.475 442.751 889.723 435.218 891.735L434.633 891.906C434.587 891.922 434.532 891.93 434.501 891.945C435.858 893.715 437.261 895.408 438.805 896.959C447.703 905.904 464.391 920.853 477.944 920.611C478.31 920.603 478.303 921.149 477.944 921.18C463.05 922.459 451.883 916.595 439.609 908.274C431.031 902.457 421.135 893.193 415.318 883.773C415.052 883.43 414.772 883.032 414.499 882.634ZM469.553 945.112C452.857 950.821 433.269 946.29 416.261 943.849C414.725 943.631 415.099 941.042 416.62 941.143C434.166 942.227 451.867 942.063 469.319 943.358C470.31 943.436 470.512 944.769 469.553 945.112ZM608.804 985.452C601.076 982.559 600.522 972.92 594.471 967.82C590.034 964.085 584.481 961.551 578.524 959.742C576.106 959.017 573.611 958.393 571.108 957.878C568.643 957.355 566.156 956.919 563.715 956.545C560.65 956.077 557.64 955.695 554.802 955.336C553.905 955.219 553.843 953.831 554.802 953.877C557.726 954.041 560.666 954.213 563.621 954.455C566.07 954.642 568.55 954.891 570.983 955.203C573.463 955.539 575.942 955.952 578.368 956.498C584.201 957.777 589.831 959.765 595.032 962.986C601.013 966.698 609.357 976.804 610.691 983.565C610.909 984.594 609.997 985.896 608.804 985.452ZM150.152 956.997C148.826 957.854 147.469 958.681 146.097 959.461C143.71 960.826 141.262 962.081 138.774 963.259C136.365 964.374 133.924 965.427 131.46 966.401C127.412 968 123.279 969.396 119.131 970.636C109.633 973.474 98.6374 977.42 88.843 974.457C87.5096 974.043 86.9247 971.852 88.4219 971.197C98.5906 966.737 110.529 966.432 121.26 962.993C124.714 961.878 128.091 960.724 131.467 959.656C133.9 958.868 136.333 958.143 138.782 957.527C141.192 956.919 143.617 956.381 146.097 956.022C147.305 955.835 148.537 955.687 149.762 955.57C150.573 955.5 150.76 956.615 150.152 956.997Z" fill="#AE8C82"/>
<path fill-rule="evenodd" clip-rule="evenodd" d="M573.736 546.471C568.605 529.432 563.739 513.945 559.863 496.439C546.794 441.868 537.171 454.337 538.185 386.337C538.886 380.551 550.396 338.652 556.167 335.821C559.505 338.582 549.102 376.005 548.891 386.337C551.457 452.933 562.437 439.084 576.886 492.508C581.105 509.337 586.4 524.73 591.383 541.199C593.333 548.42 610.021 608.941 592.685 604.847C580.965 607.701 579.374 566.528 573.736 546.471Z" fill="white"/>
<path fill-rule="evenodd" clip-rule="evenodd" d="M200.502 235.738C204.955 237.586 208.729 238.179 213.541 238.428C228.996 238.974 243.766 234.856 258.348 230.139C262.473 228.821 265.702 228.696 269.913 229.647C273.742 230.653 276.424 232.088 279.621 234.373C285.883 239.223 290.063 244.534 294.555 250.975C299.546 258.516 311.453 278.19 314.253 286.94C314.346 287.104 314.455 287.353 314.463 287.533C314.487 287.977 314.557 289.131 314.058 289.35C313.59 289.56 312.67 288.772 312.428 288.461C312.405 288.445 312.35 288.616 312.35 288.616C305.519 285.021 290.929 264.871 285.252 258.227C281.197 253.673 277.04 249.291 271.784 246.101C270.17 245.173 268.712 244.479 266.848 244.191C265.967 243.887 264.556 244.37 263.737 244.674C247.057 251.162 231.078 256.488 213.034 256.613C205.688 256.379 200.05 255.475 193.234 252.659C189.865 251.186 187.269 249.688 184.313 247.513C179.182 243.543 176.57 240.261 172.172 236.089C171.618 235.621 171.033 235.161 170.487 234.693C164.03 231.269 166.752 236.962 164.093 228.649C161.356 223.853 157.823 220.68 171.875 218.832C175.969 218.956 178.855 220.063 182.294 222.231C183.721 222.645 192.782 231.113 195.082 232.735C196.775 233.905 198.623 234.935 200.502 235.738Z" fill="white"/>
<path fill-rule="evenodd" clip-rule="evenodd" d="M250.771 769.393C249.726 735.682 248.455 473.589 259.637 459.318C266.289 467.904 267.958 735.417 269.174 768.629C270.032 786.666 278.602 819.66 265.712 822.483C247.449 829.54 251.192 777.098 250.771 769.393Z" fill="#E3B594"/>
<path fill-rule="evenodd" clip-rule="evenodd" d="M396.081 747.492C393.086 677.965 394.295 514.361 410.554 448.685C410.569 448.506 410.757 448.062 410.897 447.898C411.154 447.57 412.932 445.348 413.462 445.628C413.977 445.909 413.088 448.646 412.94 449.013C412.917 449.068 413.08 448.912 413.08 448.912C419.506 536.071 409.821 649.72 414.476 746.479C415.474 762.301 426.283 815.445 413.338 815.796C395.659 822.526 396.619 755.181 396.081 747.492Z" fill="#E3B594"/>
<path fill-rule="evenodd" clip-rule="evenodd" d="M509.628 790.053C509.737 769.825 514.252 532.389 520.802 532.389C527.836 532.389 528.14 769.918 528.047 790.154C527.977 798.615 533.778 867.067 519.25 863.737C503.101 867.402 509.628 798.841 509.628 790.053Z" fill="#E3B594"/>
<g opacity="0.5" filter="url(#filter0_f_862_27564)">
<path fill-rule="evenodd" clip-rule="evenodd" d="M135.519 982.787C135.768 871.056 136.018 759.325 136.26 647.602C136.135 706.922 65.1332 700.068 81.439 646.628C88.1141 624.746 111.173 573.676 101.285 530.007C85.3224 459.442 115.322 403.499 111.82 389.151C105.894 364.875 95.6315 163.747 167.499 190.954C200.726 199.696 211.62 246.071 245.394 221.796C309.338 183.882 318.524 279.361 342.979 291.994C402.408 324.052 440.79 277.435 490.425 311.435C518.576 341.551 572.663 264.802 583.027 326.984C583.589 347.142 551.133 405.932 592.354 494.113C647.237 611.474 619.475 763.03 600.199 781.807C580.93 800.265 556.366 764.184 556.366 764.184C563.524 917.361 561.801 824.19 568.959 977.368C421.521 984.503 282.957 975.66 135.519 982.787Z" fill="#716F6C"/>
<path fill-rule="evenodd" clip-rule="evenodd" d="M128.207 982.434L128.854 686.847C126.234 689.304 123.388 691.284 120.401 692.828C113.928 696.174 106.871 697.383 100.204 696.556C93.3961 695.706 86.9705 692.766 81.8939 687.838C72.895 679.112 68.3877 664.334 74.4312 644.512C75.6399 640.542 77.2229 636.051 79.0242 630.943C87.7269 606.192 101.904 565.915 94.1369 531.627C82.8141 481.563 93.7314 439.017 100.555 412.41C103.346 401.539 105.374 393.655 104.696 390.887C101.67 378.527 97.5213 322.03 102.98 271.771C105.429 249.313 109.795 227.876 117.04 211.702C125.048 193.806 136.636 182.007 153.036 181.173C158.237 180.908 163.797 181.797 169.732 183.988C184.267 187.942 194.444 197.627 203.856 206.579C215.374 217.559 225.418 227.135 241.092 215.859L241.645 215.5C281.182 192.059 302.447 212.389 317.973 238.582C321.708 244.891 325.202 251.831 328.532 258.475C334.91 271.171 340.634 282.579 346.311 285.511L346.428 285.566C373.916 300.39 397.077 297.006 419.083 293.777C443.834 290.167 467.275 286.728 494.545 305.397C495.036 305.724 495.465 306.114 495.847 306.527C504.799 316.002 519.904 309.412 534.183 303.189C542.168 299.704 549.966 296.312 557.413 295.079C573.204 292.436 585.634 298.058 590.259 325.796C590.352 326.295 590.376 326.802 590.352 327.293C590.399 332.744 588.754 339.599 586.664 348.309C579.981 376.203 568.221 425.206 598.985 491.03C621.498 539.167 630.388 592.826 631.705 641.026C633.671 713.579 617.809 774.888 605.293 787.068L605.02 787.333C590.804 800.699 575.442 793.268 564.626 784.074C567.488 843.214 568.713 856.682 569.945 870.133C571.317 885.262 572.69 900.398 576.261 977.076C576.44 981.116 573.321 984.516 569.297 984.703C495.543 988.267 423.879 987.838 352.214 987.424C280.878 986.98 209.541 986.567 135.864 990.122C131.825 990.31 128.402 987.198 128.215 983.159L128.207 982.434ZM128.948 647.6H143.577L142.859 975.119C213.908 971.945 283.092 972.351 352.269 972.764C421.243 973.185 490.201 973.575 561.296 970.393C557.982 900.195 556.672 885.808 555.354 871.436C553.99 856.323 552.625 841.195 549.046 764.851C548.827 762.302 549.95 759.681 552.22 758.137C555.565 755.853 560.119 756.718 562.396 760.056C562.458 760.134 582.102 788.955 595.093 776.525C605.668 766.185 618.94 709.914 617.061 641.353C615.805 594.9 607.282 543.292 585.728 497.206C552.789 426.774 565.305 374.597 572.424 344.917C574.234 337.345 575.661 331.395 575.707 327.715C572.947 311.768 567.083 308.305 559.815 309.514C554.107 310.457 547.159 313.491 540.031 316.587C521.355 324.728 501.602 333.345 485.679 317.086C463.384 302.113 442.859 305.116 421.196 308.282C396.866 311.845 371.242 315.596 339.496 298.464C329.67 293.309 322.94 279.912 315.462 264.995C312.358 258.826 309.107 252.37 305.356 246.03C293.729 226.394 277.93 211.063 249.202 228.047C223.928 245.936 209.86 232.539 193.75 217.177C185.577 209.386 176.726 200.965 165.63 198.032L164.92 197.814C160.795 196.262 157.099 195.615 153.8 195.779C143.826 196.286 136.2 204.754 130.421 217.652C123.879 232.274 119.863 252.206 117.57 273.299C112.283 321.959 116.104 375.821 118.943 387.432C120.455 393.702 118.061 403.075 114.739 416.004C108.259 441.278 97.88 481.727 108.439 528.398C117.118 566.788 102.099 609.498 92.858 635.739C91.0567 640.893 89.4659 645.393 88.4443 648.738C84.2567 662.486 86.7365 672.086 92.125 677.342C94.8075 679.93 98.2777 681.506 101.997 681.974C105.842 682.449 109.951 681.747 113.702 679.798C122.054 675.478 128.909 665.028 128.948 647.6Z" fill="#716F6C"/>
<path fill-rule="evenodd" clip-rule="evenodd" d="M541.592 928.051C541.592 928.051 591.656 909.375 621.429 952.21C651.194 995.052 623.534 1030.08 596.264 1019.69C568.963 1009.3 469.701 1016.68 436.209 1012.07C300.296 993.407 221.293 996.09 128.777 1020.03C92.9682 1029.3 33.9602 1022.22 38.7872 980.829C43.5986 939.436 106.482 945.924 113.048 936.216C119.622 926.452 149.286 898.442 171.23 907.846C193.166 917.243 215.406 886.776 276.964 914.888C338.522 942.992 322.832 874.907 372.81 864.286C422.804 853.681 412.378 887.181 429.518 882.518C446.65 877.839 466.395 876.576 477.188 894.753C487.98 912.915 554.069 869.269 541.592 928.051Z" fill="#716F6C"/>
<path fill-rule="evenodd" clip-rule="evenodd" d="M550.424 918.231C568.375 914.901 603.669 913.786 627.446 948.012C638.246 963.546 642.192 978.393 641.537 990.94C641.085 999.745 638.379 1007.46 634.16 1013.59C629.793 1019.93 623.812 1024.55 617.028 1026.95C609.783 1029.53 601.673 1029.59 593.649 1026.53C578.536 1020.78 537.168 1020.92 499.479 1021.06C473.449 1021.15 449.135 1021.24 435.247 1019.33C367.661 1010.05 314.291 1006.06 266.434 1007.39C218.741 1008.69 176.366 1015.29 130.63 1027.12C116.929 1030.66 100.085 1031.97 84.4109 1030.15C72.6436 1028.78 61.3831 1025.63 52.314 1020.36C42.543 1014.68 35.283 1006.58 32.4523 995.627C31.228 990.87 30.8536 985.653 31.5165 979.992C35.4467 946.242 69.2047 939.785 92.3962 935.348C100.342 933.835 106.635 932.611 106.994 932.096C111.408 925.538 125.195 911.556 140.612 904.046C151.428 898.767 163.257 896.451 174.128 901.099C180.023 903.618 187.104 901.918 195.931 899.789C214.304 895.367 238.891 889.433 280.034 908.226C309.588 921.717 317.87 908.585 327.524 893.262C336.804 878.539 347.05 862.249 371.318 857.11C407.314 849.468 416.555 862.405 423.253 871.802C424.867 874.071 426.131 875.825 427.62 875.412L428.244 875.279C437.508 872.807 447.521 871.302 456.941 872.831C467.398 874.531 476.857 879.779 483.532 891C484.998 893.48 494.27 892.077 504.143 890.556C513.539 889.113 523.342 887.639 531.779 889.417C543.663 891.967 551.703 899.539 550.424 918.231ZM615.398 956.395C588.877 918.239 544.24 934.88 544.116 934.935C542.86 935.395 541.456 935.52 540.053 935.215C536.091 934.381 533.565 930.49 534.399 926.521C537.799 910.55 534.508 905.029 528.707 903.789C522.913 902.565 514.428 903.859 506.303 905.091C491.401 907.368 477.426 909.497 470.876 898.479C466.774 891.562 460.957 888.341 454.555 887.304C447.521 886.158 439.551 887.405 432.018 889.417L431.433 889.589C420.118 892.685 416.25 887.257 411.291 880.294C406.932 874.203 400.951 865.813 374.328 871.458C356.104 875.334 347.588 888.84 339.892 901.083C326.573 922.232 315.141 940.37 273.92 921.553C237.362 904.85 215.575 910.106 199.284 914.012C187.837 916.773 178.651 918.995 168.357 914.582C162.072 911.891 154.391 913.654 147.014 917.241C134.092 923.55 122.731 934.989 119.136 940.308C115.369 945.883 106.433 947.591 95.1255 949.759C76.2619 953.369 48.7503 958.633 46.0677 981.661C45.6154 985.529 45.8416 988.96 46.6058 991.962C48.3682 998.723 53.125 1003.89 59.6442 1007.69C66.8652 1011.88 76.1527 1014.42 86.0563 1015.57C100.023 1017.19 114.909 1016.07 126.934 1012.95C173.722 1000.84 217.111 994.091 266.013 992.757C314.766 991.401 368.854 995.432 437.181 1004.81C450.203 1006.61 474.003 1006.53 499.464 1006.43C538.485 1006.29 581.32 1006.15 598.858 1012.81C603.49 1014.58 608.075 1014.57 612.13 1013.13C616.022 1011.74 619.5 1009.02 622.089 1005.26C624.833 1001.29 626.588 996.173 626.908 990.184C627.407 980.639 624.171 969.02 615.398 956.395Z" fill="#716F6C"/>
<path fill-rule="evenodd" clip-rule="evenodd" d="M131.476 426.133C125.822 467.939 128.926 512.193 128.902 554.373C128.879 597.356 126.477 640.986 132.373 683.649C132.794 686.597 137.901 686.597 138.315 683.649C144.202 640.986 141.808 597.356 141.777 554.373C141.761 512.193 144.865 467.939 139.212 426.133C138.689 422.281 132.006 422.281 131.476 426.133Z" fill="#716F6C"/>
<path fill-rule="evenodd" clip-rule="evenodd" d="M140.012 347.734C137.642 318.335 133.08 287.361 135.591 257.923C135.606 257.658 135.17 257.596 135.107 257.861C127.535 288.601 129.002 317.649 137.618 348.054C137.993 349.348 140.122 349.145 140.012 347.734Z" fill="#716F6C"/>
<path fill-rule="evenodd" clip-rule="evenodd" d="M139.109 245.916C143.406 235.069 148.155 225.259 155.626 216.221C166.559 202.988 178.911 213.796 188.035 221.82C199.03 231.474 213.706 242.095 228.538 234.835C231.283 233.502 230.214 229.704 227.75 228.854C213.877 224.027 204.473 221.851 192.924 212.018C185.976 206.091 179.207 202.029 169.881 202.473C148.046 203.526 143.851 229.595 138.486 245.745C138.353 246.15 138.961 246.298 139.109 245.916Z" fill="#716F6C"/>
<path fill-rule="evenodd" clip-rule="evenodd" d="M538.384 484.494C544.311 525.099 547.188 563.466 541.527 604.288C538.532 625.85 535.967 647.56 533.768 669.215C530.726 699.02 524.769 768.04 566.036 776.696C569.951 777.523 573.39 772.711 570.114 769.662C535.834 737.472 542.517 689.249 546.666 646.11C548.818 623.831 549.379 601.793 549.769 579.381C550.315 546.965 553.255 514.377 540.645 483.871C540.068 482.483 538.158 483.005 538.384 484.494Z" fill="#716F6C"/>
<path fill-rule="evenodd" clip-rule="evenodd" d="M512.124 447.78C503.912 431.685 497.978 432.464 481.899 430.117C474.529 429.041 465.32 431.513 459.253 426.429C448.889 417.703 443.719 403.845 434.79 393.747C434.206 393.068 433.036 393.778 433.309 394.605C437.964 409.398 444.569 434.804 462.895 438.18C469.437 439.381 477.228 438.282 483.833 438.18C486.726 438.165 489.642 437.338 492.379 436.527C502.992 433.369 506.611 440.317 511.648 448.06C511.835 448.372 512.303 448.1 512.124 447.78Z" fill="#716F6C"/>
<path fill-rule="evenodd" clip-rule="evenodd" d="M425.82 388.672C411.089 378.238 388.701 378.745 378.103 396.407C367.794 413.594 387.703 438.548 364.402 444.966C350.522 448.787 346.396 475.534 342.248 486.584C322.605 538.785 276.534 475.956 277.103 444.467C277.111 443.664 276.533 442.868 275.73 442.689C250.652 436.567 253.233 413.088 234.603 401.149C228.739 397.382 223.592 393.897 216.309 395.916C192.361 402.498 183.331 385.763 184.251 363.297C184.438 358.501 177.888 358.22 176.375 362.221C170.675 377.497 176.391 400.907 192.657 408.471C197.89 410.912 203.715 413.953 209.525 410.35C229.184 398.123 237.707 415.372 244.85 429.386C250.878 441.215 273.64 446.424 274.498 455.096C276.487 475.441 281.984 493.221 295.826 508.739C322.714 538.941 347.59 504.66 354.538 480.135C357.095 471.09 358.881 453.723 371.101 453.154C375.655 452.936 381.839 453.388 384.662 448.561C389.52 440.272 385.371 432.536 385.41 423.732C385.442 418.78 384.607 413.867 384.014 408.955C381.652 389.857 419.971 387.603 425.344 389.779C426.031 390.052 426.35 389.03 425.82 388.672Z" fill="#716F6C"/>
<path fill-rule="evenodd" clip-rule="evenodd" d="M444.521 326.442C414.552 326.201 385.84 333.422 361.83 310.784C347.333 297.106 341.492 275.419 325.054 264.065C322.878 262.568 320.281 265.04 320.835 267.333C325.654 287.039 343.239 311.197 359.381 323.596C367.78 330.045 378.268 336.658 389.24 337.344C409.047 338.615 425.142 327.386 444.513 327.573C445.254 327.581 445.254 326.45 444.521 326.442Z" fill="#716F6C"/>
<path fill-rule="evenodd" clip-rule="evenodd" d="M250.019 252.695C241.426 257.912 232.372 260.446 222.398 261.179C213.524 261.842 206.015 257.615 197.522 257.14C195.737 257.038 194.232 259.393 195.355 260.922C208.432 278.717 239.071 266.833 252.53 255.931C254.378 254.442 251.984 251.502 250.019 252.695Z" fill="#716F6C"/>
<path fill-rule="evenodd" clip-rule="evenodd" d="M220.679 283.575C216.998 285.096 213.637 285.798 209.675 284.979C206.143 284.23 203.016 283.372 199.632 284.979C198.548 285.493 198.127 286.905 198.415 288.004C201.176 298.633 217.06 294.009 223.65 290.609C227.478 288.644 224.734 281.906 220.679 283.575Z" fill="#716F6C"/>
<path fill-rule="evenodd" clip-rule="evenodd" d="M211.335 308.361C210.025 308.361 208.832 308.306 207.615 308.805C206.695 309.187 206.695 310.302 207.615 310.692C208.824 311.183 210.025 311.129 211.335 311.129C213.105 311.129 213.105 308.361 211.335 308.361Z" fill="#716F6C"/>
<path fill-rule="evenodd" clip-rule="evenodd" d="M479.309 466.685C487.107 474.374 495.077 481.572 501.207 490.773C507.141 499.71 507.749 511.158 513.793 519.65C514.611 520.781 516.725 520.866 517.044 519.213C519.204 508.53 512.405 496.302 506.735 487.545C500.427 477.829 491.303 469.914 481.852 463.379C479.855 461.991 477.633 465.04 479.309 466.685Z" fill="#716F6C"/>
<path fill-rule="evenodd" clip-rule="evenodd" d="M499.036 521.926C501.477 525.748 503.832 529.592 505.875 533.67C507.692 537.265 509.041 541.695 512.09 544.439C513.384 545.601 515.069 545.001 515.677 543.496C519.303 534.622 508.784 524.422 503.551 518.441C501.399 515.961 497.297 519.182 499.036 521.926Z" fill="#716F6C"/>
<path fill-rule="evenodd" clip-rule="evenodd" d="M507.702 555.01C507.764 555.587 507.834 556.172 507.889 556.75C507.974 557.412 508.864 557.412 508.957 556.75C509.019 556.172 509.09 555.595 509.152 555.01C509.261 554.067 507.585 554.067 507.702 555.01Z" fill="#716F6C"/>
<path fill-rule="evenodd" clip-rule="evenodd" d="M371.497 31.5337C358.154 70.6645 361.281 119.122 366.116 159.516C371.13 201.47 377.774 257.585 341.084 288.34C335.376 293.128 350.418 316.148 355.971 311.001C382.39 286.492 385.338 231.173 384.153 196.76C383.194 168.609 373.93 141.003 372.534 112.837C371.177 85.3952 370.413 59.061 372.448 31.6508C372.502 31.0815 371.676 31.0424 371.497 31.5337Z" fill="#716F6C"/>
<path fill-rule="evenodd" clip-rule="evenodd" d="M447.512 346.749C458.516 328.01 483.532 343.349 499.994 340.09C506.435 338.819 512.19 333.843 517.188 329.921C526.016 322.973 535.303 317.647 544.372 311.299C546.533 309.778 545.916 306.035 542.961 306.09C520.035 306.41 510.755 335.801 486.893 335.949C470.875 336.058 454.359 327.987 444.978 345.275C444.097 346.928 446.553 348.371 447.512 346.749Z" fill="#716F6C"/>
<path fill-rule="evenodd" clip-rule="evenodd" d="M267.976 284.292C276.304 287.504 283.845 291.59 291.378 296.402C291.854 296.706 292.478 296.106 292.15 295.63C287.159 288.339 277.692 280.814 268.35 281.586C266.752 281.718 266.518 283.73 267.976 284.292Z" fill="#716F6C"/>
<path fill-rule="evenodd" clip-rule="evenodd" d="M299.879 305.672C305.361 317.665 311.397 329.44 318.961 340.28C324.147 347.711 334.152 360.352 344.344 359.478C346.27 359.299 347.276 357.178 345.911 355.681C342.847 352.32 338.449 350.651 334.698 348.125C329.497 344.639 325.106 339.718 320.973 335.063C312.972 326.056 306.866 315.482 300.714 305.18C300.386 304.634 299.614 305.118 299.879 305.672Z" fill="#716F6C"/>
<path fill-rule="evenodd" clip-rule="evenodd" d="M299.854 357.133C303.698 364.837 312.588 374.967 321.875 375.216C324.075 375.286 324.979 372.573 323.599 371.068C320.986 368.26 317.126 366.794 313.758 365.071C309.321 362.802 305.281 359.76 302.443 355.627C301.351 354.037 298.996 355.401 299.854 357.133Z" fill="#716F6C"/>
<path fill-rule="evenodd" clip-rule="evenodd" d="M181.106 943.007C214.599 944.372 241.268 960.374 271.782 939.218C289.928 926.624 320.083 934.648 327.546 909.32C328.887 904.75 322.508 902.34 320.075 906.169C309.197 923.271 281.49 929.821 263.048 936.683C236.012 946.735 209.054 939.522 181.106 942.524C180.802 942.563 180.786 943 181.106 943.007Z" fill="#716F6C"/>
<path fill-rule="evenodd" clip-rule="evenodd" d="M146.561 953.232C136.54 954.128 127.596 957.622 118.059 960.655C107.329 964.087 95.3897 964.391 85.221 968.859C83.7238 969.514 84.3086 971.705 85.6421 972.119C95.4365 975.082 106.432 971.136 115.93 968.298C126.769 965.046 137.445 960.765 146.958 954.659C147.559 954.276 147.372 953.162 146.561 953.232Z" fill="#716F6C"/>
<path fill-rule="evenodd" clip-rule="evenodd" d="M413.062 941.509C430.07 943.957 449.658 948.488 466.354 942.772C467.313 942.429 467.118 941.095 466.12 941.017C448.668 939.723 430.966 939.879 413.421 938.803C411.892 938.701 411.518 941.29 413.062 941.509Z" fill="#716F6C"/>
<path fill-rule="evenodd" clip-rule="evenodd" d="M476.461 941.649C491.176 940.862 505.119 937.384 519.943 937.852C530.408 938.187 540.397 938.086 548.726 931.286C550.855 929.555 549.201 925.336 546.41 925.679C522.282 928.681 499.637 933.508 476.297 940.456C475.665 940.651 475.759 941.696 476.461 941.649Z" fill="#716F6C"/>
<path fill-rule="evenodd" clip-rule="evenodd" d="M551.6 953.001C564.552 954.631 580.975 956.815 591.269 965.502C597.32 970.586 597.874 980.232 605.601 983.125C606.795 983.57 607.707 982.275 607.489 981.238C606.155 974.485 597.811 964.371 591.83 960.659C579.743 953.188 565.387 952.346 551.6 951.551C550.641 951.496 550.703 952.892 551.6 953.001Z" fill="#716F6C"/>
<path fill-rule="evenodd" clip-rule="evenodd" d="M474.755 918.312C461.21 918.546 444.514 903.605 435.617 894.66C428.091 887.088 423.857 876.077 413.439 872.256C410.46 871.172 408.635 874.736 409.735 877.06C414.819 887.954 426.501 899.253 436.412 905.975C448.686 914.296 459.853 920.16 474.747 918.881C475.114 918.85 475.122 918.304 474.755 918.312Z" fill="#716F6C"/>
<path fill-rule="evenodd" clip-rule="evenodd" d="M388.079 884.58C395.082 888.292 400.213 893.782 404.65 900.286C407.325 904.185 411.59 911.25 416.877 910.837C417.829 910.759 418.601 910.088 418.624 909.09C418.71 903.358 410.413 898.134 406.334 894.866C400.72 890.398 395.261 886.522 388.687 883.528C387.993 883.2 387.377 884.198 388.079 884.58Z" fill="#716F6C"/>
<path fill-rule="evenodd" clip-rule="evenodd" d="M605.805 622.373C606.085 637.182 607.091 651.936 607.661 666.737C608.23 681.662 600.954 695.675 600.658 710.461C600.611 712.426 603.208 712.964 604.198 711.42C611.536 699.886 611.146 686.388 610.881 673.061C610.546 655.765 609.805 639.28 606.195 622.311C606.163 622.108 605.797 622.131 605.805 622.373Z" fill="#716F6C"/>
<path fill-rule="evenodd" clip-rule="evenodd" d="M592.793 727.815C591.904 730.856 590.758 736.151 593.425 738.6C594.212 739.333 595.359 739.333 596.17 738.6C598.509 736.44 597.659 732.252 598.501 729.39C599.593 725.725 593.885 724.166 592.793 727.815Z" fill="#716F6C"/>
<path fill-rule="evenodd" clip-rule="evenodd" d="M157.799 436.69C166.58 445.261 178.729 444.137 189.989 447.054C207.013 451.444 211.348 469.24 225.073 477.155C226.843 478.161 228.317 476.234 227.631 474.612C222.929 463.687 211.855 454.509 202.303 447.795C189.327 438.663 172.241 443.342 159.265 434.788C158.103 434 156.824 435.731 157.799 436.69Z" fill="#716F6C"/>
<path fill-rule="evenodd" clip-rule="evenodd" d="M162.512 459.09C168.868 463.044 175.426 466.452 181.181 471.302C187.107 476.293 190.016 483.592 195.779 488.536C196.52 489.175 198.04 488.84 197.923 487.647C196.379 471.622 175.293 464.424 163.464 457.492C162.411 456.883 161.491 458.459 162.512 459.09Z" fill="#716F6C"/>
<path fill-rule="evenodd" clip-rule="evenodd" d="M163.55 487.106C165.827 490.225 170.054 496.885 174.584 495.957C175.185 495.84 175.707 495.154 175.668 494.553C175.512 492.315 173.773 491.021 172.19 489.625C170.373 488.003 168.752 486.17 167.231 484.26C165.57 482.178 161.959 484.954 163.55 487.106Z" fill="#716F6C"/>
<path fill-rule="evenodd" clip-rule="evenodd" d="M161.817 537.739C160.32 572.963 159.673 607.86 161.693 643.099C161.856 645.86 165.826 645.86 165.989 643.099C168.025 607.86 167.37 572.963 165.857 537.739C165.756 535.135 161.927 535.135 161.817 537.739Z" fill="#716F6C"/>
<path fill-rule="evenodd" clip-rule="evenodd" d="M274.383 879.942C239.955 875.442 201.666 858.1 166.668 867.114C164.399 867.691 164.454 871.021 166.668 871.637C182.101 875.895 198.882 874.296 214.798 874.031C234.769 873.704 254.6 882.266 274.391 884.722C277.44 885.081 277.378 880.332 274.383 879.942Z" fill="#716F6C"/>
<path fill-rule="evenodd" clip-rule="evenodd" d="M234.229 845.332C218.539 838.017 199.067 825.93 181.708 835.459C180.071 836.364 180.289 839.234 182.247 839.608C189.452 840.942 196.611 840.248 203.886 840.856C213.673 841.651 224.325 843.523 233.574 846.884C234.478 847.211 235.102 845.722 234.229 845.332Z" fill="#716F6C"/>
<path fill-rule="evenodd" clip-rule="evenodd" d="M213.063 809.808C207.908 809.13 202.387 807.321 197.248 806.221C192.632 805.239 187.828 802.642 183.204 804.537C182.089 804.989 181.457 806.112 182.089 807.274C184.701 811.968 190.378 812.522 195.26 813.419C197.7 813.864 200.165 814.152 202.621 814.425C206.348 814.838 209.437 813.606 213.055 813.208C215.277 812.974 215.223 810.089 213.063 809.808Z" fill="#716F6C"/>
<path fill-rule="evenodd" clip-rule="evenodd" d="M185.842 774.611C183.207 773.917 180.563 773.044 178.068 771.929C177.35 771.617 176.547 772.288 176.96 773.044C178.59 776.054 181.912 776.803 185.024 777.583C186.95 778.066 187.761 775.134 185.842 774.611Z" fill="#716F6C"/>
<path fill-rule="evenodd" clip-rule="evenodd" d="M207.927 403.872C212.145 444.281 209.159 485.892 208.901 526.52C208.605 570.758 208.348 614.966 208.09 659.197C207.856 699.895 207.888 740.593 207.888 781.283C207.888 819.346 203.217 861.167 210.336 898.621C210.843 901.343 215.288 901.343 215.803 898.621C222.338 864.193 218.243 825.99 218.243 790.984C218.243 747.065 218.283 703.123 218.041 659.197C217.807 618.374 217.565 577.551 217.3 536.743C217.011 492.77 213.627 447.588 218.205 403.872C218.906 397.251 207.233 397.251 207.927 403.872Z" fill="#716F6C"/>
<path fill-rule="evenodd" clip-rule="evenodd" d="M280.81 480.732C277.137 517.664 279.593 555.843 279.507 592.97C279.429 630.315 279.071 667.652 279.032 704.997C278.993 742.381 278.954 779.765 278.907 817.141C278.876 847.647 274.135 882.661 281.27 912.418C281.886 915.007 285.879 915.007 286.502 912.418C293.645 882.661 288.896 847.647 288.865 817.141C288.818 779.765 288.779 742.381 288.74 704.997C288.701 667.652 288.335 630.315 288.249 592.97C288.171 555.843 290.635 517.671 286.955 480.732C286.58 476.77 281.2 476.77 280.81 480.732Z" fill="#716F6C"/>
<path fill-rule="evenodd" clip-rule="evenodd" d="M354.309 472.101C348.5 539.617 351.783 608.731 351.393 676.497C351.221 710.543 351.221 744.629 351.167 778.691C351.136 807.98 347.439 839.656 353.608 868.408C354.216 871.199 358.637 871.199 359.23 868.408C365.398 839.664 361.71 807.98 361.686 778.691C361.632 744.629 361.632 710.543 361.445 676.497C361.07 608.739 364.353 539.617 358.528 472.101C358.302 469.387 354.559 469.387 354.309 472.101Z" fill="#716F6C"/>
<path fill-rule="evenodd" clip-rule="evenodd" d="M425.535 432.378C417.76 510.11 422.049 590.056 421.784 668.107C421.526 738.609 416.879 811.381 424.404 881.22C424.794 884.823 430.479 884.87 430.089 881.22C429.995 880.433 429.917 879.653 429.839 878.865C429.465 875.536 425.004 875.536 424.653 878.865C424.568 879.653 424.49 880.433 424.404 881.22C424.014 884.87 429.699 884.823 430.089 881.22C437.614 811.381 432.951 738.609 432.709 668.107C432.436 590.048 436.733 510.102 428.95 432.378C428.716 430.187 425.768 430.187 425.535 432.378Z" fill="#716F6C"/>
<path fill-rule="evenodd" clip-rule="evenodd" d="M490.418 524.776C482.768 584.923 488.203 649.351 487.938 710.004C487.665 771.593 481.692 836.653 488.695 897.876C489.428 904.239 498.856 902.211 496.929 896.745C496.555 895.708 496.189 894.639 495.814 893.594C494.801 890.725 490.987 890.725 489.958 893.594C489.599 894.647 489.217 895.716 488.843 896.745C486.924 902.204 496.345 904.239 497.078 897.876C503.698 839.983 498.138 778.541 497.881 720.282C497.748 689.425 497.686 658.552 497.358 627.688C497 593.782 499.635 558.41 495.362 524.784C494.957 521.618 490.816 521.618 490.418 524.776Z" fill="#716F6C"/>
<path fill-rule="evenodd" clip-rule="evenodd" d="M549.784 579.396C549.386 601.808 548.832 623.837 546.68 646.124C543.015 684.179 537.369 726.179 559.633 757.644C560.717 758.19 561.676 759.001 562.401 760.078C562.463 760.155 582.107 788.977 595.098 776.547C605.673 766.207 618.945 709.936 617.066 641.375C615.81 594.922 607.287 543.314 585.733 497.228C552.794 426.795 565.31 374.618 572.429 344.939C574.238 337.367 575.666 331.417 575.712 327.736C572.952 311.789 567.088 308.327 559.82 309.536C554.112 310.479 547.164 313.512 540.036 316.608C536.722 318.067 533.361 319.533 530 320.866C525.672 323.712 521.383 326.629 517.196 329.935C512.197 333.858 506.442 338.833 500.001 340.104C483.539 343.363 458.523 328.025 447.52 346.763C446.561 348.385 444.112 346.943 445.001 345.298C454.382 328.009 470.898 336.072 486.916 335.971C496.039 335.909 503.026 331.581 509.46 326.239C501.054 326.785 492.967 324.539 485.691 317.108C463.397 302.135 442.872 305.137 421.209 308.303C401.683 311.165 381.306 314.144 357.616 306.346C358.949 307.906 360.353 309.395 361.842 310.807C385.845 333.437 414.565 326.223 444.533 326.465C445.266 326.473 445.266 327.612 444.533 327.596C425.17 327.409 409.067 338.638 389.26 337.367C378.288 336.681 367.8 330.068 359.401 323.619C349.88 316.312 339.859 304.919 332.272 292.762C326.057 286.102 320.972 275.965 315.483 265.016C312.379 258.848 309.127 252.391 305.376 246.051C293.749 226.416 277.95 211.085 249.222 228.069C239.482 234.963 231.396 237.216 224.229 236.491C210.903 240.039 197.981 230.564 188.054 221.838C178.93 213.822 166.578 203.006 155.645 216.239C148.175 225.269 143.426 235.087 139.129 245.934C138.989 246.316 138.373 246.16 138.513 245.763C143.878 229.613 148.081 203.544 169.908 202.491C172.349 202.374 174.61 202.561 176.739 203.006C173.277 200.854 169.612 199.107 165.642 198.054L164.933 197.836C160.808 196.284 157.111 195.637 153.813 195.801C143.839 196.307 136.212 204.776 130.434 217.674C123.892 232.296 119.875 252.227 117.583 273.321C112.296 321.981 116.117 375.843 118.955 387.454C120.468 393.724 118.074 403.097 114.752 416.026C108.272 441.3 97.8927 481.748 108.451 528.42C117.131 566.81 102.111 609.52 92.8707 635.76C91.0694 640.915 89.4786 645.415 88.457 648.76C84.2694 662.508 86.7492 672.107 92.1377 677.363C94.8203 679.952 98.2904 681.527 102.01 681.995C105.855 682.471 109.964 681.769 113.715 679.82C122.082 675.507 128.937 665.058 128.976 647.629H129.155C127.666 616.608 128.913 585.322 128.929 554.395C128.952 512.215 125.849 467.961 131.502 426.156C132.025 422.303 138.716 422.303 139.238 426.156C139.316 426.741 139.394 427.326 139.464 427.926C146.132 399.72 143.168 396.89 161.4 394.09C168.964 392.936 173.487 390.456 176.178 387.813C173.565 379.227 173.596 369.752 176.404 362.243C177.909 358.235 184.467 358.515 184.28 363.319C183.36 385.785 192.39 402.512 216.338 395.938C223.621 393.918 228.768 397.397 234.632 401.171C253.269 413.11 250.688 436.59 275.759 442.711C276.562 442.891 277.139 443.686 277.132 444.489C276.562 475.978 322.633 538.815 342.277 486.607C346.425 475.541 350.551 448.809 364.431 444.988C387.732 438.578 367.823 413.624 378.132 396.43C383.139 388.109 390.734 383.594 398.922 382.237C399.702 381.442 400.7 380.981 401.979 380.88C419.314 379.586 431.861 384.14 440.096 400.648C446.178 409.546 451.13 419.59 459.279 426.46C465.346 431.536 474.556 429.072 481.925 430.148C495.954 432.191 502.254 431.864 509.078 442.415C519.8 447.289 526.156 458.034 534.897 482.708C537.065 488.852 538.89 494.249 540.411 499.006C539.794 494.21 539.132 489.375 538.422 484.525C538.196 483.035 540.106 482.505 540.691 483.908C553.27 514.391 550.33 546.979 549.784 579.396ZM593.43 738.609C590.763 736.168 591.909 730.866 592.798 727.825C593.89 724.175 599.59 725.727 598.506 729.4C597.664 732.254 598.514 736.441 596.174 738.609C595.363 739.342 594.217 739.342 593.43 738.609ZM344.351 359.482C334.159 360.356 324.154 347.715 318.968 340.283C311.396 329.444 305.368 317.677 299.886 305.676C299.621 305.122 300.393 304.63 300.721 305.184C306.874 315.485 312.972 326.06 320.98 335.066C325.105 339.722 329.504 344.643 334.705 348.128C338.456 350.647 342.862 352.324 345.918 355.685C347.283 357.182 346.277 359.303 344.351 359.482ZM135.596 257.928C133.093 287.358 137.655 318.332 140.018 347.738C140.127 349.15 137.998 349.353 137.624 348.066C129.007 317.661 127.541 288.598 135.113 257.873C135.175 257.6 135.612 257.663 135.596 257.928ZM291.379 296.411C283.846 291.6 276.305 287.514 267.977 284.301C266.511 283.74 266.752 281.728 268.351 281.595C277.685 280.815 287.16 288.348 292.151 295.639C292.478 296.115 291.854 296.715 291.379 296.411ZM252.536 255.947C239.077 266.841 208.438 278.733 195.361 260.938C194.238 259.41 195.751 257.054 197.529 257.156C206.029 257.631 213.538 261.842 222.405 261.195C232.378 260.462 241.432 257.928 250.025 252.711C251.991 251.502 254.385 254.442 252.536 255.947ZM607.677 666.742C607.107 651.942 606.101 637.187 605.821 622.379C605.813 622.145 606.179 622.114 606.218 622.324C609.829 639.293 610.57 655.778 610.905 673.074C611.162 686.401 611.56 699.9 604.222 711.433C603.232 712.977 600.635 712.439 600.682 710.474C600.963 695.681 608.246 681.668 607.677 666.742ZM323.608 371.07C324.996 372.575 324.092 375.289 321.885 375.219C312.597 374.969 303.707 364.84 299.863 357.135C299.005 355.404 301.36 354.039 302.452 355.614C305.29 359.755 309.33 362.812 313.767 365.081C317.136 366.797 320.996 368.263 323.608 371.07ZM211.347 308.366C213.117 308.366 213.117 311.126 211.347 311.126C210.037 311.126 208.844 311.181 207.627 310.689C206.707 310.3 206.707 309.185 207.627 308.803C208.844 308.311 210.037 308.366 211.347 308.366ZM223.652 290.617C217.055 294.017 201.178 298.642 198.418 288.013C198.129 286.913 198.558 285.51 199.634 284.987C203.026 283.381 206.146 284.238 209.678 284.987C213.64 285.806 217.001 285.112 220.681 283.584C224.736 281.915 227.481 288.652 223.652 290.617Z" fill="#716F6C"/>
<path fill-rule="evenodd" clip-rule="evenodd" d="M404.647 900.284C400.209 893.781 395.078 888.291 388.076 884.579C387.366 884.197 387.982 883.199 388.684 883.526C395.258 886.521 400.716 890.396 406.331 894.865C410.409 898.132 418.707 903.357 418.621 909.088C418.597 910.087 417.825 910.757 416.874 910.835C411.587 911.256 407.321 904.183 404.647 900.284ZM411.298 880.306C406.939 874.215 400.958 865.825 374.335 871.471C356.111 875.346 347.596 888.852 339.899 901.095C330.3 916.325 321.667 930.026 302.164 929.418C291.808 931.89 280.439 933.216 271.783 939.22C241.269 960.376 214.599 944.375 181.107 943.01C180.787 943.002 180.803 942.566 181.107 942.519C209.055 939.517 236.013 946.73 263.049 936.678C270.839 933.777 280.275 930.931 289.399 927.336C284.751 926.049 279.628 924.162 273.927 921.565C237.37 904.862 215.582 910.118 199.292 914.025C187.844 916.785 178.658 919.008 168.365 914.594C162.079 911.904 154.398 913.666 147.021 917.253C145.657 917.924 144.308 918.649 142.974 919.405C140.424 920.887 137.968 922.524 135.652 924.248C132.985 926.205 130.528 928.272 128.337 930.268C124.04 934.183 120.781 937.887 119.143 940.312C115.377 945.888 106.44 947.595 95.1329 949.763C76.2693 953.374 48.7577 958.637 46.0751 981.665C45.6228 985.533 45.849 988.964 46.6132 991.966C48.3756 998.727 53.1324 1003.9 59.6516 1007.7C66.8726 1011.88 76.1601 1014.42 86.0637 1015.58C100.03 1017.19 114.917 1016.07 126.941 1012.96C173.73 1000.85 217.118 994.095 266.02 992.762C314.774 991.405 368.861 995.437 437.188 1004.81C450.211 1006.61 474.01 1006.53 499.471 1006.43C538.493 1006.3 581.328 1006.15 598.866 1012.81C603.498 1014.58 608.083 1014.57 612.138 1013.13C616.029 1011.74 619.507 1009.03 622.096 1005.26C624.841 1001.29 626.596 996.177 626.915 990.188C627.407 980.628 624.163 969.009 615.39 956.384C603.388 939.095 587.652 933.068 574.029 931.633C571.494 931.36 569.022 931.258 566.683 931.258C564.094 931.274 561.645 931.43 559.368 931.664C550.291 932.607 544.146 934.892 544.107 934.923C543.382 935.181 542.618 935.337 541.838 935.376C535.116 938.105 527.653 938.105 519.941 937.84C505.117 937.372 491.174 940.858 476.459 941.638C475.749 941.684 475.656 940.639 476.295 940.452C495.674 934.682 514.592 930.377 534.274 927.359C534.305 927.079 534.352 926.79 534.399 926.509C537.799 910.539 534.508 905.018 528.706 903.778C522.912 902.553 514.428 903.848 506.302 905.08C491.4 907.357 477.426 909.486 470.876 898.467C466.774 891.55 460.956 888.33 454.554 887.293C447.52 886.146 439.551 887.394 432.018 889.406L431.433 889.578C431.386 889.593 431.332 889.601 431.3 889.617C432.657 891.387 434.061 893.079 435.605 894.631C444.503 903.575 461.19 918.524 474.743 918.282C475.11 918.275 475.102 918.82 474.743 918.852C459.849 920.13 448.682 914.266 436.408 905.946C427.83 900.128 417.934 890.864 412.117 881.444C411.852 881.101 411.571 880.703 411.298 880.306ZM466.353 942.784C449.657 948.492 430.068 943.961 413.061 941.521C411.524 941.302 411.899 938.713 413.419 938.815C430.965 939.899 448.667 939.735 466.119 941.029C467.109 941.107 467.312 942.441 466.353 942.784ZM605.603 983.123C597.875 980.23 597.322 970.592 591.27 965.492C586.833 961.757 581.281 959.222 575.323 957.413C572.906 956.688 570.41 956.064 567.907 955.549C565.443 955.027 562.955 954.59 560.515 954.216C557.45 953.748 554.44 953.366 551.601 953.007C550.705 952.89 550.642 951.502 551.601 951.549C554.526 951.713 557.465 951.884 560.421 952.126C562.87 952.313 565.349 952.563 567.782 952.875C570.262 953.21 572.742 953.623 575.167 954.169C581 955.448 586.63 957.436 591.832 960.657C597.813 964.369 606.157 974.475 607.49 981.236C607.709 982.266 606.796 983.568 605.603 983.123ZM146.951 954.668C145.625 955.526 144.269 956.353 142.896 957.132C140.51 958.497 138.061 959.752 135.574 960.93C133.164 962.045 130.723 963.098 128.259 964.073C124.212 965.671 120.079 967.067 115.93 968.307C106.432 971.146 95.437 975.091 85.6426 972.128C84.3091 971.715 83.7243 969.524 85.2215 968.868C95.3902 964.408 107.329 964.104 118.059 960.665C121.514 959.55 124.89 958.396 128.267 957.327C130.7 956.54 133.133 955.815 135.581 955.199C137.991 954.59 140.416 954.052 142.896 953.693C144.105 953.506 145.337 953.358 146.561 953.241C147.372 953.171 147.559 954.286 146.951 954.668Z" fill="#716F6C"/>
<path fill-rule="evenodd" clip-rule="evenodd" d="M570.549 544.131C565.418 527.092 560.552 511.605 556.676 494.098C543.606 439.527 533.984 451.996 534.997 383.997C535.699 378.211 547.209 336.312 552.98 333.481C556.317 336.241 545.915 373.664 545.704 383.997C548.27 450.593 559.249 436.743 573.699 490.168C577.918 506.996 583.213 522.39 588.196 538.859C590.145 546.08 606.833 606.601 589.498 602.507C577.778 605.361 576.187 564.187 570.549 544.131Z" fill="#716F6C"/>
<path fill-rule="evenodd" clip-rule="evenodd" d="M197.307 233.404C201.76 235.252 205.534 235.845 210.345 236.095C225.801 236.64 240.571 232.523 255.153 227.805C259.278 226.487 262.507 226.363 266.718 227.314C270.547 228.32 273.229 229.755 276.426 232.039C282.688 236.89 286.868 242.2 291.36 248.642C296.35 256.182 308.258 275.857 311.058 284.606C311.151 284.77 311.26 285.02 311.268 285.199C311.292 285.644 311.362 286.798 310.863 287.016C310.395 287.227 309.475 286.439 309.233 286.127C309.21 286.111 309.155 286.283 309.155 286.283C302.324 282.688 287.734 262.538 282.057 255.894C278.002 251.34 273.845 246.957 268.589 243.768C266.975 242.84 265.517 242.146 263.653 241.857C262.772 241.553 261.36 242.037 260.542 242.341C243.862 248.829 227.883 254.155 209.839 254.28C202.493 254.046 196.855 253.141 190.039 250.326C186.67 248.852 184.074 247.355 181.118 245.179C175.987 241.21 173.375 237.927 168.977 233.755C168.423 233.287 167.838 232.827 167.292 232.359C160.835 228.936 163.557 234.628 160.898 226.316C158.161 221.52 154.628 218.346 168.68 216.498C172.774 216.623 175.66 217.73 179.098 219.898C180.526 220.311 189.587 228.78 191.887 230.402C193.58 231.572 195.428 232.601 197.307 233.404Z" fill="#716F6C"/>
<path fill-rule="evenodd" clip-rule="evenodd" d="M247.575 767.059C246.531 733.348 245.259 471.255 256.442 456.984C263.094 465.57 264.762 733.083 265.979 766.295C266.837 784.332 275.407 817.326 262.517 820.149C244.254 827.206 247.997 774.764 247.575 767.059Z" fill="#716F6C"/>
<path fill-rule="evenodd" clip-rule="evenodd" d="M392.891 745.152C389.896 675.624 391.105 512.02 407.364 446.345C407.38 446.166 407.567 445.721 407.707 445.557C407.965 445.23 409.743 443.007 410.273 443.288C410.787 443.569 409.899 446.306 409.75 446.673C409.727 446.727 409.891 446.571 409.891 446.571C416.316 533.73 406.631 647.38 411.287 744.138C412.285 759.961 423.093 813.105 410.148 813.455C392.47 820.185 393.429 752.841 392.891 745.152Z" fill="#716F6C"/>
<path fill-rule="evenodd" clip-rule="evenodd" d="M506.43 787.708C506.539 767.48 511.054 530.044 517.605 530.044C524.638 530.044 524.943 767.573 524.849 787.809C524.779 796.27 530.58 864.722 516.053 861.392C499.903 865.057 506.43 796.497 506.43 787.708Z" fill="#716F6C"/>
</g>
<defs>
<filter id="filter0_f_862_27564" x="5.34058e-05" y="5.34058e-05" width="672.798" height="1062.16" filterUnits="userSpaceOnUse" color-interpolation-filters="sRGB">
<feFlood flood-opacity="0" result="BackgroundImageFix"/>
<feBlend mode="normal" in="SourceGraphic" in2="BackgroundImageFix" result="shape"/>
<feGaussianBlur stdDeviation="15.5962" result="effect1_foregroundBlur_862_27564"/>
</filter>
</defs>
</svg>
