<svg width="412" height="78" viewBox="0 0 412 78" fill="none" xmlns="http://www.w3.org/2000/svg">
<path d="M64.9281 11.0108C50.0748 -3.67568 26.1803 -3.66948 11.3324 11.0247C11.2781 11.0785 11.2226 11.1305 11.1686 11.1847C-2.67218 25.0445 -3.64779 46.9047 8.23653 61.8963C8.23451 61.8095 8.23115 61.723 8.23163 61.6358C8.24233 59.2839 9.18054 57.0312 10.8425 55.367C12.5044 53.7028 14.7558 52.7615 17.1077 52.7476C17.4031 52.746 17.6961 52.7586 17.9868 52.7854C14.5228 47.9865 12.8789 42.1118 13.3491 36.212C13.8193 30.3122 16.373 24.772 20.5534 20.5824C20.6075 20.5281 20.6627 20.4759 20.7172 20.4224C25.3822 15.8335 31.6694 13.2707 38.213 13.2905C44.7567 13.3104 51.0282 15.9113 55.6653 20.5284L55.7192 20.5824C56.9702 21.8036 58.6523 22.4823 60.4005 22.4711C62.1487 22.46 63.822 21.76 65.0574 20.5229C66.2927 19.2859 66.9905 17.6116 66.9992 15.8634C67.0079 14.1152 66.3269 12.434 65.104 11.1847L65.05 11.1307C65.0091 11.0896 64.9691 11.0497 64.9281 11.0108Z" fill="#5E5C56"/>
<path d="M69.2812 15.8774C69.2705 18.2293 68.3323 20.482 66.6703 22.1462C65.0084 23.8104 62.757 24.7517 60.4051 24.7657C60.1097 24.7673 59.8167 24.7547 59.526 24.7279C62.99 29.5268 64.6339 35.4014 64.1637 41.3013C63.6935 47.2011 61.1399 52.7412 56.9595 56.9309C56.9054 56.9851 56.8501 57.0373 56.7956 57.0909C52.1306 61.6797 45.8434 64.2426 39.2998 64.2227C32.7562 64.2029 26.4846 61.6019 21.8475 56.9849L21.7936 56.9309C20.5426 55.7097 18.8605 55.031 17.1123 55.0421C15.3641 55.0533 13.6908 55.7533 12.4555 56.9904C11.2201 58.2274 10.5224 59.9017 10.5137 61.6499C10.5049 63.3981 11.1859 65.0793 12.4088 66.3286L12.4628 66.3826C12.5038 66.4236 12.5437 66.4636 12.5847 66.5025C27.4381 81.189 51.3325 81.1827 66.1804 66.4885C66.2346 66.4348 66.2901 66.3827 66.3442 66.3286C80.185 52.4688 81.1606 30.6085 69.2763 15.617C69.2783 15.7037 69.2817 15.7903 69.2812 15.8774Z" fill="#5E5C56"/>
<path d="M44.6368 23.9531C46.2178 24.566 47.6591 25.4913 48.8744 26.6738L45.7925 30.2879C43.8726 28.7181 41.818 27.9331 39.6287 27.9326C38.466 27.9326 37.5468 28.1695 36.8712 28.6432C36.1951 29.1173 35.8572 29.8009 35.8573 30.694C35.8329 31.237 35.9898 31.7727 36.3033 32.2167C36.6006 32.6095 37.1277 32.9817 37.8849 33.3335C38.9953 33.818 40.1326 34.2383 41.2912 34.5923C44.1564 35.5129 46.2651 36.6432 47.6172 37.983C48.9688 39.323 49.6446 41.2248 49.6448 43.6883C49.6448 45.4484 49.1987 46.9982 48.3066 48.3379C47.4145 49.6779 46.1303 50.7201 44.4542 51.4646C42.7777 52.2089 40.7907 52.5811 38.4933 52.5813C36.1951 52.5813 34.1608 52.2158 32.3903 51.4849C30.6994 50.8055 29.1518 49.8136 27.8282 48.5611L31.194 44.8658C32.189 45.7336 33.3191 46.4331 34.5395 46.9368C35.7338 47.4058 37.0074 47.6402 38.2905 47.6271C39.6693 47.6271 40.7574 47.3226 41.5549 46.7135C42.352 46.1043 42.7507 45.2584 42.7511 44.1755C42.773 43.5563 42.6183 42.9436 42.3051 42.409C42.0073 41.9358 41.4936 41.5094 40.7641 41.13C39.7449 40.6379 38.687 40.2304 37.6011 39.9117C34.4919 38.9644 32.2819 37.8004 30.9709 36.4195C29.6593 35.0389 29.0037 33.2928 29.0041 31.1811C28.9749 29.6521 29.429 28.1529 30.3018 26.8971C31.1667 25.6656 32.3697 24.7181 33.9109 24.0546C35.4519 23.3915 37.1956 23.0599 39.142 23.0597C41.2507 23.0597 43.0823 23.3575 44.6368 23.9531Z" fill="#5E5C56"/>
<path d="M104.323 35.2123C102.604 35.2462 100.897 34.9137 99.3159 34.2369C97.9357 33.6425 96.7496 32.6733 95.8922 31.4391C95.0272 30.1232 94.5782 28.5775 94.6037 27.0029H99.5737C99.5969 28.147 100.066 29.2367 100.881 30.0401C101.703 30.8627 102.838 31.2738 104.286 31.2733C105.355 31.3309 106.41 31.0118 107.268 30.3715C107.627 30.0835 107.914 29.7155 108.106 29.2968C108.298 28.8781 108.389 28.4204 108.372 27.9602C108.398 27.5029 108.324 27.0455 108.155 26.6196C107.987 26.1937 107.728 25.8095 107.396 25.4936C106.638 24.8436 105.755 24.3551 104.801 24.0579C103.721 23.6898 102.568 23.2972 101.341 22.8799C99.3526 22.1932 97.8371 21.3096 96.7942 20.2293C95.7507 19.1496 95.2292 17.7139 95.2297 15.9223C95.1676 14.5334 95.5478 13.1607 96.3155 12.0017C97.0882 10.8895 98.1516 10.0108 99.3895 9.4616C100.821 8.86317 102.358 8.55654 103.91 8.55968C105.462 8.56281 106.998 8.87565 108.427 9.47987C109.675 10.0392 110.745 10.9306 111.52 12.0569C112.289 13.2277 112.704 14.5953 112.716 15.996H107.673C107.648 15.0869 107.271 14.2227 106.623 13.5846C106.252 13.2241 105.81 12.9447 105.326 12.764C104.841 12.5834 104.324 12.5056 103.807 12.5355C102.881 12.4801 101.964 12.7467 101.212 13.2901C100.863 13.5592 100.585 13.9094 100.402 14.3104C100.219 14.7114 100.137 15.151 100.163 15.591C100.144 15.9696 100.207 16.3478 100.346 16.7002C100.486 17.0527 100.699 17.3711 100.972 17.6341C101.618 18.1992 102.368 18.6308 103.181 18.9042C104.114 19.2481 105.182 19.6162 106.384 20.0086C107.593 20.4207 108.763 20.9381 109.882 21.5548C110.906 22.1157 111.778 22.9182 112.422 23.8924C113.101 25.0167 113.434 26.3164 113.379 27.6289C113.386 28.9515 113.03 30.2506 112.348 31.384C111.613 32.5811 110.554 33.545 109.292 34.1634C107.744 34.9066 106.04 35.2663 104.323 35.2123Z" fill="#5E5C56"/>
<path d="M126.153 35.2122C124.484 35.2375 122.838 34.8182 121.385 33.9974C119.984 33.1982 118.827 32.034 118.035 30.6288C117.19 29.1044 116.765 27.3832 116.802 25.6408C116.765 23.8959 117.197 22.1731 118.054 20.6524C118.855 19.249 120.019 18.0859 121.422 17.284C122.878 16.487 124.511 16.0693 126.171 16.0693C127.831 16.0693 129.464 16.487 130.92 17.284C132.32 18.0836 133.478 19.2476 134.27 20.6524C135.115 22.177 135.54 23.8982 135.503 25.6408C135.54 27.3832 135.115 29.1044 134.27 30.6288C133.475 32.0373 132.31 33.202 130.902 33.9974C129.453 34.8137 127.815 35.2328 126.153 35.2122ZM126.153 31.126C126.753 31.1289 127.347 31.0078 127.898 30.7703C128.449 30.5327 128.945 30.1839 129.355 29.7456C130.263 28.8252 130.717 27.4569 130.717 25.6408C130.718 23.8247 130.264 22.4565 129.355 21.5361C128.945 21.1002 128.45 20.7528 127.901 20.5153C127.352 20.2779 126.76 20.1554 126.162 20.1554C125.563 20.1554 124.971 20.2779 124.422 20.5153C123.873 20.7528 123.378 21.1002 122.968 21.5361C122.072 22.4566 121.624 23.8249 121.624 25.6408C121.624 27.4573 122.072 28.8256 122.968 29.7456C123.374 30.1845 123.866 30.5341 124.415 30.7718C124.963 31.0094 125.555 31.1301 126.153 31.126Z" fill="#5E5C56"/>
<path d="M140.546 34.7702V20.4498H138.042V16.5108H140.546V14.3756C140.546 12.1668 141.104 10.5961 142.221 9.66347C143.337 8.73088 144.853 8.26455 146.767 8.26447H148.792V12.2771H147.504C146.694 12.2771 146.117 12.4367 145.773 12.7557C145.43 13.0748 145.258 13.6148 145.258 14.3756V16.5108H149.197V20.4497H145.258V34.7702H140.546Z" fill="#5E5C56"/>
<path d="M161.05 34.77C159.136 34.77 157.602 34.3038 156.449 33.3712C155.295 32.4386 154.718 30.782 154.719 28.4013V20.4496H151.589V16.5106H154.719L155.271 11.6142H159.431V16.5106H164.364V20.4495H159.431V28.4382C159.431 29.3217 159.621 29.9291 160.001 30.2603C160.382 30.5915 161.038 30.7572 161.971 30.7574H164.253V34.77H161.05Z" fill="#5E5C56"/>
<path d="M171.985 34.7704L166.648 16.511H171.323L174.489 29.6533L178.17 16.511H183.398L187.079 29.6533L190.282 16.511H194.957L189.582 34.7704H184.686L180.784 21.1126L176.882 34.7704H171.985Z" fill="#5E5C56"/>
<path d="M203.31 35.2121C201.981 35.2615 200.658 35.0032 199.445 34.4575C198.515 34.0241 197.734 33.3263 197.199 32.4513C196.707 31.6149 196.453 30.6604 196.463 29.6903C196.444 28.8947 196.614 28.106 196.96 27.3891C197.306 26.6723 197.817 26.0478 198.451 25.5671C199.776 24.5122 201.764 23.9846 204.415 23.9842H209.053V23.5423C209.053 22.2905 208.697 21.3701 207.986 20.7813C207.236 20.1793 206.296 19.8658 205.335 19.8977C204.452 19.8773 203.582 20.1138 202.832 20.5786C202.481 20.8003 202.182 21.0938 201.954 21.4396C201.725 21.7855 201.573 22.1759 201.506 22.5851H196.905C197.002 21.3244 197.469 20.1205 198.249 19.1245C199.041 18.1284 200.073 17.3495 201.248 16.8606C202.554 16.3177 203.958 16.0484 205.372 16.0693C207.973 16.0693 210.022 16.7196 211.519 18.0201C213.016 19.3213 213.765 21.1621 213.765 23.5423V34.7703H209.753L209.311 31.8253C208.768 32.8097 207.99 33.6444 207.047 34.2549C205.923 34.9346 204.623 35.2676 203.31 35.2121ZM204.378 31.5307C204.969 31.563 205.559 31.4604 206.104 31.2308C206.65 31.0012 207.136 30.6505 207.525 30.2054C208.297 29.2687 208.788 28.1329 208.942 26.9291H204.93C203.678 26.9291 202.782 27.1561 202.242 27.6102C201.988 27.8088 201.783 28.0631 201.643 28.3535C201.502 28.6439 201.43 28.9626 201.433 29.2852C201.418 29.607 201.485 29.9272 201.627 30.2166C201.768 30.5059 201.98 30.7553 202.242 30.9417C202.873 31.3609 203.621 31.5673 204.378 31.5307Z" fill="#5E5C56"/>
<path d="M218.258 34.7704V16.5109H222.455L222.897 19.9344C223.539 18.7772 224.472 17.8068 225.602 17.1183C226.821 16.3981 228.218 16.0346 229.633 16.0694V21.0387H228.308C227.366 21.0232 226.429 21.1856 225.547 21.5174C224.742 21.8325 224.071 22.4182 223.651 23.1739C223.197 23.9597 222.97 25.0518 222.97 26.4504V34.7704H218.258Z" fill="#5E5C56"/>
<path d="M241.377 35.2124C239.671 35.2452 237.985 34.8395 236.481 34.0342C235.075 33.2666 233.914 32.1184 233.131 30.7211C232.299 29.2121 231.88 27.5105 231.916 25.7879C231.884 24.0328 232.295 22.298 233.113 20.7445C233.873 19.3099 235.021 18.1175 236.426 17.3024C237.948 16.4522 239.671 16.0264 241.414 16.0696C243.073 16.0364 244.711 16.4428 246.163 17.2475C247.511 18.0066 248.625 19.1207 249.384 20.4687C250.164 21.8558 250.564 23.424 250.544 25.0151C250.544 25.2853 250.538 25.5676 250.525 25.8618C250.513 26.1562 250.494 26.4635 250.47 26.782H236.591C236.606 27.4113 236.745 28.0315 237.001 28.6066C237.256 29.1818 237.624 29.7003 238.082 30.1321C238.972 30.94 240.139 31.3749 241.34 31.3469C242.19 31.3763 243.03 31.152 243.752 30.7026C244.385 30.2928 244.889 29.7121 245.206 29.0277H249.991C249.646 30.1845 249.063 31.2565 248.279 32.1752C247.474 33.126 246.469 33.8866 245.334 34.4025C244.09 34.9586 242.74 35.2351 241.377 35.2124ZM241.414 19.898C240.316 19.8802 239.243 20.2228 238.359 20.8734C237.428 21.6019 236.821 22.6657 236.665 23.8368H245.758C245.745 23.293 245.621 22.7575 245.393 22.2636C245.165 21.7697 244.838 21.3278 244.432 20.9655C243.596 20.244 242.518 19.863 241.414 19.898Z" fill="#5E5C56"/>
<path d="M272.188 35.2123C270.469 35.2462 268.762 34.9136 267.181 34.2369C265.801 33.6425 264.615 32.6733 263.757 31.4391C262.892 30.1232 262.443 28.5775 262.469 27.0029H267.439C267.462 28.147 267.931 29.2367 268.746 30.0401C269.568 30.8627 270.703 31.2738 272.151 31.2733C273.22 31.3309 274.275 31.0118 275.133 30.3715C275.492 30.0835 275.779 29.7154 275.971 29.2968C276.163 28.8781 276.254 28.4204 276.237 27.9602C276.263 27.5029 276.189 27.0455 276.021 26.6196C275.852 26.1937 275.593 25.8095 275.261 25.4936C274.503 24.8436 273.62 24.3551 272.666 24.0579C271.586 23.6898 270.433 23.2972 269.206 22.8799C267.218 22.1932 265.702 21.3096 264.659 20.2293C263.616 19.1496 263.094 17.7139 263.095 15.9223C263.033 14.5334 263.413 13.1607 264.181 12.0017C264.953 10.8895 266.017 10.0108 267.255 9.4616C268.687 8.86317 270.223 8.55654 271.775 8.55968C273.327 8.56281 274.863 8.87565 276.292 9.47987C277.54 10.0392 278.61 10.9307 279.385 12.0569C280.154 13.2277 280.569 14.5953 280.581 15.996H275.538C275.513 15.0869 275.137 14.2227 274.488 13.5846C274.117 13.2241 273.676 12.9447 273.191 12.764C272.706 12.5834 272.189 12.5056 271.672 12.5355C270.746 12.4801 269.829 12.7467 269.077 13.2901C268.728 13.5591 268.45 13.9094 268.267 14.3104C268.084 14.7114 268.002 15.151 268.028 15.591C268.009 15.9696 268.072 16.3478 268.211 16.7002C268.351 17.0527 268.564 17.3711 268.837 17.6341C269.483 18.1992 270.233 18.6308 271.046 18.9042C271.979 19.2481 273.047 19.6162 274.249 20.0086C275.458 20.4207 276.628 20.9381 277.747 21.5548C278.771 22.1157 279.643 22.9182 280.287 23.8924C280.966 25.0167 281.299 26.3164 281.244 27.6289C281.251 28.9515 280.895 30.2506 280.213 31.384C279.478 32.5811 278.419 33.545 277.158 34.1634C275.609 34.9066 273.905 35.2663 272.188 35.2123Z" fill="#5E5C56"/>
<path d="M287.543 42.8694L291.777 33.5556H290.672L283.567 16.511H288.684L293.801 29.3588L299.139 16.511H304.146L292.55 42.8694L287.543 42.8694Z" fill="#5E5C56"/>
<path d="M314.266 35.4609C312.804 35.4907 311.35 35.2214 309.996 34.6694C308.845 34.1994 307.832 33.4459 307.051 32.479C306.313 31.545 305.854 30.4223 305.725 29.2394H310.474C310.635 29.9733 311.061 30.6222 311.671 31.0617C312.402 31.5904 313.291 31.8563 314.192 31.8164C315.223 31.8164 315.978 31.6078 316.456 31.1905C316.675 31.0197 316.853 30.8022 316.978 30.5538C317.102 30.3054 317.169 30.0325 317.174 29.7549C317.2 29.4121 317.113 29.0705 316.927 28.7815C316.741 28.4926 316.466 28.272 316.143 28.1533C315.21 27.7991 314.25 27.5221 313.272 27.325C312.486 27.1535 311.689 26.9449 310.879 26.6991C310.104 26.4691 309.357 26.1542 308.652 25.7604C308 25.4015 307.44 24.8977 307.014 24.2878C306.579 23.6284 306.36 22.8501 306.388 22.0607C306.38 21.2778 306.55 20.5032 306.884 19.7954C307.219 19.0877 307.71 18.465 308.32 17.9745C309.609 16.87 311.419 16.3178 313.75 16.3179C315.91 16.3179 317.634 16.821 318.923 17.8272C319.564 18.332 320.098 18.9601 320.494 19.6745C320.889 20.3889 321.137 21.1752 321.223 21.987H316.769C316.499 20.6376 315.48 19.9627 313.714 19.9624C312.996 19.918 312.282 20.0981 311.671 20.4776C311.453 20.615 311.273 20.805 311.147 21.0302C311.022 21.2553 310.955 21.5084 310.953 21.7661C310.953 22.3063 311.309 22.7358 312.02 23.0546C312.935 23.4383 313.884 23.7342 314.855 23.9382C316.131 24.2328 317.303 24.5579 318.371 24.9136C319.346 25.2118 320.227 25.7571 320.929 26.4966C321.567 27.1961 321.886 28.1963 321.886 29.4969C321.923 30.5833 321.614 31.6533 321.003 32.5525C320.34 33.5011 319.42 34.2416 318.352 34.6877C317.06 35.2303 315.667 35.4937 314.266 35.4609Z" fill="#5E5C56"/>
<path d="M333.227 34.77C331.312 34.77 329.779 34.3038 328.625 33.3712C327.471 32.4386 326.895 30.782 326.895 28.4013V20.4496H323.765V16.5106H326.895L327.447 11.6142H331.607V16.5106H336.54V20.4495H331.607V28.4382C331.607 29.3217 331.797 29.9291 332.178 30.2603C332.558 30.5915 333.215 30.7572 334.147 30.7574H336.43V34.77H333.227Z" fill="#5E5C56"/>
<path d="M348.981 35.2124C347.275 35.2452 345.589 34.8395 344.085 34.0342C342.679 33.2667 341.518 32.1184 340.735 30.7211C339.903 29.2121 339.484 27.5105 339.52 25.7879C339.487 24.0328 339.899 22.298 340.716 20.7445C341.477 19.3099 342.625 18.1175 344.029 17.3024C345.552 16.4521 347.275 16.0263 349.018 16.0696C350.677 16.0364 352.315 16.4428 353.766 17.2475C355.115 18.0066 356.229 19.1207 356.988 20.4687C357.767 21.8559 358.167 23.4241 358.147 25.0152C358.147 25.2855 358.141 25.5677 358.129 25.8619C358.116 26.1563 358.098 26.4636 358.074 26.7821H344.195C344.209 27.4114 344.348 28.0317 344.604 28.6068C344.86 29.1819 345.228 29.7005 345.686 30.1323C346.576 30.9401 347.743 31.3749 348.944 31.3469C349.794 31.3763 350.633 31.152 351.355 30.7026C351.989 30.2929 352.493 29.7121 352.81 29.0277H357.595C357.25 30.1845 356.667 31.2565 355.883 32.1752C355.078 33.126 354.072 33.8866 352.938 34.4025C351.694 34.9586 350.343 35.2351 348.981 35.2124ZM349.018 19.898C347.92 19.8802 346.847 20.2229 345.962 20.8734C345.032 21.6019 344.424 22.6657 344.269 23.8368H353.362C353.349 23.293 353.225 22.7575 352.997 22.2636C352.769 21.7697 352.442 21.3278 352.036 20.9655C351.199 20.244 350.122 19.863 349.018 19.898Z" fill="#5E5C56"/>
<path d="M362.125 34.7703V16.5108H366.285L366.69 18.9772C367.283 18.0899 368.086 17.3628 369.028 16.8604C370.066 16.3164 371.225 16.0442 372.396 16.0692C375.218 16.0692 377.218 17.1613 378.397 19.3455C379.067 18.3325 379.986 17.5086 381.066 16.9526C382.195 16.3605 383.454 16.0571 384.729 16.0692C387.109 16.0692 388.938 16.781 390.214 18.2044C391.49 19.628 392.128 21.7141 392.128 24.4626V34.7705H387.416V24.9041C387.416 23.3337 387.116 22.1312 386.514 21.2964C385.913 20.4624 384.986 20.0452 383.735 20.0447C383.149 20.0247 382.567 20.1405 382.034 20.3832C381.501 20.6259 381.031 20.9888 380.661 21.4435C379.888 22.3767 379.502 23.6775 379.502 25.3458V34.7703H374.789V24.9041C374.789 23.3337 374.483 22.1312 373.869 21.2964C373.255 20.4624 372.31 20.0452 371.034 20.0447C370.455 20.0274 369.879 20.1447 369.352 20.3874C368.825 20.6301 368.361 20.9916 367.997 21.4435C367.224 22.3767 366.837 23.6775 366.837 25.3458V34.7703H362.125Z" fill="#5E5C56"/>
<path d="M404.166 35.2122C402.703 35.242 401.25 34.9727 399.895 34.4208C398.745 33.9507 397.731 33.1972 396.95 32.2303C396.213 31.2964 395.754 30.1736 395.625 28.9907H400.374C400.535 29.7247 400.961 30.3735 401.57 30.8131C402.302 31.3417 403.19 31.6076 404.092 31.5677C405.122 31.5677 405.877 31.3591 406.356 30.9419C406.575 30.7711 406.753 30.5535 406.877 30.3052C407.001 30.0568 407.068 29.7838 407.074 29.5062C407.099 29.1635 407.012 28.8218 406.826 28.5329C406.64 28.2439 406.365 28.0234 406.043 27.9046C405.11 27.5505 404.15 27.2734 403.171 27.0763C402.386 26.9048 401.588 26.6962 400.779 26.4505C400.004 26.2204 399.257 25.9056 398.551 25.5117C397.9 25.1528 397.339 24.649 396.913 24.0391C396.479 23.3797 396.26 22.6014 396.287 21.8121C396.279 21.0291 396.449 20.2546 396.784 19.5468C397.119 18.839 397.61 18.2164 398.22 17.7258C399.508 16.6213 401.318 16.0692 403.65 16.0693C405.809 16.0693 407.533 16.5723 408.822 17.5785C409.464 18.0833 409.998 18.7114 410.393 19.4258C410.788 20.1403 411.036 20.9265 411.123 21.7384H406.669C406.398 20.3889 405.38 19.714 403.613 19.7137C402.895 19.6694 402.181 19.8494 401.57 20.229C401.352 20.3664 401.172 20.5564 401.047 20.7815C400.921 21.0067 400.854 21.2597 400.852 21.5175C400.852 22.0576 401.208 22.4871 401.92 22.806C402.835 23.1896 403.784 23.4855 404.754 23.6895C406.03 23.9841 407.202 24.3092 408.27 24.6649C409.245 24.9631 410.127 25.5084 410.829 26.2479C411.466 26.9475 411.786 27.9476 411.786 29.2483C411.822 30.3347 411.513 31.4046 410.902 32.3039C410.239 33.2524 409.32 33.9929 408.252 34.439C406.959 34.9816 405.567 35.2451 404.166 35.2122Z" fill="#5E5C56"/>
<path d="M100.236 71.1027C99.1127 71.1291 97.9988 70.8964 96.9803 70.4226C96.1011 70.0085 95.3591 69.3508 94.8424 68.5277C94.3295 67.6785 94.0684 66.7012 94.0894 65.7094H96.2273C96.2214 66.3503 96.3802 66.982 96.6887 67.5438C97.002 68.1084 97.4698 68.5718 98.0372 68.8799C98.7149 69.2326 99.4723 69.4041 100.236 69.378C101.198 69.4389 102.148 69.1451 102.908 68.552C103.21 68.3007 103.453 67.9846 103.616 67.6272C103.78 67.2698 103.862 66.8802 103.855 66.487C103.884 65.9083 103.731 65.3351 103.418 64.8471C103.112 64.4215 102.708 64.0758 102.24 63.8389C101.695 63.5597 101.126 63.3319 100.539 63.1586C99.8993 62.9644 99.2313 62.7458 98.5348 62.5028C97.4426 62.18 96.4431 61.6011 95.6196 60.8143C94.9699 60.0942 94.6296 59.1473 94.6723 58.1784C94.6412 57.3281 94.861 56.4874 95.3042 55.7611C95.7543 55.0452 96.3989 54.4723 97.1627 54.1093C98.0554 53.6928 99.0325 53.4891 100.017 53.514C100.995 53.4906 101.965 53.6987 102.847 54.1214C103.615 54.4955 104.262 55.0759 104.718 55.7976C105.168 56.528 105.408 57.3688 105.411 58.227H103.272C103.268 57.7385 103.142 57.2587 102.908 56.8301C102.653 56.3567 102.27 55.965 101.802 55.7003C101.233 55.3904 100.591 55.2394 99.944 55.2631C99.1263 55.2135 98.3186 55.4641 97.6724 55.9677C97.3785 56.2121 97.1455 56.5215 96.9916 56.8715C96.8377 57.2214 96.7672 57.6023 96.7857 57.9841C96.7654 58.2914 96.8101 58.5995 96.9169 58.8883C97.0237 59.1771 97.1901 59.4402 97.4054 59.6603C97.9092 60.1006 98.5015 60.4278 99.1424 60.6201C99.8871 60.8714 100.745 61.1588 101.717 61.4824C102.478 61.7507 103.21 62.0925 103.904 62.5028C104.529 62.8688 105.051 63.387 105.422 64.009C105.813 64.7312 106.002 65.5452 105.969 66.3655C105.969 67.1737 105.751 67.9669 105.337 68.6612C104.88 69.4161 104.219 70.0266 103.43 70.4226C102.437 70.9077 101.34 71.1413 100.236 71.1027Z" fill="#5E5C56"/>
<path d="M113.5 70.812C112.565 70.8657 111.642 70.5812 110.9 70.0104C110.269 69.4759 109.953 68.5122 109.953 67.1193V60.4872H107.863V58.7622H109.953L110.22 55.8713H111.993V58.7622H115.54V60.4872H111.993V67.1194C111.993 67.881 112.147 68.3953 112.455 68.6621C112.762 68.9294 113.305 69.0631 114.083 69.0631H115.346V70.8122L113.5 70.812Z" fill="#5E5C56"/>
<path d="M122.536 71.1035C121.91 71.1343 121.284 71.0347 120.699 70.811C120.113 70.5873 119.581 70.2443 119.135 69.8038C118.292 68.9375 117.871 67.6054 117.872 65.8075V58.7622H119.913V65.589C119.913 68.0995 120.941 69.3546 122.998 69.3545C123.489 69.367 123.977 69.2724 124.428 69.0773C124.879 68.8822 125.282 68.5913 125.609 68.2247C126.297 67.4717 126.641 66.3988 126.642 65.0059V58.7622H128.683V70.8121H126.836L126.69 68.6498C126.327 69.4014 125.747 70.0274 125.026 70.4477C124.271 70.8896 123.41 71.1164 122.536 71.1035Z" fill="#5E5C56"/>
<path d="M137.503 71.1034C136.397 71.1282 135.307 70.842 134.357 70.2775C133.464 69.7334 132.74 68.951 132.267 68.0183C131.761 67.009 131.506 65.892 131.526 64.7629C131.506 63.6362 131.764 62.5219 132.279 61.5196C132.758 60.5972 133.481 59.824 134.369 59.2845C135.325 58.7246 136.419 58.4427 137.527 58.4707C138.438 58.4528 139.34 58.6615 140.151 59.0781C140.892 59.464 141.507 60.0541 141.924 60.7785V53.3205H143.965V70.8122H142.118L141.924 68.8201C141.48 69.4562 140.909 69.9938 140.248 70.3992C139.42 70.8952 138.467 71.1398 137.503 71.1034ZM137.721 69.33C138.477 69.3445 139.222 69.1468 139.871 68.7591C140.497 68.3761 141.002 67.8246 141.329 67.1678C141.673 66.4213 141.851 65.609 141.851 64.7871C141.851 63.9651 141.673 63.1528 141.329 62.4063C141.002 61.7496 140.497 61.1982 139.871 60.815C139.222 60.4276 138.477 60.2299 137.721 60.2441C136.973 60.2319 136.237 60.4297 135.596 60.815C134.97 61.1979 134.465 61.7494 134.138 62.4063C133.794 63.1528 133.616 63.9651 133.616 64.7871C133.616 65.609 133.794 66.4213 134.138 67.1678C134.465 67.8248 134.97 68.3764 135.596 68.7591C136.237 69.1447 136.973 69.3425 137.721 69.33Z" fill="#5E5C56"/>
<path d="M152.708 71.1033C151.635 71.1232 150.577 70.8503 149.647 70.3138C148.757 69.7887 148.03 69.0278 147.546 68.1151C147.015 67.0878 146.752 65.943 146.781 64.7869C146.754 63.6364 147.013 62.4972 147.534 61.4708C148.011 60.5497 148.739 59.783 149.635 59.26C150.586 58.7204 151.664 58.4476 152.757 58.4705C153.819 58.4431 154.868 58.7168 155.782 59.26C156.609 59.7627 157.285 60.4806 157.737 61.3372C158.189 62.1901 158.423 63.1416 158.417 64.1068C158.417 64.2852 158.413 64.4633 158.405 64.6411C158.397 64.8197 158.393 65.0221 158.393 65.2485H148.797C148.812 66.0562 149.034 66.8466 149.441 67.5445C149.78 68.1072 150.259 68.5722 150.832 68.8937C151.405 69.2153 152.051 69.3824 152.708 69.3787C153.456 69.4053 154.194 69.2018 154.822 68.7956C155.387 68.4088 155.82 67.8575 156.061 67.2164H158.077C157.759 68.3789 157.053 69.3978 156.077 70.1047C155.1 70.8115 153.912 71.1637 152.708 71.1033ZM152.708 60.1953C151.769 60.1842 150.855 60.4975 150.121 61.0824C149.736 61.399 149.421 61.7928 149.197 62.2384C148.973 62.684 148.845 63.1715 148.821 63.6695H156.401C156.402 63.19 156.303 62.7155 156.111 62.2763C155.919 61.8371 155.637 61.4429 155.283 61.1188C154.572 60.4976 153.652 60.1678 152.708 60.1953Z" fill="#5E5C56"/>
<path d="M161.112 70.8118V58.762H162.959L163.08 60.9243C163.456 60.1772 164.038 59.5534 164.757 59.1266C165.506 58.6835 166.364 58.4565 167.235 58.4706C167.862 58.4407 168.49 58.5407 169.077 58.7643C169.664 58.988 170.199 59.3304 170.648 59.7702C171.498 60.6369 171.923 61.9691 171.923 63.7666V70.8119H169.883V63.9853C169.883 61.475 168.846 60.2198 166.773 60.2196C166.286 60.2088 165.802 60.3043 165.355 60.4994C164.908 60.6945 164.509 60.9845 164.186 61.3493C163.497 62.1026 163.153 63.1756 163.153 64.5684V70.8118H161.112Z" fill="#5E5C56"/>
<path d="M179.773 70.812C178.839 70.8657 177.916 70.5812 177.174 70.0104C176.542 69.4759 176.226 68.5122 176.226 67.1193V60.4872H174.137V58.7622H176.226L176.494 55.8713H178.267V58.7622H181.814V60.4872H178.267V67.1194C178.267 67.881 178.421 68.3953 178.729 68.6621C179.036 68.9294 179.578 69.0631 180.356 69.0631H181.62V70.8122L179.773 70.812Z" fill="#5E5C56"/>
<path d="M196.39 71.1037C195.267 71.1302 194.153 70.8975 193.134 70.4236C192.255 70.0096 191.513 69.3519 190.996 68.5287C190.483 67.6796 190.222 66.7023 190.243 65.7105H192.381C192.375 66.3514 192.534 66.9831 192.842 67.5449C193.156 68.1094 193.623 68.5729 194.191 68.881C194.869 69.2336 195.626 69.4052 196.389 69.379C197.351 69.44 198.302 69.1461 199.062 68.5531C199.364 68.3017 199.606 67.9857 199.77 67.6283C199.934 67.2709 200.016 66.8812 200.009 66.4881C200.037 65.9093 199.884 65.3362 199.572 64.8482C199.266 64.4226 198.861 64.0768 198.394 63.84C197.849 63.5607 197.28 63.333 196.693 63.1597C196.053 62.9654 195.385 62.7468 194.688 62.5039C193.596 62.181 192.597 61.6022 191.773 60.8154C191.124 60.0952 190.783 59.1484 190.826 58.1794C190.795 57.3291 191.015 56.4885 191.458 55.7622C191.908 55.0463 192.553 54.4734 193.316 54.1103C194.209 53.6939 195.186 53.4901 196.171 53.5151C197.149 53.4916 198.119 53.6998 199.001 54.1225C199.768 54.4966 200.416 55.077 200.872 55.7986C201.322 56.5291 201.562 57.3699 201.564 58.228H199.426C199.421 57.7395 199.296 57.2597 199.062 56.8312C198.807 56.3578 198.424 55.9661 197.956 55.7014C197.387 55.3915 196.745 55.2405 196.098 55.2642C195.28 55.2146 194.472 55.4651 193.826 55.9687C193.532 56.2132 193.299 56.5226 193.145 56.8725C192.992 57.2225 192.921 57.6034 192.94 57.9852C192.919 58.2924 192.964 58.6005 193.071 58.8893C193.178 59.1782 193.344 59.4412 193.559 59.6614C194.063 60.1016 194.655 60.4289 195.296 60.6211C196.041 60.8724 196.899 61.1599 197.871 61.4835C198.631 61.7518 199.364 62.0935 200.058 62.5039C200.683 62.8699 201.205 63.388 201.576 64.0101C201.967 64.7322 202.155 65.5462 202.123 66.3666C202.123 67.1748 201.905 67.968 201.491 68.6623C201.034 69.4172 200.373 70.0277 199.584 70.4237C198.591 70.9088 197.494 71.1423 196.39 71.1037Z" fill="#5E5C56"/>
<path d="M210.381 71.1037C209.31 71.1198 208.254 70.8515 207.32 70.3264C206.412 69.8081 205.668 69.0465 205.17 68.1276C204.624 67.1005 204.352 65.9501 204.38 64.7873C204.352 63.623 204.629 62.4716 205.182 61.4469C205.689 60.5269 206.442 59.7657 207.356 59.2482C208.295 58.724 209.355 58.4559 210.43 58.4709C211.501 58.4551 212.557 58.7233 213.491 59.2482C214.398 59.767 215.142 60.5284 215.64 61.4469C216.186 62.474 216.458 63.6245 216.43 64.7873C216.459 65.9516 216.182 67.1031 215.628 68.1276C215.121 69.0476 214.368 69.8088 213.454 70.3264C212.516 70.8505 211.456 71.1186 210.381 71.1037ZM210.381 69.3546C211.062 69.3585 211.733 69.1825 212.325 68.8444C212.945 68.482 213.45 67.9514 213.782 67.3139C214.178 66.5322 214.37 65.6631 214.341 64.7873C214.37 63.9129 214.182 63.0448 213.794 62.2607C213.469 61.6223 212.968 61.0909 212.349 60.7301C211.765 60.3942 211.103 60.2183 210.43 60.22C209.748 60.216 209.078 60.392 208.486 60.7301C207.865 61.0925 207.36 61.6231 207.028 62.2607C206.66 63.0522 206.47 63.9145 206.47 64.7873C206.47 65.6601 206.66 66.5224 207.028 67.3139C207.358 67.9491 207.859 68.4793 208.474 68.8444C209.053 69.1813 209.711 69.3575 210.381 69.3546Z" fill="#5E5C56"/>
<path d="M224.81 71.1038C223.726 71.1206 222.657 70.8481 221.713 70.3143C220.801 69.792 220.052 69.0266 219.55 68.1035C219.031 67.0752 218.761 65.9393 218.761 64.7874C218.761 63.6355 219.031 62.4997 219.55 61.4714C220.053 60.5485 220.801 59.7831 221.713 59.2605C222.657 58.7268 223.726 58.4543 224.81 58.471C226.104 58.4298 227.374 58.8232 228.418 59.5886C229.388 60.3182 230.051 61.3839 230.276 62.5768H228.187C228.116 62.2218 227.974 61.8849 227.77 61.5864C227.565 61.2878 227.302 61.0338 226.997 60.8397C226.337 60.4188 225.568 60.2032 224.786 60.2201C224.09 60.2157 223.406 60.404 222.81 60.7641C222.214 61.1243 221.729 61.6423 221.409 62.2608C221.041 63.0523 220.85 63.9146 220.85 64.7874C220.85 65.6602 221.041 66.5225 221.409 67.314C221.743 67.9534 222.247 68.4875 222.867 68.8567C223.448 69.2002 224.111 69.3806 224.786 69.379C225.568 69.396 226.337 69.1804 226.997 68.7595C227.305 68.5623 227.569 68.3044 227.773 68.0016C227.978 67.6987 228.119 67.3573 228.187 66.9983H230.276C230.052 68.1821 229.394 69.2394 228.43 69.9621C227.387 70.7412 226.111 71.1436 224.81 71.1038Z" fill="#5E5C56"/>
<path d="M234.359 56.09C234.173 56.0954 233.987 56.0625 233.814 55.9936C233.641 55.9247 233.483 55.8211 233.351 55.6892C233.219 55.5573 233.116 55.3999 233.047 55.2265C232.978 55.0532 232.945 54.8676 232.95 54.6811C232.946 54.5001 232.979 54.3201 233.048 54.1527C233.117 53.9853 233.22 53.8342 233.351 53.7092C233.625 53.4591 233.982 53.3205 234.353 53.3205C234.724 53.3205 235.082 53.4591 235.355 53.7092C235.489 53.8325 235.596 53.9829 235.667 54.1506C235.738 54.3182 235.773 54.499 235.769 54.6811C235.774 54.8687 235.74 55.0552 235.668 55.2289C235.597 55.4025 235.491 55.5593 235.355 55.6893C235.225 55.8193 235.069 55.9218 234.898 55.9906C234.727 56.0594 234.544 56.0933 234.359 56.09ZM233.339 70.8121V58.7623H235.38V70.8121L233.339 70.8121Z" fill="#5E5C56"/>
<path d="M244.344 71.1037C243.271 71.1236 242.213 70.8507 241.283 70.3142C240.393 69.7891 239.666 69.0282 239.182 68.1155C238.651 67.0882 238.388 65.9435 238.417 64.7874C238.39 63.6369 238.649 62.4977 239.17 61.4713C239.647 60.5502 240.375 59.7836 241.271 59.2605C242.222 58.7209 243.3 58.4481 244.393 58.471C245.455 58.4436 246.504 58.7173 247.418 59.2605C248.245 59.7632 248.921 60.4811 249.373 61.3377C249.825 62.1906 250.059 63.1421 250.053 64.1073C250.053 64.2857 250.049 64.4638 250.041 64.6416C250.033 64.8202 250.029 65.0227 250.029 65.249H240.433C240.448 66.0568 240.67 66.8472 241.077 67.5451C241.416 68.1078 241.895 68.5727 242.468 68.8942C243.041 69.2158 243.687 69.3829 244.344 69.3792C245.092 69.4059 245.83 69.2023 246.458 68.7961C247.023 68.4094 247.456 67.858 247.697 67.217H249.713C249.395 68.3794 248.689 69.3983 247.713 70.1052C246.736 70.812 245.548 71.1641 244.344 71.1037ZM244.344 60.1957C243.405 60.1846 242.491 60.4979 241.757 61.0828C241.371 61.3994 241.057 61.7932 240.833 62.2388C240.609 62.6844 240.481 63.1719 240.457 63.6699H248.037C248.038 63.1904 247.939 62.7159 247.747 62.2767C247.554 61.8376 247.273 61.4433 246.919 61.1192C246.208 60.4981 245.288 60.1682 244.344 60.1957Z" fill="#5E5C56"/>
<path d="M257.095 70.812C256.16 70.8657 255.237 70.5812 254.495 70.0104C253.864 69.4759 253.548 68.5122 253.548 67.1193V60.4872H251.459V58.7622H253.548L253.815 55.8713H255.589V58.7622H259.135V60.4872H255.589V67.1194C255.589 67.881 255.743 68.3953 256.05 68.6621C256.358 68.9294 256.9 69.0631 257.678 69.0631H258.941V70.8122L257.095 70.812Z" fill="#5E5C56"/>
<path d="M263.049 76.1567L266.038 69.646H265.333L260.547 58.7622H262.758L266.742 68.1397L270.969 58.7622H273.083L265.187 76.1567L263.049 76.1567Z" fill="#5E5C56"/>
</svg>
