<svg width="60" height="60" viewBox="0 0 60 60" fill="none" xmlns="http://www.w3.org/2000/svg">
<path d="M4.97266 29.8176C4.97406 35.7337 7.08557 41.4554 10.9277 45.9542C14.7698 50.4529 20.0905 53.4338 25.9335 54.361V36.9975H19.6306V29.8176H25.941V24.3519C25.8017 23.0727 25.9457 21.7785 26.3629 20.5611C26.7801 19.3438 27.4602 18.2333 28.3549 17.3085C29.2497 16.3836 30.3371 15.6671 31.5399 15.2099C32.7427 14.7526 34.0315 14.5658 35.3146 14.6628C37.1779 14.6926 39.0412 14.859 40.8797 15.1597V21.2688H37.7394C37.2057 21.1989 36.6631 21.2498 36.1517 21.4178C35.6403 21.5858 35.1732 21.8666 34.7849 22.2394C34.3966 22.6122 34.097 23.0674 33.9084 23.5716C33.7197 24.0757 33.6467 24.6158 33.6948 25.1519V29.8176H40.5791L39.4785 37H33.6948V54.361C38.3844 53.6199 42.7634 51.5505 46.3135 48.3979C49.8635 45.2452 52.4358 41.1414 53.7259 36.5722C55.016 32.0031 54.9698 27.1599 53.5928 22.6162C52.2159 18.0724 49.5657 14.0184 45.9562 10.934C42.3467 7.84969 37.929 5.86419 33.2262 5.21262C28.5233 4.56105 23.7322 5.27069 19.4201 7.25753C15.108 9.24436 11.4555 12.4252 8.89504 16.4234C6.33459 20.4216 4.97341 25.0698 4.97266 29.8176Z" fill="#5E5C56"/>
</svg>
