<svg width="3600" height="759" viewBox="0 0 3600 759" fill="none" xmlns="http://www.w3.org/2000/svg">
<path d="M737 379C737 181.282 576.718 21 379 21C181.282 21 21 181.282 21 379C21 576.718 181.282 737 379 737C576.718 737 737 576.718 737 379Z" stroke="black" stroke-width="42"/>
<path d="M310 553C308 553 306 551 306 549L403 206C403 205 405 204 406 204H448C450 204 452 206 452 208L355 551C354 552 353 553 351 553H310ZM242 467C241 467 240 467 240 466L155 380C154 379 154 377 155 375L240 290C240 290 241 289 242 289H296C299 289 301 293 298 295L218 375C217 377 217 379 218 380L298 461C301 463 299 467 296 467H242ZM462 467C459 467 457 463 459 461L539 380C540 379 540 377 539 375L459 295C457 293 459 289 462 289H515C516 289 517 290 518 290L602 375C604 377 604 379 602 380L518 466C517 467 516 467 515 467H462Z" fill="black"/>
<path d="M1040 535C1010 535 983 529 961 516C939 502 922 484 910 460C898 437 892 409 892 378C892 347 898 320 910 296C922 272 939 253 961 240C983 227 1010 220 1040 220C1077 220 1107 229 1130 247C1154 265 1168 291 1174 324H1113C1109 307 1101 294 1088 285C1076 275 1060 271 1039 271C1011 271 989 280 973 299C957 318 949 345 949 378C949 411 957 438 973 457C989 476 1011 485 1039 485C1060 485 1076 481 1088 472C1101 463 1109 451 1113 435H1174C1168 466 1154 491 1130 509C1107 526 1077 535 1040 535ZM1313 535C1292 535 1273 530 1256 521C1239 511 1226 498 1216 481C1207 464 1202 444 1202 422C1202 400 1207 380 1217 363C1227 346 1240 333 1256 323C1273 314 1292 309 1313 309C1334 309 1352 314 1369 323C1386 333 1399 346 1408 363C1418 380 1423 400 1423 422C1423 444 1418 464 1408 481C1399 498 1386 511 1369 521C1352 530 1333 535 1313 535ZM1313 487C1327 487 1340 482 1351 471C1361 460 1367 444 1367 422C1367 401 1361 384 1351 374C1340 363 1327 357 1313 357C1298 357 1285 363 1275 374C1264 384 1259 401 1259 422C1259 444 1264 460 1275 471C1285 482 1298 487 1313 487ZM1559 535C1539 535 1521 530 1505 520C1489 511 1476 497 1467 480C1458 463 1453 443 1453 422C1453 400 1458 381 1467 364C1476 347 1489 333 1505 324C1521 314 1539 309 1559 309C1576 309 1590 312 1602 318C1614 324 1624 333 1632 344V217H1687V530H1638L1632 499C1625 509 1615 517 1604 524C1592 532 1578 535 1559 535ZM1571 486C1589 486 1604 481 1615 469C1627 456 1632 441 1632 422C1632 403 1627 388 1615 376C1604 364 1589 358 1571 358C1553 358 1539 364 1527 375C1515 387 1510 403 1510 422C1510 440 1515 456 1527 468C1539 480 1553 486 1571 486ZM1836 535C1814 535 1795 531 1778 521C1761 512 1748 499 1738 482C1729 465 1724 446 1724 424C1724 401 1729 382 1738 364C1748 347 1761 333 1777 324C1794 314 1814 309 1836 309C1858 309 1876 313 1893 323C1909 332 1921 345 1930 361C1940 377 1944 395 1944 415V425C1944 428 1944 432 1943 436H1779C1780 452 1786 466 1797 475C1807 485 1820 490 1835 490C1847 490 1856 487 1864 482C1872 477 1877 470 1881 462H1938C1934 476 1927 488 1917 500C1908 511 1896 519 1883 526C1869 532 1853 535 1836 535ZM1836 354C1823 354 1811 358 1800 366C1790 373 1783 385 1780 401H1888C1887 386 1882 375 1872 367C1862 358 1851 354 1836 354ZM2118 535C2087 535 2060 529 2038 516C2016 502 1999 484 1987 460C1975 437 1969 409 1969 378C1969 347 1975 320 1987 296C1999 272 2016 253 2038 240C2060 227 2087 220 2118 220C2154 220 2184 229 2207 247C2231 265 2245 291 2251 324H2190C2186 307 2178 294 2165 285C2153 275 2137 271 2117 271C2088 271 2066 280 2050 299C2034 318 2026 345 2026 378C2026 411 2034 438 2050 457C2066 476 2088 485 2117 485C2137 485 2153 481 2165 472C2178 463 2186 451 2190 435H2251C2245 466 2231 491 2207 509C2184 526 2154 535 2118 535ZM2286 530V314H2336L2341 355C2349 341 2359 330 2373 321C2386 313 2402 309 2421 309V368H2405C2393 368 2382 370 2372 373C2363 377 2355 384 2350 393C2344 402 2342 415 2342 432V530H2286ZM2520 535C2502 535 2486 532 2474 527C2463 520 2454 512 2448 503C2442 493 2439 482 2439 470C2439 450 2447 434 2463 421C2478 409 2502 402 2533 402H2588V397C2588 382 2584 372 2575 365C2567 358 2557 354 2544 354C2533 354 2523 357 2515 362C2506 368 2501 375 2499 386H2444C2446 370 2451 357 2460 345C2469 333 2481 325 2496 318C2510 312 2527 309 2545 309C2575 309 2600 317 2617 332C2635 347 2644 369 2644 397V530H2596L2591 495C2585 507 2576 516 2564 524C2553 531 2538 535 2520 535ZM2533 492C2549 492 2561 486 2570 476C2579 466 2584 453 2587 437H2539C2525 437 2514 440 2508 446C2501 451 2498 457 2498 465C2498 474 2501 480 2508 485C2514 489 2522 492 2533 492ZM2694 530V361H2664V314H2694V289C2694 263 2701 244 2714 233C2727 222 2745 217 2768 217H2792V264H2776C2767 264 2760 266 2756 270C2752 273 2750 280 2750 289V314H2796V361H2750V530H2694ZM2924 530C2901 530 2883 525 2869 513C2856 502 2849 483 2849 455V361H2812V314H2849L2855 256H2904V314H2963V361H2904V455C2904 466 2907 473 2911 477C2916 481 2923 483 2935 483H2962V530H2924ZM3097 535C3075 535 3056 531 3039 521C3022 512 3009 499 2999 482C2990 465 2985 446 2985 424C2985 401 2990 382 2999 364C3009 347 3022 333 3038 324C3055 314 3075 309 3097 309C3119 309 3137 313 3154 323C3170 332 3183 345 3192 361C3201 377 3205 395 3205 415V425V436H3040C3042 452 3047 466 3058 475C3069 485 3081 490 3097 490C3108 490 3117 487 3125 482C3133 477 3139 470 3142 462H3199C3195 476 3188 488 3178 500C3169 511 3158 519 3144 526C3130 532 3114 535 3097 535ZM3097 354C3084 354 3072 358 3061 366C3051 373 3044 385 3041 401H3149C3148 386 3143 375 3133 367C3124 358 3112 354 3097 354ZM3239 530V314H3289L3294 355C3302 341 3313 330 3326 321C3340 313 3356 309 3374 309V368H3358C3346 368 3335 370 3325 373C3316 377 3308 384 3303 393C3298 402 3295 415 3295 432V530H3239ZM3488 535C3469 535 3452 532 3438 526C3423 520 3411 511 3403 500C3394 489 3389 476 3387 462H3443C3445 470 3450 477 3457 483C3465 489 3475 492 3487 492C3499 492 3508 490 3514 485C3520 480 3523 474 3523 468C3523 458 3518 452 3510 449C3502 446 3491 442 3476 439C3467 437 3458 435 3448 432C3438 429 3430 425 3421 421C3414 416 3407 410 3402 403C3397 396 3395 387 3395 377C3395 358 3402 341 3418 328C3433 315 3454 309 3482 309C3508 309 3528 315 3543 327C3558 339 3567 355 3570 376H3518C3515 360 3502 352 3482 352C3471 352 3463 354 3457 358C3452 362 3449 367 3449 373C3449 380 3453 385 3462 389C3470 392 3481 396 3495 399C3510 402 3524 406 3536 411C3549 415 3559 421 3567 429C3574 438 3578 449 3578 465C3579 478 3575 490 3568 501C3561 512 3550 520 3536 526C3523 532 3507 535 3488 535Z" fill="#171920"/>
</svg>
