<?xml version="1.0" encoding="UTF-8"?>
<svg version="1.1" xmlns="http://www.w3.org/2000/svg" width="10040" height="1358">
<path d="M0 0 C0.71607422 0.37737305 1.43214844 0.75474609 2.16992188 1.14355469 C22.34450243 11.82575888 40.69931372 24.90859562 57.34375 40.53125 C59.47549623 42.51252002 61.63790094 44.39207027 63.875 46.25 C74.89014319 55.84531184 84.29501737 67.32004721 93 79 C93.52480957 79.7002832 94.04961914 80.40056641 94.59033203 81.12207031 C102.02252766 91.08256495 108.85967402 101.19782724 115 112 C115.38720215 112.66902344 115.7744043 113.33804688 116.17333984 114.02734375 C128.19919727 134.81731699 137.85247483 156.41842875 146 179 C146.35690918 179.98548828 146.71381836 180.97097656 147.08154297 181.98632812 C163.4587517 227.74097233 171.5863708 276.21899375 175.75 324.5 C175.83888489 325.52758423 175.83888489 325.52758423 175.92956543 326.57592773 C177.56439004 345.84608739 178.14958038 365.08477624 178.12025452 384.41841125 C178.12069176 386.59793094 178.12156949 388.77745056 178.12284368 390.95696992 C178.1250585 396.88395508 178.12110912 402.81092185 178.11606562 408.73790467 C178.11171758 415.15272843 178.11321062 421.56755128 178.1139679 427.9823761 C178.11466235 439.07591802 178.11140765 450.16945439 178.10573006 461.26299477 C178.0997962 472.88726136 178.09596073 484.51152559 178.09487724 496.13579369 C178.0948085 496.86079587 178.09473976 497.58579805 178.09466894 498.33276999 C178.09433057 502.01526539 178.0940292 505.69776079 178.09374207 509.3802562 C178.09164628 535.40723295 178.08492188 561.43420662 178.07543945 587.46118164 C178.06624284 612.73299137 178.05918213 638.00480026 178.05493164 663.27661133 C178.054661 664.86806955 178.05439029 666.45952777 178.05411953 668.05098599 C178.05193049 680.98397345 178.04988802 693.91696093 178.04788104 706.84994841 C178.03850859 766.56663519 178.01843424 826.28331393 178 886 C97.81 886 17.62 886 -65 886 C-65.06058594 851.75605469 -65.12117188 817.51210937 -65.18359375 782.23046875 C-65.22409649 760.51497285 -65.26483 738.79947774 -65.30664062 717.08398438 C-65.32720841 706.3970307 -65.3477328 695.71007694 -65.36815169 685.02312297 C-65.37092088 683.57382796 -65.37369144 682.12453295 -65.37646339 680.67523795 C-65.42050597 657.64194794 -65.46154466 634.6086538 -65.50098413 611.57535549 C-65.54159369 587.86812901 -65.58530442 564.16091016 -65.63282111 540.45369647 C-65.63955794 537.09181997 -65.64625996 533.7299434 -65.65294075 530.36806679 C-65.65491434 529.37573815 -65.65491434 529.37573815 -65.6569278 528.36336247 C-65.67915623 517.13933387 -65.69762416 505.91530146 -65.71517897 494.69126473 C-65.73112958 484.6645186 -65.75058386 474.63778289 -65.77266841 464.61104842 C-65.78526932 458.84482945 -65.79644584 453.07861813 -65.80341911 447.31238937 C-65.75035864 399.27176299 -65.75035864 399.27176299 -68.25 351.3125 C-68.31280151 350.51878998 -68.37560303 349.72507996 -68.44030762 348.90731812 C-72.59966023 297.18476234 -82.94044333 239.66950522 -124.3046875 204.0703125 C-139.18139675 192.64327496 -155.8578978 185.4613725 -174 181 C-174.66402832 180.83338867 -175.32805664 180.66677734 -176.01220703 180.49511719 C-212.81162023 171.78017893 -259.40751915 176.78058132 -291.97265625 196.31640625 C-334.76196731 223.26836392 -356.39573231 270.34249835 -368 318 C-368.26119629 319.06557129 -368.52239258 320.13114258 -368.79150391 321.22900391 C-375.45707845 348.97409769 -379.27340578 377.52987629 -381 406 C-381.03964457 406.638365 -381.07928914 407.27673 -381.12013506 407.9344394 C-381.8715517 420.22762837 -382.15188102 432.47198915 -382.15821838 444.78617859 C-382.16279803 446.70411063 -382.16780004 448.62204169 -382.17318195 450.53997165 C-382.18661298 455.75316738 -382.19413712 460.96635669 -382.20060861 466.17956507 C-382.2086796 471.82278155 -382.22235385 477.46598493 -382.23532104 483.10919189 C-382.25698965 492.86752088 -382.27516884 502.62585126 -382.29092598 512.38419151 C-382.31371281 526.49282698 -382.34184302 540.60144789 -382.37124526 554.71007095 C-382.41881367 577.60464074 -382.46211499 600.49921578 -382.50268555 623.39379883 C-382.54208835 645.62362128 -382.58353975 667.8534384 -382.62768555 690.08325195 C-382.63046289 691.48322866 -382.63324016 692.88320537 -382.63601738 694.28318208 C-382.65753268 705.12366966 -382.67917758 715.96415697 -382.70085371 726.80464423 C-382.80693009 779.86975204 -382.9027467 832.93487387 -383 886 C-462.86 886 -542.72 886 -625 886 C-625.04898438 849.71160156 -625.09796875 813.42320312 -625.1484375 776.03515625 C-625.18171219 754.40854362 -625.21512152 732.78193282 -625.25098133 711.15532458 C-625.2720165 698.46324861 -625.292961 685.7711725 -625.31362569 673.07909592 C-625.31612503 671.54417406 -625.31862722 670.0092522 -625.3211323 668.47433034 C-625.3609393 644.06918706 -625.39447737 619.66404019 -625.42468691 595.25888329 C-625.45580737 570.14499431 -625.49338189 545.03112287 -625.53890612 519.91725567 C-625.54535511 516.35797339 -625.55173146 512.79869098 -625.55806351 509.23940849 C-625.55931181 508.53899301 -625.56056012 507.83857752 -625.56184625 507.11693733 C-625.58163435 495.90967044 -625.5947572 484.70240551 -625.60529328 473.49512652 C-625.61606967 462.18716339 -625.63424692 450.87923401 -625.65916704 439.57129151 C-625.67242438 433.46101678 -625.68268003 427.35077983 -625.68421364 421.24048996 C-625.68660601 374.76411168 -625.68660601 374.76411168 -629.8125 328.5 C-629.98354248 327.19289063 -630.15458496 325.88578125 -630.33081055 324.5390625 C-635.35158743 287.08060555 -644.43153446 247.15613561 -670 218 C-670.67289063 217.18402344 -671.34578125 216.36804688 -672.0390625 215.52734375 C-690.27575446 194.07436248 -716.75588686 183.35460453 -744 179 C-744.96498413 178.8453125 -744.96498413 178.8453125 -745.94946289 178.6875 C-784.69389622 173.47127626 -829.22119033 178.94194811 -861 203 C-912.43430131 243.68660911 -929.95014662 311.01777536 -937.3125 373.5 C-937.45969482 374.7470874 -937.60688965 375.9941748 -937.75854492 377.27905273 C-938.12872668 380.6635407 -938.45789385 384.04912308 -938.76643014 387.43970156 C-938.92343041 389.16067507 -939.08426468 390.88130271 -939.24874663 392.60157728 C-941.36464115 415.32457568 -941.31047686 438.0155714 -941.31667423 460.81595659 C-941.32041649 466.53877759 -941.33559492 472.26157074 -941.34928894 477.984375 C-941.3714162 487.86695809 -941.38651621 497.74953109 -941.39665604 507.63213348 C-941.41132644 521.92019831 -941.43688588 536.2082279 -941.46498732 550.49627188 C-941.51030459 573.68533083 -941.54699804 596.87439456 -941.578125 620.06347656 C-941.60835832 642.5712982 -941.64276152 665.07910732 -941.68261719 687.58691406 C-941.68512388 689.00579031 -941.68763046 690.42466656 -941.69013691 691.84354281 C-941.70956795 702.83134559 -941.72926168 713.8191479 -941.74901867 724.80695009 C-941.84557061 778.53795143 -941.9213369 832.26896373 -942 886 C-1021.86 886 -1101.72 886 -1184 886 C-1184 585.04 -1184 284.08 -1184 -26 C-1118 -26 -1052 -26 -984 -26 C-979.35822672 3.01108302 -979.35822672 3.01108302 -977.421875 16.359375 C-977.20344119 17.85867046 -976.98495429 19.35795818 -976.76641846 20.85723877 C-976.31827261 23.93507954 -975.87154691 27.01312225 -975.42578125 30.09130859 C-974.85566947 34.02648808 -974.28052684 37.9609158 -973.70426559 41.89519882 C-973.25574708 44.96261778 -972.81044713 48.03049756 -972.36606598 51.09851837 C-972.15509971 52.55150147 -971.94299718 54.0043201 -971.72969818 55.45696259 C-971.43458826 57.46918876 -971.1444301 59.48213928 -970.85449219 61.49511719 C-970.68890808 62.6343866 -970.52332397 63.77365601 -970.35272217 64.94744873 C-970 68 -970 68 -970 73 C-960.43 73 -950.86 73 -941 73 C-940.01 71.02 -940.01 71.02 -939 69 C-937.30568012 66.8504897 -935.59475907 64.76092317 -933.8125 62.6875 C-933.31927246 62.10935547 -932.82604492 61.53121094 -932.31787109 60.93554688 C-928.72497448 56.75890734 -924.98062089 52.80920659 -921 49 C-918.57649338 46.59606936 -916.1726167 44.18095418 -913.81640625 41.7109375 C-907.60677517 35.27530598 -900.96369816 29.76539219 -893.83544922 24.38671875 C-892.03897019 23.02944276 -890.25584958 21.65590834 -888.47265625 20.28125 C-866.0010851 3.16752675 -840.6242705 -9.7350674 -814 -19 C-813.23187988 -19.27150879 -812.46375977 -19.54301758 -811.67236328 -19.82275391 C-789.79000288 -27.46953601 -767.02854324 -31.75309452 -744 -34 C-742.71996094 -34.13148438 -741.43992187 -34.26296875 -740.12109375 -34.3984375 C-670.71246376 -40.24171238 -601.24834482 -21.0802864 -547 23 C-546.41283203 23.47679199 -545.82566406 23.95358398 -545.22070312 24.44482422 C-530.15961385 36.76714153 -515.56558352 50.12108729 -503 65 C-502.15695312 65.97710938 -501.31390625 66.95421875 -500.4453125 67.9609375 C-499.75888672 68.76325806 -499.75888672 68.76325806 -499.05859375 69.58178711 C-498.09827142 70.69927391 -497.12938605 71.80945547 -496.15234375 72.91235352 C-493.71155147 75.72245468 -491.92936584 78.14079743 -490.2421875 81.50390625 C-488.29796049 85.19619386 -486.73403014 88.05706715 -483 90 C-478.49751408 91.05012248 -474.11308297 91.28517854 -469.5 91.375 C-468.32373047 91.41343018 -467.14746094 91.45186035 -465.93554688 91.49145508 C-460.81747237 91.35413209 -457.34013886 91.07333201 -453.26660156 87.81079102 C-450.99454412 85.30161926 -448.97891172 82.74353974 -447 80 C-438.4952084 69.81948615 -429.12173966 60.3958564 -418.71875 52.16015625 C-415.89954419 49.92018382 -413.17312201 47.59106114 -410.4375 45.25 C-396.55437731 33.70753248 -381.66928849 23.93109573 -366 15 C-364.62763184 14.21109375 -364.62763184 14.21109375 -363.22753906 13.40625 C-276.72427212 -36.00721934 -167.34979107 -49.79255022 0 0 Z " fill="#2AC5F4" transform="translate(3362,463)"/>
<path d="M0 0 C13.32697117 2.89500347 26.58120619 6.04323441 39.82397461 9.30004883 C41.94979132 9.821386 44.07563124 10.34262855 46.20149231 10.86378479 C65.41182381 15.57696513 84.6129978 20.32745964 103.81163692 25.08801746 C116.69611394 28.28232557 129.58317489 31.46522934 142.47729492 34.62036133 C153.7699426 37.38362302 165.05731404 40.1673099 176.33868223 42.9762823 C182.29913062 44.45967778 188.26169753 45.93279941 194.23066521 47.38157082 C199.82939561 48.74088297 205.42062286 50.12752436 211.00724602 51.53574181 C213.05945976 52.04787227 215.11422665 52.54989155 217.17154312 53.04112244 C219.97530896 53.7121791 222.76768647 54.41873348 225.56016541 55.13508606 C226.37959356 55.3220789 227.19902171 55.50907174 228.04328102 55.70173103 C230.23615904 56.2873719 232.04669331 56.84306753 234 58 C235.96046257 61.46762943 235.96046257 61.46762943 237 65 C237.35390305 66.1163382 237.70780609 67.23267639 238.07243347 68.38284302 C238.56674614 70.16004227 238.56674614 70.16004227 239.07104492 71.97314453 C239.25781075 72.63935916 239.44457659 73.30557379 239.63700199 73.99197674 C240.25602632 76.20435063 240.868206 78.41855875 241.48046875 80.6328125 C241.92506531 82.22650032 242.37012567 83.82005882 242.81561279 85.41349792 C243.77363374 88.84341434 244.72875064 92.27412098 245.68161011 95.70547485 C247.21113617 101.2128649 248.7475288 106.71832395 250.28540039 112.22338867 C250.54651328 113.15815127 250.80762617 114.09291388 251.07665157 115.05600262 C251.60980543 116.96463238 252.14297656 118.87325731 252.67616463 120.78187752 C253.49105778 123.69970982 254.30534147 126.61771163 255.11949158 129.53575134 C260.43868062 148.59649159 265.81122255 167.64202526 271.19468307 186.6846962 C272.44346616 191.10241587 273.69154419 195.52033472 274.93969727 199.93823242 C276.69958785 206.16717261 278.45972917 212.39604186 280.22017384 218.62482548 C285.27343674 236.5042903 290.32211512 254.38504952 295.37066269 272.26584625 C296.12457815 274.93600593 296.87852284 277.60615735 297.63247681 280.27630615 C307.0702466 313.70055602 316.4997728 347.12712809 325.92630005 380.55455017 C329.1146268 391.86067083 332.30328385 403.16669829 335.4921875 414.47265625 C335.71975235 415.2794665 335.9473172 416.08627674 336.18177795 416.91753578 C337.33085687 420.99148306 338.47994132 425.06542878 339.62902832 429.13937378 C341.66420029 436.35483249 343.69932407 443.5703048 345.73445129 450.78577614 C346.87407229 454.82626018 348.01369647 458.86674332 349.15332031 462.90722656 C349.62015789 464.56237793 350.08699546 466.21752929 350.55383301 467.87268066 C350.78973648 468.7090657 351.02563995 469.54545074 351.26869202 470.40718079 C358.84579468 497.27145386 366.42289734 524.13572693 374 551 C381.59 551.33 389.18 551.66 397 552 C397.99 548.7 398.98 545.4 400 542 C400.87266431 539.56299058 401.77408338 537.13602553 402.70825195 534.72192383 C402.95919554 534.06987913 403.21013912 533.41783443 403.46868706 532.74603081 C404.00555641 531.3520623 404.54403901 529.95871416 405.08403587 528.56595421 C406.54882013 524.78729828 408.00094719 521.00376918 409.45556641 517.22119141 C409.75347548 516.44760505 410.05138456 515.67401869 410.35832119 514.87699032 C413.28707288 507.2679478 416.17075699 499.64225044 419.04296875 492.01171875 C419.54321732 490.68356107 420.04347168 489.35540557 420.54373169 488.0272522 C421.82572648 484.6228017 423.10679 481.2180014 424.38769531 477.81314087 C425.7792692 474.11475504 427.17190754 470.41677005 428.56445312 466.71875 C430.59901712 461.31558031 432.63331822 455.9123118 434.66725349 450.50890541 C438.29316531 440.87630286 441.92129988 431.24453935 445.55078125 421.61328125 C445.81739248 420.90579428 446.08400372 420.1983073 446.35869408 419.46938133 C447.70179506 415.90532635 449.04493476 412.34128596 450.38809204 408.7772522 C452.82117598 402.32106896 455.25391406 395.8647554 457.68668175 389.40845299 C459.04110733 385.81396345 460.39555476 382.21948214 461.75 378.625 C462.29166677 377.18750004 462.83333344 375.75000004 463.375 374.3125 C473.125 348.4375 482.875 322.5625 492.625 296.6875 C493.02718892 295.62015247 493.02718892 295.62015247 493.43750286 294.53124237 C493.97915996 293.09376779 494.52081709 291.65629322 495.06247425 290.21881866 C496.41678759 286.62467985 497.77110036 283.03054083 499.12541199 279.43640137 C501.56115997 272.97229403 503.99691183 266.50818816 506.4326849 260.04409027 C507.78455315 256.4564779 509.13641807 252.86886428 510.48828125 249.28125 C510.88992209 248.215364 510.88992209 248.215364 511.2996769 247.12794495 C514.29932953 239.16736493 517.29891141 231.20675825 520.29833984 223.24609375 C520.5711015 222.52216966 520.84386316 221.79824556 521.12489033 221.05238438 C522.50266685 217.39568338 523.88042656 213.73897605 525.25816345 210.08226013 C527.97658681 202.86725036 530.69533954 195.65236499 533.41479492 188.43774414 C534.48228253 185.60564034 535.5497431 182.77352634 536.6171875 179.94140625 C536.87992525 179.24433123 537.142663 178.5472562 537.4133625 177.82905769 C540.9258901 168.50946271 544.4342718 159.18831802 547.93907166 149.86581421 C549.80205862 144.91053425 551.66644358 139.95578064 553.53119755 135.00116539 C555.02237505 131.03878612 556.51176935 127.07574311 557.9997406 123.11215878 C559.12963968 120.10408146 560.26231025 117.09704772 561.39453125 114.08984375 C561.78919586 113.03675522 562.18386047 111.98366669 562.59048462 110.89866638 C565.24610904 103.85579217 568.10096966 96.9576728 571 90 C639.64 90 708.28 90 779 90 C781.98313054 97.15951331 784.92159002 104.26646335 787.6171875 111.52734375 C788.11119804 112.84892487 788.11119804 112.84892487 788.6151886 114.19720459 C789.32850223 116.10600018 790.04084045 118.01516051 790.75228882 119.9246521 C792.74005433 125.25891371 794.73588569 130.59015972 796.73046875 135.921875 C797.15489761 137.0569902 797.57932648 138.19210541 798.01661682 139.36161804 C802.80875286 152.17310114 807.6351376 164.97165364 812.46381378 177.76939774 C813.43626037 180.34682971 814.40850688 182.92433713 815.38075638 185.50184345 C817.35434912 190.73397976 819.32813744 195.96604225 821.30212021 201.19803143 C824.45896433 209.5652225 827.61457902 217.93287665 830.76953125 226.30078125 C831.00613653 226.92832998 831.24274181 227.55587872 831.48651695 228.20244408 C832.68020624 231.36848719 833.87387537 234.5345379 835.0675354 237.70059204 C837.22188743 243.41474848 839.37641875 249.12883733 841.53093529 254.84293175 C842.72896408 258.02028511 843.92698147 261.19764277 845.125 264.375 C845.60416661 265.64583335 846.08333328 266.91666669 846.5625 268.1875 C895.43750011 397.81250029 895.43750011 397.81250029 896.15625954 399.71877575 C896.63539401 400.9895234 897.11452889 402.26027091 897.59366417 403.53101826 C898.79207665 406.70941124 899.99048213 409.88780686 901.18887329 413.06620789 C903.33919537 418.76932189 905.48956438 424.47241818 907.64019966 430.17541409 C908.83048063 433.33177327 910.02071995 436.48814815 911.2109375 439.64453125 C911.44691021 440.27031382 911.68288292 440.89609638 911.92600632 441.54084206 C915.14203343 450.06975226 918.35615718 458.59937755 921.56880188 467.12956238 C923.59214874 472.50192873 925.61606245 477.87408147 927.6401062 483.2461853 C928.62297261 485.85486182 929.60564358 488.46361184 930.58816528 491.07241821 C935.1420222 503.16295721 939.69886103 515.25207881 944.33203125 527.3125 C944.65008728 528.1408284 944.96814331 528.9691568 945.2958374 529.82258606 C946.70817571 533.49805111 948.12481314 537.17176196 949.54931641 540.8425293 C950.01644043 542.05336182 950.48356445 543.26419434 950.96484375 544.51171875 C951.56220337 546.05025513 951.56220337 546.05025513 952.17163086 547.61987305 C953 550 953 550 953 552 C960.59 551.67 968.18 551.34 976 551 C988.42643567 507.04442441 1000.85244455 463.08873161 1013.25 419.125 C1013.47198311 418.33781334 1013.69396622 417.55062668 1013.92267609 416.73958588 C1015.94126389 409.58126414 1017.95970684 402.42290156 1019.97799683 395.26449585 C1023.14617468 384.02771961 1026.31503544 372.79113614 1029.484375 361.5546875 C1029.71167423 360.74882769 1029.93897346 359.94296787 1030.17316055 359.11268806 C1031.32223752 355.03879638 1032.47132609 350.96490797 1033.62042236 346.89102173 C1035.9162644 338.75157935 1038.21204684 330.61212017 1040.5078125 322.47265625 C1040.7349078 321.6675102 1040.9620031 320.86236416 1041.19598007 320.03281975 C1044.38146808 308.73892678 1047.56661339 297.44493722 1050.75153542 286.15088463 C1055.78788413 268.29151986 1060.82525643 250.43244402 1065.86347103 232.57360554 C1067.30628917 227.45922586 1068.7489469 222.34480096 1070.19147015 217.2303381 C1070.93269358 214.6024015 1071.67399229 211.97448614 1072.41529846 209.34657288 C1073.41441039 205.80469632 1074.41317445 202.26272191 1075.41172791 198.72068787 C1077.91158539 189.85520662 1080.41753975 180.9915172 1082.93530273 172.13110352 C1083.93664888 168.60450336 1084.93731171 165.07770996 1085.9375 161.55078125 C1086.1853229 160.67714495 1086.43314579 159.80350864 1086.68847847 158.90339851 C1090.11568297 146.80933989 1093.45632044 134.6941529 1096.73484802 122.55897522 C1098.5353935 115.89665997 1100.36063684 109.24118681 1102.19202518 102.58729076 C1103.67874404 97.17710289 1105.132369 91.75942481 1106.56192589 86.33387089 C1107.44825044 83.00216477 1108.36582273 79.6796814 1109.29246521 76.35898781 C1109.71488135 74.82017917 1110.12415161 73.27769224 1110.51921082 71.73163414 C1111.06087989 69.61886423 1111.64790896 67.52410181 1112.24780273 65.42724609 C1112.7221299 63.66337051 1112.7221299 63.66337051 1113.20603943 61.86386108 C1115.19618973 58.68680463 1115.62304449 58.51386178 1119.01382637 57.47642994 C1120.22976543 57.10235555 1120.22976543 57.10235555 1121.47026891 56.72072411 C1125.48731441 55.57626194 1129.51857093 54.51794612 1133.57273865 53.51325989 C1134.49373307 53.28201768 1135.41472749 53.05077547 1136.36363083 52.81252593 C1139.42575671 52.04460337 1142.48910892 51.28169643 1145.55249023 50.51879883 C1147.75751529 49.96693513 1149.96246432 49.41476759 1152.16734314 48.86231995 C1158.13701834 47.36755533 1164.10778791 45.87720699 1170.07879901 44.38778901 C1176.32710845 42.82854436 1182.57450829 41.26566319 1188.82203674 39.70329285 C1199.30481895 37.0823768 1209.78829552 34.46425574 1220.2722168 31.84790039 C1231.06232352 29.1551325 1241.85172065 26.45954395 1252.64038086 23.76098633 C1265.65032339 20.50682637 1278.66084932 17.25501316 1291.67192268 14.00537682 C1296.64140242 12.7641702 1301.6106581 11.52207215 1306.57974052 10.27927589 C1312.42078681 8.81854501 1318.26241195 7.36015239 1324.10450172 5.90360069 C1326.25341311 5.36743734 1328.40212313 4.83046617 1330.55062103 4.29264832 C1333.47192601 3.561522 1336.39393273 2.83327179 1339.31614685 2.10578918 C1340.17575451 1.88994244 1341.03536217 1.67409569 1341.92101854 1.45170814 C1347.77166975 0 1347.77166975 0 1350 0 C1347.23729522 11.99725363 1344.25386328 23.92339968 1341.1328125 35.83203125 C1340.66093959 37.63872337 1340.18924472 39.445462 1339.7177124 41.25224304 C1338.45281589 46.09682683 1337.18536317 50.94073836 1335.91738129 55.78451538 C1334.57253579 60.92367192 1333.2300447 66.06344354 1331.88720703 71.203125 C1328.85641947 82.80129629 1325.82189298 94.39848749 1322.78640747 105.99542999 C1321.78655811 109.81548196 1320.78693325 113.63559265 1319.78731346 117.45570469 C1314.55344379 137.45699343 1309.31485416 157.45704356 1304.07339478 177.4563446 C1300.88374017 189.6268513 1297.69531168 201.79767862 1294.5078125 213.96875 C1294.28070461 214.83593155 1294.05359673 215.7031131 1293.81960678 216.59657288 C1292.67205893 220.97835859 1291.52453188 225.36014975 1290.37701416 229.74194336 C1288.31391876 237.61982764 1286.25063915 245.49766368 1284.18737411 253.37550354 C1283.04157526 257.75033373 1281.89578823 262.12516702 1280.75 266.5 C1280.29166672 268.25000001 1279.83333339 270.00000001 1279.375 271.75 C1279.148125 272.61625 1278.92125 273.4825 1278.6875 274.375 C1270.66666667 305 1262.64583333 335.625 1254.625 366.25 C1254.39812657 367.11624402 1254.17125315 367.98248804 1253.93750477 368.87498188 C1253.4791556 370.62504229 1253.02080637 372.37510269 1252.56245708 374.12516308 C1251.41686561 378.49923862 1250.27127511 382.87331442 1249.12568665 387.24739075 C1247.06029967 395.13343016 1244.99490568 403.01946773 1242.92947483 410.90549564 C1241.77980126 415.29506873 1240.63013347 419.68464334 1239.48046875 424.07421875 C1239.25298635 424.94277685 1239.02550396 425.81133495 1238.79112816 426.706213 C1235.64045245 438.73595864 1232.49009327 450.76578714 1229.33995438 462.79567337 C1218.77701219 503.13365241 1208.2078797 543.47000421 1197.63355255 583.80500031 C1189.64811488 614.26493823 1181.66492242 644.72546184 1173.6875 675.1875 C1173.46490509 676.03748566 1173.24231018 676.88747131 1173.01296997 677.76321411 C1171.00746776 685.42133785 1169.00203499 693.07947977 1166.99667358 700.73764038 C1164.0677438 711.92275662 1161.13855795 723.10780576 1158.20912933 734.29279137 C1157.51899115 736.92784342 1156.82886148 739.5628977 1156.13873291 742.19795227 C1154.0793393 750.06109902 1152.01987886 757.92422824 1149.9601593 765.78728962 C1148.82626376 770.11599501 1147.69241656 774.44471306 1146.55859375 778.7734375 C1146.22105701 780.06208238 1146.22105701 780.06208238 1145.87670135 781.37676048 C1142.74609602 793.3291225 1139.61770107 805.2820613 1136.49087524 817.2354126 C1134.7395104 823.93055739 1132.98754534 830.62554507 1131.23545265 837.32049942 C1130.04668444 841.86311197 1128.858247 846.40581045 1127.6706543 850.94873047 C1123.45729199 867.06551558 1119.24289827 883.18198396 1114.93359375 899.2734375 C1114.50313499 900.88818466 1114.50313499 900.88818466 1114.0639801 902.53555298 C1113.80366501 903.50270233 1113.54334991 904.46985168 1113.27514648 905.46630859 C1113.05116684 906.30084564 1112.82718719 907.13538269 1112.59642029 907.99520874 C1112 910 1112 910 1111 912 C1026.52 912 942.04 912 855 912 C850.49967216 900.7491804 850.49967216 900.7491804 848.58081055 895.0612793 C848.36992357 894.438664 848.1590366 893.8160487 847.94175911 893.17456627 C847.25407086 891.1420094 846.5703427 889.1081458 845.88671875 887.07421875 C845.3955428 885.61950775 844.90413817 884.16487396 844.41252136 882.71031189 C843.10451859 878.8378121 841.80007743 874.96412161 840.49642181 871.09015656 C839.41044887 867.86460376 838.3222971 864.63978776 837.23416519 861.41496277 C830.77341446 842.26642901 824.34892617 823.10606291 817.97894287 803.92712402 C813.54761387 790.58661945 809.0326531 777.27692677 804.46942139 763.98101807 C798.88087485 747.68687072 793.43431112 731.3460623 788 715 C782.11069476 697.28541404 776.18400714 679.58559568 770.11914062 661.93017578 C764.39140803 645.24696416 758.82506526 628.51098854 753.26095581 611.77261353 C748.23601821 596.66001829 743.17313998 581.56251545 738 566.5 C731.97842078 548.96710306 726.1149215 531.38315173 720.26727295 513.79156494 C715.11560513 498.29760166 709.92231762 482.81978655 704.625 467.375 C700.21046313 454.49833071 695.82647355 441.61211816 691.50848389 428.70269775 C690.92427966 426.95686548 690.33905088 425.21137568 689.75274658 423.46624756 C688.94929634 421.0735589 688.14980747 418.67958568 687.3515625 416.28515625 C687.11171631 415.57276291 686.87187012 414.86036957 686.62475586 414.12638855 C685 409.22924724 685 409.22924724 685 407 C678.4 407 671.8 407 665 407 C664.34 409.97 663.68 412.94 663 416 C662.36339218 418.11919225 661.69052208 420.22795567 660.97558594 422.32202148 C660.57994446 423.48869858 660.18430298 424.65537567 659.77667236 425.85740662 C659.13698517 427.72043175 659.13698517 427.72043175 658.484375 429.62109375 C658.03184306 430.95049675 657.57976642 432.28005481 657.12811279 433.60975647 C656.17047779 436.42645213 655.21006018 439.24217603 654.24731445 442.05712891 C652.73501727 446.47918906 651.22904079 450.90338347 649.72460938 455.328125 C649.47463196 456.06332933 649.22465454 456.79853367 648.96710205 457.55601692 C648.46350473 459.03721472 647.9599341 460.51842159 647.45639038 461.9996376 C646.70385339 464.21270171 645.95073124 466.425566 645.19750977 468.63839722 C641.2489385 480.24262607 637.35757449 491.86520031 633.5 503.5 C628.87281457 517.44310964 624.15910741 531.35427868 619.39233398 545.25024414 C614.17400292 560.47123754 609.07485655 575.73063693 604 591 C598.43779842 607.73560706 592.82428479 624.4509704 587.09863281 641.13134766 C581.77313426 656.6532276 576.58119169 672.21815629 571.40646362 687.79086304 C566.39362207 702.87204181 561.31456001 717.92813572 556.15576172 732.95996094 C551.18683769 747.44573485 546.32920515 761.9671019 541.5 776.5 C536.14932601 792.60216076 530.74255585 808.68242003 525.23220825 824.73062134 C519.07721827 842.66556763 513.09387701 860.65716419 507.12719727 878.65551758 C496.59082754 910.40917246 496.59082754 910.40917246 495 912 C493.6290769 912.09643128 492.25321556 912.12371921 490.8789053 912.12304783 C489.53829482 912.1260344 489.53829482 912.1260344 488.17060131 912.12908131 C487.17743139 912.12616847 486.18426146 912.12325563 485.16099548 912.12025452 C483.59162974 912.12153615 483.59162974 912.12153615 481.99055964 912.12284368 C478.45584766 912.12450161 474.92118228 912.11897202 471.38647461 912.11352539 C468.8641917 912.11324356 466.34190871 912.11340117 463.81962585 912.1139679 C458.37444902 912.11419622 452.9292874 912.11134474 447.48411369 912.10573006 C439.611222 912.09761735 431.7383361 912.09500007 423.86544067 912.09374207 C411.09347735 912.09155118 398.32152041 912.08489012 385.54956055 912.07543945 C373.13973014 912.06626627 360.72990147 912.05918498 348.32006836 912.05493164 C347.55566021 912.05466892 346.79125207 912.05440619 346.00368004 912.05413551 C342.16902845 912.05283051 338.33437684 912.05156679 334.49972522 912.05032361 C302.66647881 912.03994987 270.83324039 912.02225645 239 912 C232.51792371 889.4584712 232.51792371 889.4584712 230.09765625 880.12670898 C229.85852571 879.21305824 229.61939518 878.2994075 229.37301826 877.35807037 C228.60059907 874.40465967 227.83151826 871.45039163 227.0625 868.49609375 C226.50419254 866.35871354 225.94566382 864.22139112 225.38693237 862.0841217 C224.2035006 857.55546198 223.02152352 853.02642627 221.84075928 848.49707031 C219.96676103 841.30860522 218.08935573 834.12103257 216.21142578 826.93359375 C213.97921193 818.38939306 211.74768059 809.84501484 209.51722145 801.30035591 C204.53066118 782.19750451 199.53263973 763.09766552 194.52962112 743.9991188 C193.87136485 741.48612226 193.21323502 738.97309264 192.55514526 736.46005249 C187.26741963 716.26814037 181.97179252 696.07831475 176.66796875 675.890625 C176.39823746 674.86395784 176.12850616 673.83729069 175.8506012 672.77951241 C174.47513991 667.54424816 173.09961188 662.30900145 171.72406006 657.07376099 C171.44989006 656.03029133 171.17572006 654.98682167 170.89324188 653.91173172 C170.33990553 651.80578145 169.7865659 649.69983205 169.23322296 647.59388351 C160.26446204 613.45932147 151.32417846 579.31741413 142.40478516 545.16992188 C141.4638765 541.5677059 140.52295744 537.96549265 139.58203125 534.36328125 C139.2347699 533.03380148 139.2347699 533.03380148 138.88049316 531.67746353 C133.57494218 511.36600924 128.2573881 491.05770318 122.9375 470.75 C122.48059069 469.0057882 122.02368151 467.26157637 121.56677246 465.5173645 C119.74441109 458.56074003 117.92196819 451.60413693 116.09939575 444.64756775 C112.90033271 432.43706852 109.7018869 420.22640776 106.50390625 408.015625 C106.16341908 406.71555134 106.16341908 406.71555134 105.81605339 405.38921356 C104.66936279 401.01082071 103.5226826 396.63242512 102.37600708 392.25402832 C100.31320943 384.37758617 98.25031957 376.50116816 96.18743706 368.62474823 C95.04162096 364.24983313 93.89581078 359.87491649 92.75 355.5 C92.29166669 353.74999999 91.83333336 351.99999999 91.375 350.25 C88.62500049 339.75000186 88.62500049 339.75000186 87.93750477 337.12501812 C87.4791556 335.37495771 87.02080637 333.62489731 86.56245708 331.87483692 C85.41686561 327.50076138 84.27127511 323.12668558 83.12568665 318.75260925 C81.06029967 310.86656984 78.99490568 302.98053227 76.92947483 295.09450436 C75.77980126 290.70493127 74.63013347 286.31535666 73.48046875 281.92578125 C73.13924516 280.6229441 73.13924516 280.6229441 72.79112816 279.293787 C69.64047038 267.26410982 66.49012804 255.23435007 63.34000587 243.20453262 C58.31746114 224.02426579 53.29388994 204.84426798 48.26961803 185.66445351 C46.69691629 179.66070107 45.12439276 173.65690197 43.55196381 167.65307808 C40.09619611 154.45836074 36.63957954 141.263866 33.18228149 128.06954956 C32.31731943 124.76839351 31.45247424 121.46720686 30.58764648 118.16601562 C24.76666897 95.94762845 18.93702869 73.73163941 13.0625 51.52734375 C12.60384904 49.79312329 12.14520532 48.05890091 11.68656921 46.32467651 C9.78444295 39.13353527 7.88094618 31.94276929 5.97091866 24.75372219 C5.2213214 21.93070929 4.47359856 19.10720231 3.72633362 16.28357124 C3.22187434 14.38022243 2.71479747 12.47756798 2.2076416 10.57493591 C1.91329224 9.46183548 1.61894287 8.34873505 1.31567383 7.2019043 C1.0595784 6.23794235 0.80348297 5.27398041 0.53962708 4.2808075 C0 2 0 2 0 0 Z " fill="#2AC5F4" transform="translate(5872,437)"/>
<path d="M0 0 C75.57 0 151.14 0 229 0 C229 427.02 229 854.04 229 1294 C169.6 1294 110.2 1294 49 1294 C47.01933242 1288.71821979 45.19381919 1283.56112311 43.63989258 1278.1628418 C43.42487595 1277.4252211 43.20985931 1276.6876004 42.98832703 1275.92762756 C42.2872021 1273.51907235 41.5906646 1271.10922098 40.89453125 1268.69921875 C40.40573289 1267.01385453 39.91677257 1265.32853727 39.42765808 1263.64326477 C38.40775863 1260.12630676 37.39021159 1256.60867874 36.37426758 1253.09057617 C35.07108922 1248.57874123 33.76139898 1244.06882615 32.44989491 1239.55940533 C31.44080319 1236.08674671 30.43544307 1232.61301632 29.43118858 1229.13895607 C28.94957421 1227.47479636 28.46672191 1225.81099441 27.98261452 1224.14755821 C27.30853912 1221.8295248 26.63956975 1219.51007764 25.97192383 1217.19018555 C25.77092072 1216.50288361 25.5699176 1215.81558167 25.36282349 1215.10745239 C24.55806752 1212.29382147 24 1209.9447193 24 1207 C6.9109901 1205.28537497 6.9109901 1205.28537497 -8.296875 1211.60546875 C-11.92766814 1215.09698799 -15.09551836 1218.91325222 -18.20800781 1222.86694336 C-21.11734232 1226.3300027 -24.51308024 1229.13813124 -28 1232 C-28.86516235 1232.72993164 -28.86516235 1232.72993164 -29.74780273 1233.47460938 C-100.38802918 1292.78409838 -194.67205633 1309.71681722 -284.54492188 1302.17285156 C-290.3891438 1301.60444938 -296.19291442 1300.86657909 -302 1300 C-303.20285645 1299.82307617 -304.40571289 1299.64615234 -305.64501953 1299.46386719 C-390.07615043 1286.67829774 -468.40347327 1250.68650985 -531.6171875 1193.1640625 C-533.1954019 1191.73073335 -534.78389285 1190.3086322 -536.3828125 1188.8984375 C-545.42681923 1180.90132544 -554.27144053 1172.47347287 -562.0859375 1163.25390625 C-563.65397307 1161.40746436 -565.24399941 1159.58909956 -566.8515625 1157.77734375 C-585.58690909 1136.57975158 -601.90718751 1113.51879607 -616 1089 C-616.4326416 1088.25041016 -616.8652832 1087.50082031 -617.31103516 1086.72851562 C-620.29563397 1081.53212614 -623.17844826 1076.28655795 -626 1071 C-626.63905273 1069.80793945 -626.63905273 1069.80793945 -627.29101562 1068.59179688 C-657.61142455 1011.49958985 -673.61810091 947.16309976 -679 883 C-679.0942627 881.96657471 -679.18852539 880.93314941 -679.28564453 879.8684082 C-680.35548008 866.54330977 -680.24382899 853.17178479 -680.25 839.8125 C-680.25067474 838.50009338 -680.25134949 837.18768677 -680.25204468 835.83551025 C-680.24417919 814.74289416 -679.61684314 793.93346737 -677 773 C-676.87625 771.98879089 -676.87625 771.98879089 -676.75 770.95715332 C-669.87136822 715.10464751 -654.09714962 660.07896185 -628.07617188 610.07861328 C-626.86328826 607.73594289 -625.67432382 605.38174248 -624.484375 603.02734375 C-618.30575959 590.90181101 -611.51710595 579.34208218 -604 568 C-603.54125488 567.30567871 -603.08250977 566.61135742 -602.60986328 565.89599609 C-591.10235379 548.57878969 -578.36766331 531.9309114 -564.3359375 516.58203125 C-563.05794848 515.16940459 -561.78628031 513.75055264 -560.546875 512.30395508 C-555.82238998 506.79788686 -550.80656294 501.62038122 -545.67675781 496.49145508 C-544.26080053 495.07331716 -542.85301711 493.64703335 -541.4453125 492.22070312 C-536.0747607 486.83893151 -530.55700642 481.86072466 -524.61523438 477.1184082 C-522.13420571 475.10871013 -519.75700178 473.02547503 -517.390625 470.8828125 C-513.0216258 466.96156788 -508.45602819 463.38133112 -503.75 459.875 C-502.89301514 459.2353833 -502.03603027 458.5957666 -501.15307617 457.93676758 C-479.2823532 441.76661448 -456.23911733 428.26557744 -432 416 C-430.80600586 415.39091797 -430.80600586 415.39091797 -429.58789062 414.76953125 C-382.35895752 390.84891345 -328.67301884 377.86994903 -276 374 C-275.27264648 373.94360352 -274.54529297 373.88720703 -273.79589844 373.82910156 C-189.3036347 367.51925067 -96.1440903 385.69230537 -30.0625 441.6875 C-28.02775581 443.44338478 -26.01321675 445.21918143 -24 447 C-23.15308594 447.73605469 -22.30617188 448.47210938 -21.43359375 449.23046875 C-14.28177856 455.53279065 -7.77575082 462.22424918 -1 469 C-0.505 236.845 -0.505 236.845 0 0 Z M-374 662 C-374.82951172 662.78068848 -374.82951172 662.78068848 -375.67578125 663.57714844 C-418.6708158 704.1700902 -439.8847245 762.78081203 -443 821 C-443.15664575 826.6674432 -443.19644332 832.33062614 -443.1875 838 C-443.18656342 838.77167511 -443.18562683 839.54335022 -443.18466187 840.33840942 C-443.15236447 852.65771971 -442.80697947 864.79411681 -441 877 C-440.84402344 878.05670898 -440.68804687 879.11341797 -440.52734375 880.20214844 C-432.87006033 930.24391361 -412.97576239 974.33681047 -378 1011 C-377.20078125 1011.85207031 -376.4015625 1012.70414063 -375.578125 1013.58203125 C-368.93506083 1020.47475306 -361.63738736 1026.2698841 -354 1032 C-353.43796875 1032.42812988 -352.8759375 1032.85625977 -352.296875 1033.29736328 C-342.74061505 1040.55107812 -332.63684599 1046.47134498 -322 1052 C-321.26716797 1052.38542969 -320.53433594 1052.77085937 -319.77929688 1053.16796875 C-299.23755036 1063.84894786 -276.74645739 1070.86766486 -254 1075 C-253.13068848 1075.16226074 -252.26137695 1075.32452148 -251.36572266 1075.49169922 C-203.13239318 1084.07537163 -151.1723314 1077.30113849 -108 1054 C-107.38785645 1053.67386719 -106.77571289 1053.34773438 -106.14501953 1053.01171875 C-59.84646858 1028.18728876 -28.29009364 982.43611222 -13 933 C4.78095345 872.11315532 5.33787851 804.83807337 -13 744 C-13.24943359 743.16919922 -13.49886719 742.33839844 -13.75585938 741.48242188 C-21.4663556 716.44808581 -33.76308278 692.5458355 -50 672 C-50.66128906 671.13375 -51.32257813 670.2675 -52.00390625 669.375 C-62.27204527 656.28166144 -74.35420854 644.52187905 -88 635 C-89.04929687 634.2678125 -90.09859375 633.535625 -91.1796875 632.78125 C-119.87055206 613.60900168 -152.55398952 601.89241309 -187 599 C-188.23363281 598.89042969 -189.46726562 598.78085937 -190.73828125 598.66796875 C-257.684432 593.45409408 -325.33806711 615.42099103 -374 662 Z " fill="#2AC5F4" transform="translate(680,55)"/>
<path d="M0 0 C0.96035156 0.74636719 1.92070312 1.49273437 2.91015625 2.26171875 C29.87186353 23.74372705 29.87186353 23.74372705 34 32 C34.33 3.29 34.66 -25.42 35 -55 C110.57 -55 186.14 -55 264 -55 C264 245.96 264 546.92 264 857 C204.6 857 145.2 857 84 857 C60 775 60 775 59 771 C42.64922708 768.73163245 42.64922708 768.73163245 27.81640625 773.6484375 C24.76723741 776.78455275 22.41944495 780.36869902 20 784 C17.87890625 786.10546875 17.87890625 786.10546875 15.875 787.75 C13.86581003 789.4256807 11.89747775 791.09653846 9.9921875 792.890625 C-4.68710839 806.70041556 -21.62276064 817.90561246 -39 828 C-39.72219727 828.41975098 -40.44439453 828.83950195 -41.18847656 829.27197266 C-83.53992845 853.52562384 -134.74856532 865.8943196 -183.375 866.23828125 C-184.52616806 866.24802979 -185.67733612 866.25777832 -186.86338806 866.26782227 C-212.84267794 866.44243114 -238.31770972 866.12450719 -264 862 C-265.17852539 861.81276367 -266.35705078 861.62552734 -267.57128906 861.43261719 C-335.67584545 850.22700816 -400.68641313 821.59103262 -454.43164062 778.26416016 C-455.91322843 777.06994134 -457.40172215 775.88430494 -458.890625 774.69921875 C-465.32170925 769.52678956 -471.4235211 764.04327078 -477.46191406 758.42480469 C-479.02685077 756.97512681 -480.60146073 755.53675341 -482.1796875 754.1015625 C-489.50866909 747.43606811 -496.60021979 740.72841931 -503.06640625 733.2109375 C-505.24595981 730.7187611 -507.4977328 728.30161332 -509.75 725.875 C-515.53225025 719.52500615 -520.78866046 712.82147592 -526 706 C-526.49290527 705.35869141 -526.98581055 704.71738281 -527.49365234 704.05664062 C-581.69368704 633.41703285 -611.80605816 548.60547962 -624.25 402.8125 C-624.25067474 401.55122284 -624.25134949 400.28994568 -624.25204468 398.990448 C-624.23415236 377.85159965 -623.51443427 356.9908607 -621 336 C-620.9175 335.29967651 -620.835 334.59935303 -620.75 333.87780762 C-609.97404401 243.19917415 -575.44031543 154.08181759 -512 80 C-511.38898438 79.2884375 -510.77796875 78.576875 -510.1484375 77.84375 C-508.44980929 75.87945955 -506.73073002 73.93607087 -505 72 C-504.2265625 71.13375 -503.453125 70.2675 -502.65625 69.375 C-492.69721323 58.36147699 -482.37631526 47.56117034 -471 38 C-470.04738281 37.15824219 -469.09476563 36.31648437 -468.11328125 35.44921875 C-441.21131795 11.75829051 -410.93952345 -6.92943726 -379 -23 C-378.20835449 -23.4031543 -377.41670898 -23.80630859 -376.60107422 -24.22167969 C-286.71787713 -69.75525351 -169.35007031 -79.32841754 0 0 Z M-327.0625 231.25 C-375.44996433 284.10351047 -388.56995081 354.57001617 -386 424 C-385.57010181 432.75011181 -384.49043591 441.37161572 -383 450 C-382.82307617 451.04446289 -382.64615234 452.08892578 -382.46386719 453.16503906 C-374.8712452 496.79311048 -357.31438904 537.96490298 -327.07421875 570.73828125 C-325.19878414 572.78324667 -323.40967467 574.87619475 -321.625 577 C-288.07387701 615.21312414 -233.63589493 636.59778949 -184 641 C-181.10877455 641.14363552 -178.22262183 641.18593044 -175.328125 641.203125 C-174.53177139 641.21013931 -173.73541779 641.21715363 -172.91493225 641.22438049 C-170.35989655 641.24177903 -167.80509276 641.24823256 -165.25 641.25 C-164.37628754 641.25067474 -163.50257507 641.25134949 -162.60238647 641.25204468 C-149.5142874 641.2359794 -136.83218442 640.79672316 -124 638 C-123.18160645 637.82839355 -122.36321289 637.65678711 -121.52001953 637.47998047 C-103.03854076 633.515868 -85.56665226 627.0951682 -69 618 C-68.04915527 617.47817139 -68.04915527 617.47817139 -67.07910156 616.94580078 C-49.05230882 606.90282726 -31.88947605 593.19370663 -19 577 C-18.24589844 576.071875 -17.49179687 575.14375 -16.71484375 574.1875 C10.81522571 539.75871901 25.10287481 498.11836575 32 455 C32.2477417 453.49131348 32.2477417 453.49131348 32.50048828 451.95214844 C37.79112983 418.08547707 37.37659075 380.84367171 32 347 C31.82839355 345.90623047 31.65678711 344.81246094 31.47998047 343.68554688 C28.88953165 327.76782921 24.97159813 312.33488863 20 297 C19.76732422 296.27731934 19.53464844 295.55463867 19.29492188 294.81005859 C12.78685752 275.0575976 3.10309902 255.89098914 -9 239 C-9.41459473 238.41863281 -9.82918945 237.83726562 -10.25634766 237.23828125 C-27.08907483 213.91397915 -48.45195009 195.19080071 -74 182 C-74.67788574 181.64808594 -75.35577148 181.29617188 -76.05419922 180.93359375 C-155.2675278 140.36319536 -257.0545107 162.89849431 -327.0625 231.25 Z " fill="#2AC5F4" transform="translate(7951,492)"/>
<path d="M0 0 C0.88945313 0.77730469 1.77890625 1.55460938 2.6953125 2.35546875 C9.23473899 8.21486941 15.49062274 14.36453612 21.72268677 20.54745483 C23.1444053 21.95726623 24.57006788 23.36309679 25.99584961 24.76879883 C32.10286175 30.86817788 37.62251363 37.25470663 43 44 C43.86349653 45.02745904 44.73189014 46.05086764 45.609375 47.06640625 C62.11006918 66.30717921 75.69390769 87.89917303 88 110 C88.44311523 110.79293457 88.88623047 111.58586914 89.34277344 112.40283203 C124.26583795 175.45057048 141.46603319 248.44424555 146 320 C146.07814941 321.20736816 146.15629883 322.41473633 146.23681641 323.65869141 C150.87634357 398.70195518 150.87634357 398.70195518 135.64746094 418.60961914 C133.41045289 421.85540246 131.76291318 425.47417364 130 429 C-84.5 429 -299 429 -520 429 C-507.51209909 475.38363195 -491.33089195 514.21941358 -458 549 C-457.28972656 549.75152344 -456.57945312 550.50304688 -455.84765625 551.27734375 C-438.54262468 569.14859312 -416.42378355 582.56491366 -394 593 C-393.29456055 593.3285498 -392.58912109 593.65709961 -391.86230469 593.99560547 C-369.8888803 604.06798725 -346.81433071 610.17483604 -323 614 C-321.84443604 614.18900879 -321.84443604 614.18900879 -320.66552734 614.38183594 C-259.31459774 624.03640669 -193.56728394 610.29207312 -143 574 C-142.39575195 573.566875 -141.79150391 573.13375 -141.16894531 572.6875 C-132.52186324 566.4165283 -124.71478536 559.36698766 -117 552 C-116.34515625 551.39800781 -115.6903125 550.79601563 -115.015625 550.17578125 C-108.95472963 544.44679205 -104.06201259 537.5998392 -99 531 C-62.83790167 545.39435848 -26.80230039 560.10137677 9.21307373 574.8581543 C17.62057519 578.30283438 26.02874211 581.74588816 34.4375 585.1875 C35.34147522 585.55751129 36.24545044 585.92752258 37.17681885 586.30874634 C55.76673161 593.91648082 74.37900479 601.46870715 93 609 C92.45399571 612.26899415 91.75617193 614.82905863 90.06640625 617.6796875 C89.47194702 618.69023193 89.47194702 618.69023193 88.86547852 619.72119141 C88.43549561 620.43194824 88.0055127 621.14270508 87.5625 621.875 C87.11511475 622.62313965 86.66772949 623.3712793 86.20678711 624.14208984 C68.89431458 652.83756611 48.00237449 679.42125473 24.23339844 703.02734375 C22.36153375 704.88838841 20.50074273 706.76003428 18.640625 708.6328125 C11.73378754 715.54768236 4.70059201 721.96810596 -3 728 C-4.25507484 729.02432394 -5.50796847 730.05133135 -6.7578125 731.08203125 C-68.93029547 781.70923083 -145.91011221 810.90922121 -225 821 C-226.18948242 821.16226074 -227.37896484 821.32452148 -228.60449219 821.49169922 C-268.22399564 826.73497959 -311.44589025 826.7556 -351 821 C-352.40017959 820.80434172 -353.80040959 820.60904392 -355.20068359 820.4140625 C-407.9375669 812.96198423 -457.35599195 796.71630913 -505 773 C-505.84369141 772.58282715 -506.68738281 772.1656543 -507.55664062 771.73583984 C-540.01313443 755.5803357 -569.93758886 734.0454291 -597 710 C-597.75313477 709.33363525 -597.75313477 709.33363525 -598.52148438 708.65380859 C-606.23499329 701.78979396 -613.56205903 694.53637376 -620.875 687.25 C-621.76711182 686.36256104 -622.65922363 685.47512207 -623.57836914 684.56079102 C-628.59281989 679.53410416 -633.39695045 674.40467918 -638 669 C-638.845625 668.03578125 -639.69125 667.0715625 -640.5625 666.078125 C-698.09698246 599.32337291 -733.2485558 515.77664327 -749.984375 312.23828125 C-745.50063504 255.77855574 -732.33584356 200.6897424 -709 149 C-708.33045964 147.47928531 -707.66116663 145.95846167 -706.9921875 144.4375 C-683.99417459 93.07586867 -646.99455392 43.42069418 -604 7 C-603.00871094 6.13117188 -602.01742187 5.26234375 -600.99609375 4.3671875 C-531.1109879 -56.73009286 -441.87751685 -93.40101952 -332 -105 C-331.09894531 -105.07057617 -330.19789063 -105.14115234 -329.26953125 -105.21386719 C-233.54118951 -112.31459583 -131.23593955 -90.16749657 0 0 Z M-378 110 C-378.74088867 110.29068359 -379.48177734 110.58136719 -380.24511719 110.88085938 C-398.05061318 117.99050211 -415.16568725 127.83931339 -430 140 C-430.969375 140.76828125 -431.93875 141.5365625 -432.9375 142.328125 C-447.87317593 154.37637869 -461.93854436 168.2850186 -473 184 C-473.4851709 184.68916504 -473.9703418 185.37833008 -474.47021484 186.08837891 C-484.06014471 199.85206982 -492.22366598 214.08201789 -499.5 229.1875 C-499.93393066 230.08509033 -500.36786133 230.98268066 -500.81494141 231.9074707 C-501.41701416 233.18110474 -501.41701416 233.18110474 -502.03125 234.48046875 C-502.56588867 235.60811646 -502.56588867 235.60811646 -503.11132812 236.75854492 C-504.23440414 239.39594939 -504.23440414 239.39594939 -505 244 C-370.36 244 -235.72 244 -97 244 C-103.73679576 217.05281696 -113.81604073 191.70531851 -130 169 C-130.41604492 168.41573242 -130.83208984 167.83146484 -131.26074219 167.22949219 C-160.44038936 126.8037637 -203.2657883 104.16087984 -251.88671875 95.9609375 C-293.98737681 89.63920272 -338.45296382 94.3155279 -378 110 Z " fill="#2AC5F4" transform="translate(9893,534)"/>
<path d="M0 0 C0.92071289 0.41217773 1.84142578 0.82435547 2.79003906 1.24902344 C36.19681235 16.3191091 66.95497324 36.46796605 95 60 C95.9590625 60.7734375 96.918125 61.546875 97.90625 62.34375 C106.35301318 69.25473805 114.08560987 76.86981592 121.8125 84.5625 C122.61605927 85.35829468 122.61605927 85.35829468 123.43585205 86.17016602 C130.43229981 93.11329986 136.85174852 100.28094091 143 108 C143.9348008 109.10181012 144.87616425 110.19813795 145.828125 111.28515625 C164.70978226 132.93815353 179.72124392 157.61012875 193 183 C193.36786621 183.69722168 193.73573242 184.39444336 194.11474609 185.11279297 C196.51956658 189.69148845 198.7962181 194.32140453 201 199 C201.40009277 199.8470752 201.80018555 200.69415039 202.21240234 201.56689453 C231.7295909 264.73878059 244.59607728 333.98456697 247.86376953 403.27539062 C248.00959395 406.19187906 248.18024919 409.10638761 248.3515625 412.02148438 C248.66475126 417.55859369 248.86177792 423.0931141 249.00927734 428.63696289 C249.0855645 430.89515943 249.19421567 433.15252749 249.33740234 435.4074707 C250.84954713 459.95198715 243.116656 469.76668799 231 494 C16.5 494 -198 494 -419 494 C-404.20357186 549.48660553 -381.36718648 599.33707626 -334 634 C-332.95328125 634.76828125 -331.9065625 635.5365625 -330.828125 636.328125 C-275.89417603 675.41048671 -204.09524085 689.55053984 -137.9140625 678.53173828 C-96.78286979 671.02639832 -58.67280419 654.53968915 -27 627 C-26.44199707 626.51644043 -25.88399414 626.03288086 -25.30908203 625.53466797 C-15.08327647 616.59904856 -6.25742906 606.75516489 2 596 C39.28789935 610.84586128 76.42528615 626.06266171 113.56298828 641.27929688 C119.08334763 643.54112493 124.60400601 645.80222152 130.125 648.0625 C131.02046539 648.42910736 131.91593079 648.79571472 132.83853149 649.1734314 C153.20181006 657.50790675 173.5977458 665.76147762 194 674 C193.43246344 677.57704594 192.52946839 680.20313872 190.6640625 683.30078125 C189.94186523 684.50686035 189.94186523 684.50686035 189.20507812 685.73730469 C188.68365234 686.58711914 188.16222656 687.43693359 187.625 688.3125 C187.08552734 689.19969727 186.54605469 690.08689453 185.99023438 691.00097656 C174.99312051 708.92434285 162.51228989 725.89493112 149 742 C148.58111511 742.50260849 148.16223022 743.00521698 147.73065186 743.52305603 C140.57117896 752.09700463 133.09052149 760.22868247 125.16333008 768.09741211 C123.42745269 769.82248477 121.7026491 771.55811991 119.97851562 773.29492188 C113.30390689 779.97783361 106.42085005 786.14018222 99 792 C97.7058231 793.07223808 96.41506184 794.14862211 95.12890625 795.23046875 C78.83085857 808.80091337 61.40191452 820.48362071 43 831 C42.14212891 831.49209961 41.28425781 831.98419922 40.40039062 832.49121094 C-10.55604153 861.52013467 -66.19152014 877.79269505 -124 886 C-125.25828613 886.18079102 -126.51657227 886.36158203 -127.81298828 886.54785156 C-167.07400063 891.86296103 -210.85443426 891.8774248 -250 886 C-251.38283846 885.80372131 -252.76582098 885.60845553 -254.14892578 885.4140625 C-326.62079555 875.11501288 -397.4513403 849.0306686 -457 806 C-457.76006348 805.4548877 -458.52012695 804.90977539 -459.30322266 804.34814453 C-468.3736399 797.82770222 -477.27692654 791.1966528 -485.703125 783.85717773 C-487.83291002 782.00318619 -489.97872494 780.17206243 -492.14599609 778.36206055 C-500.47097013 771.38243878 -508.29776302 764.01543934 -515.9519043 756.30883789 C-517.82183141 754.42811472 -519.70232638 752.55843181 -521.58398438 750.68945312 C-528.51797984 743.76302808 -534.92089843 736.69575427 -541 729 C-541.9228051 727.90968653 -542.85246728 726.8250859 -543.79296875 725.75 C-603.89290134 656.72821771 -637.59358759 565.73539163 -650.1875 418.25 C-650.18689575 417.21575897 -650.1862915 416.18151794 -650.18566895 415.11593628 C-650.15914397 398.33161122 -649.71889646 381.70899762 -648 365 C-647.8146167 363.14689209 -647.8146167 363.14689209 -647.62548828 361.25634766 C-642.43594067 311.10330149 -629.7522095 262.003543 -609 216 C-608.52691406 214.95070313 -608.05382813 213.90140625 -607.56640625 212.8203125 C-593.40665487 181.73793142 -575.30476789 152.69038739 -554 126 C-553.19046875 124.97777344 -552.3809375 123.95554687 -551.546875 122.90234375 C-547.07938618 117.3492239 -542.39049593 112.03550317 -537.5546875 106.80078125 C-535.58217465 104.63825569 -533.66285425 102.45182876 -531.75390625 100.234375 C-527.71606824 95.60623211 -523.41509124 91.2680528 -519.0625 86.9375 C-518.30259766 86.17373047 -517.54269531 85.40996094 -516.75976562 84.62304688 C-512.00269688 79.87410293 -507.10127042 75.37453994 -502 71 C-500.95178437 70.07443273 -499.90483221 69.14743186 -498.859375 68.21875 C-417.20752702 -3.55099631 -308.01568851 -40.00009306 0 0 Z M-355.94921875 229.0078125 C-357.69507863 230.9608083 -359.35163056 232.96377893 -361 235 C-361.91144285 236.09897118 -362.82290281 237.19792816 -363.734375 238.296875 C-377.66273806 255.24357408 -388.47369525 273.46361004 -398 293.1875 C-398.72207642 294.67636719 -398.72207642 294.67636719 -399.45874023 296.1953125 C-400.12885132 297.60490234 -400.12885132 297.60490234 -400.8125 299.04296875 C-401.21082031 299.87852295 -401.60914063 300.71407715 -402.01953125 301.57495117 C-403.23304715 304.36038405 -403.23304715 304.36038405 -404 309 C-269.36 309 -134.72 309 4 309 C-0.32954344 293.082819 -0.32954344 293.082819 -5.875 277.6875 C-6.37688843 276.466073 -6.37688843 276.466073 -6.88891602 275.2199707 C-23.94372774 234.3864708 -51.39860581 200.48108222 -91 180 C-91.90371338 179.52868652 -91.90371338 179.52868652 -92.82568359 179.04785156 C-111.48277846 169.45569908 -131.4110338 164.46369817 -152 161 C-152.7518457 160.86722656 -153.50369141 160.73445312 -154.27832031 160.59765625 C-227.92405279 148.05921495 -304.58194001 176.09642718 -355.94921875 229.0078125 Z " fill="#2AC5F4" transform="translate(1740,469)"/>
<path d="M0 0 C0.84868652 0.37688965 1.69737305 0.7537793 2.57177734 1.14208984 C16.20137143 7.22181072 29.12917706 14.46309415 42 22 C43.21284668 22.70793701 43.21284668 22.70793701 44.45019531 23.43017578 C70.70169135 38.84445879 94.5834826 57.46552904 117 78 C117.52126465 78.47614746 118.0425293 78.95229492 118.57958984 79.44287109 C126.764214 86.92425904 134.82606992 94.37156681 142.06640625 102.7890625 C144.24595981 105.2812389 146.4977328 107.69838668 148.75 110.125 C154.00389508 115.89476091 158.82992589 121.93773333 163.5703125 128.13330078 C164.52473926 129.37946659 165.48309267 130.62263464 166.4453125 131.86279297 C184.33744966 154.92762353 198.85959419 179.98979359 212 206 C212.61705811 207.21792236 212.61705811 207.21792236 213.24658203 208.46044922 C252.54109699 286.70319931 263.62960351 377.96679394 234 581 C216.43929867 633.33897262 189.47272476 681.70110364 154 724 C152.75391968 725.5005896 152.75391968 725.5005896 151.48266602 727.03149414 C144.21130794 735.70874599 136.48283662 743.82865086 128.4543457 751.80639648 C126.42877518 753.82117835 124.41421616 755.84653275 122.40039062 757.87304688 C115.23540246 765.04532026 107.97142806 771.72570919 100 778 C98.8976462 778.93415961 97.80134231 779.87557109 96.71484375 780.828125 C30.49600641 838.57169624 -58.77856569 873.20722271 -192.671875 887.203125 C-193.94053909 887.21018463 -195.20920319 887.21724426 -196.51631165 887.22451782 C-200.59424914 887.24205305 -204.67203266 887.24921041 -208.75 887.25 C-209.79328524 887.25044186 -209.79328524 887.25044186 -210.85764694 887.25089264 C-232.04927229 887.25234275 -252.97823932 886.98335637 -274 884 C-274.71514771 883.90054077 -275.43029541 883.80108154 -276.16711426 883.6986084 C-308.2055404 879.23041278 -339.2780857 872.25230668 -370 862 C-371.07588379 861.64180176 -372.15176758 861.28360352 -373.26025391 860.91455078 C-412.56928609 847.66601842 -449.99316624 828.7409102 -484 805 C-484.73911621 804.48614746 -485.47823242 803.97229492 -486.23974609 803.44287109 C-501.01976141 793.11623671 -515.03555979 781.93248406 -528.19140625 769.59765625 C-530.37536338 767.57772372 -532.58453476 765.62204727 -534.8359375 763.6796875 C-539.08659916 759.97558963 -543.08850282 756.05962422 -547.0625 752.0625 C-547.73087891 751.39798828 -548.39925781 750.73347656 -549.08789062 750.04882812 C-553.59733092 745.53062312 -557.84191481 740.84143523 -562 736 C-562.94962543 734.91718283 -563.90009825 733.83510802 -564.8515625 732.75390625 C-577.71838346 718.00536723 -589.25036211 702.34854294 -600 686 C-600.52561523 685.20174805 -601.05123047 684.40349609 -601.59277344 683.58105469 C-638.26169415 627.37041992 -660.10378528 562.25010104 -669.1875 496 C-669.34234863 494.88802246 -669.49719727 493.77604492 -669.65673828 492.63037109 C-672.60988993 469.97240343 -673.37633779 447.32944293 -673.3125 424.5 C-673.31057493 423.12742118 -673.30873458 421.75484223 -673.30697632 420.38226318 C-673.26865647 399.78490539 -672.75500924 379.43813686 -670 359 C-669.82839355 357.69224609 -669.65678711 356.38449219 -669.47998047 355.03710938 C-659.4987562 280.25897221 -633.20303427 206.86141182 -588 146 C-587.47019531 145.28618164 -586.94039062 144.57236328 -586.39453125 143.83691406 C-576.55930195 130.65513703 -566.10917302 118.12903153 -555 106 C-554.52916992 105.48405273 -554.05833984 104.96810547 -553.57324219 104.43652344 C-545.77349259 95.89441825 -537.97768629 87.45844772 -529.19140625 79.91015625 C-526.6254973 77.67356182 -524.1284357 75.36875933 -521.625 73.0625 C-516.57535971 68.47316705 -511.41000918 64.15680452 -506 60 C-505.32356445 59.47809082 -504.64712891 58.95618164 -503.95019531 58.41845703 C-486.72918382 45.17350565 -468.90452241 32.73683936 -450 22 C-449.21641113 21.55479004 -448.43282227 21.10958008 -447.62548828 20.65087891 C-368.18635957 -24.16909889 -278.08755873 -45.56391218 0 0 Z M-246 173 C-247.00337402 173.20399414 -248.00674805 173.40798828 -249.04052734 173.61816406 C-283.4565354 180.85643057 -315.7436798 194.47591208 -343 217 C-343.56138672 217.45987305 -344.12277344 217.91974609 -344.70117188 218.39355469 C-357.32464705 228.78646039 -369.0767421 239.96034706 -379 253 C-379.47904785 253.62438965 -379.9580957 254.2487793 -380.45166016 254.89208984 C-425.93536326 314.56908803 -440.94809488 391.87153486 -431.1875 465.4375 C-423.90981223 515.89482741 -404.13422445 563.8131487 -370 602 C-369.50999512 602.55171875 -369.01999023 603.1034375 -368.51513672 603.671875 C-358.35007709 615.06876602 -347.33601745 624.98940484 -335 634 C-334.45843262 634.39799805 -333.91686523 634.79599609 -333.35888672 635.20605469 C-295.63504332 662.56620485 -249.52160396 675.21087627 -203.3125 675.25 C-202.59001068 675.25067474 -201.86752136 675.25134949 -201.12313843 675.25204468 C-157.67466193 675.18808217 -114.59889147 663.37427562 -79 638 C-78.41573242 637.58395508 -77.83146484 637.16791016 -77.22949219 636.73925781 C-69.11806882 630.88436093 -61.7080637 624.34148888 -54.49169922 617.42871094 C-53.11834504 616.11334782 -51.7335176 614.8099915 -50.34765625 613.5078125 C-10.03614638 574.66101784 10.07973611 517.28843265 17 463 C17.11714355 462.0910498 17.23428711 461.18209961 17.35498047 460.24560547 C26.02651692 389.34001094 11.69075309 309.78185625 -32.29785156 252.20898438 C-45.14328346 235.83399249 -59.80616881 219.86326458 -77 208 C-77.96824707 207.32976807 -77.96824707 207.32976807 -78.95605469 206.64599609 C-88.88312514 199.84897738 -99.07519242 194.02978027 -110 189 C-111.72283203 188.20142578 -111.72283203 188.20142578 -113.48046875 187.38671875 C-126.65417808 181.51994601 -140.02138967 177.22217472 -154.125 174.25 C-155.06520996 174.05140381 -156.00541992 173.85280762 -156.97412109 173.64819336 C-172.05640439 170.62733802 -186.7236167 169.62138412 -202.0625 169.6875 C-203.41553223 169.69073273 -203.41553223 169.69073273 -204.79589844 169.69403076 C-218.71399561 169.74730135 -232.32008576 170.2168878 -246 173 Z " fill="#2AC5F4" transform="translate(4410,471)"/>
<path d="M0 0 C0.83241211 0.3609375 1.66482422 0.721875 2.52246094 1.09375 C28.36839564 12.41862682 54.16036598 28.41766647 74.69921875 47.83984375 C76.65463407 49.67574303 78.64738765 51.42688793 80.6796875 53.17578125 C92.40495272 63.39979839 103.55055474 74.63405928 113 87 C114.05897832 88.32209343 115.12039455 89.64223602 116.18359375 90.9609375 C175.42309138 164.95261944 199.72498746 261.08916573 206.12025452 392.14630127 C206.12069169 394.30845869 206.12156928 396.47061607 206.12284368 398.63277316 C206.12505992 404.51641142 206.12110711 410.40003118 206.11606562 416.28366709 C206.11171967 422.65010988 206.11321047 429.01655175 206.1139679 435.38299561 C206.11449052 446.39415993 206.11140638 457.40531821 206.10573006 468.41648102 C206.0997972 479.95505044 206.09596093 491.49361748 206.09487724 503.03218842 C206.0948085 503.75171395 206.09473976 504.47123948 206.09466894 505.21256882 C206.09433057 508.867213 206.0940292 512.52185718 206.09374207 516.17650136 C206.091646 542.00992179 206.08492083 567.84333913 206.07543945 593.67675781 C206.06624357 618.76139307 206.0591825 643.84602746 206.05493164 668.93066406 C206.054661 670.51020106 206.05439029 672.08973805 206.05411953 673.66927505 C206.05193051 686.50528355 206.04988803 699.34129207 206.04788104 712.1773006 C206.03850772 771.45153667 206.01843359 830.72576465 206 890 C125.81 890 45.62 890 -37 890 C-37.04898438 856.31035156 -37.09796875 822.62070313 -37.1484375 787.91015625 C-37.18382843 766.55012775 -37.21969946 745.19010168 -37.2578125 723.83007812 C-37.2765503 713.3185498 -37.29519778 702.80702131 -37.31362569 692.29549243 C-37.31612503 690.86997215 -37.31862723 689.44445188 -37.3211323 688.0189316 C-37.36092808 665.35963118 -37.39447042 642.7003269 -37.42468691 620.04101184 C-37.45670468 596.0568178 -37.49599888 572.07264504 -37.54279006 548.08847517 C-37.5705413 533.74571672 -37.59263159 519.40297325 -37.60726251 505.06019532 C-37.61788098 495.19791445 -37.63578234 485.33566277 -37.65916704 475.473404 C-37.67241054 469.80058629 -37.6826778 464.12780911 -37.68421364 458.45497513 C-37.7076504 394.54074305 -39.79416999 325.48432712 -70.97021484 267.90332031 C-72.02568282 265.95253123 -73.053493 263.98853481 -74.08203125 262.0234375 C-93.06882096 226.39833799 -123.8510995 200.49568363 -162.41015625 188.5390625 C-175.78946349 184.67303328 -190.07846964 182.38626211 -204 182 C-204.71172363 181.97421875 -205.42344727 181.9484375 -206.15673828 181.921875 C-243.48588295 180.69570724 -280.24468823 188.9896806 -313 207 C-313.94649414 207.51965332 -313.94649414 207.51965332 -314.91210938 208.04980469 C-328.59554785 215.67263764 -340.63765722 225.24242707 -352 236 C-352.88171875 236.82886719 -353.7634375 237.65773438 -354.671875 238.51171875 C-408.25061183 290.3499034 -425.93005337 372.38796173 -427.16121544 444.22889814 C-427.31450817 455.66783631 -427.31345896 467.10804563 -427.31667423 478.54781175 C-427.32041872 484.08658242 -427.33559815 489.62532437 -427.34928894 495.16407776 C-427.37140942 504.72744689 -427.38651344 514.29080559 -427.39665604 523.85419464 C-427.41133042 537.68072373 -427.43689089 551.50721644 -427.46498732 565.33372399 C-427.51029748 587.77406781 -427.54699382 610.21441808 -427.578125 632.65478516 C-427.60836127 654.43506803 -427.64276577 676.21533798 -427.68261719 697.99560547 C-427.68512388 699.36876198 -427.68763046 700.74191848 -427.69013691 702.11507499 C-427.70956811 712.74892335 -427.72926179 723.38277121 -427.74901867 734.01661897 C-427.84555953 786.01106352 -427.9213334 838.00551939 -428 890 C-507.86 890 -587.72 890 -670 890 C-670 589.04 -670 288.08 -670 -22 C-604 -22 -538 -22 -470 -22 C-468.49713691 -20.49713691 -468.56964929 -18.97535538 -468.23435974 -16.88922119 C-468.08994446 -16.003172 -467.94552917 -15.1171228 -467.79673767 -14.20422363 C-467.64137039 -13.22449585 -467.48600311 -12.24476807 -467.32592773 -11.23535156 C-467.15997101 -10.20935852 -466.99401428 -9.18336548 -466.82302856 -8.12628174 C-466.27242446 -4.71504608 -465.72784431 -1.30287968 -465.18359375 2.109375 C-464.80412404 4.47255323 -464.42440596 6.83569159 -464.04444885 9.1987915 C-463.24743616 14.16172884 -462.45338045 19.12512807 -461.66137695 24.08886719 C-460.64567131 30.45317071 -459.62282398 36.81630142 -458.59776211 43.17910385 C-457.81168601 48.06336367 -457.02935275 52.94821727 -456.24815559 57.83325958 C-455.8725168 60.17940779 -455.49572452 62.52537162 -455.11776543 64.87114716 C-454.58961014 68.15276325 -454.06647962 71.43514195 -453.54467773 74.71777344 C-453.38728622 75.6894043 -453.22989471 76.66103516 -453.06773376 77.66210938 C-452.92613831 78.55943787 -452.78454285 79.45676636 -452.63865662 80.38128662 C-452.51459159 81.15705929 -452.39052656 81.93283195 -452.26270199 82.73211288 C-451.97995808 85.17302041 -451.95568437 87.54493398 -452 90 C-434.13014154 91.56033416 -434.13014154 91.56033416 -417.8046875 86.54296875 C-414.99301788 83.71626346 -413.0557071 80.4051348 -411 77 C-400.39648432 63.67282241 -387.47414708 51.376642 -374 41 C-372.84100936 40.0554362 -371.68496445 39.10725107 -370.53125 38.15625 C-293.91712156 -24.75315277 -188.64553695 -40.40392332 0 0 Z " fill="#2AC5F4" transform="translate(5525,459)"/>
<path d="M0 0 C0 77.22 0 154.44 0 234 C-13.66915476 232.86090377 -13.66915476 232.86090377 -20.4140625 232.0625 C-21.93357096 231.88782245 -23.45310299 231.7133499 -24.97265625 231.5390625 C-27.28885243 231.271491 -29.60483361 231.00237655 -31.92041016 230.72949219 C-110.45255124 221.50619994 -196.87137177 233.14806722 -260.625 283.28515625 C-273.07465506 293.21924865 -284.07000971 303.51006148 -294 316 C-295.19302734 317.45019531 -295.19302734 317.45019531 -296.41015625 318.9296875 C-303.69600567 328.00524636 -309.49855819 337.7574088 -315 348 C-315.36867187 348.68513672 -315.73734375 349.37027344 -316.1171875 350.07617188 C-329.16025805 374.81387523 -336.31047525 403.25696757 -339 431 C-339.08193334 431.82967559 -339.16386668 432.65935117 -339.24828285 433.51416844 C-340.13787824 443.5717994 -340.15325631 453.58477776 -340.15821838 463.67207336 C-340.16279148 465.65082386 -340.16779258 467.6295734 -340.17318195 469.60832185 C-340.18668735 475.01749891 -340.19415924 480.42666973 -340.20060861 485.83585918 C-340.20864616 491.6795918 -340.22233229 497.52331158 -340.23532104 503.36703491 C-340.25703638 513.48233447 -340.27519884 523.59763536 -340.29092598 533.71294594 C-340.31366976 548.33786238 -340.34180301 562.96276549 -340.37124526 577.58766963 C-340.4189525 601.31747312 -340.46215346 625.04728287 -340.50268555 648.77709961 C-340.54206149 671.82397924 -340.58350674 694.87085366 -340.62768555 717.91772461 C-340.63046289 719.36809327 -340.63324016 720.81846193 -340.63601738 722.2688306 C-340.6575314 733.49877869 -340.67917672 744.72872653 -340.70085371 755.95867431 C-340.80701535 810.97243902 -340.90277692 865.98621737 -341 921 C-421.19 921 -501.38 921 -584 921 C-584 620.04 -584 319.08 -584 9 C-518 9 -452 9 -384 9 C-366 100 -366 100 -365 110 C-347.46951993 111.56645009 -347.46951993 111.56645009 -331.56640625 106.35546875 C-328.79676848 103.7122129 -326.50159291 100.7321572 -324.26367188 97.63330078 C-322.35695339 95.16885977 -320.06777161 93.35429911 -317.625 91.4375 C-316.72910156 90.72851562 -315.83320312 90.01953125 -314.91015625 89.2890625 C-313.94980469 88.53367187 -312.98945312 87.77828125 -312 87 C-310.89269518 86.09338371 -309.78732373 85.18440248 -308.68359375 84.2734375 C-218.43608296 10.14908948 -113.1372371 0 0 0 Z " fill="#2AC5F4" transform="translate(9052,428)"/>
<path d="M0 0 C3.10233331 0.58687103 4.86896984 1.45625952 7.21484375 3.5546875 C7.81200195 4.0815918 8.40916016 4.60849609 9.02441406 5.15136719 C9.65573242 5.72016602 10.28705078 6.28896484 10.9375 6.875 C12.28457645 8.06576041 13.63224307 9.25585346 14.98046875 10.4453125 C15.65513184 11.04375977 16.32979492 11.64220703 17.02490234 12.25878906 C19.90102629 14.79432874 22.81953811 17.27764452 25.75 19.75 C26.28367188 20.20109131 26.81734375 20.65218262 27.3671875 21.11694336 C30.69727317 23.92389057 34.05842668 26.68984476 37.4375 29.4375 C42.30049424 33.39443418 47.05700203 37.46435942 51.80615234 41.55615234 C56.22308718 45.35401501 60.70953997 49.05680041 65.23046875 52.73046875 C71.10799411 57.54688939 76.87611914 62.494943 82.66601562 67.41601562 C88.22068034 72.1351961 93.78059925 76.84075049 99.4375 81.4375 C104.30129025 85.39508188 109.05881231 89.46542446 113.80834961 93.55834961 C117.33298919 96.58945289 120.89039882 99.56985316 124.5 102.5 C128.7279248 105.93208013 132.8752789 109.44551171 137 113 C142.01591689 117.32172863 147.09175299 121.55479196 152.23046875 125.73046875 C158.10799411 130.54688939 163.87611914 135.494943 169.66601562 140.41601562 C175.22068034 145.1351961 180.78059925 149.84075049 186.4375 154.4375 C191.30129025 158.39508188 196.05881231 162.46542446 200.80834961 166.55834961 C204.33298919 169.58945289 207.89039882 172.56985316 211.5 175.5 C216.34596789 179.4337857 221.08098528 183.48447759 225.80859375 187.55859375 C229.33317903 190.58958284 232.89048832 193.56992581 236.5 196.5 C240.72792863 199.93208324 244.87520077 203.4455984 249 207 C254.92115228 212.09968365 260.93052099 217.07737022 267 222 C269.06407933 223.68557747 271.12569712 225.37413591 273.1875 227.0625 C274.10917969 227.81660156 275.03085937 228.57070312 275.98046875 229.34765625 C276.64691406 229.89292969 277.31335937 230.43820313 278 231 C277.13497521 235.51478506 274.52629757 238.07246011 271.4375 241.3125 C270.88956787 241.89427002 270.34163574 242.47604004 269.77709961 243.07543945 C265.7290142 247.33072206 261.58901087 251.3271256 257 255 C256.09378906 255.74378906 255.18757813 256.48757813 254.25390625 257.25390625 C228.53323902 277.97459109 197.61728603 291.0660146 165 296 C164.02824829 296.15142456 164.02824829 296.15142456 163.03686523 296.3059082 C116.26777862 302.55636147 67.12370132 290.40840323 29.38671875 262.03515625 C23.34899617 257.2932435 17.59937211 252.24991928 12 247 C11.50097168 246.5349707 11.00194336 246.06994141 10.48779297 245.59082031 C-23.85999587 213.32695953 -40.98706911 168.52316496 -43.1875 122.0390625 C-43.96400849 77.29276057 -28.12984468 34.53685919 0 0 Z " fill="#2AC5F4" transform="translate(6109,0)"/>
<path d="M0 0 C1.98833488 2.22460306 3.74490948 4.41200718 5.5 6.8125 C6.02754883 7.52809082 6.55509766 8.24368164 7.09863281 8.98095703 C37.07961643 50.49790719 47.73450688 99.58182879 40.50048828 149.90576172 C39.27925144 157.45598401 37.34191173 164.72683537 35 172 C34.75797852 172.76296387 34.51595703 173.52592773 34.26660156 174.31201172 C28.18741705 193.0620319 19.11220571 210.4556701 7 226 C6.33097656 226.89074219 5.66195312 227.78148437 4.97265625 228.69921875 C-24.78411249 266.90896595 -68.24359906 289.81362364 -115.78344727 296.53491211 C-119.83770755 297.02866342 -123.87138129 297.17684283 -127.953125 297.203125 C-128.68694901 297.21013931 -129.42077301 297.21715363 -130.17683411 297.22438049 C-132.5346192 297.24179554 -134.89215293 297.24823369 -137.25 297.25 C-138.05645966 297.25067474 -138.86291931 297.25134949 -139.69381714 297.25204468 C-152.02889856 297.23564674 -163.92657219 296.73441878 -176 294 C-176.7640918 293.83371094 -177.52818359 293.66742188 -178.31542969 293.49609375 C-210.2965152 286.36276613 -239.24518667 271.57298183 -263 249 C-264.41071844 247.78472745 -265.82693719 246.57579395 -267.25 245.375 C-275.44835914 238.19507057 -275.44835914 238.19507057 -278 234 C-277.9765625 232.01171875 -277.9765625 232.01171875 -277 230 C-274.98828125 228.0625 -274.98828125 228.0625 -272.3125 226 C-270.82169922 224.824375 -270.82169922 224.824375 -269.30078125 223.625 C-268.76533691 223.20347656 -268.22989258 222.78195313 -267.67822266 222.34765625 C-264.72157529 219.97339186 -261.86653371 217.48162951 -259 215 C-254.01167516 210.69904541 -248.9577458 206.4951113 -243.84375 202.34375 C-240.52313514 199.60697951 -237.25953218 196.8089705 -234 194 C-229.01059233 189.70027287 -223.95778844 185.49514591 -218.84375 181.34375 C-215.52313514 178.60697951 -212.25953218 175.8089705 -209 173 C-204.01059233 168.70027287 -198.95778844 164.49514591 -193.84375 160.34375 C-190.52313406 157.60697862 -187.25956291 154.80893615 -184 152 C-178.98408311 147.67827137 -173.90824701 143.44520804 -168.76953125 139.26953125 C-163.45558334 134.91494206 -158.23473234 130.44921565 -153 126 C-146.89111965 120.80780978 -140.78489359 115.61876419 -134.5625 110.5625 C-129.69870975 106.60491812 -124.94118769 102.53457554 -120.19165039 98.44165039 C-115.8019965 94.66665609 -111.33885229 90.99271539 -106.84375 87.34375 C-103.52313406 84.60697862 -100.25956291 81.80893615 -97 79 C-91.98408311 74.67827137 -86.90824701 70.44520804 -81.76953125 66.26953125 C-76.45558334 61.91494206 -71.23473234 57.44921565 -66 53 C-59.89111965 47.80780978 -53.78489359 42.61876419 -47.5625 37.5625 C-42.69870975 33.60491812 -37.94118769 29.53457554 -33.19165039 25.44165039 C-28.81366486 21.6766906 -24.36642937 18.00814159 -19.875 14.37890625 C-17.65458935 12.54163711 -15.47685826 10.67893469 -13.3125 8.77734375 C-12.68021484 8.22433594 -12.04792969 7.67132813 -11.39648438 7.1015625 C-10.15266875 6.01018154 -8.91416883 4.91270602 -7.68164062 3.80859375 C-3.33250427 0 -3.33250427 0 0 0 Z " fill="#2AC5F4" transform="translate(6985,0)"/>
</svg>
