<svg width="742" height="175" viewBox="0 0 742 175" fill="none" xmlns="http://www.w3.org/2000/svg">
<g id="dialpad">
<path id="Dialpad" fill-rule="evenodd" clip-rule="evenodd" d="M117.172 40.9912C117.172 43.5108 116.171 45.9271 114.389 47.7087C112.608 49.4903 110.191 50.4912 107.672 50.4912C105.152 50.4912 102.736 49.4903 100.954 47.7087C99.1728 45.9271 98.1719 43.5108 98.1719 40.9912C98.1719 38.4717 99.1728 36.0553 100.954 34.2737C102.736 32.4921 105.152 31.4912 107.672 31.4912C110.191 31.4912 112.608 32.4921 114.389 34.2737C116.171 36.0553 117.172 38.4717 117.172 40.9912ZM227.173 142.829V32.913C227.175 32.6356 227.284 32.37 227.477 32.1743C227.669 31.9786 227.93 31.8687 228.202 31.8687H241.385C241.656 31.8687 241.916 31.9778 242.109 32.1724C242.301 32.3669 242.411 32.6311 242.414 32.9077V142.829C242.413 142.967 242.386 143.103 242.334 143.23C242.281 143.357 242.205 143.472 242.109 143.569C242.013 143.666 241.899 143.743 241.774 143.795C241.649 143.847 241.515 143.874 241.38 143.873H228.202C227.635 143.873 227.173 143.407 227.173 142.829ZM67.4034 32.9398V71.4652V71.4705C61.0825 64.1339 52.121 59.6141 41.1277 59.6141C18.4481 59.6141 0 78.8179 0 102.429C0 126.035 18.4481 145.239 41.1277 145.239C52.1262 145.239 61.0825 140.713 67.4034 133.377V142.856C67.4034 142.994 67.4302 143.131 67.4822 143.258C67.5343 143.386 67.6105 143.502 67.7066 143.6C67.8027 143.697 67.9168 143.774 68.0422 143.827C68.1677 143.879 68.3021 143.906 68.4376 143.905H81.6149C81.8878 143.905 82.1495 143.795 82.3425 143.598C82.5354 143.401 82.6438 143.134 82.6438 142.856V32.9398C82.6438 32.3614 82.1819 31.8902 81.6149 31.8902H68.4324C67.8654 31.8902 67.4034 32.3614 67.4034 32.9398ZM41.9677 129.393C27.6879 129.393 16.7157 117.295 16.7157 102.429C16.7157 87.563 27.6879 75.4602 41.9729 75.4602C56.2579 75.4602 65.9229 87.5576 65.9229 102.424C65.9229 117.29 56.2579 129.393 41.9677 129.393ZM301.207 59.598C290.209 59.598 281.253 64.1232 274.932 71.4598V62.929C274.932 62.3506 274.47 61.8794 273.897 61.8794H260.72C260.148 61.8794 259.691 62.3506 259.691 62.929V172.839C259.691 173.118 259.8 173.385 259.993 173.582C260.186 173.778 260.447 173.889 260.72 173.889H273.903C274.176 173.889 274.437 173.778 274.63 173.582C274.823 173.385 274.932 173.118 274.932 172.839V133.371C281.253 140.708 290.214 145.228 301.207 145.228C323.887 145.228 342.335 126.019 342.335 102.413C342.335 78.8072 323.887 59.598 301.207 59.598ZM300.362 129.382C286.077 129.382 276.412 117.284 276.412 102.413C276.412 87.5469 286.077 75.4441 300.367 75.4441C314.647 75.4441 325.619 87.5415 325.619 102.413C325.619 117.279 314.647 129.382 300.362 129.382ZM194.661 62.929V71.4705L194.656 71.4759C188.329 64.1393 179.373 59.6195 168.38 59.6195C145.7 59.6195 127.252 78.8232 127.252 102.434C127.252 126.04 145.7 145.249 168.38 145.249C179.378 145.249 188.335 140.724 194.656 133.388V142.861C194.656 142.999 194.682 143.136 194.734 143.264C194.786 143.391 194.863 143.507 194.959 143.605C195.055 143.702 195.169 143.78 195.294 143.832C195.42 143.885 195.554 143.911 195.69 143.91H208.867C209.002 143.91 209.136 143.883 209.261 143.831C209.386 143.778 209.499 143.701 209.595 143.603C209.69 143.506 209.766 143.39 209.818 143.263C209.869 143.135 209.896 142.999 209.896 142.861V62.929C209.896 62.3506 209.439 61.8794 208.867 61.8794H195.685C195.118 61.8794 194.661 62.3506 194.661 62.929ZM169.225 129.393C154.94 129.393 143.968 117.295 143.968 102.424L143.973 102.429C143.973 87.563 154.94 75.4602 169.225 75.4602C183.515 75.4602 193.175 87.5576 193.175 102.424C193.175 117.29 183.51 129.393 169.225 129.393ZM418.039 71.4705V62.929C418.039 62.6506 418.147 62.3836 418.34 62.1868C418.533 61.9899 418.795 61.8794 419.068 61.8794H432.25C432.523 61.8794 432.785 61.9899 432.978 62.1868C433.171 62.3836 433.279 62.6506 433.279 62.929V142.856C433.279 143.134 433.171 143.401 432.978 143.598C432.785 143.795 432.523 143.905 432.25 143.905H419.068C418.501 143.905 418.039 143.439 418.039 142.861V133.382C411.718 140.719 402.756 145.244 391.763 145.244C369.083 145.244 350.635 126.035 350.635 102.429C350.635 78.8179 369.083 59.6141 391.763 59.6141C402.756 59.6141 411.718 64.1339 418.039 71.4705ZM367.351 102.429C367.351 117.295 378.318 129.393 392.608 129.393C406.893 129.393 416.558 117.295 416.558 102.424C416.558 87.5576 406.893 75.4602 392.608 75.4602C378.318 75.4602 367.351 87.5576 367.351 102.429ZM510.846 71.4705V32.9398C510.846 32.6614 510.955 32.3944 511.148 32.1976C511.341 32.0007 511.602 31.8902 511.875 31.8902H525.058C525.331 31.8902 525.592 32.0007 525.785 32.1976C525.978 32.3944 526.087 32.6614 526.087 32.9398V142.856C526.087 143.134 525.978 143.401 525.785 143.598C525.592 143.795 525.331 143.905 525.058 143.905H511.875C511.308 143.905 510.846 143.434 510.846 142.856V133.382C504.525 140.719 495.564 145.239 484.57 145.239C461.891 145.239 443.443 126.035 443.443 102.429C443.443 78.8179 461.891 59.6141 484.57 59.6141C495.564 59.6141 504.525 64.1339 510.846 71.4705ZM460.159 102.429C460.159 117.295 471.131 129.393 485.416 129.393C499.701 129.393 509.366 117.295 509.366 102.424C509.366 87.5576 499.701 75.4602 485.416 75.4602C471.131 75.4602 460.159 87.5576 460.159 102.429ZM99.9212 62.9236V142.829C99.9226 143.106 100.032 143.372 100.224 143.567C100.417 143.763 100.678 143.873 100.95 143.873H114.133C114.406 143.873 114.667 143.762 114.86 143.566C115.053 143.369 115.162 143.102 115.162 142.823V62.9236C115.162 62.3453 114.7 61.874 114.133 61.874H100.95C100.383 61.874 99.9212 62.3453 99.9212 62.9236Z" fill="white"/>
<g id="icon">
<path id="background" d="M567.09 38.5253C567.09 17.2483 584.338 0 605.615 0H702.987C724.264 0 741.512 17.2484 741.512 38.5253V135.897C741.512 157.174 724.264 174.422 702.987 174.422H605.615C584.338 174.422 567.09 157.174 567.09 135.897V38.5253Z" fill="white"/>
<g id="Subtract">
<path fill-rule="evenodd" clip-rule="evenodd" d="M605.615 0C584.338 0 567.09 17.2483 567.09 38.5253V135.897C567.09 157.174 584.338 174.422 605.615 174.422H702.987C724.264 174.422 741.512 157.174 741.512 135.897V38.5253C741.512 17.2484 724.264 0 702.987 0H605.615ZM700.453 60.6856C705.7 60.6856 709.953 56.4323 709.953 51.1856C709.953 45.9389 705.7 41.6856 700.453 41.6856C695.206 41.6856 690.953 45.9389 690.953 51.1856C690.953 56.4323 695.206 60.6856 700.453 60.6856ZM638.867 58.744C636.68 58.744 632.917 60.8265 630.959 67.2181L630.955 67.2308L612.413 127.013C611.179 130.991 606.955 133.215 602.977 131.982C598.999 130.748 596.775 126.523 598.008 122.546L616.539 62.8012L616.543 62.7878C619.557 52.9612 627.457 43.6625 638.867 43.6625C650.273 43.6625 658.161 52.9418 661.18 62.7536L661.183 62.762L675.457 108.78L675.46 108.789C677.419 115.162 681.176 117.239 683.36 117.239C688.718 117.239 693.06 112.897 693.06 107.539V76.0331C693.06 71.8685 696.436 68.4924 700.601 68.4924C704.766 68.4924 708.142 71.8685 708.142 76.0331V107.539C708.142 121.226 697.047 132.32 683.36 132.32C671.967 132.32 664.068 123.045 661.047 113.232L661.044 113.221L646.77 67.2031L646.767 67.1941C644.807 60.8174 641.058 58.744 638.867 58.744Z" fill="black"/>
<path fill-rule="evenodd" clip-rule="evenodd" d="M605.615 0C584.338 0 567.09 17.2483 567.09 38.5253V135.897C567.09 157.174 584.338 174.422 605.615 174.422H702.987C724.264 174.422 741.512 157.174 741.512 135.897V38.5253C741.512 17.2484 724.264 0 702.987 0H605.615ZM700.453 60.6856C705.7 60.6856 709.953 56.4323 709.953 51.1856C709.953 45.9389 705.7 41.6856 700.453 41.6856C695.206 41.6856 690.953 45.9389 690.953 51.1856C690.953 56.4323 695.206 60.6856 700.453 60.6856ZM638.867 58.744C636.68 58.744 632.917 60.8265 630.959 67.2181L630.955 67.2308L612.413 127.013C611.179 130.991 606.955 133.215 602.977 131.982C598.999 130.748 596.775 126.523 598.008 122.546L616.539 62.8012L616.543 62.7878C619.557 52.9612 627.457 43.6625 638.867 43.6625C650.273 43.6625 658.161 52.9418 661.18 62.7536L661.183 62.762L675.457 108.78L675.46 108.789C677.419 115.162 681.176 117.239 683.36 117.239C688.718 117.239 693.06 112.897 693.06 107.539V76.0331C693.06 71.8685 696.436 68.4924 700.601 68.4924C704.766 68.4924 708.142 71.8685 708.142 76.0331V107.539C708.142 121.226 697.047 132.32 683.36 132.32C671.967 132.32 664.068 123.045 661.047 113.232L661.044 113.221L646.77 67.2031L646.767 67.1941C644.807 60.8174 641.058 58.744 638.867 58.744Z" fill="url(#paint0_linear_1_120)"/>
</g>
</g>
</g>
<defs>
<linearGradient id="paint0_linear_1_120" x1="751.911" y1="174.405" x2="646.738" y2="-48.6002" gradientUnits="userSpaceOnUse">
<stop offset="0.297344" stop-color="#7C52FF"/>
<stop offset="0.762314" stop-color="#F9008E"/>
<stop offset="1" stop-color="#F6AB3C"/>
</linearGradient>
</defs>
</svg>
