<?xml version="1.0" encoding="UTF-8"?>
<svg xmlns="http://www.w3.org/2000/svg" fill="none" viewBox="0 0 399 399" width="1920" height="1920"><path fill="#000" d="M199.008 0C89.174 0 0 89.16 0 199.008c0 109.847 89.043 199.007 199.008 199.007 109.964 0 199.007-89.03 199.007-199.007S308.972 0 199.008 0m-78.714 120.452h113.494l-17.259 27.625H103.034zm189.724 137.865-17.26-27.494h-50.34l17.259-27.626h15.952l-19.22-30.767-53.61 85.887H59.624l34.519-55.12H68.777l17.26-27.625h110.617l-17.26 27.625H126.57l-17.26 27.626h78.061l68.907-110.371 86.167 137.996h-32.558z"/></svg>
