<?xml version="1.0" encoding="UTF-8" standalone="no"?>
<!-- Created with Inkscape (http://www.inkscape.org/) -->

<svg
   version="1.1"
   id="svg2"
   width="273.82666"
   height="96"
   viewBox="0 0 273.82666 96"
   sodipodi:docname="FAS Logo_ClearSpace_WhiteText_CMYK.eps"
   xmlns:inkscape="http://www.inkscape.org/namespaces/inkscape"
   xmlns:sodipodi="http://sodipodi.sourceforge.net/DTD/sodipodi-0.dtd"
   xmlns="http://www.w3.org/2000/svg"
   xmlns:svg="http://www.w3.org/2000/svg">
  <defs
     id="defs6" />
  <sodipodi:namedview
     id="namedview4"
     pagecolor="#ffffff"
     bordercolor="#000000"
     borderopacity="0.25"
     inkscape:showpageshadow="2"
     inkscape:pageopacity="0.0"
     inkscape:pagecheckerboard="0"
     inkscape:deskcolor="#d1d1d1" />
  <g
     id="g8"
     inkscape:groupmode="layer"
     inkscape:label="ink_ext_XXXXXX"
     transform="matrix(1.3333333,0,0,-1.3333333,0,96)">
    <g
       id="g10"
       transform="scale(0.1)">
      <path
         d="M 900,180.266 H 180 v 360 h 720 v -360 0"
         style="fill:#ae1329;fill-opacity:1;fill-rule:nonzero;stroke:none"
         id="path12" />
      <path
         d="m 770.488,361.039 c -5.625,-0.684 -9.914,-0.898 -12.832,-0.898 -2.933,0 -7.211,0.441 -13.043,1.113 0.879,-8.555 1.117,-11.703 1.344,-18.688 v -11.25 -11.48 l 0.219,-53.574 c 0,-21.391 0.676,-25.903 5.844,-34.446 3.16,-5.183 7.668,-9.921 13.296,-13.718 10.579,-7.453 22.063,-10.137 42.997,-10.137 19.578,0 31.746,2.93 42.542,10.562 15.75,11.047 19.133,20.942 19.133,57.407 l -0.218,35.359 c 0,2.93 0.218,10.566 0.445,22.957 0,9.445 0.234,16.215 0.461,19.813 0.23,1.582 0.437,3.824 0.672,6.98 -5.18,-0.457 -9.012,-0.898 -11.485,-0.898 -2.48,0 -6.3,0.441 -11.246,0.898 0.887,-7.879 1.344,-11.039 1.563,-17.797 0.675,-8.996 0.906,-19.804 0.906,-31.738 v -35.117 c 0,-24.746 -0.688,-30.157 -5.402,-37.149 -1.813,-2.48 -4.942,-5.183 -9.02,-7.636 -7.641,-4.747 -15.984,-6.551 -27.23,-6.551 -15.993,0 -30.844,5.879 -36.465,14.187 -4.512,6.77 -4.723,9.453 -4.957,32.864 v 45.925 c 0,2.493 0.234,6.77 0.445,12.395 0,5.625 0.234,9.226 0.234,10.562 0.45,7.895 0.68,11.278 1.797,20.055 m -61.234,-21.82 c -0.449,4.719 -0.66,8.308 -0.66,10.781 0,3.16 0.211,5.641 1.113,11.254 -8.785,-1.113 -11.93,-1.113 -17.109,-1.113 h -22.965 l -26.567,0.214 -15.312,0.465 c 0.902,-17.793 1.133,-25 1.582,-36.257 V 312.41 262.883 c 0,-16.211 -0.211,-26.797 -0.449,-31.953 -0.449,-4.512 -0.903,-11.719 -1.809,-20.95 5.184,0.442 9.027,0.665 11.715,0.665 3.156,0 7.879,-0.223 14.187,-0.911 -1.593,19.602 -1.593,22.981 -1.593,50 v 19.133 h 23.664 c 9.437,0 15.297,-0.461 29.476,-2.265 -0.445,4.738 -0.683,8.332 -0.683,10.82 0,2.922 0.238,5.625 1.144,11.484 -12.168,-1.804 -16.433,-2.019 -26.8,-2.019 h -26.567 v 9.453 26.328 l 0.238,9.004 h 24.079 c 6.082,0 15.757,-0.434 23.867,-1.359 2.019,-0.215 5.183,-0.442 9.449,-1.094 m -127.356,-4.074 c 1.133,4.953 1.575,6.527 3.153,11.273 1.355,3.824 1.804,4.937 4.051,8.98 -6.747,2.485 -9.457,3.372 -14.625,4.5 -7.196,1.59 -14.188,2.481 -21.61,2.481 -15.988,0 -26.789,-3.824 -35.344,-12.379 -7.652,-7.645 -12.164,-18.469 -12.164,-29.941 0,-13.274 4.95,-22.957 15.532,-30.371 5.41,-3.86 9.683,-6.094 21.175,-11.282 11.684,-5.41 15.082,-6.98 20.243,-10.586 7.894,-5.379 11.714,-11.675 11.714,-19.129 0,-15.312 -12.39,-25.664 -30.378,-25.664 -7.879,0 -15.989,1.809 -23.434,5.633 -5.184,2.485 -8.324,4.719 -15.523,10.813 -1.813,-10.594 -2.7,-13.743 -6.754,-22.532 10.562,-5.156 14.871,-6.519 25.882,-8.093 5.622,-0.887 10.364,-1.348 15.086,-1.348 20.262,0 35.34,6.523 45.024,19.141 6.527,8.781 9.687,17.793 9.687,27.453 0,7.215 -1.816,14.414 -5.179,19.597 -4.286,6.77 -10.813,11.7 -25.899,19.122 -21.152,10.593 -24.312,12.167 -29.258,15.996 -5.621,4.504 -8.789,10.593 -8.789,17.336 0,13.066 9.235,21.597 23.2,21.597 3.82,0 9.671,-1.109 14.414,-2.461 7.406,-2.468 11.238,-4.285 19.796,-10.136"
         style="fill:#ffffff;fill-opacity:1;fill-rule:nonzero;stroke:none"
         id="path14" />
      <path
         d="m 1848.3,179.734 c 16.73,0 25.36,8.645 25.36,20.325 0,11.687 -7.02,17.773 -20.32,19.582 l -3.42,0.464 c -7.41,1.047 -10.09,3.418 -10.09,7.129 0,4.082 2.96,7.036 8.66,7.036 5.33,0 10.07,-1.711 15.02,-4.946 0.46,-0.281 0.94,-0.183 1.32,0.285 l 5.8,8.645 c 0.46,0.664 0.38,1.043 -0.19,1.426 -5.41,4.175 -13.39,6.738 -21.95,6.738 -13.96,0 -22.88,-7.883 -22.88,-19.746 0,-11.406 7.3,-17.59 20.41,-19.387 l 3.41,-0.476 c 7.71,-1.047 9.99,-3.418 9.99,-7.231 0,-4.558 -3.8,-7.691 -10.55,-7.691 -6.84,0 -12.63,3.23 -16.9,6.648 -0.49,0.383 -1.05,0.383 -1.43,-0.09 l -7.21,-8.269 c -0.48,-0.567 -0.29,-1.231 0.09,-1.613 5.03,-4.84 14.81,-8.829 24.88,-8.829 z m -81.02,1.996 c 0,-0.57 0.38,-0.949 0.95,-0.949 h 41.41 c 0.57,0 0.95,0.379 0.95,0.949 v 10.157 c 0,0.574 -0.38,0.945 -0.95,0.945 h -27.84 c -0.38,0 -0.57,0.195 -0.57,0.574 v 13.41 c 0,0.379 0.19,0.567 0.57,0.567 h 23.18 c 0.57,0 0.95,0.383 0.95,0.945 v 10.063 c 0,0.574 -0.38,0.957 -0.95,0.957 h -23.18 c -0.38,0 -0.57,0.183 -0.57,0.562 v 12.832 c 0,0.383 0.19,0.578 0.57,0.578 h 27.84 c 0.57,0 0.95,0.379 0.95,0.95 v 10.156 c 0,0.562 -0.38,0.945 -0.95,0.945 h -41.41 c -0.57,0 -0.95,-0.383 -0.95,-0.945 z m -61.09,13.868 c 3.42,-10.547 11.68,-15.864 22.98,-15.864 10.93,0 18.91,5.317 22.52,14.336 0.28,0.481 0.09,0.95 -0.48,1.145 l -10.35,4.656 c -0.57,0.285 -1.05,0.09 -1.33,-0.476 -1.81,-4.18 -4.85,-7.317 -10.26,-7.317 -5.04,0 -8.27,2.656 -9.69,7.121 -0.76,2.383 -1.05,4.656 -1.05,13.875 0,9.223 0.29,11.504 1.05,13.879 1.42,4.465 4.65,7.129 9.69,7.129 5.41,0 8.45,-3.137 10.26,-7.324 0.28,-0.567 0.76,-0.762 1.33,-0.469 l 10.35,4.656 c 0.57,0.188 0.76,0.664 0.48,1.133 -3.61,9.027 -11.59,14.34 -22.52,14.34 -11.3,0 -19.56,-5.313 -22.98,-15.852 -1.42,-4.187 -1.8,-7.507 -1.8,-17.492 0,-9.976 0.38,-13.301 1.8,-17.476 z m -68.4,-13.868 c 0,-0.57 0.38,-0.949 0.95,-0.949 h 10.73 c 0.57,0 0.95,0.379 0.95,0.949 v 40.567 h 0.47 l 22.91,-40.567 c 0.38,-0.667 0.85,-0.949 1.61,-0.949 h 11.3 c 0.57,0 0.95,0.379 0.95,0.949 v 62.696 c 0,0.562 -0.38,0.945 -0.95,0.945 h -10.73 c -0.57,0 -0.95,-0.383 -0.95,-0.945 V 203.77 h -0.47 l -22.81,40.656 c -0.38,0.664 -0.95,0.945 -1.62,0.945 h -11.39 c -0.57,0 -0.95,-0.383 -0.95,-0.945 z m -61.46,0 c 0,-0.57 0.38,-0.949 0.95,-0.949 h 41.41 c 0.57,0 0.95,0.379 0.95,0.949 v 10.157 c 0,0.574 -0.38,0.945 -0.95,0.945 h -27.84 c -0.38,0 -0.57,0.195 -0.57,0.574 v 13.41 c 0,0.379 0.19,0.567 0.57,0.567 h 23.18 c 0.57,0 0.95,0.383 0.95,0.945 v 10.063 c 0,0.574 -0.38,0.957 -0.95,0.957 h -23.18 c -0.38,0 -0.57,0.183 -0.57,0.562 v 12.832 c 0,0.383 0.19,0.578 0.57,0.578 h 27.84 c 0.57,0 0.95,0.379 0.95,0.95 v 10.156 c 0,0.562 -0.38,0.945 -0.95,0.945 h -41.41 c -0.57,0 -0.95,-0.383 -0.95,-0.945 z m -34.11,0 c 0,-0.57 0.38,-0.949 0.95,-0.949 h 12.06 c 0.57,0 0.95,0.379 0.95,0.949 v 62.696 c 0,0.562 -0.38,0.945 -0.95,0.945 h -12.06 c -0.57,0 -0.95,-0.383 -0.95,-0.945 z m -61.56,13.868 c 3.42,-10.547 11.68,-15.864 22.98,-15.864 10.93,0 18.91,5.317 22.52,14.336 0.28,0.481 0.09,0.95 -0.48,1.145 l -10.35,4.656 c -0.57,0.285 -1.05,0.09 -1.33,-0.476 -1.81,-4.18 -4.85,-7.317 -10.26,-7.317 -5.04,0 -8.27,2.656 -9.69,7.121 -0.76,2.383 -1.05,4.656 -1.05,13.875 0,9.223 0.29,11.504 1.05,13.879 1.42,4.465 4.65,7.129 9.69,7.129 5.41,0 8.45,-3.137 10.26,-7.324 0.28,-0.567 0.76,-0.762 1.33,-0.469 l 10.35,4.656 c 0.57,0.188 0.76,0.664 0.48,1.133 -3.61,9.027 -11.59,14.34 -22.52,14.34 -11.3,0 -19.56,-5.313 -22.98,-15.852 -1.42,-4.187 -1.8,-7.507 -1.8,-17.492 0,-9.976 0.38,-13.301 1.8,-17.476 z m -41.04,-15.864 c 16.72,0 25.36,8.645 25.36,20.325 0,11.687 -7.02,17.773 -20.32,19.582 l -3.42,0.464 c -7.42,1.047 -10.08,3.418 -10.08,7.129 0,4.082 2.95,7.036 8.65,7.036 5.32,0 10.08,-1.711 15.01,-4.946 0.48,-0.281 0.95,-0.183 1.33,0.285 l 5.79,8.645 c 0.48,0.664 0.38,1.043 -0.19,1.426 -5.41,4.175 -13.39,6.738 -21.94,6.738 -13.97,0 -22.89,-7.883 -22.89,-19.746 0,-11.406 7.31,-17.59 20.42,-19.387 l 3.42,-0.476 c 7.7,-1.047 9.98,-3.418 9.98,-7.231 0,-4.558 -3.8,-7.691 -10.55,-7.691 -6.84,0 -12.64,3.23 -16.91,6.648 -0.47,0.383 -1.04,0.383 -1.42,-0.09 l -7.22,-8.269 c -0.47,-0.567 -0.28,-1.231 0.1,-1.613 5.03,-4.84 14.81,-8.829 24.88,-8.829 z m -90.06,14.055 v 38.574 c 0,0.379 0.19,0.575 0.57,0.575 h 7.32 c 6.46,0 10.36,-1.903 11.97,-7.125 0.67,-1.907 1.05,-4.375 1.05,-12.739 0,-8.355 -0.38,-10.828 -1.05,-12.73 -1.61,-5.227 -5.51,-7.129 -11.97,-7.129 h -7.32 c -0.38,0 -0.57,0.191 -0.57,0.574 z M 1335.6,181.73 c 0,-0.57 0.38,-0.949 0.95,-0.949 h 24.03 c 11.31,0 19.19,4.844 22.32,14.524 1.14,3.613 1.71,7.222 1.71,17.769 0,10.547 -0.57,14.16 -1.71,17.778 -3.13,9.675 -11.01,14.519 -22.32,14.519 h -24.03 c -0.57,0 -0.95,-0.383 -0.95,-0.945 z m -58.23,0 c 0,-0.57 0.38,-0.949 0.95,-0.949 h 41.41 c 0.57,0 0.95,0.379 0.95,0.949 v 10.157 c 0,0.574 -0.38,0.945 -0.95,0.945 h -27.84 c -0.38,0 -0.57,0.195 -0.57,0.574 v 13.41 c 0,0.379 0.19,0.567 0.57,0.567 h 23.18 c 0.57,0 0.95,0.383 0.95,0.945 v 10.063 c 0,0.574 -0.38,0.957 -0.95,0.957 h -23.18 c -0.38,0 -0.57,0.183 -0.57,0.562 v 12.832 c 0,0.383 0.19,0.578 0.57,0.578 h 27.84 c 0.57,0 0.95,0.379 0.95,0.95 v 10.156 c 0,0.562 -0.38,0.945 -0.95,0.945 h -41.41 c -0.57,0 -0.95,-0.383 -0.95,-0.945 z m -30.78,0 c 0,-0.57 0.38,-0.949 0.95,-0.949 h 12.05 c 0.57,0 0.95,0.379 0.95,0.949 v 62.696 c 0,0.562 -0.38,0.945 -0.95,0.945 h -12.05 c -0.57,0 -0.95,-0.383 -0.95,-0.945 z m -59.37,0 c 0,-0.57 0.38,-0.949 0.95,-0.949 h 42.07 c 0.57,0 0.95,0.379 0.95,0.949 v 10.536 c 0,0.578 -0.38,0.949 -0.95,0.949 h -28.5 c -0.38,0 -0.57,0.191 -0.57,0.574 v 50.637 c 0,0.562 -0.38,0.945 -0.95,0.945 h -12.05 c -0.57,0 -0.95,-0.383 -0.95,-0.945 z m -40.76,34.188 h -10.65 c -0.38,0 -0.57,0.195 -0.57,0.574 v 16.25 c 0,0.383 0.19,0.578 0.57,0.578 h 10.65 c 5.89,0 9.41,-3.515 9.41,-8.75 0,-5.222 -3.52,-8.652 -9.41,-8.652 z m -12.17,-35.137 c 0.57,0 0.95,0.379 0.95,0.949 v 21.571 c 0,0.383 0.19,0.566 0.57,0.566 h 11.5 c 13.97,0 22.51,8.543 22.51,20.703 0,12.356 -8.45,20.801 -22.51,20.801 h -25.07 c -0.57,0 -0.95,-0.383 -0.95,-0.945 V 181.73 c 0,-0.57 0.38,-0.949 0.95,-0.949 z m -50.63,35.137 h -10.64 c -0.38,0 -0.57,0.195 -0.57,0.574 v 16.25 c 0,0.383 0.19,0.578 0.57,0.578 h 10.64 c 5.9,0 9.41,-3.515 9.41,-8.75 0,-5.222 -3.51,-8.652 -9.41,-8.652 z m -12.16,-35.137 c 0.57,0 0.95,0.379 0.95,0.949 v 21.571 c 0,0.383 0.19,0.566 0.57,0.566 h 11.5 c 13.96,0 22.51,8.543 22.51,20.703 0,12.356 -8.45,20.801 -22.51,20.801 h -25.08 c -0.57,0 -0.95,-0.383 -0.95,-0.945 V 181.73 c 0,-0.57 0.38,-0.949 0.95,-0.949 z m -64.22,24.121 7.32,22.61 h 0.28 l 7.32,-22.61 z M 985.43,181.73 c -0.192,-0.57 0,-0.949 0.664,-0.949 h 12.445 c 0.664,0 1.047,0.282 1.234,0.949 l 3.617,11.305 H 1026 l 3.7,-11.305 c 0.19,-0.667 0.57,-0.949 1.24,-0.949 h 12.35 c 0.66,0 0.85,0.379 0.66,0.949 l -21.85,62.696 c -0.19,0.562 -0.57,0.945 -1.23,0.945 h -11.97 c -0.67,0 -1.05,-0.383 -1.24,-0.945 L 985.43,181.73 v 0"
         style="fill:#ffffff;fill-opacity:1;fill-rule:nonzero;stroke:none"
         id="path16" />
      <path
         d="m 1519.71,295.73 c 0,-0.562 0.38,-0.945 0.95,-0.945 h 12.06 c 0.57,0 0.95,0.383 0.95,0.945 v 24.321 c 0,0.379 0.19,0.574 0.57,0.574 h 23.18 c 0.57,0 0.95,0.383 0.95,0.945 v 10.063 c 0,0.562 -0.38,0.945 -0.95,0.945 h -23.18 c -0.38,0 -0.57,0.195 -0.57,0.574 v 13.594 c 0,0.383 0.19,0.567 0.57,0.567 h 27.83 c 0.57,0 0.95,0.382 0.95,0.957 v 10.152 c 0,0.57 -0.38,0.949 -0.95,0.949 h -41.41 c -0.57,0 -0.95,-0.379 -0.95,-0.949 z m -42.56,10.344 c -5.32,0 -8.75,2.664 -10.17,7.129 -0.76,2.285 -1.05,5.418 -1.05,13.875 0,8.457 0.29,11.594 1.05,13.867 1.42,4.477 4.85,7.129 10.17,7.129 5.32,0 8.74,-2.652 10.17,-7.129 0.76,-2.273 1.04,-5.41 1.04,-13.867 0,-8.457 -0.28,-11.59 -1.04,-13.875 -1.43,-4.465 -4.85,-7.129 -10.17,-7.129 z m 0,-12.336 c 11.31,0 20.23,5.215 23.55,15.664 1.43,4.465 1.81,8.078 1.81,17.676 0,9.602 -0.38,13.203 -1.81,17.68 -3.32,10.437 -12.24,15.656 -23.55,15.656 -11.31,0 -20.24,-5.219 -23.56,-15.656 -1.42,-4.477 -1.8,-8.078 -1.8,-17.68 0,-9.598 0.38,-13.211 1.8,-17.676 3.32,-10.449 12.25,-15.664 23.56,-15.664 z m -91.3,1.047 c 0.57,0 0.95,0.383 0.95,0.945 v 24.797 l 19.09,37.895 c 0.29,0.473 0,0.949 -0.66,0.949 h -11.97 c -0.67,0 -1.14,-0.285 -1.43,-0.949 l -11.68,-23.559 h -0.28 l -11.68,23.559 c -0.29,0.664 -0.76,0.949 -1.43,0.949 h -12.35 c -0.66,0 -0.85,-0.476 -0.66,-0.949 l 19.09,-37.895 V 295.73 c 0,-0.562 0.38,-0.945 0.95,-0.945 z m -66.41,0 c 0.57,0 0.95,0.383 0.95,0.945 v 50.637 c 0,0.379 0.19,0.567 0.57,0.567 h 16.34 c 0.57,0 0.95,0.379 0.95,0.957 v 10.531 c 0,0.57 -0.38,0.949 -0.95,0.949 h -47.77 c -0.57,0 -0.95,-0.379 -0.95,-0.949 v -10.531 c 0,-0.578 0.38,-0.957 0.95,-0.957 h 16.34 c 0.38,0 0.57,-0.188 0.57,-0.567 V 295.73 c 0,-0.562 0.38,-0.945 0.95,-0.945 z m -79.88,0.945 c 0,-0.562 0.38,-0.945 0.95,-0.945 h 42.07 c 0.57,0 0.95,0.383 0.95,0.945 v 10.54 c 0,0.566 -0.38,0.949 -0.95,0.949 h -28.5 c -0.38,0 -0.57,0.183 -0.57,0.562 v 50.641 c 0,0.566 -0.38,0.949 -0.95,0.949 h -12.05 c -0.57,0 -0.95,-0.383 -0.95,-0.949 z m -42.75,-1.992 c 14.44,0 24.69,8.735 24.69,24.785 v 39.899 c 0,0.566 -0.38,0.949 -0.95,0.949 h -12.05 c -0.57,0 -0.95,-0.383 -0.95,-0.949 v -40.277 c 0,-7.696 -4.28,-12.071 -10.74,-12.071 -6.56,0 -10.84,4.375 -10.84,12.071 v 40.277 c 0,0.566 -0.38,0.949 -0.95,0.949 h -12.05 c -0.57,0 -0.95,-0.383 -0.95,-0.949 v -39.899 c 0,-16.05 10.25,-24.785 24.79,-24.785 z m -86.35,15.852 c 3.41,-10.535 11.67,-15.852 22.98,-15.852 10.92,0 18.9,5.317 22.51,14.336 0.29,0.473 0.1,0.949 -0.47,1.137 l -10.36,4.656 c -0.57,0.281 -1.04,0.098 -1.33,-0.469 -1.8,-4.187 -4.84,-7.324 -10.26,-7.324 -5.03,0 -8.26,2.664 -9.69,7.129 -0.76,2.371 -1.04,4.656 -1.04,13.875 0,9.223 0.28,11.496 1.04,13.867 1.43,4.477 4.66,7.129 9.69,7.129 5.42,0 8.46,-3.133 10.26,-7.312 0.29,-0.567 0.76,-0.762 1.33,-0.481 l 10.36,4.66 c 0.57,0.196 0.76,0.664 0.47,1.145 -3.61,9.016 -11.59,14.328 -22.51,14.328 -11.31,0 -19.57,-5.312 -22.98,-15.851 -1.43,-4.18 -1.81,-7.512 -1.81,-17.485 0,-9.976 0.38,-13.308 1.81,-17.488 z m -49.03,9.305 7.32,22.621 h 0.28 l 7.32,-22.621 z m -21.85,-23.165 c -0.19,-0.562 0,-0.945 0.67,-0.945 h 12.44 c 0.67,0 1.05,0.281 1.24,0.945 l 3.61,11.313 h 22.61 l 3.7,-11.313 c 0.19,-0.664 0.57,-0.945 1.24,-0.945 h 12.35 c 0.66,0 0.85,0.383 0.66,0.945 l -21.85,62.692 c -0.19,0.566 -0.57,0.949 -1.23,0.949 h -11.97 c -0.67,0 -1.05,-0.383 -1.24,-0.949 z m -49.299,0 c 0,-0.562 0.379,-0.945 0.949,-0.945 h 12.06 c 0.57,0 0.95,0.383 0.95,0.945 v 24.321 c 0,0.379 0.19,0.574 0.57,0.574 h 23.18 c 0.57,0 0.95,0.383 0.95,0.945 v 10.063 c 0,0.562 -0.38,0.945 -0.95,0.945 h -23.18 c -0.38,0 -0.57,0.195 -0.57,0.574 v 13.594 c 0,0.383 0.19,0.567 0.57,0.567 h 27.83 c 0.57,0 0.95,0.382 0.95,0.957 v 10.152 c 0,0.57 -0.38,0.949 -0.95,0.949 h -41.41 c -0.57,0 -0.949,-0.379 -0.949,-0.949 v -62.692 0"
         style="fill:#ffffff;fill-opacity:1;fill-rule:nonzero;stroke:none"
         id="path18" />
    </g>
  </g>
</svg>
