<?xml version="1.0" encoding="UTF-8" standalone="no"?>
<!-- Created with Inkscape (http://www.inkscape.org/) -->

<svg
   version="1.1"
   id="svg2"
   width="800"
   height="400"
   viewBox="0 0 800 400"
   sodipodi:docname="SPB-Logo_Rec White16.eps"
   xmlns:inkscape="http://www.inkscape.org/namespaces/inkscape"
   xmlns:sodipodi="http://sodipodi.sourceforge.net/DTD/sodipodi-0.dtd"
   xmlns="http://www.w3.org/2000/svg"
   xmlns:svg="http://www.w3.org/2000/svg">
  <defs
     id="defs6" />
  <sodipodi:namedview
     id="namedview4"
     pagecolor="#ffffff"
     bordercolor="#000000"
     borderopacity="0.25"
     inkscape:showpageshadow="2"
     inkscape:pageopacity="0.0"
     inkscape:pagecheckerboard="0"
     inkscape:deskcolor="#d1d1d1" />
  <g
     id="g8"
     inkscape:groupmode="layer"
     inkscape:label="ink_ext_XXXXXX"
     transform="matrix(1.3333333,0,0,-1.3333333,0,400)">
    <g
       id="g10"
       transform="scale(0.1)">
      <path
         d="m 5778.43,488.5 v 2013 H 280.074 V 488.5 Z M 600.973,1150 c 52.39,47.77 277.004,276.96 496.797,258.34 63.19,-5.34 118.75,-16.45 199.13,-55.04 149.11,-71.58 327.17,-143.95 576.82,-102.51 -20.54,-135.05 -35.62,-285.829 -56.16,-420.86 -60.02,-28.532 -308.98,-138.379 -582.88,-138.379 -273.871,0 -506.539,104.578 -566.141,132 C 644.953,950.07 624.563,1023.49 600.973,1150 Z m 1302.847,346.34 c 0,-34.15 -2.49,-69.51 -8.09,-102.19 0,0 -97.14,-31.67 -170.14,-27.91 -241.19,12.47 -364.5,93.13 -407.97,113.07 -13.7,6.29 -51.37,8.43 -178.51,69.21 -13.57,6.48 49.2,20.61 49.2,20.61 0,0 -206.001,276.35 -332.009,188.39 -78.063,-54.5 -40.332,-200.35 28.394,-256.92 7.203,-9.67 -147.402,-31.49 -297.562,-217.17 -15.637,-19.33 -22.281,172.56 -22.281,248.54 0,554.39 466.938,639.74 484.658,649.94 140.52,80.91 89.42,127.75 89.42,127.75 0,0 68.85,19.16 161.81,-51.1 56.1,-42.39 137.52,-95.09 137.52,-95.09 320.78,-133.42 465.56,-397.43 465.56,-667.13 z M 5708.58,562.75 h -3514.5 v 1864.5 h 3514.5 z m -3862.75,922.99 c 17.28,344.02 -245.89,627.56 -595.12,651.01 -443.105,29.75 -674.569,-340.95 -501.39,-473.39 0,0 -10.187,105.27 97.051,155.19 158.679,73.87 295.669,-112.14 359.099,-176.1 80.67,-81.31 183.34,-153.36 311.28,-189.62 232.18,-65.79 326.11,-13.69 326.11,-13.69 1.86,17.4 2.59,28.79 2.97,46.6 z m -260.03,409.31 c -235.38,-137.54 -106.22,-370.31 -106.22,-370.31 -179.83,180.07 3.87,382.23 106.22,370.31 z m 101.49,-218.63 c -0.83,-32.59 -28.17,-58.56 -60.77,-57.74 -32.58,0.83 -58.57,28.17 -57.74,60.77 0.83,32.6 28.17,58.58 60.77,57.74 32.6,-0.83 58.58,-28.17 57.74,-60.77"
         style="fill:#ffffff;fill-opacity:1;fill-rule:nonzero;stroke:none"
         id="path12" />
      <path
         d="m 2702.89,1433.24 c 142.52,-24.42 250.56,86.64 250.56,196.71 0,111.23 -195.53,169.77 -195.53,265.78 0,78.45 119.43,227.15 248.22,295.06 -12.88,-134.65 -94.84,-229.49 -156.89,-278.67 5.85,-26.93 30.44,-43.32 65.57,-43.32 117.08,0 202.55,132.31 202.55,247.05 0,70.25 -56.2,103.04 -98.35,111.23 -14.05,24.59 -46.83,35.13 -74.93,35.13 -121.77,0 -312.62,-175.63 -312.62,-338.38 0,-135.82 183.82,-188.51 183.82,-273.98 0,-42.15 -34.25,-108.06 -146.34,-83.54 -166.52,36.43 -238.98,190.46 -270.6,218.56 -7.02,-134.64 135.3,-322.63 304.54,-351.63"
         style="fill:#ffffff;fill-opacity:1;fill-rule:nonzero;stroke:none"
         id="path14" />
      <path
         d="m 2398.35,1790.08 124.89,-72.86 -78.05,-67.64 z"
         style="fill:#ffffff;fill-opacity:1;fill-rule:nonzero;stroke:none"
         id="path16" />
      <path
         d="m 3158.31,1444.35 c 95.84,2.31 338.32,279.43 396.06,430.7 10.39,27.71 -24.25,47.34 -26.56,48.49 -66.97,-93.53 -225.16,-297.9 -377.58,-352.17 35.79,91.22 91.22,208.99 138.56,301.37 35.8,1.15 68.13,2.31 88.91,5.77 33.49,4.62 64.66,72.75 48.5,85.45 -5.78,4.62 -40.42,6.93 -85.45,8.08 15.01,28.87 26.56,49.65 30.02,55.42 13.86,20.79 -27.71,68.13 -83.13,68.13 -23.1,-32.33 -49.65,-75.05 -76.21,-123.55 -55.43,-1.15 -101.61,-4.62 -108.54,-8.08 -26.56,-13.86 -1.16,-80.83 28.86,-83.14 9.24,-1.15 19.63,-2.31 28.87,-2.31 -60.04,-120.09 -112,-243.64 -112,-293.29 0,-30.02 8.08,-50.8 34.64,-61.2 10.39,-38.1 35.79,-80.82 75.05,-79.67 z m 829.05,424.92 c 13.86,27.72 -18.47,48.5 -26.55,48.5 -127.02,-196.3 -275.97,-357.95 -436.47,-352.18 -10.39,0 -21.94,2.31 -33.49,5.78 1.16,38.1 10.39,79.67 26.56,120.08 9.24,-20.78 35.79,-45.03 64.66,-45.03 83.14,0 218.24,132.79 218.24,234.4 0,23.09 -16.17,43.88 -35.8,55.43 -5.77,27.71 -24.25,58.88 -92.37,58.88 -123.55,0 -286.36,-193.98 -286.36,-337.16 0,-43.88 18.47,-75.06 45.03,-92.38 13.85,-77.36 72.74,-121.24 146.64,-121.24 123.55,0 340.63,285.21 409.91,424.92 z m -461.87,-158.19 c 42.72,98.15 121.24,187.06 203.22,209 -32.33,-80.83 -132.78,-191.68 -203.22,-209 z m 667.4,-177.82 c 127.01,0 287.51,301.37 311.76,344.1 16.16,27.71 -13.86,48.49 -26.56,48.49 -58.89,-80.82 -189.37,-278.27 -317.53,-299.06 9.23,12.7 145.48,181.29 145.48,300.22 0,42.72 -39.25,66.97 -73.89,66.97 -30.03,0 -86.61,-85.45 -107.39,-136.25 -16.17,-40.42 -23.09,-94.69 -20.78,-146.65 -60.05,-70.43 -125.86,-132.79 -188.22,-152.41 51.96,130.47 113.16,252.87 180.13,367.18 -1.15,20.79 -65.81,55.43 -103.92,54.27 -19.63,0 -182.44,-292.13 -182.44,-371.8 0,-40.42 34.64,-64.67 68.13,-73.9 4.62,-39.26 25.4,-90.07 69.28,-90.07 38.1,0 112,61.2 182.44,143.18 15.01,-32.33 35.79,-54.27 63.51,-54.27 z m 679.55,217.17 c 13.86,27.71 -18.47,48.5 -26.55,48.5 -127.02,-196.3 -216.55,-239.11 -377.05,-233.34 -10.39,0 -21.94,2.31 -33.49,5.78 1.16,38.1 10.39,79.67 26.56,120.08 9.24,-20.78 35.8,-45.03 64.66,-45.03 83.14,0 218.24,132.79 218.24,234.4 0,23.09 -16.17,43.88 -35.8,55.43 -5.77,27.71 -24.25,58.88 -92.37,58.88 -123.55,0 -286.36,-193.98 -286.36,-337.16 0,-43.88 18.47,-75.06 45.03,-92.38 13.86,-77.36 72.74,-121.24 146.64,-121.24 123.55,0 281.21,166.37 350.49,306.08 z m -402.45,-39.35 c 42.73,98.15 121.24,187.06 203.23,209 -32.33,-80.83 -132.79,-191.68 -203.23,-209 z m 650.78,-266.73 c 42.72,0 84.29,21.94 116.62,55.43 26.56,3.46 53.11,12.7 80.83,28.86 66.97,40.42 169.73,196.3 243.63,340.63 15.01,30.03 -19.63,49.65 -26.55,50.81 -88.92,-127.01 -151.27,-222.85 -235.56,-287.52 1.16,6.93 1.16,15.02 1.16,23.1 0,76.21 -40.42,176.66 -56.58,212.46 17.32,26.56 60.04,58.89 80.82,91.22 -11.54,48.5 -45.03,81.98 -70.43,81.98 -38.11,0 -129.33,-90.06 -129.33,-131.63 0,-5.78 1.16,-10.39 2.31,-16.17 -61.19,-85.44 -116.62,-160.5 -165.12,-220.54 -17.32,-21.94 -3.46,-58.89 27.72,-58.89 28.86,0 106.23,121.24 158.19,213.62 13.85,-41.57 28.86,-90.07 28.86,-139.72 0,-72.75 -51.96,-118.93 -106.23,-118.93 -34.64,0 -57.73,17.32 -78.51,45.03 -4.62,-12.7 -5.78,-26.56 -5.78,-40.41 0,-63.51 43.88,-129.33 133.95,-129.33"
         style="fill:#ffffff;fill-opacity:1;fill-rule:nonzero;stroke:none"
         id="path18" />
      <path
         d="m 4986.33,2262.72 c -29.93,-92.13 -76.76,-150.76 -88.81,-186.99 -12.05,-36.22 2.07,-72.69 41.8,-84.84 41.77,-12.61 72.86,12.57 75.2,63 3.37,49.17 -28.19,208.83 -28.19,208.83"
         style="fill:#ffffff;fill-opacity:1;fill-rule:nonzero;stroke:none"
         id="path20" />
      <path
         d="m 2799.78,1192.72 h -94.59 V 746.461 h 60.64 v 181.848 h 33.95 c 65.48,0 90.95,23.992 90.95,83.671 v 97.06 c 0,60.25 -25.47,83.68 -90.95,83.68 z m 30.32,-186.32 c 0,-23.42 -10.31,-33.47 -30.32,-33.47 h -33.95 v 175.16 h 33.95 c 20.01,0 30.32,-10.04 30.32,-33.47 z m 230.4,108.22 V 824.551 c 0,-60.242 26.07,-83.672 93.98,-83.672 h 1.21 c 67.91,0 93.99,23.98 93.99,83.672 v 290.069 c 0,60.25 -26.08,83.68 -93.99,83.68 h -1.21 c -67.3,0 -93.98,-23.99 -93.98,-83.68 z m 93.98,37.38 h 1.21 c 21.83,0 33.35,-10.04 33.35,-33.47 V 820.648 c 0,-23.429 -11.52,-33.468 -33.35,-33.468 h -1.21 c -21.22,0 -33.35,10.039 -33.35,33.468 v 297.882 c 0,23.98 12.13,33.47 33.35,33.47 z m 428.07,-405.539 h 65.48 l -92.77,262.729 88.53,183.53 h -64.28 l -84.28,-190.22 v 190.22 H 3434.6 V 746.461 h 60.63 v 163.437 l 21.23,50.762 z M 3952.4,1294.8 h -63.06 l -46.08,-72.52 h 42.45 z m -87.31,-503.718 v 164.559 h 84.89 v 44.629 h -84.89 v 147.82 h 97.01 v 44.63 H 3804.46 V 746.461 h 160.68 v 44.621 z m 650.58,188.547 c 24.86,11.711 35.78,35.141 35.78,73.631 v 55.78 c 0,60.25 -25.47,83.68 -90.95,83.68 h -95.2 V 746.461 h 101.26 c 65.49,0 90.95,23.98 90.95,83.668 v 72.519 c 0,41.84 -12.12,65.821 -41.84,76.981 z m -55.17,168.461 c 20.01,0 30.31,-10.04 30.31,-33.47 v -83.67 c 0,-23.43 -10.3,-33.47 -30.31,-33.47 h -34.56 v 150.61 z m 36.38,-323.539 c 0,-23.43 -10.31,-33.469 -30.32,-33.469 h -40.62 v 161.77 h 40.62 c 20.01,0 30.32,-10.043 30.32,-33.473 z m 362.58,-78.09 h 66.69 l -69.12,446.259 h -80.04 l -69.12,-446.259 h 66.7 l 9.7,86.461 h 65.48 z m -70.34,131.09 23.04,203.599 4.85,49.65 4.85,-49.65 23.04,-203.599 z m 483.85,8.359 c -0.61,42.961 -9.7,67.5 -38.2,77.539 27.89,11.16 40.02,35.141 40.02,75.871 v 69.72 c 0,60.25 -25.47,83.68 -90.95,83.68 h -95.2 V 746.461 h 60.64 V 938.91 h 26.67 c 26.08,0 35.78,-10.039 36.38,-33.469 l 3.04,-158.98 H 5276 Z m -89.13,262.18 c 20.01,0 30.31,-10.04 30.31,-33.47 V 1017 c 0,-23.43 -10.3,-33.469 -30.31,-33.469 h -34.56 v 164.559 h 34.56"
         style="fill:#ffffff;fill-opacity:1;fill-rule:nonzero;stroke:none"
         id="path22" />
    </g>
  </g>
</svg>
