<svg width="321" height="45" viewBox="0 0 321 45" fill="none" xmlns="http://www.w3.org/2000/svg">
<path d="M7.26 14.3456C7.26 12.0708 9.2444 10.5704 12.5356 10.5704C16.0688 10.5704 18.3436 12.2644 19.118 15.9428H26.0392C24.9744 8.53757 19.36 5.34317 12.7292 5.34317C4.9368 5.34317 0.6292 9.69917 0.6292 14.9264C0.6292 28.0428 20.2796 21.7508 20.2796 30.124C20.2796 32.786 18.1984 34.48 14.1328 34.48C10.164 34.48 7.6472 32.544 6.8244 29.0592H0C1.2584 36.2224 6.5824 39.7072 14.0844 39.7072C21.538 39.7072 26.9588 35.932 26.9588 29.3012C26.9588 15.846 7.26 22.2348 7.26 14.3456Z" fill="white"/>
<path d="M31.7088 38.9812H38.2428V25.7196H53.0048V20.5408H38.2428V11.248H54.844V6.06917H31.7088V38.9812Z" fill="white"/>
<path d="M86.7941 26.4456V6.06917H80.3085V26.4456C80.3085 31.4308 77.6465 34.4316 73.0969 34.4316C68.5957 34.4316 65.9337 31.4308 65.9337 26.4456V6.06917H59.3997V26.4456C59.3997 34.6736 64.6269 39.7072 73.0969 39.7072C81.5669 39.7072 86.7941 34.6736 86.7941 26.4456Z" fill="white"/>
<path d="M107.841 14.3456C107.841 12.0708 109.826 10.5704 113.117 10.5704C116.65 10.5704 118.925 12.2644 119.699 15.9428H126.62C125.556 8.53757 119.941 5.34317 113.31 5.34317C105.518 5.34317 101.21 9.69917 101.21 14.9264C101.21 28.0428 120.861 21.7508 120.861 30.124C120.861 32.786 118.78 34.48 114.714 34.48C110.745 34.48 108.228 32.544 107.406 29.0592H100.581C101.84 36.2224 107.164 39.7072 114.666 39.7072C122.119 39.7072 127.54 35.932 127.54 29.3012C127.54 15.846 107.841 22.2348 107.841 14.3456Z" fill="white"/>
<path d="M159.394 26.4456V6.06917H152.908V26.4456C152.908 31.4308 150.246 34.4316 145.697 34.4316C141.196 34.4316 138.534 31.4308 138.534 26.4456V6.06917H132V26.4456C132 34.6736 137.227 39.7072 145.697 39.7072C154.167 39.7072 159.394 34.6736 159.394 26.4456Z" fill="white"/>
<path d="M165.612 38.9812H172.146V26.2036H177.954C181.197 26.2036 182.456 26.8812 183.23 30.2692L185.166 38.9812H191.942L189.474 29.0592C188.796 26.3488 187.78 24.6064 186.086 23.5416C188.893 22.0412 190.49 19.476 190.49 15.7976C190.49 9.79597 185.892 6.06917 178.487 6.06917H165.612V38.9812ZM178.342 11.248C181.826 11.248 183.811 13.184 183.811 16.1364C183.811 19.1372 181.875 21.0732 178.196 21.0732H172.146V11.248H178.342Z" fill="white"/>
<path d="M224.984 38.9812V21.5572H211.674V26.494H218.789C218.354 31.9632 215.062 34.2864 210.997 34.2864C205.382 34.2864 202.043 29.9304 202.043 22.5736C202.043 15.2168 205.237 10.764 210.755 10.764C214.433 10.764 217.192 12.7 218.208 16.2332H225.033C223.532 9.06997 217.773 5.34317 210.948 5.34317C201.317 5.34317 195.364 11.974 195.364 22.5736C195.364 33.2216 201.317 39.7072 210.368 39.7072C214.433 39.7072 217.87 38.1584 219.902 34.8188L220.435 38.9812H224.984Z" fill="white"/>
<path d="M230.886 38.9812H254.021V33.8024H237.42V24.6064H252.182V19.476H237.42V11.248H254.021V6.06917H230.886V38.9812Z" fill="white"/>
<path fill-rule="evenodd" clip-rule="evenodd" d="M298.8 44.2455C310.95 44.2455 320.8 34.3957 320.8 22.2455C320.8 10.0952 310.95 0.245453 298.8 0.245453C286.649 0.245453 276.8 10.0952 276.8 22.2455C276.8 34.3957 286.649 44.2455 298.8 44.2455ZM292.438 23.8188L300.153 4.05939L306.106 14.2083L298.616 19.4659L302.366 24.145L306.115 28.8244L294.186 37.9704L297.816 25.7881L292.438 23.8188Z" fill="white"/>
</svg>