<?xml version="1.0" standalone="no"?>
<!DOCTYPE svg PUBLIC "-//W3C//DTD SVG 20010904//EN"
 "http://www.w3.org/TR/2001/REC-SVG-20010904/DTD/svg10.dtd">
<svg version="1.0" xmlns="http://www.w3.org/2000/svg"
 width="2000.000000pt" height="2000.000000pt" viewBox="0 0 2000.000000 2000.000000"
 preserveAspectRatio="xMidYMid meet">
<metadata>
Created by potrace 1.16, written by Peter Selinger 2001-2019
</metadata>
<g transform="translate(0.000000,2000.000000) scale(0.100000,-0.100000)"
fill="#5E5C56" stroke="none">
<path d="M9710 16415 c-8 -2 -49 -9 -90 -15 -77 -12 -260 -55 -295 -69 -72
-29 -110 -49 -186 -97 -47 -30 -90 -54 -94 -54 -13 0 -131 -101 -230 -196 -35
-34 -68 -64 -72 -66 -5 -1 -25 -27 -46 -55 -70 -97 -130 -135 -232 -150 -16
-2 -82 -13 -145 -23 -63 -11 -173 -29 -245 -40 -71 -11 -143 -23 -160 -26 -16
-3 -43 -8 -60 -10 -16 -3 -68 -12 -115 -20 -47 -8 -125 -22 -175 -30 -81 -14
-313 -71 -440 -108 -69 -20 -316 -109 -395 -141 -36 -15 -101 -39 -145 -55
-44 -15 -145 -59 -225 -98 -80 -39 -165 -80 -190 -91 -25 -11 -67 -34 -95 -51
-27 -17 -75 -43 -105 -58 -58 -29 -100 -55 -215 -131 -38 -26 -85 -53 -104
-61 -19 -7 -46 -25 -60 -39 -31 -31 -126 -101 -135 -101 -8 0 -63 -38 -84 -58
-7 -6 -35 -26 -60 -44 -75 -51 -170 -125 -271 -212 -94 -80 -383 -362 -454
-443 -51 -58 -238 -311 -261 -353 -10 -19 -28 -51 -39 -70 -118 -202 -198
-375 -250 -540 -97 -309 -120 -592 -77 -950 28 -235 29 -239 132 -505 48 -124
50 -129 59 -147 5 -10 9 -24 9 -31 0 -21 34 -85 94 -177 222 -341 371 -504
633 -694 37 -28 91 -66 118 -86 74 -54 306 -180 332 -180 5 0 15 -6 21 -12 7
-7 16 -13 20 -13 4 0 21 -5 37 -12 17 -6 71 -23 120 -38 50 -14 128 -38 175
-53 47 -14 94 -28 104 -29 11 -2 45 -10 75 -17 31 -8 78 -17 105 -21 27 -3 52
-8 56 -10 3 -2 34 -6 69 -9 35 -3 114 -11 175 -17 215 -22 899 -14 1091 11 73
10 99 14 200 25 33 4 98 13 145 21 47 8 108 17 135 20 28 3 61 9 75 14 27 9
137 30 185 36 68 8 345 61 405 78 8 3 65 16 125 31 61 14 175 42 255 61 80 19
163 39 185 44 43 10 94 22 110 26 6 1 37 12 70 24 33 12 123 37 200 56 77 19
190 51 250 71 103 34 438 128 496 139 14 2 79 21 145 40 65 20 148 44 183 55
36 10 117 30 180 44 64 14 186 43 271 65 85 22 164 42 175 44 11 2 43 10 70
16 71 17 86 20 120 25 17 2 80 14 140 25 61 11 124 23 140 25 17 3 50 10 75
15 25 5 99 16 165 25 66 8 165 22 220 30 136 21 323 31 620 34 487 4 874 -35
1096 -109 31 -11 85 -24 120 -29 104 -17 340 -97 561 -191 13 -5 46 -23 73
-40 28 -17 90 -51 139 -76 88 -45 132 -72 170 -106 11 -10 26 -18 33 -18 7 0
13 -4 13 -10 0 -5 7 -10 15 -10 8 0 15 -4 15 -9 0 -5 10 -11 23 -15 13 -3 34
-15 48 -26 13 -11 42 -36 64 -54 22 -19 63 -52 90 -74 63 -49 410 -400 463
-467 21 -28 51 -70 67 -94 15 -25 36 -54 47 -65 11 -12 29 -37 41 -56 11 -19
24 -37 27 -40 11 -10 80 -119 80 -127 0 -4 16 -32 35 -60 19 -29 35 -57 35
-62 0 -5 6 -16 13 -23 6 -8 20 -27 29 -43 15 -27 37 -37 30 -14 -1 5 3 9 9 9
5 0 7 4 4 10 -3 5 -8 18 -10 27 -11 59 -67 214 -111 308 -12 28 -26 62 -29 78
-4 15 -11 27 -16 27 -5 0 -9 5 -9 10 0 22 -76 169 -132 256 -15 23 -33 57 -41
76 -47 112 -258 398 -437 593 -84 91 -236 231 -347 321 -76 61 -180 132 -308
208 -71 42 -137 81 -145 86 -20 12 -200 100 -225 110 -152 60 -464 169 -510
177 -16 3 -68 16 -113 29 -73 21 -151 35 -317 59 -22 3 -83 12 -135 20 -52 7
-124 16 -160 20 -36 3 -92 8 -125 11 -130 13 -802 12 -985 -1 -102 -7 -219
-16 -260 -19 -41 -2 -122 -11 -180 -20 -58 -8 -130 -17 -160 -20 -30 -3 -82
-10 -115 -16 -33 -5 -109 -16 -170 -24 -60 -9 -121 -18 -135 -20 -60 -13 -78
-16 -125 -21 -27 -3 -93 -12 -145 -21 -52 -8 -113 -17 -135 -20 -22 -3 -47 -7
-55 -10 -21 -7 -365 -73 -420 -80 -25 -3 -48 -8 -51 -10 -4 -2 -24 -6 -45 -9
-35 -6 -194 -34 -219 -40 -13 -2 -73 -14 -105 -19 -14 -3 -45 -9 -70 -15 -57
-13 -325 -67 -365 -74 -16 -3 -52 -10 -80 -15 -27 -6 -75 -13 -105 -17 -30 -3
-86 -13 -125 -22 -38 -8 -106 -21 -150 -28 -44 -8 -111 -20 -150 -28 -115 -24
-421 -74 -565 -93 -19 -3 -120 -16 -225 -29 -334 -44 -532 -58 -850 -59 -403
-1 -626 22 -880 89 -55 15 -113 30 -130 35 -154 38 -371 135 -495 219 -33 22
-64 41 -69 41 -5 0 -11 4 -13 8 -1 4 -42 38 -89 74 -75 59 -155 137 -239 234
-28 32 -80 110 -80 119 0 4 -13 26 -30 50 -61 88 -145 305 -184 476 -35 154
-41 353 -16 509 5 30 12 71 15 90 3 19 8 42 10 50 2 8 7 30 10 48 8 46 70 225
101 292 14 30 48 92 75 136 27 45 49 85 49 89 0 3 6 13 13 20 19 22 31 38 57
75 91 132 283 320 465 455 22 16 45 34 52 40 28 23 42 33 128 90 50 33 92 62
95 65 17 17 404 210 421 210 4 0 20 5 36 12 15 6 62 23 103 38 41 15 119 44
172 63 87 32 234 68 328 81 43 6 256 43 290 51 14 3 106 14 205 26 259 29 594
22 764 -17 182 -42 245 -61 309 -95 77 -42 104 -69 143 -147 19 -37 52 -91 74
-122 22 -30 58 -81 79 -114 44 -67 242 -268 309 -314 25 -18 71 -46 103 -63
33 -18 66 -37 74 -44 32 -28 118 -73 165 -87 28 -9 86 -27 130 -41 132 -42
256 -60 410 -60 77 1 167 6 200 12 33 7 72 14 87 16 37 5 196 51 279 80 61 22
295 158 345 202 12 10 43 36 70 58 113 94 188 181 254 298 17 31 35 57 40 57
4 0 13 15 20 33 14 35 62 148 90 212 20 47 52 141 56 170 18 112 22 169 18
285 -7 193 -32 333 -80 445 -7 17 -25 62 -40 100 -16 39 -43 95 -61 125 -18
30 -33 60 -33 67 0 6 -3 13 -7 15 -9 3 -86 105 -99 130 -12 22 -172 188 -206
213 -127 94 -166 120 -258 167 -105 54 -256 107 -360 127 -30 6 -79 15 -108
21 -47 9 -322 13 -362 5z m425 -650 c124 -49 178 -75 183 -87 2 -5 9 -8 15 -8
19 0 180 -170 220 -232 43 -66 66 -116 103 -230 24 -73 27 -99 28 -213 0 -111
-3 -140 -23 -200 -99 -292 -297 -482 -586 -560 -83 -22 -120 -26 -214 -26 -62
1 -117 3 -121 6 -5 3 -32 10 -60 15 -100 19 -288 117 -377 196 -60 54 -149
171 -167 220 -10 27 -30 78 -43 114 -57 144 -65 227 -38 378 15 88 22 108 91
247 36 73 62 109 138 188 87 90 103 102 198 146 186 88 243 101 423 97 105 -3
116 -5 230 -51z"/>
<path d="M3784 10708 c4 -29 14 -75 23 -103 43 -142 57 -183 69 -210 20 -47
104 -263 104 -269 0 -8 58 -126 105 -211 20 -38 55 -104 78 -145 52 -97 158
-260 216 -331 25 -31 55 -69 66 -85 36 -50 253 -273 325 -334 141 -119 183
-152 260 -205 47 -32 87 -61 90 -64 21 -27 287 -171 420 -226 36 -15 110 -48
165 -72 149 -67 136 -62 330 -108 61 -15 155 -38 210 -51 126 -31 175 -41 250
-55 101 -17 107 -18 223 -24 62 -4 125 -10 140 -14 37 -11 315 -17 657 -13
243 2 389 9 575 27 25 2 86 7 135 10 115 8 152 12 250 29 75 13 172 26 240 32
17 1 44 5 60 8 17 4 62 11 101 16 38 5 104 16 145 24 40 8 97 17 124 20 28 2
62 7 78 10 28 6 42 9 112 21 22 4 94 18 160 32 66 14 147 30 180 34 33 5 87
16 120 24 33 8 105 22 160 30 55 9 111 18 125 21 14 2 61 9 105 15 44 6 89 15
100 20 11 5 40 13 65 18 25 5 101 20 170 34 125 25 148 29 395 68 114 18 237
41 300 56 11 2 34 6 50 8 17 1 50 8 75 15 25 7 54 14 65 16 11 2 72 12 135 23
63 11 174 27 245 36 72 8 141 17 155 19 14 2 43 7 65 10 22 3 51 8 65 11 36 6
316 43 375 49 341 35 922 30 1145 -8 74 -13 139 -27 175 -36 42 -11 46 -12
159 -36 229 -48 593 -219 761 -358 55 -45 286 -274 324 -320 37 -45 109 -170
156 -271 65 -139 121 -326 144 -483 14 -90 15 -338 2 -447 -22 -184 -99 -453
-167 -580 -9 -16 -31 -57 -48 -90 -52 -97 -153 -238 -235 -327 -18 -21 -41
-48 -50 -60 -44 -63 -303 -303 -416 -386 -70 -51 -233 -147 -305 -179 -19 -8
-46 -23 -60 -33 -14 -9 -72 -38 -130 -64 -58 -27 -128 -59 -157 -72 -70 -31
-282 -102 -330 -110 -21 -3 -47 -11 -58 -17 -11 -6 -21 -10 -22 -9 -2 1 -4 2
-5 1 -2 0 -10 -2 -18 -4 -51 -11 -118 -29 -135 -36 -11 -4 -33 -11 -50 -13
-16 -3 -52 -10 -80 -16 -149 -31 -289 -41 -585 -42 -168 0 -318 2 -335 5 -16
3 -66 8 -110 12 -84 7 -190 32 -278 65 -28 11 -60 20 -69 20 -10 0 -18 5 -18
12 0 6 -3 9 -6 5 -7 -7 -95 36 -154 76 -66 45 -117 94 -175 167 -57 72 -64 83
-130 220 -26 52 -74 130 -107 174 -33 44 -65 91 -71 103 -6 13 -14 23 -19 23
-5 0 -6 5 -3 10 3 6 2 10 -2 10 -5 0 -40 30 -78 68 -80 76 -132 119 -225 183
-79 54 -205 129 -217 129 -5 0 -28 9 -51 20 -22 11 -47 20 -55 20 -7 0 -17 4
-23 10 -13 13 -147 47 -254 65 -97 17 -374 20 -447 6 -26 -6 -68 -12 -93 -15
-89 -10 -258 -72 -400 -146 -19 -10 -51 -27 -70 -37 -19 -9 -44 -25 -54 -35
-11 -10 -23 -18 -28 -18 -4 0 -44 -30 -89 -66 -136 -110 -197 -169 -241 -234
-13 -19 -40 -57 -60 -85 -39 -55 -138 -228 -138 -240 0 -5 -8 -17 -17 -27 -9
-10 -18 -27 -20 -37 -1 -10 -12 -40 -24 -67 -31 -71 -47 -131 -54 -199 -3 -33
-12 -85 -20 -115 -14 -55 -36 -273 -30 -294 2 -6 6 -56 9 -111 6 -109 10 -136
32 -235 20 -84 41 -155 64 -205 9 -22 21 -51 25 -65 19 -61 134 -265 172 -305
10 -11 30 -37 45 -58 22 -33 83 -100 120 -133 7 -7 26 -26 41 -43 16 -17 53
-47 83 -67 30 -20 54 -39 54 -43 0 -8 202 -131 214 -131 3 0 24 -11 45 -24 99
-63 192 -91 416 -126 231 -37 515 -19 711 45 41 14 204 91 259 123 17 9 55 31
86 49 31 17 64 40 74 50 10 10 30 27 45 38 15 11 87 78 161 149 79 75 149 134
171 143 21 8 38 19 38 24 0 5 8 9 18 9 10 0 22 4 27 9 6 5 69 19 140 31 72 12
133 24 137 26 3 2 73 7 155 10 267 10 689 53 798 82 22 6 81 18 130 27 93 17
217 50 320 86 33 11 124 43 203 70 79 27 155 55 170 64 15 8 50 23 77 34 140
53 263 107 314 137 31 19 61 34 67 34 17 0 278 142 294 160 3 3 25 16 50 29
58 32 298 188 374 243 32 24 84 60 115 81 31 21 72 53 91 70 19 18 60 51 90
73 30 23 66 52 81 65 14 13 47 42 73 64 132 108 334 309 415 410 30 39 95 117
144 174 49 58 92 112 95 120 3 9 18 32 32 51 72 92 192 310 283 511 29 65 113
292 132 359 39 136 77 489 69 647 -17 344 -36 461 -105 660 -22 65 -52 152
-66 193 -28 84 -67 165 -118 245 -19 30 -35 57 -35 60 0 3 -22 39 -50 81 -27
41 -50 78 -50 80 0 6 -127 183 -146 204 -8 8 -39 47 -71 85 -32 39 -64 74 -71
79 -8 4 -24 19 -35 33 -45 53 -258 236 -306 264 -14 8 -34 22 -45 32 -39 35
-191 118 -356 196 -104 48 -220 91 -380 137 -30 9 -73 22 -95 29 -103 34 -328
73 -540 95 -145 15 -695 22 -815 10 -52 -5 -162 -14 -245 -20 -215 -16 -254
-20 -310 -31 -27 -6 -70 -13 -95 -15 -56 -7 -354 -63 -525 -99 -38 -8 -119
-24 -178 -35 -60 -11 -112 -22 -116 -24 -3 -2 -27 -7 -51 -11 -25 -3 -88 -19
-140 -34 -109 -32 -285 -80 -315 -86 -11 -2 -22 -4 -25 -5 -3 -1 -8 -2 -12 -1
-4 0 -27 -6 -50 -14 -24 -8 -70 -21 -103 -29 -287 -74 -409 -107 -460 -126
-33 -12 -76 -25 -95 -30 -35 -7 -194 -52 -320 -90 -36 -11 -108 -31 -160 -45
-52 -15 -112 -33 -133 -41 -20 -8 -48 -14 -60 -14 -13 0 -27 -4 -32 -8 -6 -5
-44 -16 -85 -25 -145 -32 -326 -76 -465 -112 -77 -20 -212 -49 -300 -65 -88
-16 -223 -40 -300 -53 -77 -14 -158 -30 -180 -36 -39 -10 -56 -13 -160 -26
-27 -3 -81 -10 -120 -15 -149 -20 -392 -32 -685 -33 -267 -2 -552 7 -569 18
-3 1 -37 6 -76 9 -38 4 -97 11 -130 17 -146 24 -282 51 -300 59 -11 5 -83 27
-160 49 -127 36 -304 101 -330 120 -5 4 -39 18 -75 31 -95 33 -285 131 -385
197 -49 32 -95 63 -104 68 -39 24 -178 130 -197 149 -11 12 -51 48 -89 81
-113 99 -271 265 -343 360 -4 6 -31 40 -60 77 -28 37 -52 72 -52 77 0 5 -4 11
-9 13 -5 2 -30 37 -57 78 -26 41 -54 81 -61 88 -7 7 -13 19 -13 26 0 8 -7 19
-15 26 -9 7 -37 56 -62 109 -122 254 -194 346 -179 229z m6301 -5093 c153 -55
242 -107 332 -194 147 -141 247 -326 282 -521 13 -73 5 -294 -13 -375 -15 -68
-87 -239 -107 -255 -4 -3 -16 -24 -28 -47 -23 -46 -158 -193 -177 -193 -7 0
-14 -4 -16 -8 -6 -16 -233 -130 -286 -144 -221 -57 -426 -26 -648 98 -64 35
-197 142 -247 197 -59 65 -128 203 -174 347 -32 100 -33 341 -2 470 17 70 58
176 83 212 12 18 37 58 55 88 53 89 191 210 291 257 229 108 254 114 435 108
107 -4 131 -8 220 -40z"/>
<path d="M5360 2231 c-164 -52 -241 -151 -244 -311 -1 -65 3 -81 26 -121 55
-93 110 -124 317 -178 202 -52 259 -89 268 -174 8 -65 -23 -118 -84 -148 -67
-33 -198 -34 -260 -1 -57 30 -94 82 -114 161 l-17 66 -80 0 c-44 0 -84 -3 -88
-8 -13 -13 13 -142 41 -199 51 -104 141 -169 273 -197 103 -22 251 -6 333 36
119 60 189 185 176 313 -17 159 -89 219 -360 299 -218 64 -247 84 -247 172 0
42 5 55 35 87 40 45 88 62 176 62 119 0 178 -50 203 -172 12 -58 15 -63 42
-66 15 -2 53 -1 83 3 l54 7 -7 61 c-10 101 -34 156 -97 217 -75 75 -79 77
-147 94 -80 21 -212 20 -282 -3z"/>
<path d="M11650 1680 l0 -550 335 0 c382 0 351 -8 350 95 l0 60 -257 3 -258 2
0 470 0 470 -85 0 -85 0 0 -550z"/>
<path d="M13332 1683 l3 -548 68 -3 c80 -3 97 6 97 54 l0 34 53 -40 c69 -54
139 -74 237 -68 129 8 219 73 281 204 124 266 -7 582 -254 613 -119 15 -219
-17 -289 -92 l-28 -29 0 211 0 211 -85 0 -85 0 2 -547z m485 78 c67 -31 123
-137 123 -233 0 -57 -36 -154 -71 -193 -61 -66 -152 -84 -238 -45 -81 37 -117
96 -127 208 -12 123 34 213 131 258 61 29 125 30 182 5z"/>
<path d="M8140 1929 c-125 -24 -236 -122 -276 -241 -28 -83 -34 -212 -14 -289
19 -71 70 -157 118 -199 69 -61 138 -84 257 -84 95 -1 103 1 175 36 41 20 90
51 109 69 35 34 66 93 56 109 -6 10 -109 60 -124 60 -6 0 -11 -4 -11 -8 0 -5
-17 -27 -37 -49 -54 -58 -130 -81 -209 -64 -85 19 -164 104 -164 177 l0 24
285 0 c258 0 286 2 292 17 10 25 -15 176 -38 239 -22 59 -94 140 -151 169 -80
41 -172 53 -268 34z m175 -168 c51 -23 73 -49 89 -103 l13 -43 -198 -2 -199
-3 0 24 c0 36 56 105 103 127 54 24 139 24 192 0z"/>
<path d="M10630 1921 c-35 -11 -66 -24 -68 -30 -2 -6 -10 -11 -18 -11 -7 0
-21 -12 -31 -27 -10 -16 -23 -31 -30 -36 -35 -22 -43 -158 -13 -217 35 -68 94
-104 212 -126 194 -36 248 -63 248 -122 0 -63 -50 -93 -155 -95 -66 -2 -77 1
-117 28 -28 20 -51 48 -66 79 l-24 49 -46 -6 c-67 -8 -102 -23 -102 -45 0 -10
14 -47 31 -81 55 -109 146 -158 309 -168 81 -4 105 -2 160 17 123 42 179 112
180 224 0 142 -92 215 -327 257 -76 13 -137 43 -151 73 -14 32 15 80 59 95 90
31 194 0 229 -68 l19 -39 68 15 c38 8 72 19 77 23 13 12 -29 92 -71 135 -83
85 -235 116 -373 76z"/>
<path d="M12683 1926 c-65 -15 -143 -54 -143 -72 0 -6 -12 -21 -26 -35 -34
-31 -56 -75 -52 -102 2 -17 16 -24 72 -38 39 -10 73 -16 77 -14 3 3 9 18 12
34 4 18 21 40 43 57 30 23 49 29 104 32 58 4 72 1 107 -21 43 -27 63 -66 63
-122 l0 -33 -147 -4 c-155 -5 -203 -17 -290 -72 -75 -49 -103 -194 -54 -286
47 -91 120 -131 247 -138 100 -5 139 6 209 63 l53 44 24 -34 c29 -43 35 -46
136 -52 l82 -6 0 76 0 76 -30 -1 c-57 -2 -58 3 -62 240 -3 175 -7 224 -20 254
-24 54 -100 123 -155 143 -67 23 -176 28 -250 11z m257 -489 c0 -63 -59 -143
-127 -173 -96 -42 -223 18 -223 106 0 64 84 98 243 99 l107 1 0 -33z"/>
<path d="M14505 1935 c-5 -2 -35 -11 -66 -19 -30 -9 -66 -25 -79 -36 -13 -11
-26 -20 -30 -20 -3 0 -18 -18 -33 -40 -32 -50 -43 -120 -27 -180 27 -101 95
-147 267 -179 164 -32 203 -54 203 -118 0 -40 -18 -60 -69 -78 -66 -23 -127
-19 -188 11 -44 23 -55 34 -75 80 -25 59 -27 60 -111 43 -53 -11 -57 -14 -57
-40 0 -43 43 -131 81 -167 21 -20 63 -41 116 -58 73 -24 93 -26 180 -22 145 7
227 49 275 142 27 52 26 151 -1 204 -35 68 -157 128 -309 153 -114 18 -152 44
-152 103 0 59 114 93 208 62 55 -19 76 -38 86 -78 7 -32 17 -33 101 -9 53 15
60 19 57 41 -4 40 -56 113 -104 148 -61 43 -218 76 -273 57z"/>
<path d="M7288 1920 c-40 -12 -116 -67 -123 -90 -14 -44 -35 -14 -35 51 l0 40
-82 -3 -83 -3 1 -115 c0 -63 1 -240 2 -392 l2 -278 79 0 c73 0 79 2 85 23 3
12 6 114 6 227 0 113 5 222 10 242 26 91 102 158 181 158 19 0 57 -11 86 -24
40 -19 57 -34 75 -68 22 -41 23 -54 26 -300 l3 -258 80 0 79 0 0 280 c0 256
-2 284 -20 333 -11 30 -29 62 -40 72 -11 10 -20 23 -20 29 -1 14 -81 65 -122
77 -39 11 -152 11 -190 -1z"/>
<path d="M6050 1913 c-1 -5 -1 -124 0 -266 1 -225 3 -266 20 -320 39 -127 140
-200 278 -201 92 -1 152 24 215 88 l40 41 -5 -126 c-3 -69 -8 -131 -12 -137
-5 -9 -63 -12 -195 -12 -104 0 -202 -3 -219 -6 -30 -6 -30 -7 -34 -76 -3 -63
-1 -69 18 -74 12 -3 122 -4 245 -2 218 3 225 4 268 28 55 31 81 65 92 121 4
24 8 248 9 497 l0 453 -85 -3 -85 -3 -2 -235 c-3 -233 -3 -235 -30 -290 -31
-62 -65 -93 -124 -109 -76 -21 -127 -8 -174 46 -45 52 -49 82 -50 346 l0 247
-85 0 c-47 0 -85 -3 -85 -7z"/>
<path d="M8656 1912 c-3 -5 18 -40 47 -78 29 -38 72 -98 97 -134 24 -36 57
-80 72 -98 43 -50 45 -75 11 -119 -27 -34 -117 -160 -210 -292 -18 -25 -32
-49 -33 -53 0 -5 43 -8 95 -8 l95 0 58 78 c31 43 77 106 102 140 24 34 47 62
50 62 3 0 26 -28 49 -62 24 -35 69 -98 99 -140 l55 -78 88 0 c48 0 90 4 94 9
3 6 -26 54 -65 108 -38 54 -92 130 -120 168 -27 39 -58 81 -69 94 -12 15 -15
28 -10 35 5 6 39 52 74 101 36 50 78 106 93 125 57 73 100 139 94 144 -3 3
-44 6 -91 6 l-86 0 -42 -55 c-24 -30 -43 -58 -43 -61 0 -4 -8 -14 -19 -23 -10
-9 -26 -31 -35 -48 -9 -18 -20 -33 -25 -33 -4 0 -13 -11 -19 -25 -11 -24 -42
-35 -42 -15 0 12 -42 75 -123 183 l-59 77 -88 0 c-49 0 -91 -4 -94 -8z"/>
<path d="M9555 1638 c8 -336 16 -373 95 -449 47 -46 126 -73 210 -73 88 0 128
16 189 74 l51 49 0 -49 c0 -58 9 -63 105 -58 l60 3 0 390 0 390 -83 0 -83 0
-2 -240 -2 -240 -28 -57 c-34 -70 -75 -98 -155 -105 -77 -7 -132 20 -164 80
-22 40 -23 56 -28 302 l-5 260 -84 3 -84 3 8 -283z"/>
</g>
</svg>
