<svg width="100%" height="100%" class="w-full h-auto h-full w-full" viewBox="0 0 496 342"
  xmlns="http://www.w3.org/2000/svg">
  <path
    d="M76.791 302.606c-15.619-4.405-26.752-11.414-33.4-21.025-6.568-9.612-9.852-21.226-9.852-34.843v-24.63c0-8.97-2.043-15.939-6.128-20.905-4.085-5.046-10.372-7.569-18.863-7.569v-17.661c8.49 0 14.778-2.443 18.863-7.329 4.085-4.966 6.128-11.975 6.128-21.026v-24.75c0-13.696 3.284-25.31 9.852-34.842 6.648-9.612 17.781-16.62 33.4-21.025l4.806 14.057c-8.81 2.803-15.098 7.85-18.863 15.138-3.684 7.209-5.527 16.099-5.527 26.672v24.75c0 8.41-1.682 15.819-5.046 22.227-3.364 6.408-8.45 11.414-15.258 15.018 6.808 3.685 11.894 8.771 15.258 15.259 3.364 6.408 5.046 13.736 5.046 21.986v24.63c0 10.573 1.843 19.424 5.527 26.553 3.765 7.208 10.052 12.254 18.863 15.138l-4.806 14.177Zm342.607 0-4.806-14.177c8.651-2.884 14.858-7.93 18.623-15.138 3.765-7.129 5.647-15.98 5.647-26.553v-24.63c0-8.57 1.802-16.059 5.406-22.467 3.605-6.408 9.172-11.333 16.701-14.778-7.529-3.284-13.096-8.129-16.701-14.537-3.604-6.408-5.406-13.977-5.406-22.708v-24.75c0-10.573-1.882-19.463-5.647-26.672-3.765-7.289-9.972-12.335-18.623-15.138L419.398 67c15.539 4.406 26.592 11.414 33.16 21.026 6.649 9.532 9.973 21.146 9.973 34.842v24.75c0 9.051 2.042 16.06 6.127 21.026 4.085 4.886 10.413 7.329 18.983 7.329v17.661c-8.57 0-14.898 2.523-18.983 7.569-4.085 4.966-6.127 11.935-6.127 20.905v24.63c0 13.617-3.324 25.231-9.973 34.843-6.568 9.611-17.621 16.62-33.16 21.025Z"
    fill="#24138E"></path>
  <path
    d="M385.292 106.026c.604-1.686 2.988-1.686 3.592 0l5.446 15.204c.193.537.616.96 1.153 1.152l15.204 5.447c1.685.604 1.685 2.987 0 3.591l-15.204 5.447c-.537.192-.96.615-1.153 1.152l-5.446 15.204c-.604 1.686-2.988 1.686-3.592 0l-5.446-15.204a1.909 1.909 0 0 0-1.153-1.152l-15.204-5.447c-1.685-.604-1.685-2.987 0-3.591l15.204-5.447c.537-.192.96-.615 1.153-1.152l5.446-15.204Z"
    fill="#FFAA46"></path>
  <path
    d="M155.241 277.484 116.09 128.966l-15.938-1.733v-17.9h62.133v17.9l-17.9 2.657 20.672 86.385 4.273 17.67.693.116 5.313-17.786 33.491-106.942h22.752l34.415 108.675 5.082 17.207h.693l4.504-17.207 21.019-88.118-18.94-2.657v-17.9h60.978v17.9l-14.898 1.733-38.689 148.518H258.95l-33.839-105.903-4.273-15.244h-.693l-4.504 15.475-34.069 105.672h-26.331Z"
    fill="#24138E"></path>
</svg>