<svg width="225" height="131" viewBox="0 0 225 131" fill="none" xmlns="http://www.w3.org/2000/svg">
<path d="M191.657 0H55.4253C46.973 0 39.0309 3.27889 33.0803 9.25374C27.1054 15.2286 23.8266 23.1465 23.8266 31.5987C23.8266 35.0476 24.3609 38.3751 25.4053 41.5325C19.309 42.8441 13.8199 45.7344 9.52091 49.9848C3.37604 56.0568 0 64.5576 0 73.9085C0 83.2593 3.49748 91.9059 9.83666 97.9536C14.0871 102.01 21.5435 106.843 33.056 106.843H54.9881C60.8658 106.843 66.5249 105.216 71.3825 102.301C72.1597 109.612 75.5358 116.485 80.8548 121.537C86.684 127.075 94.4076 130.111 102.544 130.111C114.324 130.111 125.253 125.982 134.143 118.137C138.806 114.032 142.814 109.029 146.335 102.957C150.294 104.827 154.739 105.896 159.402 105.896H192.653C209.557 105.896 223.28 92.1488 223.28 75.2686L222.551 31.8902C222.551 14.8643 208.707 0.0485772 191.681 0.0485772L191.657 0ZM33.0074 82.1178C27.9555 82.1178 25.0652 79.5919 25.0652 74.2971C25.0652 69.0023 27.9555 66.2335 33.0074 66.2335C38.0593 66.2335 40.8282 68.8808 40.8282 74.2971C40.8282 79.7133 38.0593 82.1178 33.0074 82.1178ZM88.9185 82.1178C87.1211 82.1178 84.9352 81.2677 83.7451 79.5919C80.0048 74.4185 71.9411 62.9546 71.9411 62.9546C71.9411 62.9546 63.8775 74.3942 60.1372 79.5919C58.9228 81.2677 56.7611 82.1178 54.9638 82.1178C51.3449 82.1178 48.4546 79.2275 48.4546 75.6086C48.4546 73.8113 49.0618 72.7183 49.7905 71.6254L64.3633 53.3122L50.2762 35.9706C49.3047 34.6347 48.9404 33.4446 48.9404 31.9873C48.9404 28.3684 51.8306 25.4781 55.4496 25.4781C57.4898 25.4781 59.4328 26.4497 60.6229 28.0041L71.9411 43.5484L83.2593 28.0041C84.4737 26.4497 86.3925 25.4781 88.4327 25.4781C92.0516 25.4781 94.9419 28.3684 94.9419 31.9873C94.9419 33.4446 94.5776 34.6347 93.6061 35.9706L79.519 53.3122L94.0918 71.6254C94.8205 72.7183 95.4277 73.787 95.4277 75.6086C95.4277 79.2275 92.5374 82.1178 88.9185 82.1178ZM149.857 34.5376L127.439 85.1295C122.144 96.9335 114.542 105.361 102.495 105.361C98.998 105.361 96.2292 102.836 96.2292 99.338C96.2292 95.8405 98.998 93.3146 102.495 93.3146C110.195 93.3146 113.814 87.1697 117.797 77.2845L99.2409 34.5133C98.998 33.9061 98.7551 33.056 98.7551 31.9873C98.7551 28.3684 101.645 25.4781 105.264 25.4781C108.883 25.4781 110.681 28.0041 111.288 29.5828L124.549 63.076L137.81 29.5828C138.417 28.0284 140.215 25.4781 143.834 25.4781C147.453 25.4781 150.343 28.3684 150.343 31.9873C150.343 33.0803 150.1 33.9061 149.857 34.5133V34.5376ZM192.628 81.1463H159.378C156.366 81.1463 153.84 78.6203 153.84 75.6086C153.84 73.9327 154.448 72.9612 155.176 71.9897L169.53 52.7536L178.614 40.561L181.067 37.2821H160.714C157.702 37.2821 155.298 34.8776 155.298 31.8659C155.298 28.8542 157.702 26.4497 160.714 26.4497H191.681C194.814 26.4497 197.462 29.0971 197.462 32.2302C197.462 33.9061 196.854 34.999 196.126 35.9706L170.696 70.0709H192.628C195.64 70.0709 198.166 72.5969 198.166 75.6086C198.166 78.6203 195.64 81.1463 192.628 81.1463Z" fill="#4A1955"/>
</svg>
